<?xml version="1.0" standalone="no"?>
<!DOCTYPE svg PUBLIC "-//W3C//DTD SVG 1.1//EN" "http://www.w3.org/Graphics/SVG/1.1/DTD/svg11.dtd" >
<svg xmlns="http://www.w3.org/2000/svg" xmlns:xlink="http://www.w3.org/1999/xlink" version="1.1">
<metadata>
Created by FontForge 20160407 at Wed Oct 26 10:26:20 2016
 By Jimmy Warting
Copyright (c) 2011 Fabian Leuenberger and EuropaType. All rights reserved. This Font Software may not be reproduced, modified, disclosed or transferred without the express written approval of EuropaType. EUROPA is a trademark of EuropaType and may be registered in certain jurisdictions. This Font Software is original artwork of Fabian Leuenberger and EuropaType. The design may be protected in certain jurisdictions.
</metadata>
<defs>
<font id="Europa-LightItalic" horiz-adv-x="518" >
  <font-face 
    font-family="Europa"
    font-weight="400"
    font-style="italic"
    font-stretch="normal"
    units-per-em="1000"
    panose-1="2 0 0 0 0 0 0 0 0 0"
    ascent="756"
    descent="-244"
    x-height="455.999"
    cap-height="700"
    bbox="-194 -250.004 1058 947"
    underline-thickness="38"
    underline-position="-39"
    unicode-range="U+0020-2122"
  />
<missing-glyph horiz-adv-x="272" 
 />
    <glyph glyph-name=".notdef" horiz-adv-x="272" 
 />
    <glyph glyph-name="space" unicode=" " horiz-adv-x="272" 
 />
    <glyph glyph-name="exclam" unicode="!" horiz-adv-x="256" 
d="M185 181h-52l92 519h52zM92 28c0 11.333 3.83301 20.833 11.5 28.5s17.167 11.5 28.5 11.5s20.833 -3.83301 28.5 -11.5s11.5 -17.167 11.5 -28.5s-3.83301 -20.833 -11.5 -28.5s-17.167 -11.5 -28.5 -11.5s-20.833 3.83301 -28.5 11.5s-11.5 17.167 -11.5 28.5z" />
    <glyph glyph-name="quotedbl" unicode="&#x22;" horiz-adv-x="334" 
d="M203 700h50l-42 -238h-50zM327 700h50l-42 -238h-50z" />
    <glyph glyph-name="numbersign" unicode="#" horiz-adv-x="634" 
d="M143 -7l77 245h-128l9 48h135l45 144h-130l9 48h136l76 237l47 -7l-73 -230h141l76 237l47 -7l-73 -230h132l-9 -48h-138l-45 -144h133l-9 -48h-140l-79 -252l-48 7l77 245h-141l-79 -252zM286 286h141l45 144h-141z" />
    <glyph glyph-name="dollar" unicode="$" horiz-adv-x="580" 
d="M277 -10c-34 3.33301 -62.0029 12.5 -84.0029 27.5s-39.667 30.833 -53 47.5c-15.333 19.333 -27.333 40.666 -36 63.999l49 26c7.33301 -19.333 17 -37 29 -53c10.667 -13.333 24.334 -26.166 41.001 -38.499s37.667 -20.166 63 -23.499l53 301
c-19.333 10 -37.5 20.667 -54.5 32s-31.833 24 -44.5 38s-22.667 29.667 -30 47s-11 36.666 -11 57.999c0 23.333 4.83301 46.333 14.5 69s23.5 43.167 41.5 61.5s39.667 33.5 65 45.5s53.666 18.667 84.999 20l14 80h45l-15 -82c28 -3.33301 51.667 -10.5 71 -21.5
s35 -22.167 47 -33.5c14 -13.333 25 -28 33 -44l-44 -27c-7.33301 12 -16.333 23.333 -27 34c-9.33301 9.33301 -21.166 17.833 -35.499 25.5s-32.166 13.167 -53.499 16.5l-50 -284l14 -6c42.667 -20.667 75.834 -44 99.501 -70s35.5 -59.667 35.5 -101
c0 -31.333 -5.83301 -59.5 -17.5 -84.5s-27.334 -46.5 -47.001 -64.5s-42.667 -32.167 -69 -42.5s-54.166 -16.5 -83.499 -18.5l-14 -81h-45zM485.997 199c0 30.667 -10.332 55.332 -30.999 73.999s-45.334 35 -74.001 49l-50 -282c19.333 2.66699 38.333 7.83398 57 15.501
s35.167 18.167 49.5 31.5s26 29.333 35 48s13.5 40 13.5 64zM251.998 515.998c0 -28.667 9.00098 -51.834 27.001 -69.501s41.333 -34.167 70 -49.5l46 262c-20 -2 -38.833 -7 -56.5 -15s-32.834 -18.333 -45.501 -31s-22.667 -27.167 -30 -43.5s-11 -34.166 -11 -53.499z
" />
    <glyph glyph-name="percent" unicode="%" horiz-adv-x="712" 
d="M303 712c41.333 0 75.333 -12.332 102 -36.999s40 -58 40 -100c0 -25.333 -5.33301 -48.5 -16 -69.5s-24.5 -39.167 -41.5 -54.5s-35.833 -27.333 -56.5 -36s-41 -13 -61 -13c-41.333 0 -75.333 12.5 -102 37.5s-40 58.5 -40 100.5c0 25.333 5.33301 48.5 16 69.5
s24.5 39.167 41.5 54.5s35.833 27.166 56.5 35.499s41 12.5 61 12.5zM306 666.001c-16.667 0 -32.833 -3.16895 -48.5 -9.50195s-29.5 -15.166 -41.5 -26.499s-21.667 -24.666 -29 -39.999s-11 -32 -11 -50c0 -25.333 7.33301 -47 22 -65s37.667 -27 69 -27
c16.667 0 32.834 3.16699 48.501 9.5s29.667 15.333 42 27s22.166 25.167 29.499 40.5s11 32 11 50c0 25.333 -7.5 46.833 -22.5 64.5s-38.167 26.5 -69.5 26.5zM692.001 728.999l32 -28l-601 -729l-32 28zM571.001 297.999c41.333 0 75.333 -12.332 102 -36.999
s40 -58 40 -100c0 -25.333 -5.33301 -48.5 -16 -69.5s-24.5 -39.167 -41.5 -54.5s-35.833 -27.333 -56.5 -36s-41 -13 -61 -13c-41.333 0 -75.333 12.5 -102 37.5s-40 58.5 -40 100.5c0 25.333 5.33301 48.5 16 69.5s24.5 39.167 41.5 54.5s35.833 27.166 56.5 35.499
s41 12.5 61 12.5zM574.001 252c-16.667 0 -32.833 -3.16895 -48.5 -9.50195s-29.5 -15.166 -41.5 -26.499s-21.667 -24.666 -29 -39.999s-11 -32 -11 -50c0 -25.333 7.33301 -47 22 -65s37.667 -27 69 -27c16.667 0 32.834 3.16699 48.501 9.5s29.667 15.333 42 27
s22.166 25.167 29.499 40.5s11 32 11 50c0 25.333 -7.5 46.833 -22.5 64.5s-38.167 26.5 -69.5 26.5z" />
    <glyph glyph-name="ampersand" unicode="&#x26;" horiz-adv-x="699" 
d="M678 384c-5.33301 -39.333 -12.501 -73.668 -21.501 -103.001s-18.167 -53.666 -27.5 -72.999c-10.667 -22.667 -21.667 -42 -33 -58l106 -113l-37 -37l-102 108c-14.667 -16 -31.834 -31.167 -51.501 -45.5s-41 -27 -64 -38s-46.833 -19.833 -71.5 -26.5
s-49 -10 -73 -10c-35.333 0 -65.666 4.16699 -90.999 12.5s-46.166 19.5 -62.499 33.5s-28.333 30 -36 48s-11.5 36.667 -11.5 56c0 22.667 4.5 43.334 13.5 62.001s22.5 36.667 40.5 54s40.5 35.166 67.5 53.499l93.5 61.5l-40.5 44c-12.333 13.333 -23 26.5 -32 39.5
s-16 26.5 -21 40.5s-7.5 29.667 -7.5 47c0 24.667 5.16699 47.5 15.5 68.5s24.5 39.167 42.5 54.5s38.667 27.333 62 36s48 13 74 13c25.333 0 48 -3.5 68 -10.5s37 -16.667 51 -29s24.833 -27 32.5 -44s11.5 -35.167 11.5 -54.5c0 -25.333 -5.33301 -48 -16 -68
s-24.5 -38.5 -41.5 -55.5s-35.833 -32.833 -56.5 -47.5l-61 -43l163 -173c8 10 15.667 24 23 42c6.66699 15.333 13.667 35.5 21 60.5s14.333 56.5 21 94.5h52zM302.999 38.998c22.667 0 44.999 3.16895 66.999 9.50195s42.833 14.5 62.5 24.5s37.834 21.167 54.501 33.5
s30.667 24.833 42 37.5l-179 190c-26.667 -19.333 -51.667 -36.333 -75 -51s-43.833 -29.167 -61.5 -43.5s-31.667 -29.5 -42 -45.5s-15.5 -34.667 -15.5 -56c0 -18 4 -33.333 12 -46s18.667 -22.834 32 -30.501s28.833 -13.334 46.5 -17.001s36.5 -5.5 56.5 -5.5z
M409.998 661c-16.667 0 -33.334 -2.66797 -50.001 -8.00098s-31.667 -13.333 -45 -24s-24.166 -23.5 -32.499 -38.5s-12.5 -31.833 -12.5 -50.5c0 -15.333 3.33301 -29.666 10 -42.999s14.667 -26 24 -38s19.5 -23.167 30.5 -33.5s20.833 -20.166 29.5 -29.499
c14 10 30 20.833 48 32.5s34.833 24.834 50.5 39.501s29 30.667 40 48s16.5 36.666 16.5 57.999c0 25.333 -9.83301 46.166 -29.5 62.499s-46.167 24.5 -79.5 24.5z" />
    <glyph glyph-name="quotesingle" unicode="'" horiz-adv-x="150" 
d="M173 700h50l-42 -238h-50z" />
    <glyph glyph-name="parenleft" unicode="(" horiz-adv-x="308" 
d="M194 -159c-26.667 54.667 -47.998 107.997 -63.998 159.997s-24 108 -24 168c0 56.667 6 110.834 18 162.501s29 101.334 51 149.001s48.167 93.667 78.5 138s64.166 87.833 101.499 130.5l40 -33c-34 -38.667 -65.5 -78.667 -94.5 -120s-53.833 -84.5 -74.5 -129.5
s-36.834 -92.167 -48.501 -141.5s-17.5 -101 -17.5 -155c0 -49.333 7.5 -99.166 22.5 -149.499s34.833 -100.5 59.5 -150.5z" />
    <glyph glyph-name="parenright" unicode=")" horiz-adv-x="308" 
d="M15 -124c32 38 62.167 77.668 90.5 119.001s53.333 84.5 75 129.5s38.834 92 51.501 141s19 99.833 19 152.5c0 57.333 -6.83301 110.166 -20.5 158.499s-33.167 97.5 -58.5 147.5l45 25c26.667 -55.333 48 -109.166 64 -161.499s24 -108.833 24 -169.5
c0 -56.667 -6 -110.334 -18 -161.001s-29 -99.5 -51 -146.5s-48.333 -92.667 -79 -137s-64.334 -88.5 -101.001 -132.5z" />
    <glyph glyph-name="asterisk" unicode="*" horiz-adv-x="398" 
d="M278 566l26 146h40l-25 -144l140 43l12 -36l-146 -46l62 -116l-35 -20l-62 115l-103 -116l-31 25l102 113l-126 44l14 37z" />
    <glyph glyph-name="plus" unicode="+" horiz-adv-x="520" 
d="M523 214h-201l-37 -214h-50l37 214h-201l9 48h201l36 206h50l-36 -206h201z" />
    <glyph glyph-name="comma" unicode="," horiz-adv-x="219" 
d="M128 88l45 -24l-117 -220l-43 22z" />
    <glyph glyph-name="hyphen" unicode="-" horiz-adv-x="333" 
d="M79 261h267l-9 -48h-267z" />
    <glyph glyph-name="period" unicode="." horiz-adv-x="212" 
d="M70 28c0 11.333 3.83301 20.833 11.5 28.5s17.167 11.5 28.5 11.5s20.833 -3.83301 28.5 -11.5s11.5 -17.167 11.5 -28.5s-3.83301 -20.833 -11.5 -28.5s-17.167 -11.5 -28.5 -11.5s-20.833 3.83301 -28.5 11.5s-11.5 17.167 -11.5 28.5z" />
    <glyph glyph-name="slash" unicode="/" horiz-adv-x="485" 
d="M40 -126l-41 25l554 893l42 -26z" />
    <glyph glyph-name="zero" unicode="0" horiz-adv-x="592" 
d="M413 712c36 0 67 -7 93 -21s47.5 -33 64.5 -57s29.667 -52.333 38 -85s12.5 -67.667 12.5 -105c0 -32 -3 -65.5 -9 -100.5s-15 -69.5 -27 -103.5s-26.833 -66.167 -44.5 -96.5s-38.334 -57 -62.001 -80s-50.167 -41.333 -79.5 -55s-61.333 -20.5 -96 -20.5
c-36 0 -67.167 6.83301 -93.5 20.5s-48.166 32.5 -65.499 56.5s-30.166 52.333 -38.499 85s-12.5 68 -12.5 106c0 32 3 65.5 9 100.5s15 69.5 27 103.5s27 66.167 45 96.5s38.833 57 62.5 80s50.167 41.333 79.5 55s61.666 20.5 96.999 20.5zM303 39
c44 0 82.333 13.332 115 39.999s60 60.334 82 101.001s38.5 84.5 49.5 131.5s16.5 91.167 16.5 132.5c0 28.667 -2.66699 56 -8 82s-14 49 -26 69s-27.833 36 -47.5 48s-43.5 18 -71.5 18c-29.333 0 -56.166 -6.16699 -80.499 -18.5s-46.333 -29 -66 -50
s-36.834 -45.167 -51.501 -72.5s-27 -56 -37 -86s-17.5 -60.333 -22.5 -91s-7.5 -59.667 -7.5 -87c0 -28.667 2.83301 -56.167 8.5 -82.5s14.667 -49.5 27 -69.5s28.333 -35.833 48 -47.5s43.5 -17.5 71.5 -17.5z" />
    <glyph glyph-name="one" unicode="1" horiz-adv-x="388" 
d="M334 700h45l-123 -700h-52l110 626l-165 -114l-26 41z" />
    <glyph glyph-name="two" unicode="2" horiz-adv-x="532" 
d="M381 335l42.5 44.001c14.333 15.333 27.5 31.5 39.5 48.5s21.833 35.333 29.5 55s11.5 40.5 11.5 62.5c0 15.333 -2.5 30 -7.5 44s-12.833 26.333 -23.5 37s-23.834 19.167 -39.501 25.5s-34.5 9.5 -56.5 9.5c-32 0 -59 -6.33301 -81 -19s-40.333 -26.667 -55 -42
c-17.333 -18 -31.666 -38.333 -42.999 -61l-46 25c13.333 27.333 31 52 53 74c18 18.667 41.167 35.667 69.5 51s62.5 23 102.5 23c27.333 0 52.166 -4 74.499 -12s41.333 -19.333 57 -34s27.834 -32.334 36.501 -53.001s13 -43.334 13 -68.001
c0 -14.667 -1.66699 -29.5 -5 -44.5s-9.33301 -31.167 -18 -48.5s-20.5 -36.166 -35.5 -56.499s-34.5 -42.833 -58.5 -67.5l-271 -280h312l-8 -48h-418z" />
    <glyph glyph-name="three" unicode="3" horiz-adv-x="544" 
d="M328 382c22.667 0 44.4971 4.00195 65.4971 12.002s39.5 19.333 55.5 34s28.833 32.167 38.5 52.5s14.5 42.833 14.5 67.5c0 34 -11.5 61.333 -34.5 82s-53.5 31 -91.5 31c-30 0 -55.5 -5.33301 -76.5 -16s-38.167 -22.667 -51.5 -36
c-16 -15.333 -29.333 -32.333 -40 -51l-45 25c12.667 24 29.334 45.333 50.001 64c17.333 16 39.333 30.833 66 44.5s59 20.5 97 20.5c26.667 0 51 -4 73 -12s40.833 -19.167 56.5 -33.5s27.834 -31.666 36.501 -51.999s13 -42.5 13 -66.5
c0 -46.667 -11.833 -85.334 -35.5 -116.001s-54.167 -55.667 -91.5 -75c17.333 -5.33301 32.666 -14 45.999 -26c11.333 -10.667 21.833 -25.334 31.5 -44.001s14.5 -43.334 14.5 -74.001c0 -33.333 -6.66699 -63.833 -20 -91.5s-31.166 -51.334 -53.499 -71.001
s-48.5 -35 -78.5 -46s-62 -16.5 -96 -16.5c-42 0 -76.167 7.66699 -102.5 23s-46.833 32.666 -61.5 51.999c-17.333 22 -29.666 47.333 -36.999 76l49 22c6 -23.333 15.333 -43.666 28 -60.999c11.333 -15.333 26.833 -29.333 46.5 -42s45.5 -19 77.5 -19
c25.333 0 49.833 4 73.5 12s44.5 19.5 62.5 34.5s32.333 33.333 43 55s16 45.834 16 72.501c0 36 -12.167 64.5 -36.5 85.5s-59.833 31.5 -106.5 31.5h-41l9 52h36v0z" />
    <glyph glyph-name="four" unicode="4" horiz-adv-x="540" 
d="M487 700h49l-80 -453h97l-8 -48h-97l-35 -199h-52l35 199h-359zM404 247l64 364l-327 -364h263z" />
    <glyph glyph-name="five" unicode="5" horiz-adv-x="575" 
d="M561 252c0 -35.333 -7.00195 -69.002 -21.002 -101.002s-33.167 -60 -57.5 -84s-52.666 -43.167 -84.999 -57.5s-66.833 -21.5 -103.5 -21.5c-42 0 -76.167 7.5 -102.5 22.5s-46.833 31.5 -61.5 49.5c-17.333 21.333 -29.666 45.333 -36.999 72l50 22
c6 -21.333 15.333 -40.666 28 -57.999c11.333 -14.667 26.666 -27.834 45.999 -39.501s45 -17.5 77 -17.5c27.333 0 53.833 5.66699 79.5 17s48.334 26.833 68.001 46.5s35.334 42.334 47.001 68.001s17.5 52.834 17.5 81.501c0 43.333 -13.333 78.333 -40 105
s-65 40 -115 40c-27.333 0 -52.833 -4.33301 -76.5 -13s-44.167 -18 -61.5 -28c-20.667 -12 -39.334 -25.667 -56.001 -41l68 385h387l-9 -48h-335l-42 -238c12.667 6 26.334 11.667 41.001 17c12.667 4 26.667 7.83301 42 11.5s31.666 5.5 48.999 5.5
c29.333 0 56.5 -4.33301 81.5 -13s46.5 -21.334 64.5 -38.001s32 -37.167 42 -61.5s15 -52.166 15 -83.499z" />
    <glyph glyph-name="six" unicode="6" horiz-adv-x="548" 
d="M260 420c7.33301 3.33301 15.6641 6.33301 24.9971 9c8 2.66699 17.5 5 28.5 7s23.167 3 36.5 3c31.333 0 58.833 -5.33301 82.5 -16s43.5 -24.667 59.5 -42s28.167 -37.5 36.5 -60.5s12.5 -46.5 12.5 -70.5c0 -33.333 -6.83301 -65.666 -20.5 -96.999
s-32.167 -59.333 -55.5 -84s-50.666 -44.334 -81.999 -59.001s-65 -22 -101 -22c-33.333 0 -62.166 5.5 -86.499 16.5s-44.666 25.667 -60.999 44s-28.5 39 -36.5 62s-12 46.5 -12 70.5c0 30 5.83301 58.5 17.5 85.5s26.167 53.167 43.5 78.5l26 35l39 51.5l47 61.5l50 65
l127 164l39 -31zM343.998 388c-27.333 0 -53.3301 -5.33203 -77.9971 -15.999s-46.334 -25.334 -65.001 -44.001s-33.334 -40.667 -44.001 -66s-16 -52.333 -16 -81c0 -41.333 12.667 -75.333 38 -102s59.666 -40 102.999 -40c26.667 0 52.5 5.66699 77.5 17
s46.833 26.833 65.5 46.5s33.667 42.167 45 67.5s17 52 17 80c0 42 -12.833 75.5 -38.5 100.5s-60.5 37.5 -104.5 37.5z" />
    <glyph glyph-name="seven" unicode="7" horiz-adv-x="508" 
d="M175 700h454l-493 -711l-41 26l442 637h-371z" />
    <glyph glyph-name="eight" unicode="8" horiz-adv-x="564" 
d="M398 712c29.333 0 54.8301 -4.50293 76.4971 -13.5029s39.834 -20.833 54.501 -35.5s25.5 -31.5 32.5 -50.5s10.5 -38.167 10.5 -57.5c0 -37.333 -10 -72.5 -30 -105.5s-49.667 -59.5 -89 -79.5c24.667 -13.333 44.834 -33.166 60.501 -59.499s23.5 -55.833 23.5 -88.5
c0 -32 -7 -62.167 -21 -90.5s-32.5 -53.166 -55.5 -74.499s-49.5 -38.166 -79.5 -50.499s-61 -18.5 -93 -18.5s-60.167 4.83301 -84.5 14.5s-44.5 22.5 -60.5 38.5s-28 34.5 -36 55.5s-12 43.167 -12 66.5c0 22.667 3.66699 44.667 11 66s17.5 41 30.5 59
s28.833 34.333 47.5 49s39 27 61 37c-18 12 -33.667 29.5 -47 52.5s-20 47.833 -20 74.5c0 28 6 54.667 18 80s28.167 47.833 48.5 67.5s43.833 35.167 70.5 46.5s54.334 17 83.001 17zM287.997 38.9971c24 0 47.667 4.50195 71 13.502s44 21.5 62 37.5
s32.667 35.167 44 57.5s17 47.166 17 74.499c0 37.333 -12.167 67.333 -36.5 90s-58.5 34 -102.5 34c-24.667 0 -48.667 -4.5 -72 -13.5s-44 -21.5 -62 -37.5s-32.5 -35.333 -43.5 -58s-16.5 -47.334 -16.5 -74.001c0 -36.667 12.167 -66.5 36.5 -89.5
s58.5 -34.5 102.5 -34.5zM350.997 392.999c20.667 0 41.002 4 61.002 12s37.833 19.167 53.5 33.5s28.167 31.333 37.5 51s14 41.5 14 65.5c0 34 -11.333 60.167 -34 78.5s-51 27.5 -85 27.5c-20.667 0 -40.834 -3.83301 -60.501 -11.5s-37.334 -18.5 -53.001 -32.5
s-28.167 -30.833 -37.5 -50.5s-14 -41.5 -14 -65.5c0 -34 11.167 -60.5 33.5 -79.5s50.5 -28.5 84.5 -28.5z" />
    <glyph glyph-name="nine" unicode="9" horiz-adv-x="548" 
d="M412 280c-7.33301 -4 -15.667 -7.33398 -25 -10.001c-8 -2.66699 -17.5 -4.83398 -28.5 -6.50098s-23.167 -2.5 -36.5 -2.5c-31.333 0 -59 5.33301 -83 16s-44 24.667 -60 42s-28.167 37.333 -36.5 60s-12.5 46 -12.5 70c0 32.667 6.66699 64.834 20 96.501
s31.5 59.834 54.5 84.501s50.167 44.5 81.5 59.5s65.333 22.5 102 22.5c32 0 60.333 -5.33301 85 -16s45.167 -24.834 61.5 -42.501s28.666 -37.667 36.999 -60s12.5 -45.166 12.5 -68.499c0 -30 -5.16699 -59 -15.5 -87s-24.166 -54.667 -41.499 -80l-26 -35l-39 -51.5
l-47 -61.5l-50 -65l-126 -163l-39 29zM326.999 311.999c27.333 0 53.334 5.33301 78.001 16s46.167 25.334 64.5 44.001s33 40.5 44 65.5s16.5 51.833 16.5 80.5c0 42 -12.667 76.333 -38 103s-60 40 -104 40c-27.333 0 -53.333 -5.66699 -78 -17
s-46.334 -26.833 -65.001 -46.5s-33.5 -42.334 -44.5 -68.001s-16.5 -52.5 -16.5 -80.5c0 -41.333 13 -74.5 39 -99.5s60.667 -37.5 104 -37.5z" />
    <glyph glyph-name="colon" unicode=":" horiz-adv-x="220" 
d="M74 28c0 11.333 3.83301 20.833 11.5 28.5s17.167 11.5 28.5 11.5s20.833 -3.83301 28.5 -11.5s11.5 -17.167 11.5 -28.5s-3.83301 -20.833 -11.5 -28.5s-17.167 -11.5 -28.5 -11.5s-20.833 3.83301 -28.5 11.5s-11.5 17.167 -11.5 28.5zM145 428
c0 11.333 3.83301 20.833 11.5 28.5s17.167 11.5 28.5 11.5s20.833 -3.83301 28.5 -11.5s11.5 -17.167 11.5 -28.5s-3.83301 -20.833 -11.5 -28.5s-17.167 -11.5 -28.5 -11.5s-20.833 3.83301 -28.5 11.5s-11.5 17.167 -11.5 28.5z" />
    <glyph glyph-name="semicolon" unicode=";" horiz-adv-x="219" 
d="M145 428c0 11.333 3.83301 20.833 11.5 28.5s17.167 11.5 28.5 11.5s20.833 -3.83301 28.5 -11.5s11.5 -17.167 11.5 -28.5s-3.83301 -20.833 -11.5 -28.5s-17.167 -11.5 -28.5 -11.5s-20.833 3.83301 -28.5 11.5s-11.5 17.167 -11.5 28.5zM128 88l45 -24l-117 -220
l-43 22z" />
    <glyph glyph-name="less" unicode="&#x3c;" horiz-adv-x="520" 
d="M64 298l497 198l-9 -55l-438 -173l377 -172l-9 -50l-427 198z" />
    <glyph glyph-name="equal" unicode="=" horiz-adv-x="520" 
d="M114 335h410l-9 -48h-410zM90 199h410l-9 -48h-410z" />
    <glyph glyph-name="greater" unicode="&#x3e;" horiz-adv-x="520" 
d="M551 244l-497 -198l9 55l437 173l-376 172l9 50l427 -198z" />
    <glyph glyph-name="question" unicode="?" horiz-adv-x="478" 
d="M306 360l59.999 43.5059c19.333 13.667 36.5 27.834 51.5 42.501s27 30.667 36 48s13.5 37.666 13.5 60.999c0 30 -10.167 55.167 -30.5 75.5s-50.833 30.5 -91.5 30.5c-32 0 -58.667 -5.83301 -80 -17.5s-38.666 -24.167 -51.999 -37.5c-15.333 -16 -27.333 -34 -36 -54
l-47 22c12.667 25.333 29 48.333 49 69c17.333 17.333 39.333 33.166 66 47.499s60 21.5 100 21.5c26 0 49.833 -3.66699 71.5 -11s40.334 -17.833 56.001 -31.5s27.834 -30.167 36.501 -49.5s13 -41 13 -65s-4.16699 -45.833 -12.5 -65.5s-20.833 -38.834 -37.5 -57.501
s-37.334 -37.334 -62.001 -56.001l-86 -62c-6.66699 -4.66699 -11.167 -12.667 -13.5 -24l-8.5 -43l-12 -67h-52l16 90c2 12.667 4.16699 23.167 6.5 31.5s5.16602 15.666 8.49902 21.999s8 12.166 14 17.499s13.667 11.666 23 18.999zM201.999 28.0059
c0 11.333 3.83301 20.833 11.5 28.5s17.167 11.5 28.5 11.5s20.833 -3.83301 28.5 -11.5s11.5 -17.167 11.5 -28.5s-3.83301 -20.833 -11.5 -28.5s-17.167 -11.5 -28.5 -11.5s-20.833 3.83301 -28.5 11.5s-11.5 17.167 -11.5 28.5z" />
    <glyph glyph-name="at" unicode="@" horiz-adv-x="799" 
d="M608 35c-18 -8.66699 -37.3398 -16.6699 -58.0068 -24.0029c-17.333 -6 -37.833 -11.333 -61.5 -16s-48.167 -7 -73.5 -7c-48 0 -91.167 7.83301 -129.5 23.5s-71 37.334 -98 65.001s-47.833 60 -62.5 97s-22 76.833 -22 119.5c0 56.667 11.333 110.334 34 161.001
s53.334 95.167 92.001 133.5s83.834 68.666 135.501 90.999s106.167 33.5 163.5 33.5c46.667 0 88.167 -7.16699 124.5 -21.5s67 -34.333 92 -60s44 -56 57 -91s19.5 -73.5 19.5 -115.5c0 -53.333 -6.66699 -97.5 -20 -132.5s-29.833 -63.167 -49.5 -84.5
s-40.5 -36.333 -62.5 -45s-41.333 -13 -58 -13c-17.333 0 -33.5 4.66699 -48.5 14s-22.5 25.666 -22.5 48.999v5c-10.667 -12.667 -23 -24 -37 -34c-12 -8.66699 -27.167 -16.5 -45.5 -23.5s-39.5 -10.5 -63.5 -10.5c-14 0 -28.333 2.33301 -43 7s-28 11.667 -40 21
s-21.833 21 -29.5 35s-11.5 30.667 -11.5 50c0 22 4.66699 41.667 14 59s22 32 38 44s34.5 21.167 55.5 27.5s43.167 9.5 66.5 9.5c17.333 0 33 -2.33301 47 -7s26 -9.66699 36 -15c12 -6.66699 22.667 -14 32 -22l5 29c2 10.667 3 21 3 31
c0 16.667 -2.66699 30.334 -8 41.001s-12.5 19.334 -21.5 26.001s-19.5 11.334 -31.5 14.001s-24.333 4 -37 4c-16 0 -31.333 -2 -46 -6s-27.667 -8.33301 -39 -13c-13.333 -5.33301 -25.666 -11.333 -36.999 -18l-20 39c14 7.33301 28.667 14 44 20
c13.333 5.33301 28.333 10 45 14s34.334 6 53.001 6c50.667 0 87.334 -10.5 110.001 -31.5s34 -49.167 34 -84.5c0 -10 -1 -20 -3 -30l-29 -163c-0.666992 -2 -1 -4.16699 -1 -6.5v-6.5c0 -10 3 -17.833 9 -23.5s16.667 -8.5 32 -8.5c14.667 0 30 4.66699 46 14
s30.667 23.5 44 42.5s24.333 43.167 33 72.5s13 64 13 104c0 34.667 -5.33301 67 -16 97s-26.5 56 -47.5 78s-47 39.333 -78 52s-66.833 19 -107.5 19c-52 0 -101.167 -10.167 -147.5 -30.5s-86.666 -47.833 -120.999 -82.5s-61.666 -74.667 -81.999 -120
s-30.5 -93.333 -30.5 -144c0 -37.333 6.5 -72 19.5 -104s31.167 -59.833 54.5 -83.5s51.5 -42.167 84.5 -55.5s69.5 -20 109.5 -20c23.333 0 45.833 2.33301 67.5 7s40.5 9.66699 56.5 15c18.667 6.66699 36 14 52 22zM432.993 190.997c19.333 0 36.8311 3.66699 52.498 11
s29.167 15.666 40.5 24.999c13.333 10.667 25.333 22.667 36 36l9 51c-7.33301 8 -16.333 15.667 -27 23c-9.33301 5.33301 -20.666 10.5 -33.999 15.5s-28.666 7.5 -45.999 7.5c-16 0 -31.667 -1.83301 -47 -5.5s-29 -9.5 -41 -17.5s-21.833 -18.167 -29.5 -30.5
s-11.5 -27.166 -11.5 -44.499c0 -20 8 -36.833 24 -50.5s40.667 -20.5 74 -20.5z" />
    <glyph glyph-name="A" unicode="A" horiz-adv-x="640" 
d="M414 700h58l156 -700h-53l-45 204h-344l-115 -204h-59zM215 252h304l-83 390z" />
    <glyph glyph-name="B" unicode="B" horiz-adv-x="551" 
d="M211 700l189.999 -0.00195312c54 0 95.833 -12.833 125.5 -38.5s44.5 -60.5 44.5 -104.5c0 -37.333 -5.16699 -68 -15.5 -92s-22 -43.167 -35 -57.5s-25.5 -24.5 -37.5 -30.5s-20 -9.66699 -24 -11c2.66699 -0.666992 9 -3.16699 19 -7.5s20.5 -11.666 31.5 -21.999
s20.833 -24.166 29.5 -41.499s13 -39 13 -65c0 -72 -21.667 -128.333 -65 -169s-104.666 -61 -183.999 -61h-215zM305.999 47.998c36 0.666992 66.167 5.83301 90.5 15.5s44 22.5 59 38.5s25.667 34.167 32 54.5s9.5 41.5 9.5 63.5c0 14.667 -2 29 -6 43
s-10.833 26.5 -20.5 37.5s-22.5 19.667 -38.5 26s-36.333 9.5 -61 9.5h-172l-51 -288h158zM353.999 383.997c29.333 0 54.333 4.83496 75 14.502s37.5 22.167 50.5 37.5s22.5 32.666 28.5 51.999s9 39 9 59c0 31.333 -9.83301 56.666 -29.5 75.999s-53.167 29 -100.5 29
h-133l-47 -268h147z" />
    <glyph glyph-name="C" unicode="C" horiz-adv-x="673" 
d="M396 39c37.333 0 70.8359 4.99902 100.503 14.999s55.167 21 76.5 33c24.667 14 47 30.333 67 49l31 -36c-21.333 -20.667 -46 -39.334 -74 -56.001c-24 -14 -53 -26.833 -87 -38.5s-72 -17.5 -114 -17.5c-48 0 -90.5 8.5 -127.5 25.5s-68 39.667 -93 68
s-44 61.166 -57 98.499s-19.5 76.333 -19.5 117c0 58.667 10.667 113.334 32 164.001s50.5 94.5 87.5 131.5s80.167 66.167 129.5 87.5s102 32 158 32c41.333 0 76.833 -5.5 106.5 -16.5s54.167 -23.167 73.5 -36.5c22.667 -16 42 -33.667 58 -53l-37 -31
c-12.667 16 -28.667 30.333 -48 43c-16.667 10.667 -37.5 20.5 -62.5 29.5s-55.167 13.5 -90.5 13.5c-50.667 0 -97.5 -9.5 -140.5 -28.5s-80.333 -45 -112 -78s-56.334 -71.667 -74.001 -116s-26.5 -91.5 -26.5 -141.5c0 -35.333 5.33301 -68.666 16 -99.999
s26.167 -58.666 46.5 -81.999s45.666 -41.833 75.999 -55.5s65.166 -20.5 104.499 -20.5z" />
    <glyph glyph-name="D" unicode="D" horiz-adv-x="669" 
d="M402 700c44.667 0 84.833 -6.66895 120.5 -20.002s66 -32.166 91 -56.499s44.333 -53.666 58 -87.999s20.5 -72.5 20.5 -114.5c0 -58 -9 -112.5 -27 -163.5s-44.5 -95.667 -79.5 -134s-78.167 -68.5 -129.5 -90.5s-110.333 -33 -177 -33h-191l123 700h191z
M276.999 47.998c58.667 -1.33301 110.668 7.66797 156.001 27.001s83.166 46 113.499 80s53.333 73.833 69 119.5s23.5 94.5 23.5 146.5c0 34.667 -5.33301 66.167 -16 94.5s-26.667 52.666 -48 72.999s-48 36 -80 47s-69.333 16.5 -112 16.5h-129l-106 -604h129z" />
    <glyph glyph-name="E" unicode="E" horiz-adv-x="538" 
d="M207 383h312l-8 -48h-312l-51 -287h342l-8 -48h-394l123 700h388l-9 -48h-336z" />
    <glyph glyph-name="F" unicode="F" horiz-adv-x="521" 
d="M207 383h311l-8 -48h-311l-59 -335h-52l123 700h383l-9 -50h-331z" />
    <glyph glyph-name="G" unicode="G" horiz-adv-x="724" 
d="M486 368h241.997l-52 -296c-21.333 -16 -45.666 -30 -72.999 -42c-23.333 -10.667 -51.666 -20.334 -84.999 -29.001s-71 -13 -113 -13c-45.333 0 -86.666 7.83301 -123.999 23.5s-69.5 37.167 -96.5 64.5s-48 59.833 -63 97.5s-22.5 78.5 -22.5 122.5
c0 54.667 10.167 107 30.5 157s48.5 94.167 84.5 132.5s78.833 69 128.5 92s103.834 34.5 162.501 34.5c44 0 81.5 -5.16699 112.5 -15.5s56.167 -21.5 75.5 -33.5c22.667 -14 41.334 -30 56.001 -48l-37 -33c-12 14 -27.667 27 -47 39c-16.667 10 -38 19.167 -64 27.5
s-58 12.5 -96 12.5c-52 0 -99.667 -9.83301 -143 -29.5s-80.5 -46.334 -111.5 -80.001s-55 -72.5 -72 -116.5s-25.5 -90.333 -25.5 -139c0 -35.333 5.66699 -68.666 17 -99.999s27.666 -58.666 48.999 -81.999s47.666 -41.666 78.999 -54.999s67 -20 107 -20
c37.333 0 69.833 3.16699 97.5 9.5s51.167 13.166 70.5 20.499c22 8.66699 41 19 57 31l39 219h-191z" />
    <glyph glyph-name="H" unicode="H" horiz-adv-x="683" 
d="M666 700h52l-123 -700h-52l59 335h-403l-59 -335h-52l123 700h52l-56 -317h403z" />
    <glyph glyph-name="I" unicode="I" horiz-adv-x="256" 
d="M225 700h52l-123 -700h-52z" />
    <glyph glyph-name="J" unicode="J" horiz-adv-x="466" 
d="M359 190l31.0039 176.999l29 165l30 168h52l-90 -510c-11.333 -65.333 -36.333 -115.333 -75 -150s-84.667 -52 -138 -52c-30.667 0 -56.834 5 -78.501 15s-39.167 21.333 -52.5 34c-16 14.667 -29 31.334 -39 50.001l43 32c8 -14.667 18 -28 30 -40
c10.667 -10 24 -19.167 40 -27.5s35 -12.5 57 -12.5c24 0 45.167 4.16699 63.5 12.5s34.166 19.333 47.499 33s24.166 29.667 32.499 48s14.166 37.5 17.499 57.5z" />
    <glyph glyph-name="K" unicode="K" horiz-adv-x="569" 
d="M204 363l365 337h73l-380 -349l307 -351h-69l-300 343l-60 -343h-52l123 700h52z" />
    <glyph glyph-name="L" unicode="L" horiz-adv-x="488" 
d="M211 700h52l-115 -652h334l-8 -48h-386z" />
    <glyph glyph-name="M" unicode="M" horiz-adv-x="810" 
d="M260 700l192 -430l336 430h57l-123 -700h-52l106 602l-336 -427l-195 427l-106 -602h-51l123 700h49z" />
    <glyph glyph-name="N" unicode="N" horiz-adv-x="710" 
d="M263 700l320 -620l110 620h52l-123 -700h-52l-321 622l-109 -622h-52l123 700h52z" />
    <glyph glyph-name="O" unicode="O" horiz-adv-x="780" 
d="M396 -12c-47.333 0 -89.5 8.33301 -126.5 25s-68.167 39.334 -93.5 68.001s-44.5 61.834 -57.5 99.501s-19.5 77.5 -19.5 119.5c0 56.667 10.5 110 31.5 160s49.667 93.667 86 131s79.333 66.833 129 88.5s103.167 32.5 160.5 32.5c47.333 0 89.5 -8.33301 126.5 -25
s68.167 -39.334 93.5 -68.001s44.5 -61.834 57.5 -99.501s19.5 -77.5 19.5 -119.5c0 -56.667 -10.5 -110 -31.5 -160s-49.667 -93.667 -86 -131s-79.333 -66.833 -129 -88.5s-103.167 -32.5 -160.5 -32.5zM506 661c-51.333 0 -98.666 -9.5 -141.999 -28.5
s-80.666 -45 -111.999 -78s-55.666 -71.333 -72.999 -115s-26 -90.167 -26 -139.5c0 -34.667 5.16699 -67.834 15.5 -99.501s25.666 -59.5 45.999 -83.5s45.666 -43 75.999 -57s65.5 -21 105.5 -21c51.333 0 98.666 9.5 141.999 28.5s80.666 45 111.999 78
s55.666 71.333 72.999 115s26 90.167 26 139.5c0 34.667 -5.16699 67.834 -15.5 99.501s-25.666 59.5 -45.999 83.5s-45.666 43 -75.999 57s-65.5 21 -105.5 21z" />
    <glyph glyph-name="P" unicode="P" horiz-adv-x="514" 
d="M211 700l179.001 -0.00195312c28 0 53.667 -4.16699 77 -12.5s43.166 -19.666 59.499 -33.999s29 -31.666 38 -51.999s13.5 -42.5 13.5 -66.5c0 -33.333 -5 -64.666 -15 -93.999s-25.5 -54.833 -46.5 -76.5s-47.833 -38.834 -80.5 -51.501s-72 -19 -118 -19h-127
l-51 -294h-52zM328.001 341.998c32 0 60.167 4.66602 84.5 13.999s44.833 22.333 61.5 39s29.167 36.334 37.5 59.001s12.5 47 12.5 73c0 38 -12.167 68.333 -36.5 91s-59.5 34 -105.5 34h-128l-54 -310h128z" />
    <glyph glyph-name="Q" unicode="Q" horiz-adv-x="789" 
d="M396 -12c-47.333 0 -89.502 8.33398 -126.502 25.001s-68.167 39.334 -93.5 68.001s-44.5 61.834 -57.5 99.501s-19.5 77.5 -19.5 119.5c0 56.667 10.5 110 31.5 160s49.667 93.667 86 131s79.333 66.833 129 88.5s103.167 32.5 160.5 32.5
c47.333 0 89.5 -8.33301 126.5 -25s68.167 -39.334 93.5 -68.001s44.5 -61.834 57.5 -99.501s19.5 -77.5 19.5 -119.5c0 -60 -11.667 -116 -35 -168s-55 -97 -95 -135l79 -83l-35 -34l-82 86c-33.333 -24.667 -70.166 -43.834 -110.499 -57.501
s-83.166 -20.5 -128.499 -20.5zM517.998 262.001l119.997 -128c34.667 34 61.834 73.833 81.501 119.5s29.5 94.5 29.5 146.5c0 34.667 -5.16699 67.834 -15.5 99.501s-25.666 59.5 -45.999 83.5s-45.666 43 -75.999 57s-65.5 21 -105.5 21
c-51.333 0 -98.666 -9.5 -141.999 -28.5s-80.666 -45 -111.999 -78s-55.666 -71.333 -72.999 -115s-26 -90.167 -26 -139.5c0 -34.667 5.16699 -67.834 15.5 -99.501s25.666 -59.5 45.999 -83.5s45.666 -43 75.999 -57s65.5 -21 105.5 -21
c39.333 0 76.166 5.66699 110.499 17s65.5 27 93.5 47l-117 125z" />
    <glyph glyph-name="R" unicode="R" horiz-adv-x="537" 
d="M322 354c28.667 0 55.167 3.5 79.5 10.5s45.333 17.833 63 32.5s31.5 33.167 41.5 55.5s15 48.833 15 79.5c0 20.667 -4.16699 38.5 -12.5 53.5s-19.5 27.167 -33.5 36.5s-29.833 16.333 -47.5 21s-35.5 7 -53.5 7h-120l-52 -296h120zM211 700l169.001 -0.00292969
c31.333 0 59.166 -4.33301 83.499 -13s44.666 -20.167 60.999 -34.5s28.833 -31.166 37.5 -50.499s13 -40 13 -62c0 -33.333 -4.16699 -62.166 -12.5 -86.499s-19.166 -45 -32.499 -62s-28.333 -30.833 -45 -41.5s-33 -19.167 -49 -25.5s-31.167 -10.666 -45.5 -12.999
s-25.5 -3.83301 -33.5 -4.5l146 -307h-60l-143 304h-107l-53 -304h-52z" />
    <glyph glyph-name="S" unicode="S" horiz-adv-x="536" 
d="M279 39c21.333 0 42.6709 3.33398 64.0039 10.001s40.666 16.5 57.999 29.5s31.5 29.5 42.5 49.5s16.5 43.667 16.5 71c0 18 -3.66699 33.667 -11 47s-17 25.333 -29 36s-26 20.167 -42 28.5s-32.667 16.5 -50 24.5c-21.333 10 -41.333 20.833 -60 32.5
s-35 24.667 -49 39s-25.167 30.5 -33.5 48.5s-12.5 38.333 -12.5 61c0 24 5.5 47.667 16.5 71s26.167 44.333 45.5 63s42.333 33.667 69 45s56 17 88 17c32.667 0 60.5 -5.33301 83.5 -16s41.833 -22.334 56.5 -35.001c17.333 -14.667 31.333 -31.334 42 -50.001l-42 -28
c-8.66699 14 -19.334 27 -32.001 39c-11.333 9.33301 -25.833 18.166 -43.5 26.499s-39.167 12.5 -64.5 12.5c-23.333 0 -45 -3.66699 -65 -11s-37.5 -17.333 -52.5 -30s-26.833 -28 -35.5 -46s-13 -37.333 -13 -58c0 -18 4 -34 12 -48s18.833 -26.5 32.5 -37.5
s29.667 -21.333 48 -31s38.166 -19.5 59.499 -29.5c42.667 -20.667 75.834 -44 99.501 -70s35.5 -59.667 35.5 -101c0 -32.667 -6.66699 -62 -20 -88s-31 -48.167 -53 -66.5s-47 -32.333 -75 -42s-56.667 -14.5 -86 -14.5c-38 0 -69.833 7.33301 -95.5 22
s-46.167 30.667 -61.5 48c-18.667 20.667 -33.334 44.334 -44.001 71.001l47 26c8.66699 -21.333 20 -40.666 34 -57.999c12 -14.667 27.667 -28 47 -40s43.666 -18 72.999 -18z" />
    <glyph glyph-name="T" unicode="T" horiz-adv-x="506" 
d="M341 652h-211l9 48h474l-9 -48h-211l-114 -652h-52z" />
    <glyph glyph-name="U" unicode="U" horiz-adv-x="674" 
d="M581 268l28.499 165l24.5 138l23 129h52l-77 -437c-7.33301 -40.667 -18.833 -77.834 -34.5 -111.501s-35.5 -62.667 -59.5 -87s-52.167 -43.166 -84.5 -56.499s-69.166 -20 -110.499 -20c-42 0 -77.833 6.66699 -107.5 20s-53.167 32.166 -70.5 56.499
s-28.666 53.333 -33.999 87s-4.33301 70.834 3 111.501l77 437h52l-23 -129l-24.5 -138l-28.5 -165c-6 -34 -7.83301 -65 -5.5 -93s9.66602 -52.167 21.999 -72.5s30 -36 53 -47s51.833 -16.5 86.5 -16.5s65.5 5.5 92.5 16.5s50.167 26.667 69.5 47s35.333 44.5 48 72.5
s22 59 28 93z" />
    <glyph glyph-name="V" unicode="V" horiz-adv-x="596" 
d="M294 -20l-165 720h54l131 -590l340 590h59z" />
    <glyph glyph-name="W" unicode="W" horiz-adv-x="939" 
d="M673 -20l-95 634l-320 -634l-131 720h53l103 -571l283 571h54l80 -566l300 566h58z" />
    <glyph glyph-name="X" unicode="X" horiz-adv-x="587" 
d="M353 318l-267 -318h-65l305 361l-166 339h60l142 -296l246 296h65l-286 -339l179 -361h-60z" />
    <glyph glyph-name="Y" unicode="Y" horiz-adv-x="568" 
d="M306 275l-167 425h57l143 -372l275 372h61l-317 -425l-48 -275h-52z" />
    <glyph glyph-name="Z" unicode="Z" horiz-adv-x="564" 
d="M663 700l-538 -652h408l-8 -48h-501l537 652h-400l9 48h493z" />
    <glyph glyph-name="bracketleft" unicode="[" horiz-adv-x="308" 
d="M104 -182h116l-8 -48h-168l171 970h168l-8 -48h-116z" />
    <glyph glyph-name="backslash" unicode="\" horiz-adv-x="485" 
d="M163 773l46 13l238 -893l-47 -13z" />
    <glyph glyph-name="bracketright" unicode="]" horiz-adv-x="307" 
d="M322 692h-116l8 48h168l-171 -970h-168l8 48h116z" />
    <glyph glyph-name="asciicircum" unicode="^" horiz-adv-x="536" 
d="M377 756h48l134 -406h-57l-108 344l-232 -344h-63z" />
    <glyph glyph-name="underscore" unicode="_" horiz-adv-x="500" 
d="M10 -178h416l-9 -52h-416z" />
    <glyph glyph-name="grave" unicode="`" horiz-adv-x="264" 
d="M174 699l131 -155l-37 -32l-133 153z" />
    <glyph glyph-name="a" unicode="a" horiz-adv-x="505" 
d="M320 468c58 0 100.498 -12.835 127.498 -38.502s40.5 -57.834 40.5 -96.501c0 -10.667 -1 -22 -3 -34l-52 -299h-47l13 78c-14 -17.333 -30 -32.333 -48 -45c-15.333 -11.333 -34 -21.666 -56 -30.999s-46.667 -14 -74 -14c-44 0 -80 12 -108 36s-42 57 -42 99
c0 28.667 6.16699 53.667 18.5 75s28.5 39.333 48.5 54s42.333 25.667 67 33s49.334 11 74.001 11c23.333 0 44 -2.33301 62 -7s33.333 -9.66699 46 -15c14.667 -6.66699 27.334 -13.667 38.001 -21l6 34c2 12 3 22.667 3 32c0 20.667 -3.33301 37.334 -10 50.001
s-15.334 22.5 -26.001 29.5s-22.834 11.833 -36.501 14.5s-27.5 4 -41.5 4c-21.333 0 -41.166 -2.16699 -59.499 -6.5s-34.833 -9.16602 -49.5 -14.499c-17.333 -6.66699 -33 -13.667 -47 -21l-23 49c16 8 33.667 15.333 53 22c16.667 5.33301 35.834 10.333 57.501 15
s44.5 7 68.5 7zM231.998 38.998c25.333 0 48.333 4.83301 69 14.5s38.667 20.167 54 31.5c17.333 13.333 33.666 28.666 48.999 45.999l13 77c-10 6.66699 -21.667 13 -35 19c-11.333 4.66699 -25.666 9 -42.999 13s-37.333 6 -60 6c-16.667 0 -34.167 -2.5 -52.5 -7.5
s-35 -12.667 -50 -23s-27.333 -23.166 -37 -38.499s-14.5 -33.333 -14.5 -54c0 -14.667 3.16699 -27.167 9.5 -37.5s14.5 -19 24.5 -26s21.333 -12.167 34 -15.5s25.667 -5 39 -5z" />
    <glyph glyph-name="b" unicode="b" horiz-adv-x="567" 
d="M88 0l133.001 756.001h51l-66 -372c4 4.66699 10.667 11.667 20 21s21.166 18.666 35.499 27.999s31.166 17.5 50.499 24.5s41 10.5 65 10.5c28.667 0 55 -4.5 79 -13.5s44.833 -22 62.5 -39s31.5 -38 41.5 -63s15 -53.833 15 -86.5
c0 -37.333 -6.66699 -72.833 -20 -106.5s-31.833 -63.167 -55.5 -88.5s-51.667 -45.5 -84 -60.5s-67.5 -22.5 -105.5 -22.5c-30 0 -55 4.5 -75 13.5s-36.667 19.167 -50 30.5c-15.333 12.667 -27.666 27.667 -36.999 45l-13 -77h-47zM163.001 136.001
c7.33301 -18.667 17.6631 -34.998 30.9961 -48.998c11.333 -12 26.333 -23 45 -33s42.334 -15 71.001 -15c30.667 0 58.834 6.16699 84.501 18.5s47.834 29 66.501 50s33.167 45.167 43.5 72.5s15.5 56 15.5 86c0 22 -3.16699 42.167 -9.5 60.5
s-15.666 34.166 -27.999 47.499s-27.333 23.833 -45 31.5s-37.834 11.5 -60.501 11.5c-30 0 -56.167 -5.33301 -78.5 -16s-41.166 -22.334 -56.499 -35.001c-18 -15.333 -33.667 -32.333 -47 -51z" />
    <glyph glyph-name="c" unicode="c" horiz-adv-x="480" 
d="M276 39c24 0 46.168 3.99609 66.501 11.9961s37.833 17 52.5 27c17.333 11.333 33 24.333 47 39l35 -39c-16.667 -17.333 -35.334 -32.333 -56.001 -45c-17.333 -11.333 -38.333 -21.666 -63 -30.999s-52 -14 -82 -14c-33.333 0 -62.666 5.33301 -87.999 16
s-46.666 25.334 -63.999 44.001s-30.333 40.334 -39 65.001s-13 50.667 -13 78c0 36.667 6.83301 71.667 20.5 105s32.667 62.833 57 88.5s53.166 46 86.499 61s69.333 22.5 108 22.5c32 0 59.167 -4.5 81.5 -13.5s40.5 -18.833 54.5 -29.5c16.667 -12.667 30 -27 40 -43
l-42 -30c-8.66699 12 -19.334 22.667 -32.001 32c-11.333 8 -25.333 15.5 -42 22.5s-36.667 10.5 -60 10.5c-32 0 -61.333 -6.33301 -88 -19s-49.5 -29.5 -68.5 -50.5s-33.833 -45.167 -44.5 -72.5s-16 -55.333 -16 -84c0 -21.333 3.33301 -41.166 10 -59.499
s16.167 -34.333 28.5 -48s27.833 -24.5 46.5 -32.5s40 -12 64 -12z" />
    <glyph glyph-name="d" unicode="d" horiz-adv-x="567" 
d="M432 0l12.9971 78.9971c-13.333 -17.333 -29 -32.666 -47 -45.999c-15.333 -11.333 -34.666 -21.666 -57.999 -30.999s-50.666 -14 -81.999 -14c-28 0 -53.5 4.83301 -76.5 14.5s-42.667 23.334 -59 41.001s-29 38.834 -38 63.501s-13.5 51.667 -13.5 81
c0 39.333 7.16699 76.166 21.5 110.499s33.5 64 57.5 89s52 44.667 84 59s65.667 21.5 101 21.5c30 0 55 -4.66699 75 -14s36.333 -19.666 49 -30.999c14.667 -12.667 26.334 -27.334 35.001 -44.001l67 377h51l-133 -756h-47zM481.997 315.997
c-8 18.667 -18.332 35.3281 -30.999 49.9951c-11.333 12.667 -26.333 24.334 -45 35.001s-42.334 16 -71.001 16c-30 0 -57.667 -6.33301 -83 -19s-47.333 -29.5 -66 -50.5s-33.334 -45.333 -44.001 -73s-16 -56.5 -16 -86.5c0 -21.333 3.16699 -41.166 9.5 -59.499
s15.666 -34.166 27.999 -47.499s27.333 -23.666 45 -30.999s37.5 -11 59.5 -11c28.667 0 54.334 5.66699 77.001 17s42 24 58 38c18.667 16.667 35.334 35.334 50.001 56.001z" />
    <glyph glyph-name="e" unicode="e" 
d="M334 468c28.667 0 54.834 -4.83203 78.501 -14.499s43.834 -23 60.501 -40s29.667 -37.167 39 -60.5s14 -49 14 -77c0 -7.33301 -0.5 -16 -1.5 -26l-4.5 -43h-393c-3.33301 -25.333 -1.83301 -48.166 4.5 -68.499s16.166 -38 29.499 -53s29.833 -26.5 49.5 -34.5
s41.5 -12 65.5 -12c24.667 0 47 4.16699 67 12.5s37.333 17.5 52 27.5c17.333 12 32.666 25.667 45.999 41l34 -39c-16.667 -18 -35.334 -33.667 -56.001 -47c-17.333 -11.333 -38.166 -21.833 -62.499 -31.5s-51.166 -14.5 -80.499 -14.5c-32 0 -60.667 5 -86 15
s-46.833 23.667 -64.5 41s-31 38 -40 62s-13.5 49.667 -13.5 77c0 37.333 6.66699 73.166 20 107.499s31.666 64.666 54.999 90.999s51 47.333 83 63s66.667 23.5 104 23.5zM472 255.001v7c0 2 0.166992 4 0.5 6s0.5 4 0.5 6c0 14 -2.16699 29.333 -6.5 46
s-11.833 32.167 -22.5 46.5s-25 26.333 -43 36s-40.333 14.5 -67 14.5c-32 0 -60 -6.16699 -84 -18.5s-44 -27 -60 -44s-28.5 -34.667 -37.5 -53s-14.833 -33.833 -17.5 -46.5h337z" />
    <glyph glyph-name="f" unicode="f" horiz-adv-x="323" 
d="M103 456h97.999l31 179c8 44 25.333 77.167 52 99.5s58.334 33.5 95.001 33.5c12.667 0 24 -1 34 -3s18.667 -4.33301 26 -7c8 -2.66699 15.333 -6 22 -10l-23 -46l-18 7c-5.33301 2 -11.5 3.83301 -18.5 5.5s-14.5 2.5 -22.5 2.5c-29.333 0 -51.5 -9 -66.5 -27
s-25.167 -41 -30.5 -69l-29 -165h120l-9 -48h-120l-71 -408h-52l71 408h-98z" />
    <glyph glyph-name="g" unicode="g" horiz-adv-x="551" 
d="M559 456l-82 -467c-13.333 -74.667 -42 -131.834 -86 -171.501s-100.333 -59.5 -169 -59.5c-32 0 -60.333 4.33301 -85 13s-45.667 18.667 -63 30c-20 12.667 -37.667 27.334 -53 44.001l36 39c11.333 -14 25.333 -26.667 42 -38c14 -9.33301 31.167 -17.833 51.5 -25.5
s44.166 -11.5 71.499 -11.5c29.333 0 55.5 4.5 78.5 13.5s43 21.5 60 37.5s30.667 34.833 41 56.5s17.833 45.167 22.5 70.5l15 85c-12.667 -16 -27.667 -30 -45 -42c-15.333 -10.667 -34.333 -20.334 -57 -29.001s-49 -13 -79 -13c-27.333 0 -52.5 4.83301 -75.5 14.5
s-42.833 23.334 -59.5 41.001s-29.5 38.834 -38.5 63.501s-13.5 51.667 -13.5 81c0 39.333 7.16699 76.166 21.5 110.499s33.5 64 57.5 89s52 44.667 84 59s65.667 21.5 101 21.5c31.333 0 57.333 -5 78 -15s37.334 -21 50.001 -33c14.667 -14 26 -30 34 -48l15 84h47z
M482 316c-8 18.667 -18.3311 35.3291 -30.998 49.9961c-11.333 12.667 -26.333 24.334 -45 35.001s-42.334 16 -71.001 16c-30 0 -57.667 -6.33301 -83 -19s-47.333 -29.5 -66 -50.5s-33.334 -45.333 -44.001 -73s-16 -56.5 -16 -86.5
c0 -21.333 3.16699 -41.166 9.5 -59.499s15.666 -34.166 27.999 -47.499s27.333 -23.666 45 -30.999s37.5 -11 59.5 -11c28.667 0 54.334 5.5 77.001 16.5s42 23.167 58 36.5c18.667 15.333 35 33 49 53z" />
    <glyph glyph-name="h" unicode="h" horiz-adv-x="534" 
d="M373 468c22 0 42.667 -3.33301 62 -10s35.666 -17.334 48.999 -32.001s22.833 -33.167 28.5 -55.5s5.83398 -48.833 0.500977 -79.5l-51 -291h-52l49 283c8.66699 48 3.83398 82.333 -14.499 103s-48.5 31 -90.5 31c-23.333 0 -44.333 -4.83301 -63 -14.5
s-34.834 -20.667 -48.501 -33s-24.5 -24.166 -32.5 -35.499l-15 -21l-55 -313h-52l133 756h52l-66 -372c4.66699 6 11.667 13.667 21 23s21 18.5 35 27.5s30.167 16.833 48.5 23.5s38.833 10 61.5 10z" />
    <glyph glyph-name="i" unicode="i" horiz-adv-x="224" 
d="M166 456h52l-80 -456h-52zM168 604c0 11.333 3.83301 20.833 11.5 28.5s17.167 11.5 28.5 11.5s20.833 -3.83301 28.5 -11.5s11.5 -17.167 11.5 -28.5s-3.83301 -20.833 -11.5 -28.5s-17.167 -11.5 -28.5 -11.5s-20.833 3.83301 -28.5 11.5s-11.5 17.167 -11.5 28.5z" />
    <glyph glyph-name="j" unicode="j" horiz-adv-x="246" 
d="M-33 -176l13.998 -8.00098c9.33301 -4.66699 19 -7 29 -7c6.66699 0 13.834 0.666992 21.501 2s15 4.33301 22 9s13.5 11.834 19.5 21.501s10.333 22.5 13 38.5l102 576h52l-103 -584c-4 -20.667 -10.167 -38.334 -18.5 -53.001s-18.166 -26.5 -29.499 -35.5
s-23.833 -15.5 -37.5 -19.5s-27.5 -6 -41.5 -6c-10 0 -19.167 1 -27.5 3s-15.5 4.33301 -21.5 7c-7.33301 2.66699 -13.333 6.33398 -18 11.001zM189.998 603.999c0 11.333 3.83301 20.833 11.5 28.5s17.167 11.5 28.5 11.5s20.833 -3.83301 28.5 -11.5
s11.5 -17.167 11.5 -28.5s-3.83301 -20.833 -11.5 -28.5s-17.167 -11.5 -28.5 -11.5s-20.833 3.83301 -28.5 11.5s-11.5 17.167 -11.5 28.5z" />
    <glyph glyph-name="k" unicode="k" horiz-adv-x="470" 
d="M180 228l-40 -228h-52l133 756h52l-90 -509l262 209h76l-276 -221l219 -235h-71z" />
    <glyph glyph-name="l" unicode="l" horiz-adv-x="228" 
d="M223 756h50l-133 -756h-52z" />
    <glyph glyph-name="m" unicode="m" horiz-adv-x="768" 
d="M412 0l-52.0029 0.000976562l50 284c8 46.667 4.5 80.5 -10.5 101.5s-40.833 31.5 -77.5 31.5c-21.333 0 -40.666 -4.5 -57.999 -13.5s-32 -19.167 -44 -30.5c-14 -12.667 -26.667 -27.334 -38 -44.001l-58 -329h-52l80 456h47l-13 -72c10.667 16 24 30 40 42
c13.333 10.667 29.833 20.334 49.5 29.001s42.167 13 67.5 13c12.667 0 25.334 -1.66699 38.001 -5s24.5 -8.5 35.5 -15.5s20.5 -16 28.5 -27s14 -24.5 18 -40.5c0.666992 1.33301 5 6.66602 13 15.999s19 19.333 33 30s30.833 20.334 50.5 29.001s42.167 13 67.5 13
c16 0 32.333 -2.83301 49 -8.5s31.334 -15 44.001 -28s22 -30.167 28 -51.5s6 -48 0 -80l-52 -300h-52l50 284c8 46.667 4.5 80.5 -10.5 101.5s-40.833 31.5 -77.5 31.5c-21.333 0 -40.5 -4.5 -57.5 -13.5s-31.167 -19.167 -42.5 -30.5
c-13.333 -12.667 -25.333 -27.334 -36 -44.001z" />
    <glyph glyph-name="n" unicode="n" 
d="M357 468c18 0 36.501 -3.33301 55.501 -10s35.667 -17.334 50 -32.001s25 -33.167 32 -55.5s7.83301 -48.833 2.5 -79.5l-51 -291h-52l49 283c4 24 4.16699 44.5 0.5 61.5s-10.334 30.833 -20.001 41.5s-21.834 18.5 -36.501 23.5s-31 7.5 -49 7.5
c-25.333 0 -48 -5.66699 -68 -17s-36.667 -23.666 -50 -36.999c-16 -16 -30 -33.667 -42 -53l-54 -310h-52l80 456h47l-15 -83c12 17.333 26.667 33 44 47c14.667 12 32.834 23 54.501 33s46.5 15 74.5 15z" />
    <glyph glyph-name="o" unicode="o" horiz-adv-x="536" 
d="M341 468c30 0 57.502 -4.83301 82.502 -14.5s46.333 -23.167 64 -40.5s31.5 -38.333 41.5 -63s15 -52 15 -82c0 -37.333 -7 -73 -21 -107s-33.333 -63.833 -58 -89.5s-53.334 -46 -86.001 -61s-67.667 -22.5 -105 -22.5c-30 0 -57.333 4.66699 -82 14
s-45.834 22.833 -63.501 40.5s-31.5 38.667 -41.5 63s-15 51.5 -15 81.5c0 38 7 74 21 108s33 63.833 57 89.5s52.333 46 85 61s68 22.5 106 22.5zM274.002 39c32 0 61.333 6.33496 88 19.002s49.5 29.667 68.5 51s33.667 45.666 44 72.999s15.5 56 15.5 86
c0 20.667 -3.16699 40.167 -9.5 58.5s-15.666 34.166 -27.999 47.499s-27.833 23.833 -46.5 31.5s-40.334 11.5 -65.001 11.5c-32 0 -61.167 -6.33301 -87.5 -19s-49 -29.667 -68 -51s-33.667 -45.833 -44 -73.5s-15.5 -56.5 -15.5 -86.5c0 -42 12.333 -77.167 37 -105.5
s61.667 -42.5 111 -42.5z" />
    <glyph glyph-name="p" unicode="p" horiz-adv-x="551" 
d="M199 456l-14.001 -79c12 16.667 26.667 31.667 44 45c14.667 11.333 33 21.833 55 31.5s47.667 14.5 77 14.5c32 0 60.167 -5 84.5 -15s45 -24 62 -42s29.833 -39.333 38.5 -64s13 -51.667 13 -81c0 -40 -7 -76.833 -21 -110.5s-33 -63 -57 -88
s-51.833 -44.5 -83.5 -58.5s-65.5 -21 -101.5 -21c-28.667 0 -53 4.16699 -73 12.5s-36.667 17.833 -50 28.5c-15.333 12 -27.666 26 -36.999 42l-53 -301h-52l121 686h47zM146.999 135c8 -18 18.6689 -33.999 32.002 -47.999c11.333 -12 26.5 -23 45.5 -33
s42.833 -15 71.5 -15c30.667 0 58.667 6.16699 84 18.5s47.166 29 65.499 50s32.666 45.167 42.999 72.5s15.5 56 15.5 86c0 22 -3.33301 42.167 -10 60.5s-16.167 34.166 -28.5 47.499s-27.333 23.833 -45 31.5s-37.5 11.5 -59.5 11.5c-29.333 0 -55.333 -5.5 -78 -16.5
s-41.667 -23.167 -57 -36.5c-18 -16 -34 -33.667 -48 -53z" />
    <glyph glyph-name="q" unicode="q" horiz-adv-x="551" 
d="M559 456l-121.001 -686.001h-52l53 301c-4 -5.33301 -10.833 -12.5 -20.5 -21.5s-22 -18.167 -37 -27.5s-32.833 -17.333 -53.5 -24s-44 -10 -70 -10c-28 0 -53.5 4.83301 -76.5 14.5s-42.667 23.334 -59 41.001s-29 38.834 -38 63.501s-13.5 51.667 -13.5 81
c0 39.333 7.16699 76.166 21.5 110.499s33.5 64 57.5 89s52 44.667 84 59s65.667 21.5 101 21.5c31.333 0 57.333 -5 78 -15s37.334 -21 50.001 -33c14.667 -14 26 -30 34 -48l15 84h47zM480.999 310.999c-7.33301 19.333 -17.3311 36.9971 -29.998 52.9971
c-11.333 13.333 -26.333 25.5 -45 36.5s-42.334 16.5 -71.001 16.5c-30 0 -57.667 -6.33301 -83 -19s-47.333 -29.5 -66 -50.5s-33.334 -45.333 -44.001 -73s-16 -56.5 -16 -86.5c0 -21.333 3.16699 -41.166 9.5 -59.499s15.666 -34.166 27.999 -47.499
s27.333 -23.666 45 -30.999s37.5 -11 59.5 -11c28.667 0 54.334 5.5 77.001 16.5s42 23.167 58 36.5c18.667 15.333 35 33 49 53z" />
    <glyph glyph-name="r" unicode="r" horiz-adv-x="329" 
d="M334 468c9.33301 0 18.1641 -0.667969 26.4971 -2.00098s15.833 -2.66602 22.5 -3.99902c7.33301 -2 14 -4 20 -6l-21 -50c-6.66699 1.33301 -13.667 3 -21 5c-6.66699 1.33301 -14 2.66602 -22 3.99902s-16.667 2 -26 2c-19.333 0 -37.166 -5 -53.499 -15
s-30.166 -20.667 -41.499 -32c-13.333 -13.333 -25.666 -28.666 -36.999 -45.999l-57 -324h-52l80 456h47l-13 -74c9.33301 16 21.333 30.333 36 43c12 10.667 27.333 20.5 46 29.5s40.667 13.5 66 13.5z" />
    <glyph glyph-name="s" unicode="s" horiz-adv-x="447" 
d="M93 117c9.33301 -14.667 20.668 -27.666 34.001 -38.999c11.333 -10 26 -19 44 -27s39.667 -12 65 -12c12.667 0 26.834 1.5 42.501 4.5s30.5 8.16699 44.5 15.5s25.667 16.833 35 28.5s14 26.167 14 43.5c0 11.333 -3 21 -9 29s-14.167 14.833 -24.5 20.5
s-22.333 10.5 -36 14.5s-28.5 7.66699 -44.5 11c-44 9.33301 -78.5 23.666 -103.5 42.999s-37.5 46 -37.5 80c0 18.667 4.5 36.5 13.5 53.5s21.5 31.833 37.5 44.5s34.667 22.667 56 30s44.333 11 69 11c28 0 52.167 -3.33301 72.5 -10s37.166 -14 50.499 -22
c16 -9.33301 29.333 -20 40 -32l-35 -37c-9.33301 9.33301 -20.333 17.666 -33 24.999c-11.333 6 -24.833 11.667 -40.5 17s-33.834 8 -54.501 8c-14 0 -28.167 -1.66699 -42.5 -5s-27.333 -8.66602 -39 -15.999s-21.334 -16.666 -29.001 -27.999s-11.5 -25 -11.5 -41
c0 -12 3.33301 -22 10 -30s15.5 -14.667 26.5 -20s24 -10 39 -14s31.167 -8 48.5 -12c18 -4 35 -9.33301 51 -16s30 -14.834 42 -24.501s21.5 -21.167 28.5 -34.5s10.5 -29 10.5 -47c0 -22 -5.83301 -41.833 -17.5 -59.5s-26.667 -32.5 -45 -44.5
s-38.833 -21.167 -61.5 -27.5s-45 -9.5 -67 -9.5c-34 0 -62.333 4.83301 -85 14.5s-41.667 20.5 -57 32.5c-17.333 14 -31.666 30 -42.999 48z" />
    <glyph glyph-name="t" unicode="t" horiz-adv-x="377" 
d="M98 456l109.003 0.00292969l26 147h52l-26 -147h155l-9 -48h-155l-49 -280c-2 -12 -2.83301 -23.333 -2.5 -34s2.66602 -20 6.99902 -28s11 -14.5 20 -19.5s21.167 -7.5 36.5 -7.5c8.66699 0 17.167 1.16699 25.5 3.5s15.833 5.16602 22.5 8.49902
c7.33301 3.33301 14.333 7.33301 21 12l22 -45c-8.66699 -6 -18.334 -11 -29.001 -15c-9.33301 -4 -19.833 -7.5 -31.5 -10.5s-23.834 -4.5 -36.501 -4.5c-21.333 0 -39.5 3.66699 -54.5 11s-27 17.166 -36 29.499s-15 26.666 -18 42.999s-2.83301 33.5 0.5 51.5l50 285
h-109z" />
    <glyph glyph-name="u" unicode="u" 
d="M240 -12c-20.667 0 -40.501 3.33105 -59.501 9.99805s-35.333 17.334 -49 32.001s-23.5 33 -29.5 55s-6.33301 48.667 -1 80l51 291h52l-50 -283c-8.66699 -47.333 -3.5 -81.5 15.5 -102.5s47.5 -31.5 85.5 -31.5c25.333 0 48 5.16699 68 15.5s37 21.833 51 34.5
c16.667 14.667 31.334 31.334 44.001 50.001l56 317h52l-80 -456h-47l14 81c-12.667 -18 -27.667 -33.667 -45 -47c-14.667 -11.333 -32.667 -21.833 -54 -31.5s-46 -14.5 -74 -14.5z" />
    <glyph glyph-name="v" unicode="v" horiz-adv-x="472" 
d="M141 456l108 -367l238 367h57l-312 -476l-144 476h53z" />
    <glyph glyph-name="w" unicode="w" horiz-adv-x="744" 
d="M144 456l85 -353l206 353h32l80 -353l210 353h57l-288 -476l-91 381l-226 -381l-119 476h54z" />
    <glyph glyph-name="x" unicode="x" horiz-adv-x="488" 
d="M529 456l-213 -221l146 -235h-62l-120 198l-187 -198h-67l228 235l-135 221h62l108 -185l172 185h68z" />
    <glyph glyph-name="y" unicode="y" horiz-adv-x="489" 
d="M27 -165c4.66699 -5.33301 10.334 -9.66895 17.001 -13.002c5.33301 -3.33301 11.666 -6.33301 18.999 -9s15.666 -4 24.999 -4c16 0 30.333 5.33301 43 16s25.667 27.334 39 50.001l68 120l-144 461h54l126 -407l230 407h57l-168 -292l-63 -110l-56 -97.5l-41.5 -72
l-19.5 -33.5c-19.333 -34 -39 -58 -59 -72s-43.667 -21 -71 -21c-12 0 -23.167 1.66699 -33.5 5s-19.166 7.33301 -26.499 12c-8.66699 4.66699 -17 10.334 -25 17.001z" />
    <glyph glyph-name="z" unicode="z" horiz-adv-x="465" 
d="M511 456l-364 -404h282l-9 -52h-382l364 404h-272l9 52h372z" />
    <glyph glyph-name="braceleft" unicode="{" horiz-adv-x="312" 
d="M391 692h-9.99805c-10 0 -19.333 -0.833008 -28 -2.5s-16.5 -5 -23.5 -10s-13 -12.167 -18 -21.5s-8.83301 -22 -11.5 -38l-42 -235c-4.66699 -26 -11.5 -47.333 -20.5 -64s-19.167 -29.667 -30.5 -39s-23.5 -15.666 -36.5 -18.999s-25.833 -5.33301 -38.5 -6l-1 -4
c12.667 -0.666992 24.834 -2.66699 36.501 -6s21.667 -9.66602 30 -18.999s14.166 -22.333 17.499 -39s2.66602 -38 -2.00098 -64l-42 -235c-2.66699 -16 -3.16699 -28.667 -1.5 -38s5 -16.5 10 -21.5s11.5 -8.33301 19.5 -10s17 -2.5 27 -2.5h10l-8 -48h-20
c-13.333 0 -26.166 2.33301 -38.499 7s-22.833 11.667 -31.5 21s-15 21.166 -19 35.499s-4.33301 31.166 -1 50.499l43 241c4 22.667 4.16699 40.667 0.5 54s-9.5 23.5 -17.5 30.5s-17.833 11.5 -29.5 13.5s-23.834 3 -36.501 3l11 58c12.667 0 25.167 1 37.5 3
s23.666 6.5 33.999 13.5s19.5 17.167 27.5 30.5s14 31.333 18 54l43 241c7.33301 40 21 69 41 87s49.667 27 89 27h20z" />
    <glyph glyph-name="bar" unicode="|" horiz-adv-x="260" 
d="M234 740h52l-171 -970h-52z" />
    <glyph glyph-name="braceright" unicode="}" horiz-adv-x="312" 
d="M173 740l19.9971 0.000976562c15.333 0 29.333 -2.16699 42 -6.5s23.167 -11.166 31.5 -20.499s14 -21.166 17 -35.499s2.83301 -31.5 -0.5 -51.5l-43 -241c-4 -22.667 -4.16699 -40.667 -0.5 -54s9.5 -23.5 17.5 -30.5s17.833 -11.5 29.5 -13.5s23.834 -3 36.501 -3
l-11 -58c-12.667 0 -25.167 -1 -37.5 -3s-23.666 -6.5 -33.999 -13.5s-19.5 -17.167 -27.5 -30.5s-14 -31.333 -18 -54l-43 -241c-7.33301 -38.667 -20.333 -67.334 -39 -86.001s-49 -28 -91 -28h-20l8 48h10c10 0 19.167 0.833008 27.5 2.5s16 5 23 10
s13.167 12.167 18.5 21.5s9.33301 22 12 38l42 235c4.66699 26 11.5 47.333 20.5 64s19.167 29.667 30.5 39s23.5 15.666 36.5 18.999s25.833 5.33301 38.5 6l1 4c-12.667 0.666992 -24.834 2.66699 -36.501 6s-21.667 9.66602 -30 18.999s-14.166 22.333 -17.499 39
s-2.66602 38 2.00098 64l42 235c2.66699 16 3.16699 28.667 1.5 38s-5 16.5 -10 21.5s-11.5 8.33301 -19.5 10s-17 2.5 -27 2.5h-10z" />
    <glyph glyph-name="asciitilde" unicode="~" horiz-adv-x="409" 
d="M74 310c5.33301 16.667 13.333 31.334 24 44.001c9.33301 11.333 21.5 21.5 36.5 30.5s34.167 13.5 57.5 13.5c15.333 0 29.666 -3 42.999 -9s26 -12.667 38 -20s23.5 -14 34.5 -20s21.5 -9 31.5 -9c14.667 0 26.667 3 36 9s16.666 12.667 21.999 20
c6.66699 8.66699 11.667 18.667 15 30l44 -21c-6 -16.667 -14.333 -31.334 -25 -44.001c-9.33301 -11.333 -21.5 -21.5 -36.5 -30.5s-34.167 -13.5 -57.5 -13.5c-15.333 0 -29.666 3 -42.999 9s-26 12.667 -38 20s-23.5 14 -34.5 20s-21.5 9 -31.5 9
c-14.667 0 -26.667 -3.16699 -36 -9.5s-16.666 -13.166 -21.999 -20.499c-6.66699 -8.66699 -11.667 -18.334 -15 -29.001z" />
    <glyph glyph-name="uni00A0" unicode="&#xa0;" horiz-adv-x="272" 
 />
    <glyph glyph-name="exclamdown" unicode="&#xa1;" horiz-adv-x="256" 
d="M151 281h52l-92 -519h-52zM244 434c0 -11.333 -3.83301 -20.833 -11.5 -28.5s-17.167 -11.5 -28.5 -11.5s-20.833 3.83301 -28.5 11.5s-11.5 17.167 -11.5 28.5s3.83301 20.833 11.5 28.5s17.167 11.5 28.5 11.5s20.833 -3.83301 28.5 -11.5s11.5 -17.167 11.5 -28.5z
" />
    <glyph glyph-name="cent" unicode="&#xa2;" horiz-adv-x="580" 
d="M289 -9c-27.333 4 -51.499 11.8369 -72.499 23.5039s-38.5 26.5 -52.5 44.5s-24.667 38.167 -32 60.5s-11 46.166 -11 71.499c0 34.667 6.16699 68.167 18.5 100.5s29.666 61 51.999 86s49 45.5 80 61.5s64.833 25.333 101.5 28l16 91h43l-16 -91
c28 -2.66699 51.5 -8.5 70.5 -17.5s34.833 -18.5 47.5 -28.5c14 -12 25.667 -25 35 -39l-41 -31c-7.33301 10.667 -17 20.667 -29 30c-10 7.33301 -22.667 14.666 -38 21.999s-33.333 11.666 -54 12.999l-67 -377c23.333 1.33301 44.333 6.16602 63 14.499
s34.667 17.166 48 26.499c15.333 10.667 29 22.334 41 35.001l34 -37c-16 -16.667 -34 -31.334 -54 -44.001c-17.333 -11.333 -37.833 -21.666 -61.5 -30.999s-50.167 -14.333 -79.5 -15l-14 -82h-43zM176.001 191.004c0 -19.333 2.66797 -37.5 8.00098 -54.5
s13.166 -32.167 23.499 -45.5s23 -24.333 38 -33s32.5 -14.334 52.5 -17.001l66 374c-28 -4 -53.5 -12.833 -76.5 -26.5s-42.833 -30.667 -59.5 -51s-29.5 -43.166 -38.5 -68.499s-13.5 -51.333 -13.5 -78z" />
    <glyph glyph-name="sterling" unicode="&#xa3;" horiz-adv-x="580" 
d="M419 661c-22.667 0 -44.4951 -3.83594 -65.4951 -11.5029s-39.5 -18.5 -55.5 -32.5s-28.833 -31.167 -38.5 -51.5s-14.5 -43.166 -14.5 -68.499c0 -17.333 3.16699 -36 9.5 -56s16.166 -45.667 29.499 -77h192l-9 -48h-166l8 -24c2 -7.33301 4 -15.666 6 -24.999
s3 -19.666 3 -30.999c0 -28 -4.66699 -52.5 -14 -73.5s-22.333 -39.833 -39 -56.5c12 -2.66699 23.333 -7.66699 34 -15l32.5 -22.5c11 -7.66699 22.333 -14.5 34 -20.5s24.167 -9 37.5 -9c17.333 0 31.833 3.5 43.5 10.5s21.167 14.833 28.5 23.5c8 10 14.333 21.333 19 34
l44 -24c-8 -18 -18 -34 -30 -48c-10.667 -12 -24.5 -22.833 -41.5 -32.5s-38.167 -14.5 -63.5 -14.5c-23.333 0 -43 3.66699 -59 11s-30.5 15.333 -43.5 24s-25.667 16.667 -38 24s-26.833 11 -43.5 11c-18 0 -32.833 -3.5 -44.5 -10.5s-21.167 -14.833 -28.5 -23.5
c-8 -10 -14.667 -21.333 -20 -34l-45 23c6.66699 16 15.667 30.667 27 44c9.33301 11.333 21.666 22.333 36.999 33s33.666 17.667 54.999 21c17.333 12 32.166 28.833 44.499 50.5s18.5 43.5 18.5 65.5c0 10.667 -1.16699 21.167 -3.5 31.5s-4.83301 19.833 -7.5 28.5
c-3.33301 10 -7 19.667 -11 29h-108l9 48h82c-10.667 26 -19 49.833 -25 71.5s-9 42.167 -9 61.5c0 30.667 6 59 18 85s28.333 48.667 49 68s45 34.5 73 45.5s57.667 16.5 89 16.5c33.333 0 61.333 -5.16699 84 -15.5s40.667 -21.833 54 -34.5c16 -14.667 28.667 -31 38 -49
l-45 -28c-8 14 -18 26.667 -30 38c-10.667 9.33301 -24.334 18 -41.001 26s-36.667 12 -60 12z" />
    <glyph glyph-name="currency" unicode="&#xa4;" horiz-adv-x="562" 
d="M102 290c0 33.333 7 65.498 21 96.498s33 58.833 57 83.5l-53 65l42 36l53 -65c21.333 15.333 44.5 27.333 69.5 36s51.167 13 78.5 13c29.333 0 55.666 -4.66699 78.999 -14s43.666 -21.666 60.999 -36.999l81 69l34 -40l-82 -69c20 -32 30 -68.667 30 -110
c0 -34 -7 -66.5 -21 -97.5s-32.667 -58.5 -56 -82.5l52 -63l-42 -36l-53 64c-21.333 -15.333 -44.666 -27.166 -69.999 -35.499s-51.333 -12.5 -78 -12.5c-30 0 -56.667 4.5 -80 13.5s-43.666 21.167 -60.999 36.5l-80 -68l-34 40l81 68c-19.333 32.667 -29 69 -29 109z
M370 504.998c-27.333 0 -54.001 -5.83691 -80.001 -17.5039s-49.333 -27.167 -70 -46.5s-37.167 -42.166 -49.5 -68.499s-18.5 -53.833 -18.5 -82.5c0 -21.333 3.66699 -41.166 11 -59.499s17.833 -34.166 31.5 -47.499s29.834 -23.833 48.501 -31.5
s39.334 -11.5 62.001 -11.5c27.333 0 54 5.66699 80 17s49.333 26.833 70 46.5s37.167 42.334 49.5 68.001s18.5 53.167 18.5 82.5c0 21.333 -3.83301 41.166 -11.5 59.499s-18.167 34.333 -31.5 48s-29.333 24.334 -48 32.001s-39.334 11.5 -62.001 11.5z" />
    <glyph glyph-name="yen" unicode="&#xa5;" horiz-adv-x="580" 
d="M295 317l-26 66h-167l8 47h141l-106 270h57l143 -372l275 372h61l-202 -270h141l-8 -47h-168l-49 -66h205l-8 -47h-229l-47 -270h-52l47 270h-229l8 47h205z" />
    <glyph glyph-name="brokenbar" unicode="&#xa6;" horiz-adv-x="260" 
d="M234 740h52l-69 -390h-52zM132 160h52l-69 -390h-52z" />
    <glyph glyph-name="section" unicode="&#xa7;" horiz-adv-x="508" 
d="M480 267c0 -18 -3.66016 -35.168 -10.9932 -51.501s-17.5 -31.333 -30.5 -45s-28.5 -25.334 -46.5 -35.001s-37.667 -17.167 -59 -22.5c10.667 -7.33301 21.167 -15 31.5 -23s19.5 -17.333 27.5 -28s14.5 -22.667 19.5 -36s7.5 -29 7.5 -47
c0 -23.333 -5.33301 -45.5 -16 -66.5s-25 -39.333 -43 -55s-39 -28.167 -63 -37.5s-49.333 -14 -76 -14c-29.333 0 -53.833 4.16699 -73.5 12.5s-35.834 17.833 -48.501 28.5c-14.667 12 -26.667 25.667 -36 41l43 31c6.66699 -12 15.334 -22.333 26.001 -31
c9.33301 -8 21.166 -15.167 35.499 -21.5s32.166 -9.5 53.499 -9.5c18 0 35.667 2.66699 53 8s32.666 13.166 45.999 23.499s24.166 23.166 32.499 38.499s12.5 32.666 12.5 51.999c0 17.333 -4.16699 32.333 -12.5 45s-19 24 -32 34s-27.333 19.167 -43 27.5l-46.5 25.5
l-44 25.5c-14 8.33301 -26.167 17.833 -36.5 28.5s-18.666 22.834 -24.999 36.501s-9.5 30.167 -9.5 49.5c0 18 3.66699 35.333 11 52s17.5 31.667 30.5 45s28.667 24.833 47 34.5s38.166 17.167 59.499 22.5c-11.333 6.66699 -22.333 14.167 -33 22.5s-20 17.833 -28 28.5
s-14.333 22.834 -19 36.501s-7 29.167 -7 46.5c0 22.667 5.16699 44.5 15.5 65.5s24.5 39.5 42.5 55.5s39 28.667 63 38s49.667 14 77 14c28.667 0 53.167 -4.33301 73.5 -13s36.833 -18 49.5 -28c14.667 -12 26.667 -25.667 36 -41l-44 -31
c-6.66699 11.333 -15.334 21.666 -26.001 30.999c-9.33301 7.33301 -21.333 14.333 -36 21s-32.334 10 -53.001 10c-17.333 0 -34.5 -2.66699 -51.5 -8s-32.333 -13.166 -46 -23.499s-24.834 -23.166 -33.501 -38.499s-13 -32.666 -13 -51.999c0 -17.333 4 -32.5 12 -45.5
s18.5 -24.5 31.5 -34.5s27.5 -19 43.5 -27l48 -25c12.667 -6.66699 25.667 -14.167 39 -22.5s25.5 -18 36.5 -29s20.167 -23.667 27.5 -38s11 -31.166 11 -50.499zM317.007 374.999c-16.667 -1.33301 -33.833 -4.83301 -51.5 -10.5s-33.667 -13.667 -48 -24
s-26.166 -23 -35.499 -38s-14 -32.167 -14 -51.5c0 -14.667 3.16699 -27 9.5 -37s14.666 -19 24.999 -27s22.333 -15.333 36 -22s27.5 -14 41.5 -22c16.667 1.33301 33.667 4.83301 51 10.5s33.166 13.5 47.499 23.5s26.166 22.5 35.499 37.5s14 32.5 14 52.5
c0 14.667 -3.16699 27 -9.5 37s-14.666 19 -24.999 27s-22.166 15.333 -35.499 22s-27 14 -41 22z" />
    <glyph glyph-name="dieresis" unicode="&#xa8;" horiz-adv-x="391" 
d="M171 604c0 11.333 3.83301 20.833 11.5 28.5s17.167 11.5 28.5 11.5s20.833 -3.83301 28.5 -11.5s11.5 -17.167 11.5 -28.5s-3.83301 -20.833 -11.5 -28.5s-17.167 -11.5 -28.5 -11.5s-20.833 3.83301 -28.5 11.5s-11.5 17.167 -11.5 28.5zM352 604
c0 11.333 3.83301 20.833 11.5 28.5s17.167 11.5 28.5 11.5s20.833 -3.83301 28.5 -11.5s11.5 -17.167 11.5 -28.5s-3.83301 -20.833 -11.5 -28.5s-17.167 -11.5 -28.5 -11.5s-20.833 3.83301 -28.5 11.5s-11.5 17.167 -11.5 28.5z" />
    <glyph glyph-name="copyright" unicode="&#xa9;" horiz-adv-x="820" 
d="M105 293c0 52.667 10.333 104.165 31 154.498s49.667 95 87 134s81.833 70.5 133.5 94.5s108.834 36 171.501 36c48 0 91.167 -7.83301 129.5 -23.5s70.833 -37.167 97.5 -64.5s47 -59.333 61 -96s21 -76.334 21 -119.001c0 -53.333 -10.333 -105.166 -31 -155.499
s-49.5 -95.166 -86.5 -134.499s-81.333 -71 -133 -95s-108.834 -36 -171.501 -36c-48 0 -91.167 7.83301 -129.5 23.5s-70.833 37.334 -97.5 65.001s-47.167 60 -61.5 97s-21.5 76.833 -21.5 119.5zM528 669.998c-53.333 0 -102.999 -10.166 -148.999 -30.499
s-86 -47.666 -120 -81.999s-60.833 -74.333 -80.5 -120s-29.5 -93.834 -29.5 -144.501c0 -36 6.16699 -70 18.5 -102s30 -60 53 -84s51 -42.833 84 -56.5s69.833 -20.5 110.5 -20.5c52.667 0 102 10.167 148 30.5s86 47.833 120 82.5s60.833 75 80.5 121
s29.5 94.333 29.5 145c0 37.333 -6.16699 71.833 -18.5 103.5s-30 59.167 -53 82.5s-50.833 41.666 -83.5 54.999s-69.334 20 -110.001 20zM451.001 190.999c20 0 38.335 3.33105 55.002 9.99805s31 14 43 22c14 9.33301 27 20.333 39 33l29 -32
c-13.333 -14 -28.666 -26.667 -45.999 -38c-14.667 -9.33301 -32.167 -17.833 -52.5 -25.5s-42.833 -11.5 -67.5 -11.5c-28 0 -52.5 4.5 -73.5 13.5s-38.5 21.167 -52.5 36.5s-24.667 33.166 -32 53.499s-11 41.833 -11 64.5c0 30.667 5.66699 59.834 17 87.501
s27.166 52 47.499 73s44.166 37.833 71.499 50.5s57 19 89 19c26 0 48.333 -3.66699 67 -11s33.667 -15.666 45 -24.999c13.333 -10.667 24.666 -22.334 33.999 -35.001l-35 -25c-7.33301 10 -16.333 19 -27 27c-9.33301 6.66699 -20.833 12.834 -34.5 18.501
s-30.167 8.5 -49.5 8.5c-26.667 0 -51 -5.16699 -73 -15.5s-41 -24.333 -57 -42s-28.333 -37.834 -37 -60.501s-13 -46 -13 -70c0 -17.333 2.66699 -33.666 8 -48.999s13.333 -28.666 24 -39.999s23.667 -20.333 39 -27s33 -10 53 -10z" />
    <glyph glyph-name="ordfeminine" unicode="&#xaa;" horiz-adv-x="306" 
d="M273 712c34 0 59.1689 -8.3291 75.502 -24.9961s24.5 -36.334 24.5 -59.001v-8c0 -2.66699 -0.333008 -5.33398 -1 -8.00098l-32 -181h-44l8 40c-7.33301 -8.66699 -16 -16.667 -26 -24c-8.66699 -6 -18.834 -11.333 -30.501 -16s-24.167 -7 -37.5 -7
c-24 0 -45.167 7 -63.5 21s-27.5 34.667 -27.5 62c0 16 3.33301 30.167 10 42.5s15.834 23 27.501 32s24.834 15.833 39.501 20.5s30 7 46 7c11.333 0 21.666 -1.33301 30.999 -4s17.666 -5.66699 24.999 -9c7.33301 -4 14.333 -8.33301 21 -13l4 19
c0.666992 3.33301 1 6.16602 1 8.49902v7.5c0 10.667 -2 19.167 -6 25.5s-9 11.166 -15 14.499s-12.333 5.5 -19 6.5s-12.334 1.5 -17.001 1.5c-10.667 0 -21 -1.16699 -31 -3.5s-19.333 -4.83301 -28 -7.5c-10 -3.33301 -19.667 -7 -29 -11l-18 43
c10 4.66699 21 8.66699 33 12c10 3.33301 21.833 6.33301 35.5 9s28.167 4 43.5 4zM222.002 468.004c12 0 23.1689 2.00195 33.502 6.00195s19.166 8.66699 26.499 14c8.66699 6 16.667 13 24 21l7 40c-5.33301 3.33301 -11.666 6.33301 -18.999 9c-6 2 -13.333 4 -22 6
s-18.667 3 -30 3c-8 0 -16.333 -1 -25 -3s-16.834 -5.33301 -24.501 -10s-13.834 -10.834 -18.501 -18.501s-7 -17.167 -7 -28.5c0 -14.667 5.83301 -24.834 17.5 -30.501s24.167 -8.5 37.5 -8.5z" />
    <glyph glyph-name="guillemotleft" unicode="&#xab;" horiz-adv-x="454" 
d="M264 469l36 -35l-176 -189l117 -195l-44 -29l-134 228zM426 469l36 -35l-186 -193l116 -190l-45 -30l-132 224z" />
    <glyph glyph-name="logicalnot" unicode="&#xac;" horiz-adv-x="674" 
d="M103 485h590l-50 -285h-50l42 237h-540z" />
    <glyph glyph-name="softhyphen" unicode="&#xad;" horiz-adv-x="333" 
d="M79 261h267l-9 -48h-267z" />
    <glyph glyph-name="registered" unicode="&#xae;" horiz-adv-x="405" 
d="M112 506c0 26.667 5.49902 52.499 16.499 77.499s26 47 45 66s41.167 34.167 66.5 45.5s52.666 17 81.999 17c24.667 0 46.834 -4.16699 66.501 -12.5s36.167 -19.666 49.5 -33.999s23.5 -31 30.5 -50s10.5 -38.833 10.5 -59.5c0 -26.667 -5.33301 -52.5 -16 -77.5
s-25.5 -47 -44.5 -66s-41.167 -34.167 -66.5 -45.5s-52.333 -17 -81 -17c-25.333 0 -47.833 4.16699 -67.5 12.5s-36.167 19.5 -49.5 33.5s-23.666 30.5 -30.999 49.5s-11 39.167 -11 60.5zM257.999 626.999l59.998 -0.00195312c14.667 0 27.834 -4.66699 39.501 -14
s15.834 -24 12.501 -44c-2.66699 -15.333 -8.5 -27.666 -17.5 -36.999s-20.5 -15.666 -34.5 -18.999l36 -74h-35l-34 71h-17l-12 -71h-31zM299.997 539.997c23.333 0 37 9.66699 41 29c2 10.667 0.166992 18.167 -5.5 22.5s-14.167 6.5 -25.5 6.5h-26l-10 -58h26z
M321.997 675.997c-23.333 0 -45.333 -4.50195 -66 -13.502s-38.834 -21.167 -54.501 -36.5s-28.167 -33.333 -37.5 -54s-14 -42.667 -14 -66c0 -17.333 3 -33.166 9 -47.499s14.333 -26.833 25 -37.5s23.334 -19 38.001 -25s31 -9 49 -9c23.333 0 45.333 4.33301 66 13
s38.834 20.667 54.501 36s28.167 33.333 37.5 54s14 42.667 14 66c0 16.667 -3 32.334 -9 47.001s-14.333 27.5 -25 38.5s-23.334 19.5 -38.001 25.5s-31 9 -49 9z" />
    <glyph glyph-name="macron" unicode="&#xaf;" horiz-adv-x="314" 
d="M117 631h302l-9 -48h-302z" />
    <glyph glyph-name="degree" unicode="&#xb0;" horiz-adv-x="332" 
d="M412 586c0 -21.333 -4.33203 -41.668 -12.999 -61.001s-20.5 -36.5 -35.5 -51.5s-32.333 -27 -52 -36s-40.5 -13.5 -62.5 -13.5c-21.333 0 -40 3.5 -56 10.5s-29.5 16.167 -40.5 27.5s-19.167 24.666 -24.5 39.999s-8 31.333 -8 48c0 20.667 4.33301 40.834 13 60.501
s20.5 37 35.5 52s32.333 27 52 36s40.5 13.5 62.5 13.5c21.333 0 40.166 -3.5 56.499 -10.5s29.833 -16.167 40.5 -27.5s18.667 -24.666 24 -39.999s8 -31.333 8 -48zM283.001 665.998c-15.333 0 -30.001 -3.16602 -44.001 -9.49902s-26.5 -14.833 -37.5 -25.5
s-19.667 -23 -26 -37s-9.5 -28.667 -9.5 -44c0 -23.333 7.5 -42.5 22.5 -57.5s35.167 -22.5 60.5 -22.5c14.667 0 28.834 3.16699 42.501 9.5s26 14.666 37 24.999s19.833 22.5 26.5 36.5s10 29 10 45c0 23.333 -7.33301 42.5 -22 57.5s-34.667 22.5 -60 22.5z" />
    <glyph glyph-name="plusminus" unicode="&#xb1;" horiz-adv-x="520" 
d="M53 48h430l-8 -48h-430zM99 310h190l29 164h50l-29 -164h190l-8 -48h-190l-30 -170h-50l30 170h-190z" />
    <glyph glyph-name="twosuperior" unicode="&#xb2;" horiz-adv-x="351" 
d="M339 559c-2 -2 -9.99902 -9.5 -23.999 -22.5l-45 -42.5l-63 -60h184l-7 -40h-282l101 93l37.5 34.5l33 30l23.5 21.5c6 5.33301 9.33301 8.33301 10 9l23 22.5c8 7.66699 15.5 16 22.5 25s12.667 18.833 17 29.5s6.5 22 6.5 34c0 18.667 -6.33301 35.167 -19 49.5
s-32 21.5 -58 21.5c-18 0 -33.667 -3.66699 -47 -11s-24.333 -15.333 -33 -24c-10 -10.667 -18.333 -22.334 -25 -35.001l-37 20c9.33301 17.333 20.666 32.666 33.999 45.999c11.333 11.333 25.833 21.833 43.5 31.5s39.167 14.5 64.5 14.5
c39.333 0 69.5 -10.833 90.5 -32.5s31.5 -48.5 31.5 -80.5c0 -25.333 -8.16699 -48.666 -24.5 -69.999s-35.5 -42.666 -57.5 -63.999z" />
    <glyph glyph-name="threesuperior" unicode="&#xb3;" horiz-adv-x="358" 
d="M281 621c10.667 0 21.6621 1.83301 32.9951 5.5s21.666 9 30.999 16s16.833 15.667 22.5 26s8.5 22.166 8.5 35.499c0 15.333 -6.16699 29.166 -18.5 41.499s-30.166 18.5 -53.499 18.5c-17.333 0 -31.833 -2.83301 -43.5 -8.5s-21.167 -12.167 -28.5 -19.5
c-8.66699 -8 -16 -17.333 -22 -28l-36 22c8.66699 14 19 26.667 31 38c10.667 9.33301 24 18 40 26s35.667 12 59 12c38.667 0 67.834 -10 87.501 -30s29.5 -44 29.5 -72c0 -24 -6.16699 -44.5 -18.5 -61.5s-29.166 -30.167 -50.499 -39.5
c8.66699 -2.66699 16.667 -7.66699 24 -15c6 -6 11.5 -14.5 16.5 -25.5s7.5 -25.167 7.5 -42.5c0 -20 -4 -38.167 -12 -54.5s-18.667 -30.166 -32 -41.499s-29.166 -20.166 -47.499 -26.499s-37.5 -9.5 -57.5 -9.5c-25.333 0 -46.333 4.83301 -63 14.5
s-29.667 20.5 -39 32.5c-11.333 14 -19.666 30 -24.999 48l39 18c4.66699 -13.333 10.667 -25.333 18 -36c6.66699 -9.33301 15.667 -17.5 27 -24.5s25.666 -10.5 42.999 -10.5c12.667 0 25.334 2 38.001 6s24 9.83301 34 17.5s18 17 24 28s9 23.833 9 38.5
c0 18.667 -6.66699 33.667 -20 45s-31.666 17 -54.999 17h-28l7 39h21v0z" />
    <glyph glyph-name="acute" unicode="&#xb4;" horiz-adv-x="264" 
d="M354 659l-176 -148l-31 36l175 149z" />
    <glyph glyph-name="mu" unicode="&#xb5;" horiz-adv-x="528" 
d="M244 -12c-21.333 0 -41.833 4.33203 -61.5 12.999s-35.834 20.667 -48.501 36l-47 -267h-52l121 686h52l-51 -290c-7.33301 -44 -1.5 -76.167 17.5 -96.5s47.167 -30.5 84.5 -30.5c25.333 0 48 5.16699 68 15.5s37 21.833 51 34.5
c16.667 14.667 31.334 31.334 44.001 50.001l56 317h52l-80 -456h-47l14 81c-12.667 -18 -27.667 -33.667 -45 -47c-14.667 -11.333 -32.667 -21.833 -54 -31.5s-46 -14.5 -74 -14.5z" />
    <glyph glyph-name="paragraph" unicode="&#xb6;" horiz-adv-x="568" 
d="M320 -188h-52.001l73 414c-25.333 0 -50 5.16699 -74 15.5s-45.167 24.5 -63.5 42.5s-33.166 39.167 -44.499 63.5s-17 50.833 -17 79.5c0 43.333 6.66699 82 20 116s32.333 62.667 57 86s54.5 41 89.5 53s73.833 18 116.5 18h174l-157 -888h-52l148 840h-70z" />
    <glyph glyph-name="periodcentered" unicode="&#xb7;" horiz-adv-x="212" 
d="M127 350c0 11.333 3.83301 20.833 11.5 28.5s17.167 11.5 28.5 11.5s20.833 -3.83301 28.5 -11.5s11.5 -17.167 11.5 -28.5s-3.83301 -20.833 -11.5 -28.5s-17.167 -11.5 -28.5 -11.5s-20.833 3.83301 -28.5 11.5s-11.5 17.167 -11.5 28.5z" />
    <glyph glyph-name="cedilla" unicode="&#xb8;" horiz-adv-x="315" 
d="M113 -250l-50 17l87 182l51 -5z" />
    <glyph glyph-name="onesuperior" unicode="&#xb9;" horiz-adv-x="276" 
d="M293 800h38l-72 -406h-42l61 345l-124 -89l-21 34z" />
    <glyph glyph-name="ordmasculine" unicode="&#xba;" horiz-adv-x="324" 
d="M408 584c0 -21.333 -4.16504 -41.666 -12.498 -60.999s-19.833 -36.333 -34.5 -51s-32 -26.334 -52 -35.001s-41.333 -13 -64 -13c-21.333 0 -40 3.5 -56 10.5s-29.333 16.167 -40 27.5s-18.834 24.666 -24.501 39.999s-8.5 31.333 -8.5 48
c0 20.667 4.16699 40.834 12.5 60.501s19.666 37 33.999 52s31.333 27 51 36s41.167 13.5 64.5 13.5c20.667 0 39.167 -3.5 55.5 -10.5s30 -16.5 41 -28.5s19.333 -25.667 25 -41s8.5 -31.333 8.5 -48zM245.002 471c15.333 0 30 2.99805 44 8.99805s26.167 14 36.5 24
s18.5 21.833 24.5 35.5s9 28.5 9 44.5c0 22.667 -7.5 41.834 -22.5 57.501s-34.5 23.5 -58.5 23.5c-15.333 0 -30 -3.16699 -44 -9.5s-26.167 -14.666 -36.5 -24.999s-18.5 -22.5 -24.5 -36.5s-9 -28.667 -9 -44c0 -22.667 7.5 -41.5 22.5 -56.5s34.5 -22.5 58.5 -22.5z" />
    <glyph glyph-name="guillemotright" unicode="&#xbb;" horiz-adv-x="454" 
d="M489 243l-202 -222l-35 36l176 191l-119 192l43 29zM335 245l-212 -224l-35 36l186 193l-115 190l43 29z" />
    <glyph glyph-name="onequarter" unicode="&#xbc;" horiz-adv-x="830" 
d="M312 700h38l-72 -406h-42l61 345l-124 -89l-21 34zM781 729l32 -28l-601 -729l-32 28zM762 406h36l-48 -273h54l-7 -40h-54l-17 -93h-42l17 93h-211zM708 133l34 194l-167 -194h133z" />
    <glyph glyph-name="onehalf" unicode="&#xbd;" horiz-adv-x="830" 
d="M312 700h38l-72 -406h-42l61 345l-124 -89l-21 34zM744 165c-2 -2 -9.99902 -9.5 -23.999 -22.5l-45 -42.5l-63 -60h184l-7 -40h-282l101 93l37.5 34.5l33 30l23.5 21.5c6 5.33301 9.33301 8.33301 10 9l23 22.5c8 7.66699 15.5 16 22.5 25s12.667 18.833 17 29.5
s6.5 22 6.5 34c0 18.667 -6.33301 35.167 -19 49.5s-32 21.5 -58 21.5c-18 0 -33.667 -3.66699 -47 -11s-24.333 -15.333 -33 -24c-10 -10.667 -18.333 -22.334 -25 -35.001l-37 20c9.33301 17.333 20.666 32.666 33.999 45.999c11.333 11.333 25.833 21.833 43.5 31.5
s39.167 14.5 64.5 14.5c39.333 0 69.5 -10.833 90.5 -32.5s31.5 -48.5 31.5 -80.5c0 -25.333 -8.16699 -48.666 -24.5 -69.999s-35.5 -42.666 -57.5 -63.999zM740.001 729l32 -28l-601 -729l-32 28z" />
    <glyph glyph-name="threequarters" unicode="&#xbe;" horiz-adv-x="830" 
d="M799 729l32 -28l-601 -729l-32 28zM763 406h36l-48 -273h54l-7 -40h-54l-17 -93h-42l17 93h-211zM709 133l34 194l-167 -194h133zM266 521c10.667 0 21.6621 1.83301 32.9951 5.5s21.666 9 30.999 16s16.833 15.667 22.5 26s8.5 22.166 8.5 35.499
c0 15.333 -6.16699 29.166 -18.5 41.499s-30.166 18.5 -53.499 18.5c-17.333 0 -31.833 -2.83301 -43.5 -8.5s-21.167 -12.167 -28.5 -19.5c-8.66699 -8 -16 -17.333 -22 -28l-36 22c8.66699 14 19 26.667 31 38c10.667 9.33301 24 18 40 26s35.667 12 59 12
c38.667 0 67.834 -10 87.501 -30s29.5 -44 29.5 -72c0 -24 -6.16699 -44.5 -18.5 -61.5s-29.166 -30.167 -50.499 -39.5c8.66699 -2.66699 16.667 -7.66699 24 -15c6 -6 11.5 -14.5 16.5 -25.5s7.5 -25.167 7.5 -42.5c0 -20 -4 -38.167 -12 -54.5
s-18.667 -30.166 -32 -41.499s-29.166 -20.166 -47.499 -26.499s-37.5 -9.5 -57.5 -9.5c-25.333 0 -46.333 4.83301 -63 14.5s-29.667 20.5 -39 32.5c-11.333 14 -19.666 30 -24.999 48l39 18c4.66699 -13.333 10.667 -25.333 18 -36
c6.66699 -9.33301 15.667 -17.5 27 -24.5s25.666 -10.5 42.999 -10.5c12.667 0 25.334 2 38.001 6s24 9.83301 34 17.5s18 17 24 28s9 23.833 9 38.5c0 18.667 -6.66699 33.667 -20 45s-31.666 17 -54.999 17h-28l7 39h21v0z" />
    <glyph glyph-name="questiondown" unicode="&#xbf;" horiz-adv-x="478" 
d="M257.019 102.021l-59.998 -43.4971c-19.332 -13.666 -36.498 -27.832 -51.4971 -42.4971c-14.999 -14.666 -26.998 -30.665 -35.998 -47.9971c-8.99902 -17.333 -13.499 -37.665 -13.499 -60.9961c0 -29.998 10.166 -55.1631 30.498 -75.4961
c20.332 -20.332 50.8301 -30.498 91.4951 -30.498c31.998 0 58.6631 5.83301 79.9951 17.499s38.6641 24.165 51.9961 37.498c15.333 15.999 27.332 33.998 35.998 53.9971l46.9971 -21.998c-12.666 -25.332 -28.998 -48.3311 -48.9971 -68.9961
c-17.332 -17.332 -39.3311 -33.1641 -65.9961 -47.4971s-59.9961 -21.499 -99.9932 -21.499c-25.999 0 -49.8311 3.66699 -71.4961 11s-40.3301 17.832 -55.9951 31.498c-15.666 13.666 -27.832 30.165 -36.498 49.4971s-12.999 40.9971 -12.999 64.9961
c0 23.998 4.16602 45.8301 12.499 65.4961c8.33301 19.665 20.832 38.8301 37.498 57.4951c16.665 18.665 37.3301 37.3311 61.9951 55.9971l85.9941 61.9961c6.66699 4.66602 11.167 12.665 13.5 23.998l8.5 42.9971l11.999 66.9961h51.9971l-15.999 -89.9941
c-2 -12.666 -4.16699 -23.165 -6.5 -31.498s-5.16602 -15.666 -8.49902 -21.999s-7.99902 -12.166 -13.998 -17.499c-6 -5.33301 -13.666 -11.666 -22.999 -18.999zM361.011 434.002c0 -11.333 -3.83301 -20.832 -11.5 -28.498
c-7.66602 -7.66699 -17.165 -11.5 -28.498 -11.5s-20.832 3.83301 -28.498 11.5c-7.66602 7.66602 -11.499 17.165 -11.499 28.498s3.83301 20.832 11.499 28.498s17.165 11.499 28.498 11.499s20.832 -3.83301 28.498 -11.499c7.66699 -7.66602 11.5 -17.165 11.5 -28.498z
" />
    <glyph glyph-name="Agrave" unicode="&#xc0;" horiz-adv-x="640" 
d="M414 700h58l156 -700h-53l-45 204h-344l-115 -204h-59zM215 252h304l-83 390zM371 937l131 -155l-37 -32l-133 153z" />
    <glyph glyph-name="Aacute" unicode="&#xc1;" horiz-adv-x="640" 
d="M414 700h58l156 -700h-53l-45 204h-344l-115 -204h-59zM215 252h304l-83 390zM612 898l-176 -148l-31 36l175 149z" />
    <glyph glyph-name="Acircumflex" unicode="&#xc2;" horiz-adv-x="640" 
d="M462 907l147 -115l-34 -36l-117 93l-139 -93l-29 40zM414 700h58l156 -700h-53l-45 204h-344l-115 -204h-59zM215 252h304l-83 390z" />
    <glyph glyph-name="Atilde" unicode="&#xc3;" horiz-adv-x="640" 
d="M291 808c5.33301 13.333 12.332 25.333 20.999 36c7.33301 9.33301 17.5 17.833 30.5 25.5s29.167 11.5 48.5 11.5c12 0 23.5 -2.33301 34.5 -7s21.5 -9.66699 31.5 -15l29 -15c9.33301 -4.66699 18.333 -7 27 -7c11.333 0 20.833 2.5 28.5 7.5s13.834 10.5 18.501 16.5
c5.33301 7.33301 9 15.666 11 24.999l42 -25c-5.33301 -14 -12.333 -26.333 -21 -37c-7.33301 -9.33301 -17.5 -17.666 -30.5 -24.999s-29.167 -11 -48.5 -11c-12 0 -23.5 2.33301 -34.5 7s-21.5 9.66699 -31.5 15l-29 15c-9.33301 4.66699 -18.333 7 -27 7
c-12 0 -21.667 -2.66699 -29 -8s-13.333 -11 -18 -17c-5.33301 -7.33301 -9.33301 -15.333 -12 -24zM413.999 700h58l156 -700h-53l-45 204h-344l-115 -204h-59zM214.999 252h304l-83 390z" />
    <glyph glyph-name="Adieresis" unicode="&#xc4;" horiz-adv-x="640" 
d="M414 700h58l156 -700h-53l-45 204h-344l-115 -204h-59zM215 252h304l-83 390zM323 842c0 11.333 3.83301 20.833 11.5 28.5s17.167 11.5 28.5 11.5s20.833 -3.83301 28.5 -11.5s11.5 -17.167 11.5 -28.5s-3.83301 -20.833 -11.5 -28.5s-17.167 -11.5 -28.5 -11.5
s-20.833 3.83301 -28.5 11.5s-11.5 17.167 -11.5 28.5zM504 842c0 11.333 3.83301 20.833 11.5 28.5s17.167 11.5 28.5 11.5s20.833 -3.83301 28.5 -11.5s11.5 -17.167 11.5 -28.5s-3.83301 -20.833 -11.5 -28.5s-17.167 -11.5 -28.5 -11.5s-20.833 3.83301 -28.5 11.5
s-11.5 17.167 -11.5 28.5z" />
    <glyph glyph-name="Aring" unicode="&#xc5;" horiz-adv-x="640" 
d="M414 700h58l156 -700h-53l-45 204h-344l-115 -204h-59zM215 252h304l-83 390zM469 939c25.333 0 46.667 -7.83398 64 -23.501s26 -37.167 26 -64.5c0 -14 -2.83301 -27.5 -8.5 -40.5s-13.5 -24.667 -23.5 -35s-21.667 -18.666 -35 -24.999s-28 -9.5 -44 -9.5
c-25.333 0 -46.833 7.83301 -64.5 23.5s-26.5 37.167 -26.5 64.5c0 14 3 27.667 9 41s14 25 24 35s21.833 18.167 35.5 24.5s28.167 9.5 43.5 9.5zM399.001 828.999c0 -13.333 4.33301 -24.499 13 -33.499s20.667 -13.5 36 -13.5c20 0 36.667 6.66699 50 20
s20 29.666 20 48.999c0 14 -4.33301 25.5 -13 34.5s-20.667 13.5 -36 13.5c-21.333 0 -38.333 -7.33301 -51 -22s-19 -30.667 -19 -48z" />
    <glyph glyph-name="AE" unicode="&#xc6;" horiz-adv-x="865" 
d="M575 383h271l-8 -48h-271l-51 -287h301l-8 -48h-353l35 204h-263l-154 -204h-63l531 700h384l-9 -48h-295zM500 252l71 404l-306 -404h235z" />
    <glyph glyph-name="Ccedilla" unicode="&#xc7;" horiz-adv-x="673" 
d="M396 39c37.333 0 70.8359 4.99902 100.503 14.999s55.167 21 76.5 33c24.667 14 47 30.333 67 49l31 -36c-21.333 -20.667 -46 -39.334 -74 -56.001c-24 -14 -53 -26.833 -87 -38.5s-72 -17.5 -114 -17.5c-48 0 -90.5 8.5 -127.5 25.5s-68 39.667 -93 68
s-44 61.166 -57 98.499s-19.5 76.333 -19.5 117c0 58.667 10.667 113.334 32 164.001s50.5 94.5 87.5 131.5s80.167 66.167 129.5 87.5s102 32 158 32c41.333 0 76.833 -5.5 106.5 -16.5s54.167 -23.167 73.5 -36.5c22.667 -16 42 -33.667 58 -53l-37 -31
c-12.667 16 -28.667 30.333 -48 43c-16.667 10.667 -37.5 20.5 -62.5 29.5s-55.167 13.5 -90.5 13.5c-50.667 0 -97.5 -9.5 -140.5 -28.5s-80.333 -45 -112 -78s-56.334 -71.667 -74.001 -116s-26.5 -91.5 -26.5 -141.5c0 -35.333 5.33301 -68.666 16 -99.999
s26.167 -58.666 46.5 -81.999s45.666 -41.833 75.999 -55.5s65.166 -20.5 104.499 -20.5zM297.003 -250.001l-50 17l87 182l51 -5z" />
    <glyph glyph-name="Egrave" unicode="&#xc8;" horiz-adv-x="538" 
d="M207 383h312l-8 -48h-312l-51 -287h342l-8 -48h-394l123 700h388l-9 -48h-336zM343 943l131 -155l-37 -32l-133 153z" />
    <glyph glyph-name="Eacute" unicode="&#xc9;" horiz-adv-x="538" 
d="M207 383h312l-8 -48h-312l-51 -287h342l-8 -48h-394l123 700h388l-9 -48h-336zM532 904l-176 -148l-31 36l175 149z" />
    <glyph glyph-name="Ecircumflex" unicode="&#xca;" horiz-adv-x="538" 
d="M424 919l147 -115l-34 -36l-117 93l-139 -93l-29 40zM207 383h312l-8 -48h-312l-51 -287h342l-8 -48h-394l123 700h388l-9 -48h-336z" />
    <glyph glyph-name="Edieresis" unicode="&#xcb;" horiz-adv-x="538" 
d="M207 383h312l-8 -48h-312l-51 -287h342l-8 -48h-394l123 700h388l-9 -48h-336zM289 842c0 11.333 3.83301 20.833 11.5 28.5s17.167 11.5 28.5 11.5s20.833 -3.83301 28.5 -11.5s11.5 -17.167 11.5 -28.5s-3.83301 -20.833 -11.5 -28.5s-17.167 -11.5 -28.5 -11.5
s-20.833 3.83301 -28.5 11.5s-11.5 17.167 -11.5 28.5zM470 842c0 11.333 3.83301 20.833 11.5 28.5s17.167 11.5 28.5 11.5s20.833 -3.83301 28.5 -11.5s11.5 -17.167 11.5 -28.5s-3.83301 -20.833 -11.5 -28.5s-17.167 -11.5 -28.5 -11.5s-20.833 3.83301 -28.5 11.5
s-11.5 17.167 -11.5 28.5z" />
    <glyph glyph-name="Igrave" unicode="&#xcc;" horiz-adv-x="256" 
d="M176 937l131 -155l-37 -32l-133 153zM225 700h52l-123 -700h-52z" />
    <glyph glyph-name="Iacute" unicode="&#xcd;" horiz-adv-x="256" 
d="M225 700h52l-123 -700h-52zM405 898l-176 -148l-31 36l175 149z" />
    <glyph glyph-name="Icircumflex" unicode="&#xce;" horiz-adv-x="256" 
d="M225 700h52l-123 -700h-52zM265 877l147 -115l-34 -36l-117 93l-139 -93l-29 40z" />
    <glyph glyph-name="Idieresis" unicode="&#xcf;" horiz-adv-x="256" 
d="M147 842c0 11.333 3.83301 20.833 11.5 28.5s17.167 11.5 28.5 11.5s20.833 -3.83301 28.5 -11.5s11.5 -17.167 11.5 -28.5s-3.83301 -20.833 -11.5 -28.5s-17.167 -11.5 -28.5 -11.5s-20.833 3.83301 -28.5 11.5s-11.5 17.167 -11.5 28.5zM328 842
c0 11.333 3.83301 20.833 11.5 28.5s17.167 11.5 28.5 11.5s20.833 -3.83301 28.5 -11.5s11.5 -17.167 11.5 -28.5s-3.83301 -20.833 -11.5 -28.5s-17.167 -11.5 -28.5 -11.5s-20.833 3.83301 -28.5 11.5s-11.5 17.167 -11.5 28.5zM225 700h52l-123 -700h-52z" />
    <glyph glyph-name="Eth" unicode="&#xd0;" horiz-adv-x="678" 
d="M91 383l72.999 -0.00195312l56 317h191c44.667 0 84.834 -6.66699 120.501 -20s66 -32.166 91 -56.499s44.333 -53.666 58 -87.999s20.5 -72.5 20.5 -114.5c0 -58 -9 -112.5 -27 -163.5s-44.5 -95.667 -79.5 -134s-78.167 -68.5 -129.5 -90.5s-110.333 -33 -177 -33h-191
l59 335h-73zM285.999 47.998c58.667 -1.33301 110.668 7.66797 156.001 27.001s83.166 46 113.499 80s53.333 73.833 69 119.5s23.5 94.5 23.5 146.5c0 34.667 -5.33301 66.167 -16 94.5s-26.667 52.666 -48 72.999s-48 36 -80 47s-69.333 16.5 -112 16.5h-129l-47 -269h211
l-8 -48h-212l-50 -287h129z" />
    <glyph glyph-name="Ntilde" unicode="&#xd1;" horiz-adv-x="710" 
d="M263 700l320 -620l110 620h52l-123 -700h-52l-321 622l-109 -622h-52l123 700h52zM326 828c5.33301 13.333 12.332 25.333 20.999 36c7.33301 9.33301 17.5 17.833 30.5 25.5s29.167 11.5 48.5 11.5c12 0 23.5 -2.33301 34.5 -7s21.5 -9.66699 31.5 -15l29 -15
c9.33301 -4.66699 18.333 -7 27 -7c11.333 0 20.833 2.5 28.5 7.5s13.834 10.5 18.501 16.5c5.33301 7.33301 9 15.666 11 24.999l42 -25c-5.33301 -14 -12.333 -26.333 -21 -37c-7.33301 -9.33301 -17.5 -17.666 -30.5 -24.999s-29.167 -11 -48.5 -11
c-12 0 -23.5 2.33301 -34.5 7s-21.5 9.66699 -31.5 15l-29 15c-9.33301 4.66699 -18.333 7 -27 7c-12 0 -21.667 -2.66699 -29 -8s-13.333 -11 -18 -17c-5.33301 -7.33301 -9.33301 -15.333 -12 -24z" />
    <glyph glyph-name="Ograve" unicode="&#xd2;" horiz-adv-x="780" 
d="M396 -12c-47.333 0 -89.5 8.33301 -126.5 25s-68.167 39.334 -93.5 68.001s-44.5 61.834 -57.5 99.501s-19.5 77.5 -19.5 119.5c0 56.667 10.5 110 31.5 160s49.667 93.667 86 131s79.333 66.833 129 88.5s103.167 32.5 160.5 32.5c47.333 0 89.5 -8.33301 126.5 -25
s68.167 -39.334 93.5 -68.001s44.5 -61.834 57.5 -99.501s19.5 -77.5 19.5 -119.5c0 -56.667 -10.5 -110 -31.5 -160s-49.667 -93.667 -86 -131s-79.333 -66.833 -129 -88.5s-103.167 -32.5 -160.5 -32.5zM506 661c-51.333 0 -98.666 -9.5 -141.999 -28.5
s-80.666 -45 -111.999 -78s-55.666 -71.333 -72.999 -115s-26 -90.167 -26 -139.5c0 -34.667 5.16699 -67.834 15.5 -99.501s25.666 -59.5 45.999 -83.5s45.666 -43 75.999 -57s65.5 -21 105.5 -21c51.333 0 98.666 9.5 141.999 28.5s80.666 45 111.999 78
s55.666 71.333 72.999 115s26 90.167 26 139.5c0 34.667 -5.16699 67.834 -15.5 99.501s-25.666 59.5 -45.999 83.5s-45.666 43 -75.999 57s-65.5 21 -105.5 21zM449 947l131 -155l-37 -32l-133 153z" />
    <glyph glyph-name="Oacute" unicode="&#xd3;" horiz-adv-x="780" 
d="M638 908l-176 -148l-31 36l175 149zM396 -12c-47.333 0 -89.5 8.33301 -126.5 25s-68.167 39.334 -93.5 68.001s-44.5 61.834 -57.5 99.501s-19.5 77.5 -19.5 119.5c0 56.667 10.5 110 31.5 160s49.667 93.667 86 131s79.333 66.833 129 88.5s103.167 32.5 160.5 32.5
c47.333 0 89.5 -8.33301 126.5 -25s68.167 -39.334 93.5 -68.001s44.5 -61.834 57.5 -99.501s19.5 -77.5 19.5 -119.5c0 -56.667 -10.5 -110 -31.5 -160s-49.667 -93.667 -86 -131s-79.333 -66.833 -129 -88.5s-103.167 -32.5 -160.5 -32.5zM506 661
c-51.333 0 -98.666 -9.5 -141.999 -28.5s-80.666 -45 -111.999 -78s-55.666 -71.333 -72.999 -115s-26 -90.167 -26 -139.5c0 -34.667 5.16699 -67.834 15.5 -99.501s25.666 -59.5 45.999 -83.5s45.666 -43 75.999 -57s65.5 -21 105.5 -21c51.333 0 98.666 9.5 141.999 28.5
s80.666 45 111.999 78s55.666 71.333 72.999 115s26 90.167 26 139.5c0 34.667 -5.16699 67.834 -15.5 99.501s-25.666 59.5 -45.999 83.5s-45.666 43 -75.999 57s-65.5 21 -105.5 21z" />
    <glyph glyph-name="Ocircumflex" unicode="&#xd4;" horiz-adv-x="780" 
d="M396 -12c-47.333 0 -89.5 8.33301 -126.5 25s-68.167 39.334 -93.5 68.001s-44.5 61.834 -57.5 99.501s-19.5 77.5 -19.5 119.5c0 56.667 10.5 110 31.5 160s49.667 93.667 86 131s79.333 66.833 129 88.5s103.167 32.5 160.5 32.5c47.333 0 89.5 -8.33301 126.5 -25
s68.167 -39.334 93.5 -68.001s44.5 -61.834 57.5 -99.501s19.5 -77.5 19.5 -119.5c0 -56.667 -10.5 -110 -31.5 -160s-49.667 -93.667 -86 -131s-79.333 -66.833 -129 -88.5s-103.167 -32.5 -160.5 -32.5zM506 661c-51.333 0 -98.666 -9.5 -141.999 -28.5
s-80.666 -45 -111.999 -78s-55.666 -71.333 -72.999 -115s-26 -90.167 -26 -139.5c0 -34.667 5.16699 -67.834 15.5 -99.501s25.666 -59.5 45.999 -83.5s45.666 -43 75.999 -57s65.5 -21 105.5 -21c51.333 0 98.666 9.5 141.999 28.5s80.666 45 111.999 78
s55.666 71.333 72.999 115s26 90.167 26 139.5c0 34.667 -5.16699 67.834 -15.5 99.501s-25.666 59.5 -45.999 83.5s-45.666 43 -75.999 57s-65.5 21 -105.5 21zM534 917l147 -115l-34 -36l-117 93l-139 -93l-29 40z" />
    <glyph glyph-name="Otilde" unicode="&#xd5;" horiz-adv-x="780" 
d="M396 -12c-47.333 0 -89.5 8.33301 -126.5 25s-68.167 39.334 -93.5 68.001s-44.5 61.834 -57.5 99.501s-19.5 77.5 -19.5 119.5c0 56.667 10.5 110 31.5 160s49.667 93.667 86 131s79.333 66.833 129 88.5s103.167 32.5 160.5 32.5c47.333 0 89.5 -8.33301 126.5 -25
s68.167 -39.334 93.5 -68.001s44.5 -61.834 57.5 -99.501s19.5 -77.5 19.5 -119.5c0 -56.667 -10.5 -110 -31.5 -160s-49.667 -93.667 -86 -131s-79.333 -66.833 -129 -88.5s-103.167 -32.5 -160.5 -32.5zM506 661c-51.333 0 -98.666 -9.5 -141.999 -28.5
s-80.666 -45 -111.999 -78s-55.666 -71.333 -72.999 -115s-26 -90.167 -26 -139.5c0 -34.667 5.16699 -67.834 15.5 -99.501s25.666 -59.5 45.999 -83.5s45.666 -43 75.999 -57s65.5 -21 105.5 -21c51.333 0 98.666 9.5 141.999 28.5s80.666 45 111.999 78
s55.666 71.333 72.999 115s26 90.167 26 139.5c0 34.667 -5.16699 67.834 -15.5 99.501s-25.666 59.5 -45.999 83.5s-45.666 43 -75.999 57s-65.5 21 -105.5 21zM368 808c5.33301 13.333 12.332 25.333 20.999 36c7.33301 9.33301 17.5 17.833 30.5 25.5
s29.167 11.5 48.5 11.5c12 0 23.5 -2.33301 34.5 -7s21.5 -9.66699 31.5 -15l29 -15c9.33301 -4.66699 18.333 -7 27 -7c11.333 0 20.833 2.5 28.5 7.5s13.834 10.5 18.501 16.5c5.33301 7.33301 9 15.666 11 24.999l42 -25c-5.33301 -14 -12.333 -26.333 -21 -37
c-7.33301 -9.33301 -17.5 -17.666 -30.5 -24.999s-29.167 -11 -48.5 -11c-12 0 -23.5 2.33301 -34.5 7s-21.5 9.66699 -31.5 15l-29 15c-9.33301 4.66699 -18.333 7 -27 7c-12 0 -21.667 -2.66699 -29 -8s-13.333 -11 -18 -17c-5.33301 -7.33301 -9.33301 -15.333 -12 -24z
" />
    <glyph glyph-name="Odieresis" unicode="&#xd6;" horiz-adv-x="780" 
d="M396 -12c-47.333 0 -89.5 8.33301 -126.5 25s-68.167 39.334 -93.5 68.001s-44.5 61.834 -57.5 99.501s-19.5 77.5 -19.5 119.5c0 56.667 10.5 110 31.5 160s49.667 93.667 86 131s79.333 66.833 129 88.5s103.167 32.5 160.5 32.5c47.333 0 89.5 -8.33301 126.5 -25
s68.167 -39.334 93.5 -68.001s44.5 -61.834 57.5 -99.501s19.5 -77.5 19.5 -119.5c0 -56.667 -10.5 -110 -31.5 -160s-49.667 -93.667 -86 -131s-79.333 -66.833 -129 -88.5s-103.167 -32.5 -160.5 -32.5zM506 661c-51.333 0 -98.666 -9.5 -141.999 -28.5
s-80.666 -45 -111.999 -78s-55.666 -71.333 -72.999 -115s-26 -90.167 -26 -139.5c0 -34.667 5.16699 -67.834 15.5 -99.501s25.666 -59.5 45.999 -83.5s45.666 -43 75.999 -57s65.5 -21 105.5 -21c51.333 0 98.666 9.5 141.999 28.5s80.666 45 111.999 78
s55.666 71.333 72.999 115s26 90.167 26 139.5c0 34.667 -5.16699 67.834 -15.5 99.501s-25.666 59.5 -45.999 83.5s-45.666 43 -75.999 57s-65.5 21 -105.5 21zM388 842c0 11.333 3.83301 20.833 11.5 28.5s17.167 11.5 28.5 11.5s20.833 -3.83301 28.5 -11.5
s11.5 -17.167 11.5 -28.5s-3.83301 -20.833 -11.5 -28.5s-17.167 -11.5 -28.5 -11.5s-20.833 3.83301 -28.5 11.5s-11.5 17.167 -11.5 28.5zM569 842c0 11.333 3.83301 20.833 11.5 28.5s17.167 11.5 28.5 11.5s20.833 -3.83301 28.5 -11.5s11.5 -17.167 11.5 -28.5
s-3.83301 -20.833 -11.5 -28.5s-17.167 -11.5 -28.5 -11.5s-20.833 3.83301 -28.5 11.5s-11.5 17.167 -11.5 28.5z" />
    <glyph glyph-name="multiply" unicode="&#xd7;" horiz-adv-x="520" 
d="M165 466l145 -177l209 177l30 -36l-210 -178l144 -175l-39 -33l-146 177l-208 -177l-30 37l209 178l-143 174z" />
    <glyph glyph-name="Oslash" unicode="&#xd8;" horiz-adv-x="788" 
d="M396 -12c-42 0 -79.501 6.33203 -112.501 18.999s-61.833 30 -86.5 52l-85 -83l-32 34l85 84c-21.333 28 -37.666 59.5 -48.999 94.5s-17 72.167 -17 111.5c0 56.667 10.5 110 31.5 160s49.667 93.667 86 131s79.333 66.833 129 88.5s103.167 32.5 160.5 32.5
c44 0 83.333 -7.16699 118 -21.5s64.667 -34.166 90 -59.499l96 94l32 -34l-98 -96c19.333 -27.333 34 -57.5 44 -90.5s15 -67.833 15 -104.5c0 -56.667 -10.5 -110 -31.5 -160s-49.667 -93.667 -86 -131s-79.333 -66.833 -129 -88.5s-103.167 -32.5 -160.5 -32.5z
M505.999 660.999c-51.333 0 -98.6689 -9.5 -142.002 -28.5s-80.666 -45 -111.999 -78s-55.666 -71.333 -72.999 -115s-26 -90.167 -26 -139.5c0 -32 4.16699 -62.333 12.5 -91s20.833 -54.667 37.5 -78l473 463c-20 20.667 -44.167 37 -72.5 49s-60.833 18 -97.5 18z
M395.996 38.999c51.333 0 98.6689 9.50098 142.002 28.501s80.666 45 111.999 78s55.666 71.333 72.999 115s26 90.167 26 139.5c0 59.333 -14.333 111.666 -43 156.999l-471 -461c19.333 -18 42.5 -32 69.5 -42s57.5 -15 91.5 -15z" />
    <glyph glyph-name="Ugrave" unicode="&#xd9;" horiz-adv-x="674" 
d="M385 943l131 -155l-37 -32l-133 153zM581 268l28.499 165l24.5 138l23 129h52l-77 -437c-7.33301 -40.667 -18.833 -77.834 -34.5 -111.501s-35.5 -62.667 -59.5 -87s-52.167 -43.166 -84.5 -56.499s-69.166 -20 -110.499 -20c-42 0 -77.833 6.66699 -107.5 20
s-53.167 32.166 -70.5 56.499s-28.666 53.333 -33.999 87s-4.33301 70.834 3 111.501l77 437h52l-23 -129l-24.5 -138l-28.5 -165c-6 -34 -7.83301 -65 -5.5 -93s9.66602 -52.167 21.999 -72.5s30 -36 53 -47s51.833 -16.5 86.5 -16.5s65.5 5.5 92.5 16.5
s50.167 26.667 69.5 47s35.333 44.5 48 72.5s22 59 28 93z" />
    <glyph glyph-name="Uacute" unicode="&#xda;" horiz-adv-x="674" 
d="M581 268l28.499 165l24.5 138l23 129h52l-77 -437c-7.33301 -40.667 -18.833 -77.834 -34.5 -111.501s-35.5 -62.667 -59.5 -87s-52.167 -43.166 -84.5 -56.499s-69.166 -20 -110.499 -20c-42 0 -77.833 6.66699 -107.5 20s-53.167 32.166 -70.5 56.499
s-28.666 53.333 -33.999 87s-4.33301 70.834 3 111.501l77 437h52l-23 -129l-24.5 -138l-28.5 -165c-6 -34 -7.83301 -65 -5.5 -93s9.66602 -52.167 21.999 -72.5s30 -36 53 -47s51.833 -16.5 86.5 -16.5s65.5 5.5 92.5 16.5s50.167 26.667 69.5 47s35.333 44.5 48 72.5
s22 59 28 93zM606.999 904l-176 -148l-31 36l175 149z" />
    <glyph glyph-name="Ucircumflex" unicode="&#xdb;" horiz-adv-x="674" 
d="M581 268l28.499 165l24.5 138l23 129h52l-77 -437c-7.33301 -40.667 -18.833 -77.834 -34.5 -111.501s-35.5 -62.667 -59.5 -87s-52.167 -43.166 -84.5 -56.499s-69.166 -20 -110.499 -20c-42 0 -77.833 6.66699 -107.5 20s-53.167 32.166 -70.5 56.499
s-28.666 53.333 -33.999 87s-4.33301 70.834 3 111.501l77 437h52l-23 -129l-24.5 -138l-28.5 -165c-6 -34 -7.83301 -65 -5.5 -93s9.66602 -52.167 21.999 -72.5s30 -36 53 -47s51.833 -16.5 86.5 -16.5s65.5 5.5 92.5 16.5s50.167 26.667 69.5 47s35.333 44.5 48 72.5
s22 59 28 93zM480.999 917l147 -115l-34 -36l-117 93l-139 -93l-29 40z" />
    <glyph glyph-name="Udieresis" unicode="&#xdc;" horiz-adv-x="674" 
d="M581 268l28.499 165l24.5 138l23 129h52l-77 -437c-7.33301 -40.667 -18.833 -77.834 -34.5 -111.501s-35.5 -62.667 -59.5 -87s-52.167 -43.166 -84.5 -56.499s-69.166 -20 -110.499 -20c-42 0 -77.833 6.66699 -107.5 20s-53.167 32.166 -70.5 56.499
s-28.666 53.333 -33.999 87s-4.33301 70.834 3 111.501l77 437h52l-23 -129l-24.5 -138l-28.5 -165c-6 -34 -7.83301 -65 -5.5 -93s9.66602 -52.167 21.999 -72.5s30 -36 53 -47s51.833 -16.5 86.5 -16.5s65.5 5.5 92.5 16.5s50.167 26.667 69.5 47s35.333 44.5 48 72.5
s22 59 28 93zM344.999 842c0 11.333 3.83301 20.833 11.5 28.5s17.167 11.5 28.5 11.5s20.833 -3.83301 28.5 -11.5s11.5 -17.167 11.5 -28.5s-3.83301 -20.833 -11.5 -28.5s-17.167 -11.5 -28.5 -11.5s-20.833 3.83301 -28.5 11.5s-11.5 17.167 -11.5 28.5zM525.999 842
c0 11.333 3.83301 20.833 11.5 28.5s17.167 11.5 28.5 11.5s20.833 -3.83301 28.5 -11.5s11.5 -17.167 11.5 -28.5s-3.83301 -20.833 -11.5 -28.5s-17.167 -11.5 -28.5 -11.5s-20.833 3.83301 -28.5 11.5s-11.5 17.167 -11.5 28.5z" />
    <glyph glyph-name="Yacute" unicode="&#xdd;" horiz-adv-x="568" 
d="M306 275l-167 425h57l143 -372l275 372h61l-317 -425l-48 -275h-52zM566 903l-176 -148l-31 36l175 149z" />
    <glyph glyph-name="Thorn" unicode="&#xde;" horiz-adv-x="538" 
d="M211 700h52.001l-22 -127h133c63.333 0 112.166 -14.333 146.499 -43s51.5 -69 51.5 -121c0 -76.667 -23.167 -134.5 -69.5 -173.5s-112.5 -58.5 -198.5 -58.5h-133l-31 -177h-52zM308.001 225c68 0 119.833 14.5 155.5 43.5s53.5 75.833 53.5 140.5
c0 22 -4 40.5 -12 55.5s-19 27 -33 36s-30.5 15.333 -49.5 19s-39.5 5.5 -61.5 5.5h-129l-53 -300h129z" />
    <glyph glyph-name="germandbls" unicode="&#xdf;" horiz-adv-x="586" 
d="M88 0l32 179.997l31.5 179l34.5 197c5.33301 32 14.666 61 27.999 87s30 48.167 50 66.5s43 32.666 69 42.999s54.667 15.5 86 15.5c18.667 0 37.834 -2.83301 57.501 -8.5s37.834 -14.834 54.501 -27.501s30.334 -29 41.001 -49s16 -44.333 16 -73
c0 -32.667 -5.33301 -60.167 -16 -82.5s-23.334 -40.666 -38.001 -54.999s-29.167 -24.833 -43.5 -31.5s-25.166 -10.667 -32.499 -12c22 -6 41.667 -16 59 -30c15.333 -12 29.166 -29.167 41.499 -51.5s18.5 -52.166 18.5 -89.499c0 -49.333 -8.33301 -91.166 -25 -125.499
s-38.667 -62.166 -66 -83.499s-58.666 -36.833 -93.999 -46.5s-71.333 -14.5 -108 -14.5h-34l9 48h25c42 0 78.167 6 108.5 18s55.333 28.167 75 48.5s34 43.833 43 70.5s13.5 55 13.5 85c0 18 -2.66699 35.667 -8 53s-14.333 32.833 -27 46.5s-29.5 24.5 -50.5 32.5
s-47.5 12 -79.5 12l8 46c32 1.33301 58.667 7.33301 80 18s38.5 23.667 51.5 39s22.167 32.333 27.5 51s8 36.667 8 54c0 14.667 -2.33301 28.5 -7 41.5s-12 24.333 -22 34s-22.833 17.334 -38.5 23.001s-34.5 8.5 -56.5 8.5c-24.667 0 -46.834 -4.5 -66.501 -13.5
s-36.834 -21.167 -51.501 -36.5s-26.667 -33 -36 -53s-16 -41.333 -20 -64l-96 -550h-52v0z" />
    <glyph glyph-name="agrave" unicode="&#xe0;" horiz-adv-x="505" 
d="M320 468c58 0 100.498 -12.835 127.498 -38.502s40.5 -57.834 40.5 -96.501c0 -10.667 -1 -22 -3 -34l-52 -299h-47l13 78c-14 -17.333 -30 -32.333 -48 -45c-15.333 -11.333 -34 -21.666 -56 -30.999s-46.667 -14 -74 -14c-44 0 -80 12 -108 36s-42 57 -42 99
c0 28.667 6.16699 53.667 18.5 75s28.5 39.333 48.5 54s42.333 25.667 67 33s49.334 11 74.001 11c23.333 0 44 -2.33301 62 -7s33.333 -9.66699 46 -15c14.667 -6.66699 27.334 -13.667 38.001 -21l6 34c2 12 3 22.667 3 32c0 20.667 -3.33301 37.334 -10 50.001
s-15.334 22.5 -26.001 29.5s-22.834 11.833 -36.501 14.5s-27.5 4 -41.5 4c-21.333 0 -41.166 -2.16699 -59.499 -6.5s-34.833 -9.16602 -49.5 -14.499c-17.333 -6.66699 -33 -13.667 -47 -21l-23 49c16 8 33.667 15.333 53 22c16.667 5.33301 35.834 10.333 57.501 15
s44.5 7 68.5 7zM231.998 38.998c25.333 0 48.333 4.83301 69 14.5s38.667 20.167 54 31.5c17.333 13.333 33.666 28.666 48.999 45.999l13 77c-10 6.66699 -21.667 13 -35 19c-11.333 4.66699 -25.666 9 -42.999 13s-37.333 6 -60 6c-16.667 0 -34.167 -2.5 -52.5 -7.5
s-35 -12.667 -50 -23s-27.333 -23.166 -37 -38.499s-14.5 -33.333 -14.5 -54c0 -14.667 3.16699 -27.167 9.5 -37.5s14.5 -19 24.5 -26s21.333 -12.167 34 -15.5s25.667 -5 39 -5zM273.998 716.998l131 -155l-37 -32l-133 153z" />
    <glyph glyph-name="aacute" unicode="&#xe1;" horiz-adv-x="505" 
d="M320 468c58 0 100.498 -12.835 127.498 -38.502s40.5 -57.834 40.5 -96.501c0 -10.667 -1 -22 -3 -34l-52 -299h-47l13 78c-14 -17.333 -30 -32.333 -48 -45c-15.333 -11.333 -34 -21.666 -56 -30.999s-46.667 -14 -74 -14c-44 0 -80 12 -108 36s-42 57 -42 99
c0 28.667 6.16699 53.667 18.5 75s28.5 39.333 48.5 54s42.333 25.667 67 33s49.334 11 74.001 11c23.333 0 44 -2.33301 62 -7s33.333 -9.66699 46 -15c14.667 -6.66699 27.334 -13.667 38.001 -21l6 34c2 12 3 22.667 3 32c0 20.667 -3.33301 37.334 -10 50.001
s-15.334 22.5 -26.001 29.5s-22.834 11.833 -36.501 14.5s-27.5 4 -41.5 4c-21.333 0 -41.166 -2.16699 -59.499 -6.5s-34.833 -9.16602 -49.5 -14.499c-17.333 -6.66699 -33 -13.667 -47 -21l-23 49c16 8 33.667 15.333 53 22c16.667 5.33301 35.834 10.333 57.501 15
s44.5 7 68.5 7zM231.998 38.998c25.333 0 48.333 4.83301 69 14.5s38.667 20.167 54 31.5c17.333 13.333 33.666 28.666 48.999 45.999l13 77c-10 6.66699 -21.667 13 -35 19c-11.333 4.66699 -25.666 9 -42.999 13s-37.333 6 -60 6c-16.667 0 -34.167 -2.5 -52.5 -7.5
s-35 -12.667 -50 -23s-27.333 -23.166 -37 -38.499s-14.5 -33.333 -14.5 -54c0 -14.667 3.16699 -27.167 9.5 -37.5s14.5 -19 24.5 -26s21.333 -12.167 34 -15.5s25.667 -5 39 -5zM489.998 677.998l-176 -148l-31 36l175 149z" />
    <glyph glyph-name="acircumflex" unicode="&#xe2;" horiz-adv-x="505" 
d="M320 468c58 0 100.498 -12.835 127.498 -38.502s40.5 -57.834 40.5 -96.501c0 -10.667 -1 -22 -3 -34l-52 -299h-47l13 78c-14 -17.333 -30 -32.333 -48 -45c-15.333 -11.333 -34 -21.666 -56 -30.999s-46.667 -14 -74 -14c-44 0 -80 12 -108 36s-42 57 -42 99
c0 28.667 6.16699 53.667 18.5 75s28.5 39.333 48.5 54s42.333 25.667 67 33s49.334 11 74.001 11c23.333 0 44 -2.33301 62 -7s33.333 -9.66699 46 -15c14.667 -6.66699 27.334 -13.667 38.001 -21l6 34c2 12 3 22.667 3 32c0 20.667 -3.33301 37.334 -10 50.001
s-15.334 22.5 -26.001 29.5s-22.834 11.833 -36.501 14.5s-27.5 4 -41.5 4c-21.333 0 -41.166 -2.16699 -59.499 -6.5s-34.833 -9.16602 -49.5 -14.499c-17.333 -6.66699 -33 -13.667 -47 -21l-23 49c16 8 33.667 15.333 53 22c16.667 5.33301 35.834 10.333 57.501 15
s44.5 7 68.5 7zM231.998 38.998c25.333 0 48.333 4.83301 69 14.5s38.667 20.167 54 31.5c17.333 13.333 33.666 28.666 48.999 45.999l13 77c-10 6.66699 -21.667 13 -35 19c-11.333 4.66699 -25.666 9 -42.999 13s-37.333 6 -60 6c-16.667 0 -34.167 -2.5 -52.5 -7.5
s-35 -12.667 -50 -23s-27.333 -23.166 -37 -38.499s-14.5 -33.333 -14.5 -54c0 -14.667 3.16699 -27.167 9.5 -37.5s14.5 -19 24.5 -26s21.333 -12.167 34 -15.5s25.667 -5 39 -5zM350.998 691.998l147 -115l-34 -36l-117 93l-139 -93l-29 40z" />
    <glyph glyph-name="atilde" unicode="&#xe3;" horiz-adv-x="505" 
d="M183 589c5.33301 13.333 12.332 25.333 20.999 36c7.33301 9.33301 17.5 17.833 30.5 25.5s29.167 11.5 48.5 11.5c12 0 23.5 -2.33301 34.5 -7s21.5 -9.66699 31.5 -15l29 -15c9.33301 -4.66699 18.333 -7 27 -7c11.333 0 20.833 2.5 28.5 7.5s13.834 10.5 18.501 16.5
c5.33301 7.33301 9 15.666 11 24.999l42 -25c-5.33301 -14 -12.333 -26.333 -21 -37c-7.33301 -9.33301 -17.5 -17.666 -30.5 -24.999s-29.167 -11 -48.5 -11c-12 0 -23.5 2.33301 -34.5 7s-21.5 9.66699 -31.5 15l-29 15c-9.33301 4.66699 -18.333 7 -27 7
c-12 0 -21.667 -2.66699 -29 -8s-13.333 -11 -18 -17c-5.33301 -7.33301 -9.33301 -15.333 -12 -24zM319.999 468c58 0 100.498 -12.835 127.498 -38.502s40.5 -57.834 40.5 -96.501c0 -10.667 -1 -22 -3 -34l-52 -299h-47l13 78c-14 -17.333 -30 -32.333 -48 -45
c-15.333 -11.333 -34 -21.666 -56 -30.999s-46.667 -14 -74 -14c-44 0 -80 12 -108 36s-42 57 -42 99c0 28.667 6.16699 53.667 18.5 75s28.5 39.333 48.5 54s42.333 25.667 67 33s49.334 11 74.001 11c23.333 0 44 -2.33301 62 -7s33.333 -9.66699 46 -15
c14.667 -6.66699 27.334 -13.667 38.001 -21l6 34c2 12 3 22.667 3 32c0 20.667 -3.33301 37.334 -10 50.001s-15.334 22.5 -26.001 29.5s-22.834 11.833 -36.501 14.5s-27.5 4 -41.5 4c-21.333 0 -41.166 -2.16699 -59.499 -6.5s-34.833 -9.16602 -49.5 -14.499
c-17.333 -6.66699 -33 -13.667 -47 -21l-23 49c16 8 33.667 15.333 53 22c16.667 5.33301 35.834 10.333 57.501 15s44.5 7 68.5 7zM231.997 38.998c25.333 0 48.333 4.83301 69 14.5s38.667 20.167 54 31.5c17.333 13.333 33.666 28.666 48.999 45.999l13 77
c-10 6.66699 -21.667 13 -35 19c-11.333 4.66699 -25.666 9 -42.999 13s-37.333 6 -60 6c-16.667 0 -34.167 -2.5 -52.5 -7.5s-35 -12.667 -50 -23s-27.333 -23.166 -37 -38.499s-14.5 -33.333 -14.5 -54c0 -14.667 3.16699 -27.167 9.5 -37.5s14.5 -19 24.5 -26
s21.333 -12.167 34 -15.5s25.667 -5 39 -5z" />
    <glyph glyph-name="adieresis" unicode="&#xe4;" horiz-adv-x="505" 
d="M220 604c0 11.333 3.83301 20.833 11.5 28.5s17.167 11.5 28.5 11.5s20.833 -3.83301 28.5 -11.5s11.5 -17.167 11.5 -28.5s-3.83301 -20.833 -11.5 -28.5s-17.167 -11.5 -28.5 -11.5s-20.833 3.83301 -28.5 11.5s-11.5 17.167 -11.5 28.5zM401 604
c0 11.333 3.83301 20.833 11.5 28.5s17.167 11.5 28.5 11.5s20.833 -3.83301 28.5 -11.5s11.5 -17.167 11.5 -28.5s-3.83301 -20.833 -11.5 -28.5s-17.167 -11.5 -28.5 -11.5s-20.833 3.83301 -28.5 11.5s-11.5 17.167 -11.5 28.5zM320 468
c58 0 100.498 -12.835 127.498 -38.502s40.5 -57.834 40.5 -96.501c0 -10.667 -1 -22 -3 -34l-52 -299h-47l13 78c-14 -17.333 -30 -32.333 -48 -45c-15.333 -11.333 -34 -21.666 -56 -30.999s-46.667 -14 -74 -14c-44 0 -80 12 -108 36s-42 57 -42 99
c0 28.667 6.16699 53.667 18.5 75s28.5 39.333 48.5 54s42.333 25.667 67 33s49.334 11 74.001 11c23.333 0 44 -2.33301 62 -7s33.333 -9.66699 46 -15c14.667 -6.66699 27.334 -13.667 38.001 -21l6 34c2 12 3 22.667 3 32c0 20.667 -3.33301 37.334 -10 50.001
s-15.334 22.5 -26.001 29.5s-22.834 11.833 -36.501 14.5s-27.5 4 -41.5 4c-21.333 0 -41.166 -2.16699 -59.499 -6.5s-34.833 -9.16602 -49.5 -14.499c-17.333 -6.66699 -33 -13.667 -47 -21l-23 49c16 8 33.667 15.333 53 22c16.667 5.33301 35.834 10.333 57.501 15
s44.5 7 68.5 7zM231.998 38.998c25.333 0 48.333 4.83301 69 14.5s38.667 20.167 54 31.5c17.333 13.333 33.666 28.666 48.999 45.999l13 77c-10 6.66699 -21.667 13 -35 19c-11.333 4.66699 -25.666 9 -42.999 13s-37.333 6 -60 6c-16.667 0 -34.167 -2.5 -52.5 -7.5
s-35 -12.667 -50 -23s-27.333 -23.166 -37 -38.499s-14.5 -33.333 -14.5 -54c0 -14.667 3.16699 -27.167 9.5 -37.5s14.5 -19 24.5 -26s21.333 -12.167 34 -15.5s25.667 -5 39 -5z" />
    <glyph glyph-name="aring" unicode="&#xe5;" horiz-adv-x="505" 
d="M369 740c25.333 0 46.667 -7.83398 64 -23.501s26 -37.167 26 -64.5c0 -14 -2.83301 -27.5 -8.5 -40.5s-13.5 -24.667 -23.5 -35s-21.667 -18.666 -35 -24.999s-28 -9.5 -44 -9.5c-25.333 0 -46.833 7.83301 -64.5 23.5s-26.5 37.167 -26.5 64.5c0 14 3 27.667 9 41
s14 25 24 35s21.833 18.167 35.5 24.5s28.167 9.5 43.5 9.5zM299.001 629.999c0 -13.333 4.33301 -24.499 13 -33.499s20.667 -13.5 36 -13.5c20 0 36.667 6.66699 50 20s20 29.666 20 48.999c0 14 -4.33301 25.5 -13 34.5s-20.667 13.5 -36 13.5
c-21.333 0 -38.333 -7.33301 -51 -22s-19 -30.667 -19 -48zM320.001 468c58 0 100.498 -12.835 127.498 -38.502s40.5 -57.834 40.5 -96.501c0 -10.667 -1 -22 -3 -34l-52 -299h-47l13 78c-14 -17.333 -30 -32.333 -48 -45c-15.333 -11.333 -34 -21.666 -56 -30.999
s-46.667 -14 -74 -14c-44 0 -80 12 -108 36s-42 57 -42 99c0 28.667 6.16699 53.667 18.5 75s28.5 39.333 48.5 54s42.333 25.667 67 33s49.334 11 74.001 11c23.333 0 44 -2.33301 62 -7s33.333 -9.66699 46 -15c14.667 -6.66699 27.334 -13.667 38.001 -21l6 34
c2 12 3 22.667 3 32c0 20.667 -3.33301 37.334 -10 50.001s-15.334 22.5 -26.001 29.5s-22.834 11.833 -36.501 14.5s-27.5 4 -41.5 4c-21.333 0 -41.166 -2.16699 -59.499 -6.5s-34.833 -9.16602 -49.5 -14.499c-17.333 -6.66699 -33 -13.667 -47 -21l-23 49
c16 8 33.667 15.333 53 22c16.667 5.33301 35.834 10.333 57.501 15s44.5 7 68.5 7zM231.999 38.998c25.333 0 48.333 4.83301 69 14.5s38.667 20.167 54 31.5c17.333 13.333 33.666 28.666 48.999 45.999l13 77c-10 6.66699 -21.667 13 -35 19
c-11.333 4.66699 -25.666 9 -42.999 13s-37.333 6 -60 6c-16.667 0 -34.167 -2.5 -52.5 -7.5s-35 -12.667 -50 -23s-27.333 -23.166 -37 -38.499s-14.5 -33.333 -14.5 -54c0 -14.667 3.16699 -27.167 9.5 -37.5s14.5 -19 24.5 -26s21.333 -12.167 34 -15.5s25.667 -5 39 -5z
" />
    <glyph glyph-name="ae" unicode="&#xe6;" horiz-adv-x="853" 
d="M672 468c28.667 0 54.835 -4.83301 78.502 -14.5s43.834 -23 60.501 -40s29.667 -37.167 39 -60.5s14 -49 14 -77c0 -7.33301 -0.5 -15.333 -1.5 -24s-2.16699 -20.667 -3.5 -36c0 -1.33301 -0.166992 -2.83301 -0.5 -4.5s-0.5 -3.16699 -0.5 -4.5h-393
c-0.666992 -4 -1 -7.83301 -1 -11.5v-11.5c0 -22 3.66699 -41.833 11 -59.5s17.666 -32.834 30.999 -45.501s29.166 -22.5 47.499 -29.5s38.5 -10.5 60.5 -10.5c24.667 0 47 4 67 12s37.333 17 52 27c17.333 11.333 32.333 24.333 45 39l37 -39
c-16 -17.333 -34.333 -32.333 -55 -45c-17.333 -11.333 -38.5 -21.666 -63.5 -30.999s-52.5 -14 -82.5 -14c-49.333 0 -90.333 11 -123 33s-55.667 51 -69 87c-10 -15.333 -21.5 -30.166 -34.5 -44.499s-28 -27.166 -45 -38.499s-36.167 -20.333 -57.5 -27
s-45.333 -10 -72 -10c-18.667 0 -36.667 2.66699 -54 8s-32.833 13.166 -46.5 23.499s-24.5 23.333 -32.5 39s-12 33.5 -12 53.5c0 26 5.33301 48.167 16 66.5s25 33.166 43 44.499s38.667 19.5 62 24.5s47.666 7.5 72.999 7.5h157l4 24c2 10 3 20 3 30
c0 34 -10.833 60.5 -32.5 79.5s-50.5 28.5 -86.5 28.5c-20 0 -38.833 -2 -56.5 -6s-33.167 -8.66699 -46.5 -14c-16 -6 -30.333 -12.333 -43 -19l-21 47c15.333 7.33301 32 14.333 50 21c15.333 5.33301 33 10.333 53 15s41.333 7 64 7c48 0 85.5 -10.167 112.5 -30.5
s43.833 -44.5 50.5 -72.5c23.333 30.667 52.333 55.5 87 74.5s73 28.5 115 28.5zM810.001 255v7c0 2 0.166992 4 0.5 6s0.5 4 0.5 6c0 14 -2.16699 29.333 -6.5 46s-11.833 32.167 -22.5 46.5s-25 26.333 -43 36s-40.333 14.5 -67 14.5c-32 0 -60 -6.16699 -84 -18.5
s-44 -27 -60 -44s-28.5 -34.667 -37.5 -53s-14.833 -33.833 -17.5 -46.5h337zM227.001 39c24.667 0 47.3369 4.83301 68.0039 14.5s38.667 21.334 54 35.001s27.833 28.167 37.5 43.5s15.5 28.666 17.5 39.999l7 35h-39c-12.667 0 -27.334 0.166992 -44.001 0.5
s-35.334 0.5 -56.001 0.5c-16.667 0 -33.834 -1.16699 -51.501 -3.5s-33.834 -7 -48.501 -14s-26.667 -16.833 -36 -29.5s-14 -29 -14 -49c0 -25.333 10.5 -43.833 31.5 -55.5s45.5 -17.5 73.5 -17.5z" />
    <glyph glyph-name="ccedilla" unicode="&#xe7;" horiz-adv-x="480" 
d="M276 39c24 0 46.168 3.99609 66.501 11.9961s37.833 17 52.5 27c17.333 11.333 33 24.333 47 39l35 -39c-16.667 -17.333 -35.334 -32.333 -56.001 -45c-17.333 -11.333 -38.333 -21.666 -63 -30.999s-52 -14 -82 -14c-33.333 0 -62.666 5.33301 -87.999 16
s-46.666 25.334 -63.999 44.001s-30.333 40.334 -39 65.001s-13 50.667 -13 78c0 36.667 6.83301 71.667 20.5 105s32.667 62.833 57 88.5s53.166 46 86.499 61s69.333 22.5 108 22.5c32 0 59.167 -4.5 81.5 -13.5s40.5 -18.833 54.5 -29.5c16.667 -12.667 30 -27 40 -43
l-42 -30c-8.66699 12 -19.334 22.667 -32.001 32c-11.333 8 -25.333 15.5 -42 22.5s-36.667 10.5 -60 10.5c-32 0 -61.333 -6.33301 -88 -19s-49.5 -29.5 -68.5 -50.5s-33.833 -45.167 -44.5 -72.5s-16 -55.333 -16 -84c0 -21.333 3.33301 -41.166 10 -59.499
s16.167 -34.333 28.5 -48s27.833 -24.5 46.5 -32.5s40 -12 64 -12zM175.001 -250.004l-50 17l87 182l51 -5z" />
    <glyph glyph-name="egrave" unicode="&#xe8;" 
d="M334 468c28.667 0 54.834 -4.83203 78.501 -14.499s43.834 -23 60.501 -40s29.667 -37.167 39 -60.5s14 -49 14 -77c0 -7.33301 -0.5 -16 -1.5 -26l-4.5 -43h-393c-3.33301 -25.333 -1.83301 -48.166 4.5 -68.499s16.166 -38 29.499 -53s29.833 -26.5 49.5 -34.5
s41.5 -12 65.5 -12c24.667 0 47 4.16699 67 12.5s37.333 17.5 52 27.5c17.333 12 32.666 25.667 45.999 41l34 -39c-16.667 -18 -35.334 -33.667 -56.001 -47c-17.333 -11.333 -38.166 -21.833 -62.499 -31.5s-51.166 -14.5 -80.499 -14.5c-32 0 -60.667 5 -86 15
s-46.833 23.667 -64.5 41s-31 38 -40 62s-13.5 49.667 -13.5 77c0 37.333 6.66699 73.166 20 107.499s31.666 64.666 54.999 90.999s51 47.333 83 63s66.667 23.5 104 23.5zM472 255.001v7c0 2 0.166992 4 0.5 6s0.5 4 0.5 6c0 14 -2.16699 29.333 -6.5 46
s-11.833 32.167 -22.5 46.5s-25 26.333 -43 36s-40.333 14.5 -67 14.5c-32 0 -60 -6.16699 -84 -18.5s-44 -27 -60 -44s-28.5 -34.667 -37.5 -53s-14.833 -33.833 -17.5 -46.5h337zM275 716.001l131 -155l-37 -32l-133 153z" />
    <glyph glyph-name="eacute" unicode="&#xe9;" 
d="M334 468c28.667 0 54.834 -4.83203 78.501 -14.499s43.834 -23 60.501 -40s29.667 -37.167 39 -60.5s14 -49 14 -77c0 -7.33301 -0.5 -16 -1.5 -26l-4.5 -43h-393c-3.33301 -25.333 -1.83301 -48.166 4.5 -68.499s16.166 -38 29.499 -53s29.833 -26.5 49.5 -34.5
s41.5 -12 65.5 -12c24.667 0 47 4.16699 67 12.5s37.333 17.5 52 27.5c17.333 12 32.666 25.667 45.999 41l34 -39c-16.667 -18 -35.334 -33.667 -56.001 -47c-17.333 -11.333 -38.166 -21.833 -62.499 -31.5s-51.166 -14.5 -80.499 -14.5c-32 0 -60.667 5 -86 15
s-46.833 23.667 -64.5 41s-31 38 -40 62s-13.5 49.667 -13.5 77c0 37.333 6.66699 73.166 20 107.499s31.666 64.666 54.999 90.999s51 47.333 83 63s66.667 23.5 104 23.5zM472 255.001v7c0 2 0.166992 4 0.5 6s0.5 4 0.5 6c0 14 -2.16699 29.333 -6.5 46
s-11.833 32.167 -22.5 46.5s-25 26.333 -43 36s-40.333 14.5 -67 14.5c-32 0 -60 -6.16699 -84 -18.5s-44 -27 -60 -44s-28.5 -34.667 -37.5 -53s-14.833 -33.833 -17.5 -46.5h337zM488 676.001l-176 -148l-31 36l175 149z" />
    <glyph glyph-name="ecircumflex" unicode="&#xea;" 
d="M334 468c28.667 0 54.834 -4.83203 78.501 -14.499s43.834 -23 60.501 -40s29.667 -37.167 39 -60.5s14 -49 14 -77c0 -7.33301 -0.5 -16 -1.5 -26l-4.5 -43h-393c-3.33301 -25.333 -1.83301 -48.166 4.5 -68.499s16.166 -38 29.499 -53s29.833 -26.5 49.5 -34.5
s41.5 -12 65.5 -12c24.667 0 47 4.16699 67 12.5s37.333 17.5 52 27.5c17.333 12 32.666 25.667 45.999 41l34 -39c-16.667 -18 -35.334 -33.667 -56.001 -47c-17.333 -11.333 -38.166 -21.833 -62.499 -31.5s-51.166 -14.5 -80.499 -14.5c-32 0 -60.667 5 -86 15
s-46.833 23.667 -64.5 41s-31 38 -40 62s-13.5 49.667 -13.5 77c0 37.333 6.66699 73.166 20 107.499s31.666 64.666 54.999 90.999s51 47.333 83 63s66.667 23.5 104 23.5zM472 255.001v7c0 2 0.166992 4 0.5 6s0.5 4 0.5 6c0 14 -2.16699 29.333 -6.5 46
s-11.833 32.167 -22.5 46.5s-25 26.333 -43 36s-40.333 14.5 -67 14.5c-32 0 -60 -6.16699 -84 -18.5s-44 -27 -60 -44s-28.5 -34.667 -37.5 -53s-14.833 -33.833 -17.5 -46.5h337zM363 692.001l147 -115l-34 -36l-117 93l-139 -93l-29 40z" />
    <glyph glyph-name="edieresis" unicode="&#xeb;" 
d="M224 604c0 11.333 3.83301 20.833 11.5 28.5s17.167 11.5 28.5 11.5s20.833 -3.83301 28.5 -11.5s11.5 -17.167 11.5 -28.5s-3.83301 -20.833 -11.5 -28.5s-17.167 -11.5 -28.5 -11.5s-20.833 3.83301 -28.5 11.5s-11.5 17.167 -11.5 28.5zM405 604
c0 11.333 3.83301 20.833 11.5 28.5s17.167 11.5 28.5 11.5s20.833 -3.83301 28.5 -11.5s11.5 -17.167 11.5 -28.5s-3.83301 -20.833 -11.5 -28.5s-17.167 -11.5 -28.5 -11.5s-20.833 3.83301 -28.5 11.5s-11.5 17.167 -11.5 28.5zM334 468
c28.667 0 54.834 -4.83203 78.501 -14.499s43.834 -23 60.501 -40s29.667 -37.167 39 -60.5s14 -49 14 -77c0 -7.33301 -0.5 -16 -1.5 -26l-4.5 -43h-393c-3.33301 -25.333 -1.83301 -48.166 4.5 -68.499s16.166 -38 29.499 -53s29.833 -26.5 49.5 -34.5s41.5 -12 65.5 -12
c24.667 0 47 4.16699 67 12.5s37.333 17.5 52 27.5c17.333 12 32.666 25.667 45.999 41l34 -39c-16.667 -18 -35.334 -33.667 -56.001 -47c-17.333 -11.333 -38.166 -21.833 -62.499 -31.5s-51.166 -14.5 -80.499 -14.5c-32 0 -60.667 5 -86 15s-46.833 23.667 -64.5 41
s-31 38 -40 62s-13.5 49.667 -13.5 77c0 37.333 6.66699 73.166 20 107.499s31.666 64.666 54.999 90.999s51 47.333 83 63s66.667 23.5 104 23.5zM472 255.001v7c0 2 0.166992 4 0.5 6s0.5 4 0.5 6c0 14 -2.16699 29.333 -6.5 46s-11.833 32.167 -22.5 46.5
s-25 26.333 -43 36s-40.333 14.5 -67 14.5c-32 0 -60 -6.16699 -84 -18.5s-44 -27 -60 -44s-28.5 -34.667 -37.5 -53s-14.833 -33.833 -17.5 -46.5h337z" />
    <glyph glyph-name="igrave" unicode="&#xec;" horiz-adv-x="224" 
d="M133 717l131 -155l-37 -32l-133 153zM166 456h52l-80 -456h-52z" />
    <glyph glyph-name="iacute" unicode="&#xed;" horiz-adv-x="224" 
d="M165 456h52l-80 -456h-52zM340 678l-176 -148l-31 36l175 149z" />
    <glyph glyph-name="icircumflex" unicode="&#xee;" horiz-adv-x="256" 
d="M232 692l147 -115l-34 -36l-117 93l-139 -93l-29 40zM182 456h52l-80 -456h-52z" />
    <glyph glyph-name="idieresis" unicode="&#xef;" horiz-adv-x="245" 
d="M83 604c0 11.333 3.83301 20.833 11.5 28.5s17.167 11.5 28.5 11.5s20.833 -3.83301 28.5 -11.5s11.5 -17.167 11.5 -28.5s-3.83301 -20.833 -11.5 -28.5s-17.167 -11.5 -28.5 -11.5s-20.833 3.83301 -28.5 11.5s-11.5 17.167 -11.5 28.5zM264 604
c0 11.333 3.83301 20.833 11.5 28.5s17.167 11.5 28.5 11.5s20.833 -3.83301 28.5 -11.5s11.5 -17.167 11.5 -28.5s-3.83301 -20.833 -11.5 -28.5s-17.167 -11.5 -28.5 -11.5s-20.833 3.83301 -28.5 11.5s-11.5 17.167 -11.5 28.5zM176 456h52l-80 -456h-52z" />
    <glyph glyph-name="eth" unicode="&#xf0;" horiz-adv-x="544" 
d="M431 633c16 -17.333 31.5 -36.1641 46.5 -56.4971s28 -43.166 39 -68.499s19.833 -53.5 26.5 -84.5s10 -65.5 10 -103.5c0 -40 -5.5 -79.667 -16.5 -119s-28 -74.833 -51 -106.5s-52 -57.334 -87 -77.001s-76.5 -29.5 -124.5 -29.5c-32.667 0 -61.667 5.16699 -87 15.5
s-46.5 24.5 -63.5 42.5s-29.833 39.167 -38.5 63.5s-13 50.166 -13 77.499c0 35.333 6.66699 69.833 20 103.5s31.833 63.667 55.5 90s52 47.5 85 63.5s69.167 24 108.5 24c32 0 60.833 -5.33301 86.5 -16s46.167 -26 61.5 -46c-7.33301 40.667 -21.5 79 -42.5 115
s-44.167 66 -69.5 90l-148 -64l-14 39l127 55c-14 12.667 -28 23.667 -42 33l-38 25l-38 21l24 46c14.667 -6.66699 30.667 -15 48 -25c14 -8.66699 30 -19.334 48 -32.001s36 -27.334 54 -44.001l132 56l16 -39zM274 39.002c30.667 0 59.167 6.33496 85.5 19.002
s49.166 29.667 68.499 51s34.5 45.666 45.5 72.999s16.5 56 16.5 86c0 20.667 -3.16699 40.167 -9.5 58.5s-15.666 34.166 -27.999 47.499s-27.833 23.833 -46.5 31.5s-40.334 11.5 -65.001 11.5c-30 0 -58.167 -6.33301 -84.5 -19s-49.166 -29.5 -68.499 -50.5
s-34.5 -45.5 -45.5 -73.5s-16.5 -57 -16.5 -87c0 -42 12.333 -77.167 37 -105.5s61.667 -42.5 111 -42.5z" />
    <glyph glyph-name="ntilde" unicode="&#xf1;" horiz-adv-x="522" 
d="M197 589c5.33301 13.333 12.332 25.333 20.999 36c7.33301 9.33301 17.5 17.833 30.5 25.5s29.167 11.5 48.5 11.5c12 0 23.5 -2.33301 34.5 -7s21.5 -9.66699 31.5 -15l29 -15c9.33301 -4.66699 18.333 -7 27 -7c11.333 0 20.833 2.5 28.5 7.5s13.834 10.5 18.501 16.5
c5.33301 7.33301 9 15.666 11 24.999l42 -25c-5.33301 -14 -12.333 -26.333 -21 -37c-7.33301 -9.33301 -17.5 -17.666 -30.5 -24.999s-29.167 -11 -48.5 -11c-12 0 -23.5 2.33301 -34.5 7s-21.5 9.66699 -31.5 15l-29 15c-9.33301 4.66699 -18.333 7 -27 7
c-12 0 -21.667 -2.66699 -29 -8s-13.333 -11 -18 -17c-5.33301 -7.33301 -9.33301 -15.333 -12 -24zM356.999 468c18 0 36.501 -3.33301 55.501 -10s35.667 -17.334 50 -32.001s25 -33.167 32 -55.5s7.83301 -48.833 2.5 -79.5l-51 -291h-52l49 283
c4 24 4.16699 44.5 0.5 61.5s-10.334 30.833 -20.001 41.5s-21.834 18.5 -36.501 23.5s-31 7.5 -49 7.5c-25.333 0 -48 -5.66699 -68 -17s-36.667 -23.666 -50 -36.999c-16 -16 -30 -33.667 -42 -53l-54 -310h-52l80 456h47l-15 -83c12 17.333 26.667 33 44 47
c14.667 12 32.834 23 54.501 33s46.5 15 74.5 15z" />
    <glyph glyph-name="ograve" unicode="&#xf2;" horiz-adv-x="536" 
d="M341 468c30 0 57.502 -4.83301 82.502 -14.5s46.333 -23.167 64 -40.5s31.5 -38.333 41.5 -63s15 -52 15 -82c0 -37.333 -7 -73 -21 -107s-33.333 -63.833 -58 -89.5s-53.334 -46 -86.001 -61s-67.667 -22.5 -105 -22.5c-30 0 -57.333 4.66699 -82 14
s-45.834 22.833 -63.501 40.5s-31.5 38.667 -41.5 63s-15 51.5 -15 81.5c0 38 7 74 21 108s33 63.833 57 89.5s52.333 46 85 61s68 22.5 106 22.5zM274.002 39c32 0 61.333 6.33496 88 19.002s49.5 29.667 68.5 51s33.667 45.666 44 72.999s15.5 56 15.5 86
c0 20.667 -3.16699 40.167 -9.5 58.5s-15.666 34.166 -27.999 47.499s-27.833 23.833 -46.5 31.5s-40.334 11.5 -65.001 11.5c-32 0 -61.167 -6.33301 -87.5 -19s-49 -29.667 -68 -51s-33.667 -45.833 -44 -73.5s-15.5 -56.5 -15.5 -86.5c0 -42 12.333 -77.167 37 -105.5
s61.667 -42.5 111 -42.5zM295.002 717.002l131 -155l-37 -32l-133 153z" />
    <glyph glyph-name="oacute" unicode="&#xf3;" horiz-adv-x="536" 
d="M341 468c30 0 57.502 -4.83301 82.502 -14.5s46.333 -23.167 64 -40.5s31.5 -38.333 41.5 -63s15 -52 15 -82c0 -37.333 -7 -73 -21 -107s-33.333 -63.833 -58 -89.5s-53.334 -46 -86.001 -61s-67.667 -22.5 -105 -22.5c-30 0 -57.333 4.66699 -82 14
s-45.834 22.833 -63.501 40.5s-31.5 38.667 -41.5 63s-15 51.5 -15 81.5c0 38 7 74 21 108s33 63.833 57 89.5s52.333 46 85 61s68 22.5 106 22.5zM274.002 39c32 0 61.333 6.33496 88 19.002s49.5 29.667 68.5 51s33.667 45.666 44 72.999s15.5 56 15.5 86
c0 20.667 -3.16699 40.167 -9.5 58.5s-15.666 34.166 -27.999 47.499s-27.833 23.833 -46.5 31.5s-40.334 11.5 -65.001 11.5c-32 0 -61.167 -6.33301 -87.5 -19s-49 -29.667 -68 -51s-33.667 -45.833 -44 -73.5s-15.5 -56.5 -15.5 -86.5c0 -42 12.333 -77.167 37 -105.5
s61.667 -42.5 111 -42.5zM488.002 678.002l-176 -148l-31 36l175 149z" />
    <glyph glyph-name="ocircumflex" unicode="&#xf4;" horiz-adv-x="536" 
d="M341 468c30 0 57.502 -4.83301 82.502 -14.5s46.333 -23.167 64 -40.5s31.5 -38.333 41.5 -63s15 -52 15 -82c0 -37.333 -7 -73 -21 -107s-33.333 -63.833 -58 -89.5s-53.334 -46 -86.001 -61s-67.667 -22.5 -105 -22.5c-30 0 -57.333 4.66699 -82 14
s-45.834 22.833 -63.501 40.5s-31.5 38.667 -41.5 63s-15 51.5 -15 81.5c0 38 7 74 21 108s33 63.833 57 89.5s52.333 46 85 61s68 22.5 106 22.5zM274.002 39c32 0 61.333 6.33496 88 19.002s49.5 29.667 68.5 51s33.667 45.666 44 72.999s15.5 56 15.5 86
c0 20.667 -3.16699 40.167 -9.5 58.5s-15.666 34.166 -27.999 47.499s-27.833 23.833 -46.5 31.5s-40.334 11.5 -65.001 11.5c-32 0 -61.167 -6.33301 -87.5 -19s-49 -29.667 -68 -51s-33.667 -45.833 -44 -73.5s-15.5 -56.5 -15.5 -86.5c0 -42 12.333 -77.167 37 -105.5
s61.667 -42.5 111 -42.5zM376.002 682.002l147 -115l-34 -36l-117 93l-139 -93l-29 40z" />
    <glyph glyph-name="otilde" unicode="&#xf5;" horiz-adv-x="536" 
d="M341 468c30 0 57.502 -4.83301 82.502 -14.5s46.333 -23.167 64 -40.5s31.5 -38.333 41.5 -63s15 -52 15 -82c0 -37.333 -7 -73 -21 -107s-33.333 -63.833 -58 -89.5s-53.334 -46 -86.001 -61s-67.667 -22.5 -105 -22.5c-30 0 -57.333 4.66699 -82 14
s-45.834 22.833 -63.501 40.5s-31.5 38.667 -41.5 63s-15 51.5 -15 81.5c0 38 7 74 21 108s33 63.833 57 89.5s52.333 46 85 61s68 22.5 106 22.5zM274.002 39c32 0 61.333 6.33496 88 19.002s49.5 29.667 68.5 51s33.667 45.666 44 72.999s15.5 56 15.5 86
c0 20.667 -3.16699 40.167 -9.5 58.5s-15.666 34.166 -27.999 47.499s-27.833 23.833 -46.5 31.5s-40.334 11.5 -65.001 11.5c-32 0 -61.167 -6.33301 -87.5 -19s-49 -29.667 -68 -51s-33.667 -45.833 -44 -73.5s-15.5 -56.5 -15.5 -86.5c0 -42 12.333 -77.167 37 -105.5
s61.667 -42.5 111 -42.5zM204.002 589.002c5.33301 13.333 12.332 25.333 20.999 36c7.33301 9.33301 17.5 17.833 30.5 25.5s29.167 11.5 48.5 11.5c12 0 23.5 -2.33301 34.5 -7s21.5 -9.66699 31.5 -15l29 -15c9.33301 -4.66699 18.333 -7 27 -7
c11.333 0 20.833 2.5 28.5 7.5s13.834 10.5 18.501 16.5c5.33301 7.33301 9 15.666 11 24.999l42 -25c-5.33301 -14 -12.333 -26.333 -21 -37c-7.33301 -9.33301 -17.5 -17.666 -30.5 -24.999s-29.167 -11 -48.5 -11c-12 0 -23.5 2.33301 -34.5 7s-21.5 9.66699 -31.5 15
l-29 15c-9.33301 4.66699 -18.333 7 -27 7c-12 0 -21.667 -2.66699 -29 -8s-13.333 -11 -18 -17c-5.33301 -7.33301 -9.33301 -15.333 -12 -24z" />
    <glyph glyph-name="odieresis" unicode="&#xf6;" horiz-adv-x="536" 
d="M341 468c30 0 57.502 -4.83301 82.502 -14.5s46.333 -23.167 64 -40.5s31.5 -38.333 41.5 -63s15 -52 15 -82c0 -37.333 -7 -73 -21 -107s-33.333 -63.833 -58 -89.5s-53.334 -46 -86.001 -61s-67.667 -22.5 -105 -22.5c-30 0 -57.333 4.66699 -82 14
s-45.834 22.833 -63.501 40.5s-31.5 38.667 -41.5 63s-15 51.5 -15 81.5c0 38 7 74 21 108s33 63.833 57 89.5s52.333 46 85 61s68 22.5 106 22.5zM274.002 39c32 0 61.333 6.33496 88 19.002s49.5 29.667 68.5 51s33.667 45.666 44 72.999s15.5 56 15.5 86
c0 20.667 -3.16699 40.167 -9.5 58.5s-15.666 34.166 -27.999 47.499s-27.833 23.833 -46.5 31.5s-40.334 11.5 -65.001 11.5c-32 0 -61.167 -6.33301 -87.5 -19s-49 -29.667 -68 -51s-33.667 -45.833 -44 -73.5s-15.5 -56.5 -15.5 -86.5c0 -42 12.333 -77.167 37 -105.5
s61.667 -42.5 111 -42.5zM238.002 604.002c0 11.333 3.83301 20.833 11.5 28.5s17.167 11.5 28.5 11.5s20.833 -3.83301 28.5 -11.5s11.5 -17.167 11.5 -28.5s-3.83301 -20.833 -11.5 -28.5s-17.167 -11.5 -28.5 -11.5s-20.833 3.83301 -28.5 11.5s-11.5 17.167 -11.5 28.5z
M419.002 604.002c0 11.333 3.83301 20.833 11.5 28.5s17.167 11.5 28.5 11.5s20.833 -3.83301 28.5 -11.5s11.5 -17.167 11.5 -28.5s-3.83301 -20.833 -11.5 -28.5s-17.167 -11.5 -28.5 -11.5s-20.833 3.83301 -28.5 11.5s-11.5 17.167 -11.5 28.5z" />
    <glyph glyph-name="divide" unicode="&#xf7;" horiz-adv-x="520" 
d="M93 275h430l-8 -48h-430zM295 428c0 11.333 3.83301 20.833 11.5 28.5s17.167 11.5 28.5 11.5s20.833 -3.83301 28.5 -11.5s11.5 -17.167 11.5 -28.5s-3.83301 -20.833 -11.5 -28.5s-17.167 -11.5 -28.5 -11.5s-20.833 3.83301 -28.5 11.5s-11.5 17.167 -11.5 28.5z
M233 78c0 11.333 3.83301 20.833 11.5 28.5s17.167 11.5 28.5 11.5s20.833 -3.83301 28.5 -11.5s11.5 -17.167 11.5 -28.5s-3.83301 -20.833 -11.5 -28.5s-17.167 -11.5 -28.5 -11.5s-20.833 3.83301 -28.5 11.5s-11.5 17.167 -11.5 28.5z" />
    <glyph glyph-name="oslash" unicode="&#xf8;" horiz-adv-x="544" 
d="M345 468c26.667 0 51.1689 -3.83301 73.502 -11.5s42.166 -18.5 59.499 -32.5l56 55l30 -30l-56 -55c12.667 -16.667 22.5 -35.5 29.5 -56.5s10.5 -44.167 10.5 -69.5c0 -37.333 -7 -73 -21 -107s-33.333 -63.833 -58 -89.5s-53.334 -46 -86.001 -61
s-67.667 -22.5 -105 -22.5c-54.667 0 -100 15 -136 45l-49 -48l-30 30l50 49c-24.667 34 -37 75 -37 123c0 38 7 74 21 108s33 63.833 57 89.5s52.333 46 85 61s68 22.5 106 22.5zM278.002 39c32 0 61.333 6.33398 88 19.001s49.5 29.667 68.5 51s33.667 45.666 44 72.999
s15.5 56 15.5 86c0 34.667 -8 64 -24 88l-291 -286c24.667 -20.667 57.667 -31 99 -31zM130.002 187.001c0 -33.333 7.33301 -61.667 22 -85l289 285c-25.333 20 -57.333 30 -96 30c-32 0 -61.167 -6.33301 -87.5 -19s-49 -29.667 -68 -51s-33.667 -45.833 -44 -73.5
s-15.5 -56.5 -15.5 -86.5z" />
    <glyph glyph-name="ugrave" unicode="&#xf9;" 
d="M240 -12c-20.667 0 -40.501 3.33105 -59.501 9.99805s-35.333 17.334 -49 32.001s-23.5 33 -29.5 55s-6.33301 48.667 -1 80l51 291h52l-50 -283c-8.66699 -47.333 -3.5 -81.5 15.5 -102.5s47.5 -31.5 85.5 -31.5c25.333 0 48 5.16699 68 15.5s37 21.833 51 34.5
c16.667 14.667 31.334 31.334 44.001 50.001l56 317h52l-80 -456h-47l14 81c-12.667 -18 -27.667 -33.667 -45 -47c-14.667 -11.333 -32.667 -21.833 -54 -31.5s-46 -14.5 -74 -14.5zM268.999 716.998l131 -155l-37 -32l-133 153z" />
    <glyph glyph-name="uacute" unicode="&#xfa;" 
d="M240 -12c-20.667 0 -40.501 3.33105 -59.501 9.99805s-35.333 17.334 -49 32.001s-23.5 33 -29.5 55s-6.33301 48.667 -1 80l51 291h52l-50 -283c-8.66699 -47.333 -3.5 -81.5 15.5 -102.5s47.5 -31.5 85.5 -31.5c25.333 0 48 5.16699 68 15.5s37 21.833 51 34.5
c16.667 14.667 31.334 31.334 44.001 50.001l56 317h52l-80 -456h-47l14 81c-12.667 -18 -27.667 -33.667 -45 -47c-14.667 -11.333 -32.667 -21.833 -54 -31.5s-46 -14.5 -74 -14.5zM490.999 675.998l-176 -148l-31 36l175 149z" />
    <glyph glyph-name="ucircumflex" unicode="&#xfb;" 
d="M240 -12c-20.667 0 -40.501 3.33105 -59.501 9.99805s-35.333 17.334 -49 32.001s-23.5 33 -29.5 55s-6.33301 48.667 -1 80l51 291h52l-50 -283c-8.66699 -47.333 -3.5 -81.5 15.5 -102.5s47.5 -31.5 85.5 -31.5c25.333 0 48 5.16699 68 15.5s37 21.833 51 34.5
c16.667 14.667 31.334 31.334 44.001 50.001l56 317h52l-80 -456h-47l14 81c-12.667 -18 -27.667 -33.667 -45 -47c-14.667 -11.333 -32.667 -21.833 -54 -31.5s-46 -14.5 -74 -14.5zM361.999 691.998l147 -115l-34 -36l-117 93l-139 -93l-29 40z" />
    <glyph glyph-name="udieresis" unicode="&#xfc;" 
d="M240 -12c-20.667 0 -40.501 3.33105 -59.501 9.99805s-35.333 17.334 -49 32.001s-23.5 33 -29.5 55s-6.33301 48.667 -1 80l51 291h52l-50 -283c-8.66699 -47.333 -3.5 -81.5 15.5 -102.5s47.5 -31.5 85.5 -31.5c25.333 0 48 5.16699 68 15.5s37 21.833 51 34.5
c16.667 14.667 31.334 31.334 44.001 50.001l56 317h52l-80 -456h-47l14 81c-12.667 -18 -27.667 -33.667 -45 -47c-14.667 -11.333 -32.667 -21.833 -54 -31.5s-46 -14.5 -74 -14.5zM224.999 603.998c0 11.333 3.83301 20.833 11.5 28.5s17.167 11.5 28.5 11.5
s20.833 -3.83301 28.5 -11.5s11.5 -17.167 11.5 -28.5s-3.83301 -20.833 -11.5 -28.5s-17.167 -11.5 -28.5 -11.5s-20.833 3.83301 -28.5 11.5s-11.5 17.167 -11.5 28.5zM405.999 603.998c0 11.333 3.83301 20.833 11.5 28.5s17.167 11.5 28.5 11.5
s20.833 -3.83301 28.5 -11.5s11.5 -17.167 11.5 -28.5s-3.83301 -20.833 -11.5 -28.5s-17.167 -11.5 -28.5 -11.5s-20.833 3.83301 -28.5 11.5s-11.5 17.167 -11.5 28.5z" />
    <glyph glyph-name="yacute" unicode="&#xfd;" horiz-adv-x="489" 
d="M463 677l-176 -148l-31 36l175 149zM27 -165c4.66699 -5.33301 10.334 -9.66895 17.001 -13.002c5.33301 -3.33301 11.666 -6.33301 18.999 -9s15.666 -4 24.999 -4c16 0 30.333 5.33301 43 16s25.667 27.334 39 50.001l68 120l-144 461h54l126 -407l230 407h57
l-168 -292l-63 -110l-56 -97.5l-41.5 -72l-19.5 -33.5c-19.333 -34 -39 -58 -59 -72s-43.667 -21 -71 -21c-12 0 -23.167 1.66699 -33.5 5s-19.166 7.33301 -26.499 12c-8.66699 4.66699 -17 10.334 -25 17.001z" />
    <glyph glyph-name="thorn" unicode="&#xfe;" horiz-adv-x="567" 
d="M211 701h52.002l-56 -315c4 5.33301 10.667 12.5 20 21.5s21.166 18 35.499 27s31 16.833 50 23.5s40.5 10 64.5 10c32 0 60.167 -5 84.5 -15s45 -24 62 -42s29.833 -39.333 38.5 -64s13 -51.667 13 -81c0 -40 -7.16699 -76.833 -21.5 -110.5s-33.5 -63 -57.5 -88
s-52 -44.5 -84 -58.5s-66 -21 -102 -21c-24.667 0 -46.334 3.5 -65.001 10.5s-34.5 15.167 -47.5 24.5s-23.167 18.5 -30.5 27.5s-12.333 15.833 -15 20.5l-53 -301h-52l121 686zM377.002 417c-27.333 0 -52.002 -4.99902 -74.002 -14.999s-40.667 -21.333 -56 -34
s-27.5 -24.667 -36.5 -36s-14.5 -18 -16.5 -20v-1l-30 -172c0 -1.33301 2.5 -7.33301 7.5 -18s13 -22 24 -34s25.833 -23 44.5 -33s42 -15 70 -15c30.667 0 58.834 6.16699 84.501 18.5s47.834 29 66.501 50s33.167 45.167 43.5 72.5s15.5 56 15.5 86
c0 22 -3.33301 42.167 -10 60.5s-16.167 34.166 -28.5 47.499s-27.333 23.833 -45 31.5s-37.5 11.5 -59.5 11.5z" />
    <glyph glyph-name="ydieresis" unicode="&#xff;" horiz-adv-x="489" 
d="M204 604c0 11.333 3.83301 20.833 11.5 28.5s17.167 11.5 28.5 11.5s20.833 -3.83301 28.5 -11.5s11.5 -17.167 11.5 -28.5s-3.83301 -20.833 -11.5 -28.5s-17.167 -11.5 -28.5 -11.5s-20.833 3.83301 -28.5 11.5s-11.5 17.167 -11.5 28.5zM385 604
c0 11.333 3.83301 20.833 11.5 28.5s17.167 11.5 28.5 11.5s20.833 -3.83301 28.5 -11.5s11.5 -17.167 11.5 -28.5s-3.83301 -20.833 -11.5 -28.5s-17.167 -11.5 -28.5 -11.5s-20.833 3.83301 -28.5 11.5s-11.5 17.167 -11.5 28.5zM27 -165
c4.66699 -5.33301 10.334 -9.66895 17.001 -13.002c5.33301 -3.33301 11.666 -6.33301 18.999 -9s15.666 -4 24.999 -4c16 0 30.333 5.33301 43 16s25.667 27.334 39 50.001l68 120l-144 461h54l126 -407l230 407h57l-168 -292l-63 -110l-56 -97.5l-41.5 -72l-19.5 -33.5
c-19.333 -34 -39 -58 -59 -72s-43.667 -21 -71 -21c-12 0 -23.167 1.66699 -33.5 5s-19.166 7.33301 -26.499 12c-8.66699 4.66699 -17 10.334 -25 17.001z" />
    <glyph glyph-name="OE" unicode="&#x152;" horiz-adv-x="846" 
d="M390 0c-44 0 -83.999 7.16699 -119.999 21.5s-66.833 34.333 -92.5 60s-45.334 56.167 -59.001 91.5s-20.5 74.333 -20.5 117c0 60.667 9.83301 116.167 29.5 166.5s47.5 93.5 83.5 129.5s79.5 64 130.5 84s108.167 30 171.5 30h394l-9 -52h-308l-46 -262h284l-10 -52
h-284l-49 -282h314l-9 -52h-400zM504.001 648c-58 0 -108.667 -9.66699 -152 -29s-79.5 -45.5 -108.5 -78.5s-50.667 -71 -65 -114s-21.5 -88.5 -21.5 -136.5c0 -34.667 5.66699 -66.667 17 -96s27.5 -54.5 48.5 -75.5s46.333 -37.333 76 -49s63.167 -17.5 100.5 -17.5h30
l105 596h-30z" />
    <glyph glyph-name="oe" unicode="&#x153;" horiz-adv-x="930" 
d="M746 468c28.667 0 54.834 -4.83594 78.501 -14.5029s43.834 -23 60.501 -40s29.667 -37.167 39 -60.5s14 -49 14 -77c0 -7.33301 -0.5 -16 -1.5 -26l-4.5 -43h-393c-3.33301 -25.333 -1.83301 -48.166 4.5 -68.499s16.166 -38 29.499 -53s29.833 -26.5 49.5 -34.5
s41.5 -12 65.5 -12c24.667 0 47 4 67 12s37.333 17 52 27c17.333 11.333 32.333 24.333 45 39l37 -39c-16 -17.333 -34.333 -32.333 -55 -45c-17.333 -11.333 -38.5 -21.666 -63.5 -30.999s-52.5 -14 -82.5 -14c-50 0 -91.167 11.167 -123.5 33.5
s-55.166 51.833 -68.499 88.5c-24.667 -36.667 -56.334 -66.167 -95.001 -88.5s-81 -33.5 -127 -33.5c-30 0 -57.333 4.66699 -82 14s-45.834 22.833 -63.501 40.5s-31.5 38.667 -41.5 63s-15 51.5 -15 81.5c0 38 7 74 21 108s33 63.833 57 89.5s52.333 46 85 61
s68 22.5 106 22.5c46 0 85.667 -11 119 -33s57 -52 71 -90c23.333 36.667 53.5 66.334 90.5 89.001s78.5 34 124.5 34zM274 38.9971c32 0 61.333 6.33496 88 19.002s49.5 29.667 68.5 51s33.667 45.666 44 72.999s15.5 56 15.5 86c0 20.667 -3.16699 40.167 -9.5 58.5
s-15.666 34.166 -27.999 47.499s-27.833 23.833 -46.5 31.5s-40.334 11.5 -65.001 11.5c-32 0 -61.167 -6.33301 -87.5 -19s-49 -29.667 -68 -51s-33.667 -45.833 -44 -73.5s-15.5 -56.5 -15.5 -86.5c0 -42 12.333 -77.167 37 -105.5s61.667 -42.5 111 -42.5zM884 254.999v7
c0 2 0.166992 4 0.5 6s0.5 4 0.5 6c0 14 -2.16699 29.333 -6.5 46s-11.833 32.167 -22.5 46.5s-25 26.333 -43 36s-40.333 14.5 -67 14.5c-32 0 -60 -6.16699 -84 -18.5s-44 -27 -60 -44s-28.5 -34.667 -37.5 -53s-14.833 -33.833 -17.5 -46.5h337z" />
    <glyph glyph-name="Ydieresis" unicode="&#x178;" horiz-adv-x="568" 
d="M288 842c0 11.333 3.83301 20.833 11.5 28.5s17.167 11.5 28.5 11.5s20.833 -3.83301 28.5 -11.5s11.5 -17.167 11.5 -28.5s-3.83301 -20.833 -11.5 -28.5s-17.167 -11.5 -28.5 -11.5s-20.833 3.83301 -28.5 11.5s-11.5 17.167 -11.5 28.5zM469 842
c0 11.333 3.83301 20.833 11.5 28.5s17.167 11.5 28.5 11.5s20.833 -3.83301 28.5 -11.5s11.5 -17.167 11.5 -28.5s-3.83301 -20.833 -11.5 -28.5s-17.167 -11.5 -28.5 -11.5s-20.833 3.83301 -28.5 11.5s-11.5 17.167 -11.5 28.5zM306 275l-167 425h57l143 -372l275 372h61
l-317 -425l-48 -275h-52z" />
    <glyph glyph-name="apostrophemod" unicode="&#x2bc;" horiz-adv-x="150" 
d="M173 700h50l-42 -238h-50z" />
    <glyph glyph-name="tilde" unicode="&#x2dc;" horiz-adv-x="390" 
d="M145 590c5.33301 13.333 12.332 25.333 20.999 36c7.33301 9.33301 17.5 17.833 30.5 25.5s29.167 11.5 48.5 11.5c12 0 23.5 -2.33301 34.5 -7s21.5 -9.66699 31.5 -15l29 -15c9.33301 -4.66699 18.333 -7 27 -7c11.333 0 20.833 2.5 28.5 7.5s13.834 10.5 18.501 16.5
c5.33301 7.33301 9 15.666 11 24.999l42 -25c-5.33301 -14 -12.333 -26.333 -21 -37c-7.33301 -9.33301 -17.5 -17.666 -30.5 -24.999s-29.167 -11 -48.5 -11c-12 0 -23.5 2.33301 -34.5 7s-21.5 9.66699 -31.5 15l-29 15c-9.33301 4.66699 -18.333 7 -27 7
c-12 0 -21.667 -2.66699 -29 -8s-13.333 -11 -18 -17c-5.33301 -7.33301 -9.33301 -15.333 -12 -24z" />
    <glyph glyph-name="endash" unicode="&#x2013;" horiz-adv-x="500" 
d="M47 268h500l-9 -48h-500z" />
    <glyph glyph-name="emdash" unicode="&#x2014;" horiz-adv-x="1000" 
d="M47 268h1000l-9 -48h-1000z" />
    <glyph glyph-name="quoteleft" unicode="&#x2018;" horiz-adv-x="150" 
d="M173 700h50l-42 -238h-50z" />
    <glyph glyph-name="quoteright" unicode="&#x2019;" horiz-adv-x="150" 
d="M173 700h50l-42 -238h-50z" />
    <glyph glyph-name="quotedblleft" unicode="&#x201c;" horiz-adv-x="334" 
d="M203 700h50l-42 -238h-50zM327 700h50l-42 -238h-50z" />
    <glyph glyph-name="quotedblright" unicode="&#x201d;" horiz-adv-x="334" 
d="M203 700h50l-42 -238h-50zM327 700h50l-42 -238h-50z" />
    <glyph glyph-name="quotedblbase" unicode="&#x201e;" horiz-adv-x="334" 
d="M97 98h50l-42 -238h-50zM221 98h50l-42 -238h-50z" />
    <glyph glyph-name="bullet" unicode="&#x2022;" horiz-adv-x="500" 
d="M223 350c0 24.667 8.5 45.5 25.5 62.5s37.833 25.5 62.5 25.5s45.5 -8.5 62.5 -25.5s25.5 -37.833 25.5 -62.5s-8.5 -45.5 -25.5 -62.5s-37.833 -25.5 -62.5 -25.5s-45.5 8.5 -62.5 25.5s-25.5 37.833 -25.5 62.5z" />
    <glyph glyph-name="ellipsis" unicode="&#x2026;" horiz-adv-x="1000" 
d="M134 28c0 11.333 3.83301 20.833 11.5 28.5s17.167 11.5 28.5 11.5s20.833 -3.83301 28.5 -11.5s11.5 -17.167 11.5 -28.5s-3.83301 -20.833 -11.5 -28.5s-17.167 -11.5 -28.5 -11.5s-20.833 3.83301 -28.5 11.5s-11.5 17.167 -11.5 28.5zM464 28
c0 11.333 3.83301 20.833 11.5 28.5s17.167 11.5 28.5 11.5s20.833 -3.83301 28.5 -11.5s11.5 -17.167 11.5 -28.5s-3.83301 -20.833 -11.5 -28.5s-17.167 -11.5 -28.5 -11.5s-20.833 3.83301 -28.5 11.5s-11.5 17.167 -11.5 28.5zM794 28
c0 11.333 3.83301 20.833 11.5 28.5s17.167 11.5 28.5 11.5s20.833 -3.83301 28.5 -11.5s11.5 -17.167 11.5 -28.5s-3.83301 -20.833 -11.5 -28.5s-17.167 -11.5 -28.5 -11.5s-20.833 3.83301 -28.5 11.5s-11.5 17.167 -11.5 28.5z" />
    <glyph glyph-name="guilsinglleft" unicode="&#x2039;" horiz-adv-x="298" 
d="M264 469l36 -35l-176 -189l117 -195l-44 -29l-134 228z" />
    <glyph glyph-name="guilsinglright" unicode="&#x203a;" horiz-adv-x="298" 
d="M319 245l-212 -224l-35 36l186 193l-115 190l43 29z" />
    <glyph glyph-name="Euro" unicode="&#x20ac;" horiz-adv-x="580" 
d="M108 430l79.999 -0.00292969c14 40.667 32.833 78.167 56.5 112.5s51.5 64 83.5 89s67.5 44.667 106.5 59s80.5 21.5 124.5 21.5c17.333 0 33.333 -1.16699 48 -3.5s27 -4.83301 37 -7.5c12 -2.66699 22.333 -6 31 -10l-26 -45c-6.66699 2 -15 4.33301 -25 7
c-8.66699 2 -19.167 3.83301 -31.5 5.5s-26.5 2.5 -42.5 2.5c-32 0 -63.5 -5.5 -94.5 -16.5s-59.833 -26.5 -86.5 -46.5s-50.667 -44.167 -72 -72.5s-38.666 -60.166 -51.999 -95.499h267l-8 -47h-273c-1.33301 -5.33301 -2.5 -10.833 -3.5 -16.5
s-2.16699 -11.167 -3.5 -16.5s-2.33301 -10.833 -3 -16.5l-2 -16.5h273l-8 -47h-267c0.666992 -35.333 6.66699 -67.166 18 -95.499s26.666 -52.5 45.999 -72.5s42.5 -35.5 69.5 -46.5s56.833 -16.5 89.5 -16.5c15.333 0 29.333 0.833008 42 2.5s23.667 3.5 33 5.5
c11.333 2.66699 21.666 5.66699 30.999 9l13 -48c-11.333 -4 -23.666 -7.33301 -36.999 -10c-11.333 -2.66699 -25 -5 -41 -7s-32.667 -3 -50 -3c-39.333 0 -75.5 7 -108.5 21s-61.167 33.5 -84.5 58.5s-41.666 54.833 -54.999 89.5s-20.333 72.334 -21 113.001h-82l8 47h76
l2 16.5c0.666992 5.66699 1.66699 11.167 3 16.5s2.5 10.833 3.5 16.5s2.16699 11.167 3.5 16.5h-76z" />
    <glyph glyph-name="trademark" unicode="&#x2122;" horiz-adv-x="755" 
d="M239 662h-107l7 38h257l-7 -38h-109l-58 -332h-41zM514 700l94 -207l163 207h48l-65 -370h-41l54 305l-168 -214l-98 214l-54 -305h-41l65 370h43z" />
    <glyph glyph-name="circumflex" horiz-adv-x="418" 
d="M319 669l147 -115l-34 -36l-117 93l-139 -93l-29 40z" />
    <glyph glyph-name="ring" horiz-adv-x="242" 
d="M243 732c25.333 0 46.667 -7.83398 64 -23.501s26 -37.167 26 -64.5c0 -14 -2.83301 -27.5 -8.5 -40.5s-13.5 -24.667 -23.5 -35s-21.667 -18.666 -35 -24.999s-28 -9.5 -44 -9.5c-25.333 0 -46.833 7.83301 -64.5 23.5s-26.5 37.167 -26.5 64.5c0 14 3 27.667 9 41
s14 25 24 35s21.833 18.167 35.5 24.5s28.167 9.5 43.5 9.5zM173.001 621.999c0 -13.333 4.33301 -24.499 13 -33.499s20.667 -13.5 36 -13.5c20 0 36.667 6.66699 50 20s20 29.666 20 48.999c0 14 -4.33301 25.5 -13 34.5s-20.667 13.5 -36 13.5
c-21.333 0 -38.333 -7.33301 -51 -22s-19 -30.667 -19 -48z" />
    <glyph glyph-name="dotlessi" horiz-adv-x="224" 
d="M166 456h52l-80 -456h-52z" />
    <glyph glyph-name="oneinferior" horiz-adv-x="276" 
d="M209 313h38l-72 -406h-42l61 345l-124 -89l-21 34z" />
    <glyph glyph-name="twoinferior" horiz-adv-x="351" 
d="M253 72c-2 -2 -9.99902 -9.5 -23.999 -22.5l-45 -42.5l-63 -60h184l-7 -40h-282l101 93l37.5 34.5l33 30l23.5 21.5c6 5.33301 9.33301 8.33301 10 9l23 22.5c8 7.66699 15.5 16 22.5 25s12.667 18.833 17 29.5s6.5 22 6.5 34c0 18.667 -6.33301 35.167 -19 49.5
s-32 21.5 -58 21.5c-18 0 -33.667 -3.66699 -47 -11s-24.333 -15.333 -33 -24c-10 -10.667 -18.333 -22.334 -25 -35.001l-37 20c9.33301 17.333 20.666 32.666 33.999 45.999c11.333 11.333 25.833 21.833 43.5 31.5s39.167 14.5 64.5 14.5
c39.333 0 69.5 -10.833 90.5 -32.5s31.5 -48.5 31.5 -80.5c0 -25.333 -8.16699 -48.666 -24.5 -69.999s-35.5 -42.666 -57.5 -63.999z" />
    <glyph glyph-name="threeinferior" horiz-adv-x="358" 
d="M195 134c10.667 0 21.6621 1.83301 32.9951 5.5s21.666 9 30.999 16s16.833 15.667 22.5 26s8.5 22.166 8.5 35.499c0 15.333 -6.16699 29.166 -18.5 41.499s-30.166 18.5 -53.499 18.5c-17.333 0 -31.833 -2.83301 -43.5 -8.5s-21.167 -12.167 -28.5 -19.5
c-8.66699 -8 -16 -17.333 -22 -28l-36 22c8.66699 14 19 26.667 31 38c10.667 9.33301 24 18 40 26s35.667 12 59 12c38.667 0 67.834 -10 87.501 -30s29.5 -44 29.5 -72c0 -24 -6.16699 -44.5 -18.5 -61.5s-29.166 -30.167 -50.499 -39.5
c8.66699 -2.66699 16.667 -7.66699 24 -15c6 -6 11.5 -14.5 16.5 -25.5s7.5 -25.167 7.5 -42.5c0 -20 -4 -38.167 -12 -54.5s-18.667 -30.166 -32 -41.499s-29.166 -20.166 -47.499 -26.499s-37.5 -9.5 -57.5 -9.5c-25.333 0 -46.333 4.83301 -63 14.5
s-29.667 20.5 -39 32.5c-11.333 14 -19.666 30 -24.999 48l39 18c4.66699 -13.333 10.667 -25.333 18 -36c6.66699 -9.33301 15.667 -17.5 27 -24.5s25.666 -10.5 42.999 -10.5c12.667 0 25.334 2 38.001 6s24 9.83301 34 17.5s18 17 24 28s9 23.833 9 38.5
c0 18.667 -6.66699 33.667 -20 45s-31.666 17 -54.999 17h-28l7 39h21v0z" />
    <glyph glyph-name="fourinferior" horiz-adv-x="341" 
d="M280 313h36l-48 -273h54l-7 -40h-54l-17 -93h-42l17 93h-211zM226 40l34 194l-167 -194h133z" />
    <glyph glyph-name="fraction" horiz-adv-x="120" 
d="M407 729l32 -28l-601 -729l-32 28z" />
    </font>
</defs>
</svg>
