<?xml version="1.0" encoding="UTF-8"?>
<svg width="276px" height="74px" viewBox="0 0 276 74" version="1.1" xmlns="http://www.w3.org/2000/svg" xmlns:xlink="http://www.w3.org/1999/xlink">
    <!-- Generator: Sketch 44.1 (41455) - http://www.bohemiancoding.com/sketch -->
    <title>Untitled 2</title>
    <desc>Created with Sketch.</desc>
    <defs></defs>
    <g id="Page-1" stroke="none" stroke-width="1" fill="none" fill-rule="evenodd">
        <g id="Reactive_CONF_logo">
            <g id="Group-4">
                <path d="M37.508,37.34 C37.508,39.13 36.056,40.581 34.266,40.581 C32.477,40.581 31.026,39.13 31.026,37.34 C31.026,35.55 32.477,34.098 34.266,34.098 C36.056,34.098 37.508,35.55 37.508,37.34" id="Fill-1" fill="#1A2946"></path>
                <path d="M65.725,53.92 C65.59,54.42 65.29,54.848 64.88,55.151 C64.462,55.447 63.944,55.624 63.396,55.698 C62.484,55.832 61.547,55.73 60.596,55.568 C60.675,55.479 60.737,55.384 60.798,55.282 C61.544,55.367 62.297,55.402 63.055,55.212 C63.649,55.056 64.218,54.69 64.543,54.15 C64.879,53.62 64.998,52.988 64.977,52.379 C64.915,51.131 64.244,50.058 63.584,49.088 C62.907,48.11 62.206,47.151 61.466,46.222 C59.986,44.363 58.373,42.613 56.662,40.967 C55.49,39.84 54.26,38.779 53.005,37.747 C52.572,37.336 52.142,36.921 51.697,36.522 C52.025,36.294 52.353,36.067 52.679,35.836 C56.321,38.245 59.848,40.9 62.429,44.387 C63.811,46.259 64.895,48.361 65.472,50.603 C65.73,51.718 65.996,52.903 65.725,53.92 Z M44.504,57.547 C44.2,59.926 43.706,62.27 42.842,64.49 C42.783,64.638 42.721,64.785 42.661,64.933 C43.486,60.963 43.939,56.942 44.105,52.906 C44.363,52.995 44.62,53.086 44.879,53.172 C44.805,54.636 44.689,56.096 44.504,57.547 Z M38.803,72.492 C38.46,72.8 38.056,73.001 37.63,73.107 C37.76,72.98 37.882,72.849 37.993,72.712 C38.277,72.435 38.531,72.135 38.745,71.821 C38.808,71.73 38.861,71.636 38.921,71.544 C39.179,71.389 39.425,71.216 39.658,71.033 C39.912,70.816 40.151,70.589 40.376,70.352 C39.965,71.161 39.464,71.918 38.803,72.492 Z M32.782,71.808 C32.084,70.89 31.565,69.808 31.109,68.713 C31.056,68.584 31.013,68.451 30.962,68.322 C31.04,68.427 31.112,68.536 31.192,68.64 C31.499,69.365 31.826,70.085 32.212,70.784 C32.504,71.274 32.805,71.778 33.168,72.249 C33.034,72.107 32.898,71.972 32.782,71.808 Z M26.298,52.741 C26.541,53.699 26.794,54.654 27.053,55.607 C27.365,57.455 27.72,59.296 28.129,61.126 C27.121,58.472 26.4,55.707 25.89,52.901 C26.025,52.847 26.162,52.796 26.298,52.741 Z M17.846,54.737 C16.421,55.091 14.975,55.359 13.525,55.581 C12.798,55.686 12.071,55.785 11.34,55.852 C10.604,55.941 9.902,55.984 9.182,55.945 C8.478,55.905 7.741,55.813 7.176,55.537 C6.893,55.396 6.717,55.214 6.729,55.026 C6.727,54.889 6.79,54.693 6.871,54.491 C7.117,54.468 7.362,54.451 7.607,54.426 C9.081,54.272 10.55,54.074 12.011,53.832 C14.932,53.331 17.823,52.672 20.676,51.872 C22.013,51.483 23.34,51.056 24.657,50.606 C24.747,51.234 24.846,51.861 24.955,52.488 C22.635,53.388 20.266,54.164 17.846,54.737 Z M5.377,54.388 C4.641,54.421 3.891,54.548 3.208,54.368 C2.872,54.28 2.563,54.092 2.443,53.787 C2.308,53.487 2.394,53.136 2.561,52.832 C2.859,52.317 3.312,51.873 3.733,51.411 C3.775,51.488 3.824,51.557 3.875,51.618 C4.078,51.839 4.287,51.942 4.487,52.036 C5.226,52.348 5.927,52.432 6.631,52.512 C6.599,52.661 6.579,52.814 6.591,52.976 C6.575,53.051 6.628,53.143 6.697,53.227 C6.576,53.426 6.451,53.619 6.34,53.827 C6.266,53.988 6.189,54.149 6.124,54.324 C5.875,54.344 5.626,54.37 5.377,54.388 Z M2.438,48.223 C2.465,47.625 2.866,47.031 3.316,46.483 C3.783,45.926 4.264,45.374 4.772,44.848 C5.784,43.793 6.868,42.803 7.996,41.862 C9.999,40.191 12.129,38.659 14.268,37.141 C14.905,37.616 15.554,38.074 16.201,38.536 C16.084,38.636 15.962,38.729 15.846,38.829 C15.537,39.095 15.233,39.363 14.927,39.63 C14.917,39.637 14.906,39.643 14.896,39.65 C13.677,40.504 12.487,41.399 11.37,42.401 C10.817,42.909 10.274,43.432 9.814,44.064 C9.809,44.071 9.804,44.079 9.799,44.086 C9.514,44.324 9.224,44.556 8.94,44.795 C7.817,45.758 6.651,46.663 5.565,47.735 C5.029,48.273 4.507,48.839 4.086,49.533 C4.001,49.679 3.923,49.837 3.85,49.999 C3.672,49.913 3.485,49.841 3.325,49.732 C2.765,49.366 2.403,48.82 2.438,48.223 Z M0.575,24.159 C0.435,23.911 0.292,23.641 0.269,23.396 C0.236,23.152 0.406,22.948 0.653,22.833 C0.8,22.767 0.956,22.721 1.117,22.684 C1.024,23.142 1.125,23.598 1.325,23.984 C1.261,24.265 1.24,24.554 1.304,24.819 C1.362,25.075 1.451,25.311 1.552,25.538 C1.197,25.097 0.856,24.64 0.575,24.159 Z M2.293,21.784 C2.203,21.793 2.114,21.797 2.02,21.817 C1.794,21.393 1.629,20.932 1.683,20.579 C1.683,20.578 1.683,20.577 1.683,20.577 C1.871,20.988 2.079,21.388 2.293,21.784 Z M1.674,17.496 C1.88,17.067 2.347,16.784 2.866,16.632 C3.915,16.328 5.117,16.468 6.275,16.568 C7.437,16.697 8.592,16.913 9.74,17.175 C13.971,18.221 18.178,19.426 22.311,20.836 C22.294,21.13 22.283,21.425 22.271,21.719 C18.99,21.006 15.665,20.489 12.316,20.216 C11.129,20.098 9.935,20.084 8.744,20.014 C8.079,19.997 7.387,20.005 6.694,20.107 C5.969,19.918 5.24,19.741 4.495,19.599 C3.899,19.489 3.298,19.394 2.663,19.368 C2.417,19.362 2.161,19.373 1.888,19.416 C1.831,19.272 1.759,19.131 1.707,18.986 C1.527,18.458 1.457,17.923 1.674,17.496 Z M24.921,10.526 C25.619,8.246 26.568,6.041 27.838,4.036 C28.451,3.028 29.158,2.052 30.055,1.421 C30.494,1.09 30.994,0.91 31.473,0.94 C31.956,0.964 32.425,1.212 32.838,1.564 C33.327,1.998 33.734,2.545 34.097,3.134 C33.899,3.437 33.726,3.749 33.571,4.066 C33.377,3.898 33.166,3.749 32.941,3.611 C32.748,3.385 32.535,3.173 32.277,2.993 C32.145,2.902 31.972,2.827 31.775,2.844 C31.594,2.866 31.439,2.937 31.303,3.021 C31.218,3.073 31.145,3.134 31.068,3.192 C30.839,3.235 30.615,3.297 30.413,3.405 C29.944,3.65 29.568,3.995 29.248,4.371 C28.437,5.032 27.866,5.899 27.427,6.767 C26.313,9.02 25.779,11.43 25.32,13.822 C24.896,16.182 24.62,18.559 24.419,20.939 C24.021,20.795 23.625,20.647 23.225,20.508 C23.432,17.12 23.941,13.758 24.921,10.526 Z M35.272,2.761 C35.688,2.385 35.975,2.342 36.321,2.773 C36.652,3.197 36.937,3.714 37.186,4.248 C37.694,5.316 38.083,6.458 38.474,7.591 C39.223,9.875 39.851,12.205 40.426,14.546 C40.511,14.898 40.587,15.252 40.669,15.605 C40.675,15.686 40.681,15.768 40.687,15.85 C40.781,17.293 40.854,18.738 40.917,20.182 C40.823,20.23 40.731,20.28 40.637,20.328 C40.115,18.331 39.518,16.354 38.853,14.398 C38.295,12.061 37.695,9.724 36.92,7.43 C36.527,6.275 36.09,5.129 35.551,4.016 C35.391,3.692 35.219,3.369 35.039,3.05 C35.117,2.954 35.187,2.847 35.272,2.761 Z M41.6,19.838 C41.388,19.944 41.177,20.051 40.965,20.158 C40.895,18.721 40.817,17.284 40.717,15.848 C40.716,15.831 40.715,15.814 40.713,15.797 C41.026,17.14 41.322,18.487 41.6,19.838 Z M45.61,18.656 C46.282,18.348 46.957,18.05 47.637,17.764 C45.94,18.8 44.252,19.849 42.573,20.915 C42.526,20.678 42.474,20.442 42.426,20.204 C43.483,19.679 44.542,19.156 45.61,18.656 Z M53.031,15.082 C53.718,14.819 54.421,14.574 55.146,14.472 C55.363,14.438 55.593,14.425 55.81,14.45 C55.1,14.592 54.395,14.759 53.696,14.943 C53.346,15.036 53.002,15.148 52.655,15.25 C52.781,15.197 52.903,15.133 53.031,15.082 Z M59.211,15.126 C58.309,15.46 57.422,15.826 56.533,16.189 C56.473,16.201 56.413,16.213 56.353,16.225 C56.432,15.989 56.517,15.755 56.57,15.508 C56.598,15.348 56.608,15.16 56.577,14.982 C57.105,14.883 57.625,14.803 58.125,14.825 C58.522,14.836 58.893,14.943 59.211,15.126 Z M61.677,14.835 C62.369,14.686 63.111,14.589 63.725,14.811 C64.028,14.921 64.274,15.119 64.427,15.399 C64.491,15.494 64.489,15.646 64.456,15.813 C64.432,15.792 64.416,15.766 64.39,15.746 C63.957,15.408 63.463,15.337 63.047,15.323 C62.218,15.433 61.396,15.564 60.577,15.707 C60.507,15.55 60.43,15.394 60.328,15.246 C60.326,15.244 60.323,15.242 60.321,15.239 C60.77,15.083 61.22,14.938 61.677,14.835 Z M54.744,31.485 C53.784,32.448 52.809,33.397 51.825,34.336 C51.681,34.243 51.535,34.155 51.391,34.062 C51.962,33.613 52.545,33.181 53.104,32.714 C54.715,31.358 56.257,29.914 57.704,28.378 C56.751,29.44 55.755,30.47 54.744,31.485 Z M61.054,54.208 C61.077,54.144 61.114,54.083 61.13,54.018 C61.189,53.817 61.219,53.611 61.235,53.404 C61.312,53.39 61.387,53.385 61.465,53.368 C61.77,53.297 62.089,53.169 62.375,52.931 C62.675,52.614 62.722,52.287 62.775,51.958 C62.833,51.3 62.692,50.681 62.501,50.102 C62.107,48.942 61.518,47.881 60.842,46.887 C60.169,45.903 59.466,44.941 58.737,43.999 C57.479,42.392 56.119,40.877 54.701,39.42 C55.319,39.972 55.941,40.52 56.536,41.098 C58.234,42.746 59.833,44.497 61.3,46.353 C62.032,47.282 62.726,48.24 63.395,49.215 C64.05,50.182 64.684,51.229 64.734,52.388 C64.752,52.957 64.635,53.542 64.331,54.016 C64.036,54.499 63.537,54.819 62.988,54.962 C62.327,55.129 61.636,55.104 60.943,55.029 C61.01,54.86 61.052,54.682 61.06,54.502 C61.068,54.401 61.057,54.306 61.054,54.208 Z M27.25,52.332 C27.364,52.283 27.477,52.232 27.591,52.182 C27.813,53.678 28.051,55.171 28.315,56.66 C27.997,55.53 27.689,54.397 27.394,53.261 C27.345,52.951 27.297,52.641 27.25,52.332 Z M25.681,50.24 C25.823,50.838 25.974,51.433 26.122,52.03 C26.002,52.079 25.88,52.124 25.76,52.173 C25.656,51.555 25.56,50.936 25.474,50.316 C25.544,50.292 25.612,50.265 25.681,50.24 Z M25.429,50.015 C25.399,49.786 25.383,49.556 25.355,49.326 C25.39,49.313 25.426,49.301 25.461,49.287 C25.522,49.551 25.579,49.816 25.641,50.08 C25.577,50.102 25.514,50.128 25.449,50.15 C25.444,50.104 25.436,50.059 25.429,50.015 Z M7.011,54.166 C7.144,53.919 7.295,53.677 7.448,53.435 C7.613,53.428 7.773,53.415 7.928,53.393 C9.168,53.193 10.347,52.866 11.522,52.518 C12.2,52.461 12.876,52.387 13.538,52.275 C14.458,52.141 15.371,51.973 16.282,51.788 C16.617,51.738 16.955,51.704 17.287,51.642 C19.765,51.202 22.179,50.494 24.531,49.633 C24.552,49.798 24.564,49.964 24.586,50.129 C24.6,50.231 24.618,50.335 24.632,50.437 C23.306,50.887 21.971,51.31 20.626,51.696 C17.777,52.485 14.891,53.133 11.977,53.622 C10.519,53.858 9.054,54.051 7.584,54.199 C7.381,54.22 7.178,54.232 6.974,54.251 C6.988,54.223 6.997,54.193 7.011,54.166 Z M5.087,51.214 C5.755,51.355 6.429,51.446 7.105,51.506 C7.075,51.548 7.045,51.59 7.017,51.633 C6.972,51.629 6.926,51.628 6.881,51.624 C6.176,51.55 5.433,51.451 4.863,51.204 C4.809,51.18 4.761,51.152 4.715,51.125 C4.839,51.156 4.963,51.188 5.087,51.214 Z M5.948,48.705 C5.801,48.852 5.651,48.997 5.505,49.145 C5.648,48.978 5.805,48.819 5.96,48.658 C5.956,48.674 5.951,48.689 5.948,48.705 Z M2.559,22.283 C2.572,22.305 2.582,22.328 2.596,22.351 C2.512,22.347 2.429,22.334 2.345,22.332 C2.338,22.323 2.332,22.313 2.325,22.304 C2.404,22.295 2.477,22.284 2.559,22.283 Z M3.744,21.868 C3.505,21.828 3.263,21.795 3.017,21.776 C2.744,21.292 2.491,20.8 2.26,20.297 C2.379,20.29 2.505,20.289 2.631,20.295 C3.181,20.317 3.755,20.406 4.323,20.513 C4.534,20.553 4.745,20.608 4.956,20.654 C4.46,20.931 4.026,21.353 3.744,21.868 Z M7.732,21.354 C9.42,21.85 11.092,22.406 12.756,22.986 C11.022,22.631 9.273,22.323 7.486,22.201 C6.715,22.151 5.938,22.155 5.162,22.19 C5.027,22.154 4.896,22.105 4.759,22.073 C4.721,22.064 4.683,22.057 4.646,22.049 C4.848,21.764 5.119,21.524 5.455,21.359 C5.776,21.196 6.132,21.097 6.499,21.021 C6.911,21.129 7.323,21.237 7.732,21.354 Z M22.229,25.38 C21.534,25.169 20.835,24.97 20.135,24.775 C16.626,23.34 13.067,22.027 9.436,20.906 C10.374,20.947 11.314,20.976 12.249,21.068 C15.608,21.337 18.945,21.852 22.24,22.569 C22.22,23.291 22.209,24.014 22.212,24.735 C22.213,24.95 22.227,25.165 22.229,25.38 Z M24.275,23.05 C24.211,24.023 24.155,24.996 24.111,25.969 C23.787,25.864 23.461,25.765 23.135,25.663 C23.13,25.352 23.11,25.042 23.109,24.731 C23.105,24.077 23.112,23.421 23.127,22.766 C23.511,22.854 23.892,22.956 24.275,23.05 Z M24.365,21.713 C24.352,21.876 24.344,22.039 24.331,22.202 C23.94,22.106 23.55,22 23.157,21.91 C23.165,21.672 23.17,21.435 23.182,21.198 C23.576,21.369 23.97,21.542 24.365,21.713 Z M24.366,21.691 C23.971,21.522 23.577,21.35 23.182,21.181 C23.183,21.164 23.183,21.147 23.184,21.129 C23.583,21.268 23.977,21.419 24.374,21.562 C24.371,21.605 24.369,21.648 24.366,21.691 Z M31.601,3.153 C31.787,3.073 31.962,3.075 32.143,3.208 C32.16,3.219 32.174,3.234 32.19,3.246 C31.999,3.191 31.803,3.159 31.601,3.153 Z M40.978,21.691 C40.923,21.466 40.867,21.243 40.81,21.018 C40.856,20.994 40.902,20.97 40.948,20.946 C40.958,21.195 40.969,21.443 40.978,21.691 Z M41.042,21.883 C41.028,21.562 41.013,21.241 40.999,20.92 C41.248,20.793 41.495,20.661 41.744,20.536 C41.798,20.801 41.856,21.064 41.908,21.329 C41.619,21.513 41.33,21.697 41.042,21.883 Z M42.003,21.811 C41.706,21.953 41.414,22.106 41.118,22.251 C41.102,22.184 41.084,22.118 41.068,22.051 C41.359,21.862 41.65,21.674 41.941,21.487 C41.962,21.595 41.982,21.702 42.003,21.811 Z M61.046,16.609 C61.04,16.602 61.033,16.598 61.027,16.592 C61.218,16.556 61.406,16.521 61.593,16.486 C61.406,16.518 61.228,16.567 61.046,16.609 Z M63.339,17.907 C63.344,17.865 63.356,17.826 63.359,17.783 C63.384,17.407 63.343,16.842 62.852,16.568 C62.382,16.331 61.975,16.448 61.599,16.485 C62.097,16.391 62.576,16.311 63.018,16.321 C63.58,16.346 63.865,16.502 63.974,16.904 C63.78,17.245 63.569,17.58 63.339,17.907 Z M63.056,19.438 C63.021,19.386 62.981,19.338 62.942,19.289 C62.952,19.266 62.964,19.243 62.973,19.22 C63.19,18.942 63.415,18.673 63.625,18.388 C63.65,18.352 63.673,18.314 63.699,18.278 C63.595,18.501 63.483,18.725 63.366,18.936 C63.268,19.105 63.16,19.271 63.056,19.438 Z M50.053,35.116 C50.282,34.943 50.503,34.758 50.73,34.583 C50.896,34.688 51.064,34.79 51.229,34.897 C51.004,35.11 50.771,35.315 50.544,35.527 C50.382,35.388 50.217,35.253 50.053,35.116 Z M49.298,38.067 C49.201,38.004 49.105,37.941 49.009,37.879 C49.569,37.378 50.115,36.863 50.666,36.352 C50.837,36.5 51.01,36.646 51.179,36.796 C50.554,37.224 49.929,37.65 49.298,38.067 Z M56.546,54.682 C54.266,54.088 52.02,53.354 49.789,52.57 C48.894,52.252 48.002,51.926 47.11,51.598 C47.174,51.614 47.237,51.632 47.301,51.647 C48.245,51.853 49.185,52.076 50.131,52.275 C50.946,52.611 51.76,52.949 52.588,53.259 C54.384,53.916 56.223,54.469 58.101,54.854 C57.984,54.857 57.866,54.859 57.749,54.86 C57.554,54.862 57.36,54.84 57.165,54.834 C56.959,54.783 56.752,54.736 56.546,54.682 Z M45.716,51.853 C46.99,52.33 48.266,52.799 49.547,53.257 C50.19,53.483 50.839,53.693 51.486,53.91 C49.536,53.429 47.611,52.85 45.708,52.199 C45.712,52.084 45.712,51.969 45.716,51.853 Z M44.162,51.264 C44.422,51.363 44.682,51.462 44.942,51.559 C44.939,51.684 44.937,51.81 44.933,51.935 C44.676,51.844 44.415,51.765 44.158,51.672 C44.162,51.535 44.16,51.399 44.162,51.264 Z M27.672,49.503 C28.011,49.374 28.355,49.257 28.694,49.124 C28.79,49.665 28.891,50.205 28.998,50.744 C28.641,50.914 28.285,51.083 27.925,51.246 C27.839,50.665 27.751,50.085 27.672,49.503 Z M27.069,51.164 C27.009,50.707 26.951,50.249 26.89,49.792 C27.004,49.75 27.117,49.708 27.231,49.666 C27.309,50.258 27.398,50.848 27.483,51.439 C27.367,51.49 27.251,51.541 27.135,51.592 C27.114,51.449 27.09,51.306 27.069,51.164 Z M8.014,52.607 C8.293,52.617 8.571,52.621 8.849,52.623 C8.523,52.694 8.196,52.758 7.87,52.81 C7.918,52.743 7.965,52.675 8.014,52.607 Z M15.077,36.566 C15.155,36.512 15.234,36.459 15.311,36.405 C15.506,36.549 15.699,36.695 15.894,36.837 C16.315,37.142 16.74,37.44 17.163,37.743 C17.03,37.854 16.894,37.963 16.762,38.074 C16.723,38.049 16.684,38.023 16.645,37.999 C16.051,37.573 15.456,37.15 14.87,36.713 C14.939,36.664 15.009,36.615 15.077,36.566 Z M2.889,25.699 C3.757,26.392 4.641,27.065 5.534,27.725 C8.238,30.853 11.413,33.497 14.692,35.947 C14.681,35.955 14.67,35.962 14.659,35.97 C14.527,36.063 14.394,36.158 14.262,36.251 C13.461,35.645 12.664,35.034 11.88,34.405 C10.037,32.927 8.242,31.388 6.5,29.792 C5.612,29.013 4.788,28.164 3.929,27.354 C3.499,26.938 3.068,26.551 2.737,26.106 C2.467,25.757 2.238,25.375 2.104,24.989 C2.355,25.242 2.617,25.48 2.889,25.699 Z M2.435,23.924 C2.862,24.386 3.348,24.776 3.798,25.146 L3.811,25.157 C3.966,25.515 4.152,25.852 4.357,26.177 C3.976,25.882 3.587,25.598 3.212,25.296 C2.771,24.941 2.353,24.557 2.03,24.122 C2.068,23.963 2.131,23.814 2.232,23.685 C2.301,23.764 2.365,23.848 2.435,23.924 Z M2.524,22.599 C2.524,22.598 2.524,22.598 2.523,22.598 C2.525,22.598 2.526,22.598 2.528,22.598 C2.527,22.598 2.525,22.598 2.524,22.599 Z M3.352,22.359 C3.349,22.354 3.346,22.35 3.343,22.345 C3.359,22.347 3.375,22.349 3.391,22.351 C3.378,22.353 3.365,22.357 3.352,22.359 Z M7.986,23.675 C8.643,23.911 9.295,24.16 9.949,24.405 C8.429,23.859 6.892,23.361 5.338,22.912 C5.45,22.908 5.559,22.891 5.671,22.889 C6.446,23.127 7.215,23.392 7.986,23.675 Z M28.567,6.627 C28.599,6.563 28.635,6.501 28.668,6.437 C28.635,6.501 28.599,6.563 28.567,6.627 Z M27.871,8.23 C27.966,7.991 28.064,7.752 28.164,7.514 C27.815,8.353 27.538,9.223 27.347,10.104 C27.05,11.283 26.832,12.478 26.651,13.676 C26.26,16.268 26.038,18.877 25.91,21.491 C25.704,21.413 25.496,21.338 25.289,21.261 C25.293,21.219 25.295,21.177 25.298,21.135 C25.491,18.857 25.762,16.588 26.155,14.345 C26.573,12.264 27.124,10.214 27.871,8.23 Z M28.413,6.961 C28.334,7.134 28.252,7.304 28.178,7.48 C28.253,7.304 28.334,7.134 28.413,6.961 Z M59.911,16.912 C59.388,17.066 58.866,17.219 58.353,17.394 C57.382,17.725 56.424,18.091 55.472,18.467 C55.4,18.476 55.328,18.492 55.256,18.502 C55.397,18.27 55.531,18.034 55.661,17.797 C56.691,17.522 57.726,17.266 58.766,17.038 C59.072,16.969 59.38,16.909 59.688,16.85 C59.768,16.866 59.837,16.89 59.911,16.912 Z M62.615,18.761 C62.598,18.807 62.573,18.849 62.555,18.896 C62.5,18.843 62.433,18.788 62.327,18.736 C62.275,18.712 62.238,18.71 62.191,18.694 C61.925,18.554 61.65,18.451 61.37,18.383 C61.405,18.274 61.449,18.175 61.469,18.055 C61.533,17.757 61.501,17.391 61.363,17.069 C61.469,17.047 61.575,17.015 61.68,16.997 C62.021,16.948 62.4,16.898 62.596,17.017 C62.803,17.107 62.866,17.423 62.844,17.751 C62.822,18.082 62.731,18.427 62.615,18.761 Z M60.862,22.5 C59.029,24.794 57.037,26.951 54.892,28.966 C54.335,29.494 53.755,29.998 53.186,30.514 C54.191,29.517 55.149,28.473 56.045,27.375 C57.132,26.428 58.185,25.441 59.179,24.39 C60.205,23.311 61.164,22.164 62.023,20.941 C62.095,20.844 62.154,20.731 62.222,20.629 C62.215,20.665 62.203,20.702 62.194,20.738 C61.769,21.336 61.32,21.922 60.862,22.5 Z M47.55,36.924 C48.237,36.441 48.931,35.97 49.606,35.468 C49.781,35.614 49.957,35.758 50.131,35.906 C49.558,36.434 48.991,36.969 48.409,37.486 C48.122,37.301 47.839,37.107 47.55,36.924 Z M47.05,38.652 C46.938,38.576 46.83,38.492 46.718,38.417 C46.499,38.267 46.272,38.132 46.051,37.985 C46.319,37.804 46.577,37.607 46.844,37.424 C47.158,37.622 47.467,37.829 47.779,38.03 C47.539,38.241 47.292,38.443 47.05,38.652 Z M47.693,39.108 C47.673,39.096 47.654,39.081 47.635,39.067 C47.883,38.852 48.137,38.644 48.384,38.428 C48.448,38.47 48.512,38.512 48.576,38.554 C48.285,38.743 47.986,38.921 47.693,39.108 Z M59.168,48.958 C59.148,49.038 59.106,49.099 59.064,49.16 C58.611,48.635 58.152,48.117 57.671,47.614 C54.694,44.431 51.321,41.649 47.762,39.158 C48.055,38.97 48.355,38.791 48.646,38.599 C50.065,39.535 51.47,40.493 52.844,41.492 C54.75,42.879 56.625,44.322 58.053,46.135 C58.402,46.594 58.76,47.056 58.969,47.534 C59.185,48.014 59.302,48.566 59.168,48.958 Z M45.747,49.981 C45.75,49.295 45.745,48.608 45.732,47.922 C46.914,48.282 48.101,48.627 49.292,48.957 C51.582,49.587 53.924,50.159 56.339,50.338 C56.865,50.375 57.379,50.391 57.919,50.383 C58.712,51.188 59.563,51.961 60.05,52.914 C60.067,52.948 60.08,52.982 60.096,53.016 C59.366,53.055 58.615,53.021 57.878,52.973 C55.53,52.81 53.203,52.362 50.882,51.917 C50.336,51.813 49.794,51.694 49.252,51.572 C48.075,51.063 46.908,50.53 45.747,49.981 Z M45.747,50.354 C46.382,50.649 47.023,50.931 47.663,51.215 C47.581,51.197 47.499,51.178 47.417,51.16 C46.856,51.026 46.298,50.883 45.74,50.737 C45.742,50.609 45.746,50.482 45.747,50.354 Z M42.952,50.804 C43.169,50.888 43.387,50.968 43.604,51.052 C43.601,51.185 43.603,51.319 43.6,51.454 C43.377,51.37 43.156,51.278 42.934,51.192 C42.939,51.062 42.948,50.933 42.952,50.804 Z M39.804,59.311 C40.2,56.922 40.461,54.514 40.669,52.102 C40.68,51.959 40.688,51.815 40.699,51.672 C40.888,51.743 41.077,51.816 41.267,51.888 C41.241,52.682 41.22,53.477 41.174,54.271 C41.034,56.672 40.821,59.069 40.466,61.445 C40.401,61.871 40.332,62.296 40.262,62.721 C39.91,63.572 39.446,64.37 38.781,64.909 C38.66,64.994 38.534,65.062 38.404,65.119 C39.071,63.234 39.469,61.27 39.804,59.311 Z M29.297,48.888 C29.363,48.861 29.427,48.83 29.493,48.803 C29.533,49.349 29.582,49.895 29.628,50.442 C29.614,50.448 29.6,50.455 29.587,50.462 C29.485,49.938 29.388,49.413 29.297,48.888 Z M27.536,48.433 C27.86,48.294 28.18,48.151 28.501,48.008 C28.554,48.329 28.61,48.65 28.666,48.972 C28.33,49.101 27.989,49.217 27.652,49.343 C27.611,49.04 27.576,48.736 27.536,48.433 Z M26.757,48.762 C26.872,48.714 26.988,48.665 27.103,48.616 C27.14,48.912 27.173,49.209 27.211,49.504 C27.097,49.547 26.983,49.588 26.869,49.63 C26.832,49.341 26.794,49.052 26.757,48.762 Z M17.445,50.523 C17.776,50.449 18.109,50.383 18.439,50.303 C20.466,49.798 22.451,49.154 24.396,48.405 C24.401,48.453 24.406,48.5 24.411,48.548 C23.603,48.842 22.79,49.126 21.97,49.387 C20.294,49.921 18.593,50.369 16.877,50.742 C17.067,50.673 17.255,50.594 17.445,50.523 Z M3.304,23.486 C3.24,23.422 3.167,23.362 3.105,23.295 C3.075,23.263 3.049,23.227 3.02,23.194 C3.048,23.185 3.073,23.174 3.101,23.165 C3.169,23.272 3.236,23.38 3.304,23.486 Z M17.433,27.578 C19.1,28.289 20.755,29.029 22.409,29.769 C22.43,30.093 22.452,30.417 22.477,30.74 C20.802,31.811 19.142,32.908 17.496,34.024 C13.412,31.452 9.484,28.635 5.751,25.576 L5.337,25.233 C4.974,24.765 4.623,24.288 4.287,23.803 C4.234,23.525 4.231,23.249 4.272,22.985 C4.397,22.972 4.522,22.969 4.647,22.959 C9.014,24.152 13.26,25.803 17.433,27.578 Z M22.396,29.588 C20.77,28.852 19.144,28.117 17.505,27.41 C17.171,27.266 16.833,27.13 16.498,26.988 C18.476,27.8 20.438,28.647 22.391,29.518 C22.392,29.541 22.394,29.565 22.396,29.588 Z M23.588,30.043 C23.564,30.057 23.541,30.073 23.517,30.087 C23.456,30.059 23.393,30.033 23.332,30.005 C23.33,29.979 23.328,29.954 23.326,29.928 C23.413,29.967 23.501,30.004 23.588,30.043 Z M24.048,27.477 C24.022,28.186 23.998,28.896 23.978,29.606 C23.747,29.501 23.512,29.405 23.281,29.302 C23.235,28.568 23.202,27.833 23.176,27.099 C23.467,27.226 23.758,27.348 24.048,27.477 Z M25.152,23.267 C25.38,23.326 25.61,23.376 25.837,23.437 C25.805,24.466 25.785,25.495 25.778,26.525 C25.521,26.436 25.266,26.341 25.009,26.255 C25.014,25.765 25.035,25.275 25.049,24.786 C25.076,24.278 25.119,23.773 25.152,23.267 Z M25.877,22.372 C25.874,22.443 25.872,22.515 25.869,22.585 C25.651,22.527 25.429,22.477 25.21,22.421 C25.218,22.311 25.224,22.201 25.233,22.091 C25.448,22.185 25.663,22.278 25.877,22.372 Z M25.879,22.342 C25.664,22.249 25.449,22.158 25.234,22.065 C25.239,22.005 25.242,21.944 25.247,21.884 C25.46,21.963 25.674,22.039 25.887,22.119 C25.884,22.194 25.882,22.268 25.879,22.342 Z M28.386,23.103 C28.374,23.171 28.363,23.24 28.351,23.308 C28.062,23.22 27.775,23.132 27.486,23.047 C27.062,22.861 26.64,22.672 26.216,22.488 C26.219,22.406 26.221,22.325 26.224,22.244 C26.949,22.52 27.668,22.811 28.386,23.103 Z M33.101,5.093 C33.041,5.231 32.982,5.368 32.922,5.506 C32.462,6.641 32.077,7.797 31.717,8.958 C31.115,10.926 30.605,12.915 30.128,14.911 C30.319,13.083 30.557,11.263 30.907,9.467 C31.144,8.294 31.416,7.113 31.887,6.044 C32.115,5.534 32.466,4.972 32.864,4.917 C32.87,4.916 32.88,4.92 32.887,4.92 C32.961,4.973 33.031,5.033 33.101,5.093 Z M49.622,19.831 C49.93,19.678 50.237,19.521 50.547,19.37 C51.851,18.914 53.167,18.492 54.495,18.111 C54.844,18.009 55.197,17.922 55.548,17.827 C55.419,18.059 55.292,18.292 55.154,18.518 C53.277,18.798 51.429,19.248 49.622,19.831 Z M59.167,18.881 C58.482,19.02 57.811,19.188 57.132,19.348 C56.119,19.61 55.118,19.9 54.12,20.202 C54.29,19.965 54.469,19.734 54.635,19.492 C54.669,19.437 54.704,19.381 54.74,19.326 C54.844,19.283 54.95,19.242 55.055,19.2 C56.416,18.988 57.788,18.879 59.167,18.881 Z M60.228,17.546 C60.218,17.772 60.175,17.997 60.139,18.223 C59.246,18.187 58.36,18.211 57.477,18.269 C57.825,18.142 58.172,18.009 58.522,17.889 C59.086,17.696 59.655,17.515 60.226,17.352 C60.225,17.417 60.231,17.481 60.228,17.546 Z M57.968,24.749 C58.785,23.931 59.591,23.102 60.378,22.255 C59.878,22.869 59.357,23.467 58.81,24.042 C58.451,24.424 58.074,24.788 57.7,25.155 C57.791,25.021 57.879,24.885 57.968,24.749 Z M54.633,27.915 C54.793,27.771 54.949,27.623 55.107,27.478 C55.066,27.526 55.024,27.573 54.983,27.621 C54.866,27.719 54.75,27.817 54.633,27.915 Z M50.808,31.865 C50.402,32.223 49.984,32.566 49.566,32.91 C49.468,32.85 49.373,32.786 49.276,32.726 C50.36,31.922 51.435,31.106 52.499,30.279 C52.517,30.265 52.535,30.25 52.553,30.236 C51.986,30.794 51.405,31.339 50.808,31.865 Z M45.323,40.125 C45.281,39.62 45.236,39.117 45.189,38.613 C45.51,38.825 45.84,39.026 46.159,39.243 C46.196,39.267 46.23,39.295 46.267,39.319 C45.951,39.587 45.642,39.861 45.323,40.125 Z M45.547,43.088 C45.513,42.553 45.466,42.018 45.426,41.483 C46.753,42.278 48.086,43.064 49.396,43.885 C51.391,45.151 53.345,46.481 55.18,47.957 C55.811,48.464 56.419,48.996 57.016,49.541 C56.806,49.529 56.597,49.516 56.399,49.51 C54.079,49.335 51.788,48.775 49.513,48.145 C48.241,47.791 46.975,47.417 45.714,47.026 C45.678,45.712 45.621,44.398 45.547,43.088 Z M44.152,46.522 C44.116,45.048 44.055,43.574 43.966,42.102 C44.198,41.919 44.433,41.741 44.664,41.556 C44.702,42.082 44.748,42.607 44.781,43.134 C44.848,44.347 44.902,45.56 44.936,46.775 C44.674,46.692 44.413,46.607 44.152,46.522 Z M44.173,50.33 C44.176,50.089 44.179,49.848 44.18,49.607 C44.443,49.733 44.706,49.859 44.969,49.983 C44.969,50.168 44.968,50.351 44.966,50.536 C44.701,50.467 44.437,50.397 44.173,50.33 Z M31.795,47.813 C32.285,48.053 32.777,48.289 33.271,48.52 C32.182,49.137 31.08,49.727 29.96,50.282 C29.918,49.74 29.873,49.198 29.836,48.656 C30.493,48.385 31.144,48.099 31.795,47.813 Z M29.76,47.432 C29.976,47.331 30.192,47.226 30.407,47.122 C30.813,47.327 31.219,47.53 31.628,47.73 C31.029,47.99 30.43,48.251 29.826,48.498 C29.802,48.143 29.781,47.788 29.76,47.432 Z M29.412,47.592 C29.436,47.942 29.457,48.293 29.483,48.644 C29.411,48.673 29.341,48.706 29.27,48.735 C29.212,48.401 29.156,48.067 29.102,47.733 C29.206,47.685 29.309,47.64 29.412,47.592 Z M26.594,47.506 C26.712,47.455 26.831,47.406 26.948,47.354 C26.956,47.42 26.965,47.485 26.972,47.551 C26.854,47.599 26.737,47.649 26.618,47.698 C26.61,47.634 26.602,47.57 26.594,47.506 Z M18.252,49.556 C16.679,49.94 15.083,50.25 13.477,50.473 C16.319,49.843 19.114,49.015 21.858,48.046 C22.245,47.907 22.629,47.759 23.014,47.614 C22.161,48.018 21.304,48.41 20.432,48.766 C19.854,49.004 19.263,49.212 18.68,49.437 C18.537,49.474 18.396,49.519 18.252,49.556 Z M9.566,45.97 C9.691,46.126 9.84,46.249 9.992,46.366 C10.523,46.704 11.094,46.867 11.665,46.959 L8.427,50.026 C8.281,50.172 8.132,50.318 7.985,50.469 C7.568,50.396 7.164,50.289 6.804,50.1 C6.724,50.054 6.651,50.001 6.583,49.944 C6.689,49.662 6.964,49.224 7.193,48.888 C7.902,47.871 8.721,46.906 9.566,45.97 Z M9.465,29.874 L8.641,29.049 L8.497,28.89 C10.156,30.146 11.844,31.362 13.567,32.529 C12.184,31.667 10.814,30.786 9.465,29.874 Z M22.717,33.378 C21.772,34.072 20.844,34.788 19.92,35.509 C19.333,35.159 18.753,34.798 18.172,34.438 C19.616,33.46 21.068,32.495 22.535,31.552 C22.587,32.161 22.653,32.769 22.717,33.378 Z M23.346,30.195 C23.345,30.19 23.345,30.185 23.344,30.181 C23.349,30.183 23.354,30.185 23.358,30.187 C23.354,30.19 23.35,30.192 23.346,30.195 Z M23.951,30.66 C23.935,31.285 23.918,31.91 23.904,32.535 C23.792,32.616 23.677,32.693 23.565,32.774 C23.505,32.184 23.453,31.595 23.404,31.004 C23.586,30.889 23.769,30.775 23.951,30.66 Z M25.764,28.252 C25.765,28.392 25.77,28.532 25.771,28.671 C25.52,28.826 25.273,28.986 25.023,29.141 C25.014,28.732 25.019,28.322 25.017,27.912 C25.266,28.024 25.515,28.139 25.764,28.252 Z M26.21,22.67 C26.212,22.62 26.214,22.57 26.215,22.519 C26.551,22.667 26.885,22.818 27.219,22.966 C26.938,22.885 26.66,22.791 26.378,22.712 C26.323,22.697 26.266,22.685 26.21,22.67 Z M26.182,23.523 C26.862,23.713 27.534,23.926 28.208,24.132 C28.027,25.152 27.853,26.173 27.695,27.198 C27.177,27.009 26.657,26.831 26.137,26.651 C26.14,25.608 26.155,24.566 26.182,23.523 Z M29.074,23.382 C29.073,23.43 29.07,23.477 29.068,23.525 C29.045,23.517 29.022,23.511 29,23.504 C29.009,23.456 29.015,23.409 29.024,23.361 C29.041,23.369 29.058,23.375 29.074,23.382 Z M39.862,22.658 C39.843,22.539 39.823,22.419 39.804,22.3 C39.828,22.417 39.848,22.535 39.872,22.651 C39.868,22.654 39.866,22.656 39.862,22.658 Z M39.912,22.858 C39.907,22.861 39.901,22.864 39.896,22.867 C39.894,22.855 39.892,22.843 39.89,22.831 C39.895,22.827 39.9,22.824 39.905,22.821 C39.907,22.833 39.91,22.846 39.912,22.858 Z M42.206,22.911 C41.929,23.05 41.651,23.186 41.376,23.329 C41.372,23.31 41.368,23.291 41.364,23.272 C41.642,23.134 41.915,22.983 42.195,22.848 C42.198,22.869 42.202,22.89 42.206,22.911 Z M43.097,22.46 C43.029,22.494 42.961,22.531 42.892,22.564 C42.89,22.555 42.889,22.545 42.887,22.536 C43.978,22.02 45.073,21.513 46.185,21.043 C46.324,20.985 46.465,20.932 46.604,20.875 C46.47,20.946 46.338,21.021 46.204,21.093 C45.154,21.524 44.114,21.977 43.097,22.46 Z M46.103,22.67 C45.123,23.137 44.156,23.632 43.179,24.108 C43.132,23.846 43.082,23.585 43.033,23.323 C43.456,23.084 43.882,22.85 44.306,22.616 C46.974,21.397 49.756,20.357 52.604,19.681 C50.419,20.644 48.262,21.653 46.103,22.67 Z M52.847,20.592 C51.537,21.01 50.238,21.458 48.946,21.927 C50.752,21.077 52.562,20.237 54.391,19.464 C54.467,19.433 54.543,19.405 54.618,19.374 C54.602,19.399 54.587,19.425 54.571,19.45 C54.389,19.717 54.193,19.975 54.004,20.238 C53.618,20.355 53.231,20.469 52.847,20.592 Z M51.931,23.014 C49.912,25.625 47.779,28.146 45.56,30.591 C45.082,30.329 44.6,30.076 44.118,29.822 C44.059,29.427 44.007,29.031 43.946,28.636 C43.76,27.432 43.561,26.231 43.351,25.031 C43.83,24.818 44.308,24.603 44.795,24.404 C47.512,23.272 50.288,22.266 53.095,21.373 C53.133,21.361 53.171,21.35 53.209,21.338 C52.787,21.9 52.359,22.456 51.931,23.014 Z M57.509,22.123 L54.469,25.35 C52.428,27.486 50.347,29.58 48.198,31.601 C48.089,31.703 47.978,31.804 47.869,31.906 C47.112,31.463 46.353,31.026 45.585,30.604 C47.81,28.168 49.952,25.655 51.98,23.051 C52.428,22.47 52.879,21.89 53.322,21.304 C54.651,20.885 55.99,20.494 57.336,20.148 C58.123,19.959 58.93,19.765 59.727,19.621 C59.074,20.49 58.281,21.299 57.509,22.123 Z M50.726,30.549 C50.334,30.85 49.93,31.139 49.535,31.437 C51.421,29.64 53.263,27.799 55.063,25.92 L58.113,22.69 C58.356,22.429 58.604,22.169 58.851,21.907 C58.344,22.946 57.745,23.939 57.087,24.895 C55.052,26.876 52.948,28.791 50.726,30.549 Z M48.452,33.794 C48.35,33.714 48.242,33.64 48.14,33.56 C48.286,33.453 48.433,33.348 48.579,33.24 C48.691,33.307 48.803,33.373 48.915,33.441 C48.763,33.561 48.606,33.676 48.452,33.794 Z M43.808,39.815 C43.799,39.699 43.788,39.582 43.779,39.466 C44.008,39.318 44.236,39.17 44.464,39.02 C44.502,39.438 44.535,39.856 44.569,40.274 C44.314,40.125 44.064,39.965 43.808,39.815 Z M43.025,46.158 C43.024,45.174 43.019,44.188 42.997,43.203 C42.995,43.093 42.987,42.982 42.984,42.872 C43.129,42.76 43.272,42.645 43.416,42.533 C43.491,43.801 43.545,45.068 43.58,46.338 C43.395,46.276 43.209,46.221 43.025,46.158 Z M32.608,47.464 C32.685,47.505 32.762,47.547 32.839,47.588 C32.759,47.549 32.679,47.507 32.599,47.468 C32.602,47.467 32.605,47.466 32.608,47.464 Z M31.222,46.723 C31.629,46.946 32.041,47.161 32.451,47.38 C32.446,47.382 32.441,47.384 32.436,47.387 C32.01,47.18 31.589,46.963 31.165,46.751 C31.184,46.741 31.203,46.731 31.222,46.723 Z M28.296,46.728 C28.309,46.812 28.323,46.896 28.337,46.98 C28.027,47.115 27.714,47.243 27.403,47.373 C27.394,47.301 27.384,47.228 27.375,47.156 C27.683,47.016 27.99,46.873 28.296,46.728 Z M27.247,46.122 C27.454,46.014 27.662,45.905 27.87,45.797 C27.958,45.845 28.047,45.892 28.135,45.939 C27.849,46.077 27.56,46.209 27.272,46.342 C27.263,46.268 27.255,46.195 27.247,46.122 Z M26.472,46.523 C26.59,46.463 26.707,46.402 26.825,46.342 C26.832,46.407 26.842,46.473 26.849,46.539 C26.73,46.593 26.613,46.648 26.494,46.701 C26.487,46.641 26.48,46.583 26.472,46.523 Z M9.651,50.585 C10.74,49.372 11.91,48.21 13.107,47.071 C13.574,47.081 14.041,47.074 14.505,47.043 C16.01,46.936 17.467,46.644 18.926,46.395 C20.66,46.083 22.389,45.725 24.108,45.325 C24.142,45.801 24.17,46.276 24.213,46.752 C23.392,47.08 22.567,47.399 21.734,47.701 C18.955,48.692 16.123,49.542 13.242,50.184 C12.066,50.449 10.855,50.585 9.651,50.585 Z M17.189,39.247 C17.067,39.336 16.948,39.429 16.827,39.517 C16.943,39.424 17.061,39.333 17.178,39.24 C17.182,39.242 17.185,39.244 17.189,39.247 Z M17.064,35.2 C17.688,35.562 18.314,35.921 18.941,36.277 C18.607,36.544 18.282,36.823 17.951,37.094 C17.362,36.671 16.791,36.223 16.216,35.783 C16.498,35.588 16.781,35.394 17.064,35.2 Z M16.374,34.793 C16.117,34.97 15.86,35.144 15.605,35.321 C14.536,34.484 13.485,33.624 12.468,32.721 C12.118,32.403 11.767,32.086 11.417,31.768 C12.48,32.449 13.551,33.116 14.63,33.766 C15.208,34.115 15.792,34.452 16.374,34.793 Z M25.803,30.449 C25.55,30.331 25.3,30.205 25.046,30.088 C25.045,30.05 25.043,30.011 25.041,29.973 C25.29,29.817 25.536,29.658 25.786,29.504 C25.791,29.819 25.797,30.134 25.803,30.449 Z M26.951,28.792 C27.112,28.867 27.274,28.938 27.435,29.013 C27.38,29.411 27.315,29.808 27.264,30.208 C26.99,30.391 26.709,30.565 26.436,30.75 C26.352,30.711 26.268,30.669 26.183,30.63 C26.172,30.177 26.162,29.725 26.154,29.272 C26.418,29.11 26.686,28.953 26.951,28.792 Z M26.164,28.434 C26.155,28.44 26.145,28.446 26.135,28.452 C26.135,28.441 26.135,28.431 26.135,28.421 C26.145,28.426 26.155,28.43 26.164,28.434 Z M27.169,27.831 C27.149,27.822 27.129,27.813 27.109,27.804 C27.131,27.812 27.153,27.819 27.176,27.827 C27.173,27.828 27.171,27.83 27.169,27.831 Z M29.036,24.381 C29.008,25.172 28.985,25.962 28.965,26.753 C28.77,26.868 28.577,26.987 28.383,27.102 C28.529,26.176 28.691,25.251 28.857,24.327 C28.916,24.346 28.976,24.362 29.036,24.381 Z M29.518,23.661 C29.52,23.628 29.522,23.596 29.524,23.564 C29.875,23.711 30.225,23.863 30.575,24.015 C30.222,23.897 29.872,23.774 29.518,23.661 Z M38.99,23.231 C38.792,23.361 38.594,23.492 38.397,23.621 C37.269,24.21 36.155,24.822 35.046,25.445 C34.615,25.232 34.186,25.013 33.752,24.806 C35.422,23.867 37.108,22.956 38.802,22.062 C38.866,22.452 38.928,22.842 38.99,23.231 Z M41.694,24.839 C41.648,24.617 41.602,24.395 41.554,24.174 C41.821,24.02 42.087,23.866 42.354,23.714 C42.399,23.958 42.446,24.202 42.49,24.448 C42.224,24.577 41.959,24.708 41.694,24.839 Z M44.961,31.24 C44.827,31.147 44.691,31.058 44.556,30.967 C44.703,31.045 44.851,31.121 44.997,31.201 C44.985,31.214 44.973,31.226 44.961,31.24 Z M47.002,32.707 C46.336,32.212 45.664,31.725 44.981,31.253 C44.993,31.24 45.006,31.226 45.019,31.212 C45.771,31.621 46.514,32.044 47.256,32.473 C47.171,32.551 47.087,32.63 47.002,32.707 Z M45.688,35.789 C45.567,35.716 45.447,35.641 45.325,35.569 C46.11,35.024 46.886,34.469 47.66,33.91 C47.696,33.934 47.732,33.957 47.767,33.981 C47.841,34.038 47.917,34.091 47.99,34.147 C47.237,34.714 46.472,35.266 45.688,35.789 Z M46.284,36.15 C46.694,35.874 47.101,35.594 47.503,35.306 C47.12,35.604 46.73,35.893 46.344,36.186 C46.323,36.174 46.303,36.162 46.284,36.15 Z M45.024,36.968 C45.199,36.857 45.376,36.749 45.55,36.636 C45.587,36.659 45.624,36.681 45.661,36.704 C45.454,36.858 45.253,37.02 45.045,37.173 C45.038,37.105 45.031,37.036 45.024,36.968 Z M43.671,38.145 C43.661,38.036 43.654,37.927 43.644,37.817 C43.7,37.784 43.758,37.753 43.813,37.72 C43.895,37.771 43.975,37.826 44.057,37.879 C43.93,37.97 43.799,38.056 43.671,38.145 Z M42.949,41.997 C42.926,41.349 42.904,40.702 42.871,40.056 C42.898,40.038 42.925,40.02 42.951,40.003 C43.053,40.062 43.158,40.116 43.259,40.176 C43.298,40.677 43.334,41.178 43.367,41.68 C43.244,41.776 43.121,41.873 42.998,41.969 C42.982,41.978 42.965,41.987 42.949,41.997 Z M40.823,49.954 C40.987,50.019 41.152,50.085 41.316,50.151 C41.314,50.286 41.318,50.421 41.315,50.556 C41.142,50.485 40.967,50.422 40.794,50.349 C40.803,50.218 40.813,50.086 40.823,49.954 Z M39.303,49.342 C39.311,49.345 39.32,49.348 39.327,49.35 C39.768,49.532 40.212,49.708 40.654,49.886 C40.644,50.015 40.634,50.145 40.624,50.274 C40.17,50.083 39.722,49.876 39.271,49.676 C39.282,49.564 39.292,49.453 39.303,49.342 Z M39.255,49.325 C39.244,49.435 39.235,49.546 39.224,49.655 C38.204,49.204 37.192,48.735 36.189,48.247 C37.204,48.624 38.227,48.982 39.255,49.325 Z M28.991,46.401 C29.088,46.452 29.182,46.507 29.279,46.556 C29.166,46.608 29.053,46.659 28.94,46.709 C28.927,46.622 28.913,46.535 28.9,46.447 C28.93,46.432 28.96,46.416 28.991,46.401 Z M15.875,44.487 C17.176,43.315 18.496,42.163 19.827,41.022 C21.196,41.918 22.588,42.777 23.995,43.61 C24.015,43.977 24.043,44.343 24.067,44.71 C22.327,45.119 20.577,45.485 18.819,45.804 C17.364,46.054 15.911,46.345 14.463,46.448 C14.221,46.465 13.98,46.469 13.738,46.474 C14.448,45.807 15.162,45.145 15.875,44.487 Z M18.237,38.511 C18.11,38.601 17.981,38.689 17.854,38.78 C17.837,38.769 17.82,38.758 17.802,38.747 C17.923,38.651 18.045,38.556 18.166,38.46 C18.19,38.476 18.214,38.494 18.237,38.511 Z M25.816,31.16 C25.568,31.044 25.323,30.925 25.075,30.81 C25.074,30.78 25.073,30.749 25.072,30.72 C25.321,30.835 25.565,30.958 25.814,31.075 C25.815,31.103 25.815,31.131 25.816,31.16 Z M28.399,29.468 C28.267,29.554 28.135,29.64 28.003,29.726 C28.022,29.587 28.044,29.448 28.064,29.309 C28.176,29.362 28.287,29.416 28.399,29.468 Z M28.223,28.207 C28.46,28.296 28.695,28.393 28.931,28.484 C28.93,28.539 28.93,28.594 28.929,28.649 C28.689,28.536 28.449,28.42 28.208,28.307 C28.213,28.274 28.218,28.241 28.223,28.207 Z M28.941,27.663 C28.918,27.654 28.895,27.644 28.871,27.636 C28.895,27.621 28.919,27.607 28.942,27.593 C28.942,27.616 28.942,27.64 28.941,27.663 Z M29.974,26.972 C30.801,26.49 31.634,26.018 32.466,25.543 C32.946,25.717 33.421,25.902 33.897,26.084 C32.7,26.773 31.515,27.482 30.341,28.209 C30.021,28.082 29.7,27.957 29.379,27.833 C29.383,27.663 29.385,27.494 29.39,27.324 C29.585,27.208 29.778,27.087 29.974,26.972 Z M31.582,25.238 C30.927,25.613 30.269,25.982 29.616,26.362 C29.55,26.401 29.485,26.442 29.418,26.481 C29.438,25.826 29.459,25.171 29.486,24.516 C30.189,24.743 30.885,24.994 31.582,25.238 Z M41.747,28.618 C41.621,27.752 41.475,26.889 41.33,26.026 C41.506,26.899 41.665,27.775 41.82,28.653 C41.796,28.641 41.771,28.63 41.747,28.618 Z M44.518,31.719 C44.472,31.691 44.426,31.664 44.381,31.636 C44.376,31.598 44.369,31.559 44.364,31.52 C44.433,31.568 44.503,31.613 44.572,31.66 C44.554,31.68 44.536,31.699 44.518,31.719 Z M45.423,32.265 C45.131,32.081 44.831,31.911 44.537,31.73 C44.554,31.711 44.573,31.692 44.59,31.673 C45.014,31.963 45.438,32.253 45.856,32.553 C45.71,32.459 45.569,32.358 45.423,32.265 Z M42.715,37.622 C42.711,37.576 42.708,37.53 42.705,37.485 C42.806,37.403 42.907,37.321 43.009,37.238 C43.015,37.303 43.024,37.367 43.031,37.432 C43.031,37.434 43.031,37.437 43.031,37.44 C42.926,37.501 42.82,37.561 42.715,37.622 Z M42.794,38.753 C42.785,38.609 42.773,38.466 42.764,38.322 C42.873,38.261 42.981,38.198 43.089,38.136 C43.101,38.265 43.11,38.396 43.121,38.526 C43.012,38.601 42.904,38.677 42.794,38.753 Z M40.876,49.206 C40.901,48.815 40.928,48.425 40.95,48.034 C41.074,48.096 41.198,48.156 41.321,48.218 C41.323,48.605 41.321,48.994 41.318,49.382 C41.171,49.323 41.023,49.265 40.876,49.206 Z M29.721,46.028 C29.769,46.004 29.817,45.979 29.865,45.955 C29.975,46.018 30.084,46.083 30.195,46.145 C30.153,46.165 30.111,46.183 30.069,46.202 C29.954,46.143 29.836,46.088 29.721,46.028 Z M25.482,45 C25.514,44.992 25.546,44.982 25.577,44.974 C25.624,45.361 25.672,45.749 25.719,46.136 C25.717,46.137 25.714,46.138 25.711,46.139 C25.631,45.76 25.56,45.379 25.482,45 Z M23.943,42.745 C23.943,42.761 23.943,42.775 23.944,42.791 C23.649,42.613 23.355,42.435 23.062,42.256 C23.357,42.417 23.646,42.587 23.943,42.745 Z M19.607,39.466 C19.526,39.541 19.444,39.616 19.363,39.691 C18.959,39.449 18.549,39.216 18.149,38.967 C18.271,38.881 18.394,38.797 18.517,38.71 C18.878,38.965 19.243,39.214 19.607,39.466 Z M19.323,37.546 L20.239,37.012 C20.263,37.025 20.287,37.039 20.312,37.053 C19.91,37.328 19.515,37.614 19.115,37.893 C19.074,37.865 19.032,37.837 18.991,37.808 C19.102,37.721 19.212,37.632 19.323,37.546 Z M25.11,31.685 C25.1,31.449 25.09,31.212 25.082,30.976 C25.29,31.071 25.496,31.171 25.704,31.266 C25.504,31.404 25.309,31.546 25.11,31.685 Z M29.362,28.84 C29.363,28.778 29.364,28.716 29.365,28.654 C29.424,28.677 29.482,28.7 29.541,28.723 C29.481,28.762 29.422,28.802 29.362,28.84 Z M39.188,24.52 C38.273,25.043 37.374,25.593 36.483,26.155 C36.394,26.109 36.304,26.068 36.215,26.023 C37.192,25.465 38.175,24.92 39.17,24.395 C39.176,24.437 39.182,24.478 39.188,24.52 Z M40.134,24 C40.116,24.01 40.097,24.02 40.079,24.031 C40.074,23.999 40.07,23.968 40.065,23.937 C40.082,23.928 40.099,23.919 40.117,23.911 C40.122,23.94 40.128,23.97 40.134,24 Z M42.107,30.275 C42.057,30.246 42.006,30.219 41.955,30.19 C41.943,30.099 41.932,30.009 41.92,29.918 C41.966,29.947 42.013,29.973 42.059,30.002 C42.074,30.094 42.093,30.184 42.107,30.275 Z M42.758,30.655 C42.745,30.577 42.736,30.497 42.724,30.418 C42.994,30.592 43.256,30.779 43.525,30.956 C43.533,31.016 43.542,31.075 43.55,31.134 C43.285,30.976 43.024,30.811 42.758,30.655 Z M43.749,32.551 C43.539,32.772 43.334,32.999 43.122,33.219 C43.016,32.41 42.9,31.601 42.777,30.794 C43.044,30.952 43.306,31.118 43.571,31.278 C43.63,31.702 43.693,32.126 43.749,32.551 Z M44.41,31.835 C44.407,31.819 44.405,31.802 44.403,31.786 C44.414,31.792 44.425,31.799 44.437,31.806 C44.427,31.816 44.419,31.826 44.41,31.835 Z M44.772,34.704 C44.659,33.756 44.543,32.808 44.414,31.862 C44.427,31.848 44.441,31.832 44.455,31.818 C44.755,32.003 45.06,32.179 45.357,32.368 C45.752,32.62 46.134,32.89 46.524,33.149 C45.946,33.674 45.361,34.192 44.772,34.704 Z M41.034,46.364 C41.125,46.396 41.216,46.429 41.306,46.461 C41.315,46.914 41.319,47.366 41.322,47.819 C41.205,47.761 41.087,47.702 40.97,47.643 C40.994,47.217 41.014,46.791 41.034,46.364 Z M39.789,47.052 C39.706,47.01 39.624,46.964 39.54,46.921 C39.572,46.569 39.595,46.216 39.625,45.863 C40.041,46.016 40.461,46.161 40.879,46.309 C40.857,46.727 40.836,47.145 40.811,47.563 C40.47,47.392 40.129,47.223 39.789,47.052 Z M39.502,47.313 C39.543,47.334 39.583,47.356 39.624,47.377 C40.011,47.571 40.401,47.761 40.789,47.954 C40.765,48.349 40.738,48.745 40.71,49.14 C40.265,48.961 39.82,48.781 39.376,48.598 C39.418,48.17 39.463,47.742 39.502,47.313 Z M36.565,47.412 C36.558,47.409 36.551,47.405 36.543,47.402 C37.011,47.106 37.476,46.806 37.938,46.5 C38.442,46.76 38.94,47.028 39.446,47.284 C39.409,47.715 39.365,48.145 39.324,48.576 C38.402,48.195 37.481,47.81 36.565,47.412 Z M32.262,46.202 C32.33,46.235 32.398,46.269 32.466,46.302 C32.393,46.271 32.32,46.24 32.247,46.21 C32.253,46.208 32.258,46.205 32.262,46.202 Z M27.086,44.579 C27.181,44.554 27.278,44.53 27.373,44.504 C27.504,44.583 27.631,44.666 27.762,44.744 C27.85,44.796 27.941,44.846 28.029,44.897 C28.037,44.955 28.046,45.013 28.054,45.071 C28.036,45.08 28.018,45.09 28,45.098 C27.697,44.933 27.391,44.772 27.089,44.605 C27.088,44.597 27.087,44.588 27.086,44.579 Z M27.174,45.421 C27.2,45.435 27.227,45.449 27.253,45.464 C27.229,45.474 27.205,45.485 27.181,45.495 C27.179,45.471 27.177,45.445 27.174,45.421 Z M26.706,45.169 C26.724,45.34 26.74,45.511 26.758,45.682 C26.635,45.736 26.511,45.792 26.388,45.845 C26.351,45.542 26.313,45.239 26.276,44.936 C26.418,45.016 26.564,45.09 26.706,45.169 Z M25.155,43.367 C25.238,43.41 25.321,43.452 25.404,43.494 C25.41,43.548 25.415,43.6 25.421,43.654 C25.342,43.608 25.263,43.561 25.184,43.515 C25.175,43.466 25.164,43.417 25.155,43.367 Z M20.746,40.247 C21.568,40.806 22.396,41.356 23.228,41.899 C22.331,41.414 21.44,40.918 20.559,40.405 C20.621,40.352 20.684,40.3 20.746,40.247 Z M21.507,37.719 C21.459,37.761 21.41,37.802 21.362,37.844 C21.027,38.14 20.707,38.453 20.376,38.755 C20.049,38.538 19.728,38.312 19.405,38.091 C19.815,37.806 20.22,37.515 20.633,37.234 C20.924,37.396 21.216,37.556 21.507,37.719 Z M40.412,25.469 C40.377,25.487 40.34,25.504 40.304,25.522 C40.295,25.456 40.286,25.39 40.276,25.325 C40.258,25.198 40.237,25.07 40.218,24.942 C40.247,24.925 40.278,24.909 40.307,24.891 C40.342,25.084 40.378,25.276 40.412,25.469 Z M42.436,33.912 C42.421,33.904 42.406,33.895 42.39,33.887 C42.268,32.696 42.129,31.507 41.972,30.319 C42.023,30.349 42.075,30.376 42.126,30.406 C42.302,31.515 42.464,32.625 42.608,33.739 C42.551,33.797 42.493,33.854 42.436,33.912 Z M42.644,34.028 C42.578,33.992 42.512,33.954 42.446,33.918 C42.5,33.863 42.556,33.809 42.61,33.754 C42.622,33.845 42.632,33.937 42.644,34.028 Z M43.269,34.377 C43.223,33.996 43.175,33.617 43.125,33.237 C43.337,33.018 43.542,32.794 43.752,32.574 C43.849,33.313 43.935,34.055 44.022,34.796 C43.773,34.652 43.519,34.518 43.269,34.377 Z M42.022,40.598 C42.028,40.595 42.034,40.592 42.039,40.588 C42.046,40.765 42.048,40.94 42.054,41.116 C42.043,40.944 42.034,40.771 42.022,40.598 Z M41.129,44.281 C41.165,44.255 41.202,44.228 41.238,44.202 C41.256,44.649 41.266,45.098 41.279,45.545 C41.212,45.521 41.146,45.498 41.079,45.474 C41.097,45.076 41.114,44.679 41.129,44.281 Z M40.976,44.392 C40.961,44.735 40.944,45.077 40.928,45.42 C40.621,45.31 40.313,45.204 40.008,45.092 C40.333,44.862 40.654,44.626 40.976,44.392 Z M39.136,45.69 C39.277,45.742 39.42,45.789 39.561,45.841 C39.534,46.191 39.511,46.541 39.482,46.89 C39.085,46.686 38.692,46.473 38.295,46.267 C38.578,46.078 38.856,45.883 39.136,45.69 Z M36.796,45.479 C36.915,45.42 37.037,45.367 37.156,45.306 C37.297,45.235 37.433,45.156 37.573,45.083 C37.827,45.181 38.08,45.283 38.335,45.38 C38.082,45.551 37.83,45.721 37.575,45.889 C37.315,45.753 37.056,45.616 36.796,45.479 Z M36.369,45.684 C36.65,45.831 36.931,45.977 37.212,46.123 C36.732,46.435 36.25,46.746 35.763,47.048 C35.38,46.877 34.998,46.701 34.616,46.527 C35.202,46.249 35.788,45.973 36.369,45.684 Z M34.779,44.858 C35.261,45.112 35.747,45.36 36.231,45.613 C35.643,45.9 35.052,46.179 34.46,46.456 C33.984,46.237 33.507,46.022 33.033,45.799 C33.619,45.491 34.201,45.178 34.779,44.858 Z M26.562,44.085 C26.47,44.109 26.377,44.134 26.284,44.158 C26.246,44.137 26.209,44.114 26.172,44.093 C26.163,44.019 26.155,43.946 26.146,43.873 C26.285,43.942 26.423,44.015 26.562,44.085 Z M23.868,34.27 C23.825,34.295 23.781,34.318 23.739,34.343 C23.734,34.299 23.729,34.255 23.724,34.211 C23.773,34.175 23.823,34.14 23.871,34.104 C23.87,34.16 23.869,34.215 23.868,34.27 Z M25.878,33.152 C25.65,33.279 25.422,33.404 25.195,33.532 C25.188,33.412 25.177,33.292 25.17,33.172 C25.4,33.007 25.629,32.841 25.86,32.677 C25.865,32.835 25.872,32.994 25.878,33.152 Z M26.989,31.866 C27.027,31.884 27.066,31.902 27.105,31.92 C27.101,31.992 27.093,32.062 27.09,32.134 C27.088,32.251 27.094,32.36 27.094,32.475 C26.814,32.63 26.536,32.785 26.257,32.941 C26.25,32.763 26.241,32.585 26.235,32.407 C26.487,32.229 26.735,32.043 26.989,31.866 Z M40.843,28.179 C40.785,28.151 40.728,28.122 40.67,28.095 C40.594,27.541 40.514,26.988 40.434,26.434 C40.476,26.412 40.517,26.389 40.558,26.368 C40.636,26.828 40.711,27.289 40.783,27.751 C40.803,27.893 40.823,28.036 40.843,28.179 Z M42.864,35.967 C42.771,35.911 42.676,35.856 42.582,35.8 C42.555,35.481 42.517,35.164 42.487,34.846 C42.576,34.896 42.665,34.945 42.754,34.995 C42.792,35.319 42.828,35.643 42.864,35.967 Z M41.17,43.029 C41.173,42.956 41.175,42.883 41.177,42.809 C41.181,42.879 41.186,42.948 41.19,43.017 C41.183,43.021 41.177,43.025 41.17,43.029 Z M41.166,43.154 C41.177,43.148 41.186,43.141 41.197,43.136 C41.2,43.208 41.206,43.28 41.21,43.351 C41.193,43.364 41.176,43.376 41.158,43.389 C41.161,43.31 41.163,43.232 41.166,43.154 Z M39.775,43.904 C40.188,43.679 40.608,43.468 41.018,43.238 C41.015,43.324 41.012,43.411 41.009,43.497 C40.586,43.806 40.163,44.116 39.736,44.419 C39.748,44.247 39.763,44.075 39.775,43.904 Z M39.698,43.944 C39.687,44.121 39.673,44.297 39.66,44.473 C39.506,44.581 39.347,44.685 39.192,44.793 C38.983,44.715 38.777,44.63 38.569,44.55 C38.947,44.35 39.323,44.148 39.698,43.944 Z M36.656,43.803 C37.248,43.471 37.838,43.134 38.424,42.791 C38.89,42.514 39.351,42.223 39.816,41.942 C39.783,42.566 39.749,43.19 39.708,43.813 C39.282,44.043 38.855,44.269 38.426,44.494 C37.835,44.267 37.243,44.039 36.656,43.803 Z M35.695,44.349 C36.269,44.583 36.848,44.802 37.426,45.026 C37.317,45.082 37.211,45.143 37.101,45.198 C36.955,45.271 36.806,45.336 36.66,45.408 C36.169,45.149 35.676,44.894 35.185,44.633 C35.355,44.538 35.526,44.446 35.695,44.349 Z M33.285,44.081 C33.446,44.167 33.608,44.248 33.769,44.333 C33.174,44.657 32.576,44.973 31.974,45.284 C31.829,45.214 31.684,45.142 31.538,45.071 C32.126,44.75 32.709,44.421 33.285,44.081 Z M30.311,44.474 C30.955,44.162 31.594,43.843 32.231,43.515 C32.313,43.559 32.394,43.603 32.476,43.647 C31.882,43.992 31.281,44.326 30.675,44.652 C30.554,44.592 30.432,44.535 30.311,44.474 Z M23.412,38.766 C23.437,38.926 23.455,39.086 23.481,39.244 C23.57,39.797 23.674,40.347 23.769,40.897 C23.032,40.458 22.308,40.001 21.585,39.54 C22.013,39.182 22.439,38.821 22.87,38.469 C23.051,38.567 23.231,38.668 23.412,38.766 Z M23.171,37.083 C23.177,37.127 23.184,37.171 23.19,37.214 C23.146,37.249 23.102,37.284 23.058,37.32 C23.026,37.302 22.995,37.283 22.962,37.265 C23.032,37.204 23.102,37.144 23.171,37.083 Z M22.97,35.679 C22.999,35.907 23.037,36.134 23.068,36.362 C22.845,36.555 22.621,36.747 22.4,36.942 C22.159,36.806 21.92,36.668 21.68,36.531 C22.109,36.244 22.54,35.962 22.97,35.679 Z M27.76,32.005 C27.792,32.02 27.824,32.035 27.856,32.051 C27.833,32.063 27.809,32.077 27.786,32.09 C27.776,32.085 27.765,32.08 27.756,32.075 C27.757,32.052 27.759,32.028 27.76,32.005 Z M28.9,31.435 C28.753,31.528 28.606,31.62 28.459,31.713 C28.241,31.608 28.022,31.505 27.803,31.401 C27.806,31.371 27.807,31.342 27.81,31.312 C28.173,31.062 28.54,30.819 28.906,30.573 C28.904,30.86 28.901,31.148 28.9,31.435 Z M30.362,30.401 C30.071,30.62 29.781,30.841 29.493,31.063 C29.437,31.098 29.381,31.133 29.325,31.169 C29.327,30.873 29.335,30.577 29.338,30.281 C29.445,30.21 29.55,30.137 29.656,30.066 C29.891,30.178 30.127,30.288 30.362,30.401 Z M31.544,29.519 C31.442,29.593 31.343,29.67 31.241,29.744 C31.025,29.64 30.808,29.539 30.592,29.435 C30.61,29.423 30.628,29.41 30.647,29.398 C30.725,29.347 30.806,29.301 30.885,29.25 C31.104,29.339 31.324,29.428 31.544,29.519 Z M35.108,26.653 C35.219,26.708 35.33,26.761 35.441,26.816 C34.368,27.516 33.316,28.246 32.276,28.993 C32.082,28.911 31.891,28.823 31.696,28.743 C32.822,28.027 33.958,27.328 35.108,26.653 Z M35.513,26.77 C35.404,26.716 35.293,26.664 35.183,26.61 C35.192,26.605 35.2,26.601 35.208,26.596 C35.327,26.644 35.448,26.688 35.567,26.736 C35.549,26.748 35.531,26.759 35.513,26.77 Z M36.843,27.265 C36.787,27.294 36.732,27.325 36.676,27.353 C36.588,27.308 36.501,27.262 36.412,27.217 C36.457,27.19 36.502,27.163 36.547,27.136 C36.646,27.178 36.744,27.223 36.843,27.265 Z M41.185,32.019 C41.091,31.249 40.991,30.479 40.889,29.71 C40.948,29.744 41.008,29.777 41.067,29.81 C41.111,30.157 41.147,30.503 41.188,30.849 C41.191,31.24 41.184,31.63 41.185,32.019 Z M41.336,33.3 C41.318,33.147 41.303,32.993 41.285,32.84 C41.283,32.447 41.286,32.054 41.283,31.66 C41.345,32.198 41.414,32.735 41.471,33.273 C41.475,33.309 41.477,33.345 41.481,33.381 C41.432,33.354 41.385,33.326 41.336,33.3 Z M41.608,34.749 C41.574,34.783 41.54,34.817 41.507,34.851 C41.486,34.655 41.464,34.458 41.442,34.262 C41.485,34.286 41.527,34.31 41.57,34.334 C41.583,34.472 41.594,34.61 41.608,34.749 Z M41.079,41.173 C41.083,41.223 41.085,41.271 41.089,41.321 C41.071,41.919 41.045,42.516 41.023,43.114 C40.615,43.342 40.196,43.551 39.785,43.772 C39.829,43.145 39.865,42.518 39.901,41.891 C40.294,41.653 40.688,41.414 41.079,41.173 Z M34.02,43.64 C34.208,43.721 34.395,43.801 34.584,43.879 C34.448,43.955 34.314,44.03 34.179,44.104 C34.013,44.016 33.846,43.931 33.681,43.844 C33.795,43.776 33.907,43.709 34.02,43.64 Z M32.897,43.165 C32.971,43.197 33.046,43.227 33.12,43.26 C33.037,43.308 32.956,43.359 32.873,43.408 C32.801,43.37 32.729,43.33 32.657,43.292 C32.737,43.25 32.817,43.207 32.897,43.165 Z M23.851,35.097 C23.849,35.169 23.848,35.241 23.846,35.314 C23.838,35.247 23.832,35.181 23.824,35.114 C23.833,35.108 23.842,35.102 23.851,35.097 Z M25.902,33.786 C25.904,33.841 25.906,33.895 25.907,33.95 C25.693,34.128 25.474,34.302 25.261,34.481 C25.255,34.385 25.247,34.289 25.241,34.193 C25.4,34.09 25.56,33.99 25.719,33.888 C25.78,33.854 25.841,33.82 25.902,33.786 Z M33.404,29.066 C34.379,28.462 35.355,27.86 36.335,27.264 C36.421,27.307 36.505,27.354 36.591,27.398 C35.525,27.946 34.465,28.507 33.404,29.066 Z M39.619,27.592 C39.374,27.479 39.124,27.377 38.878,27.266 C39.093,27.147 39.312,27.036 39.528,26.919 C39.558,27.143 39.589,27.368 39.619,27.592 Z M40.831,29.26 C40.89,29.295 40.949,29.331 41.008,29.367 C41.022,29.473 41.039,29.58 41.052,29.688 C40.993,29.655 40.933,29.621 40.873,29.588 C40.859,29.479 40.846,29.369 40.831,29.26 Z M40.143,32.683 C40.142,32.543 40.146,32.404 40.145,32.264 C40.14,31.961 40.124,31.658 40.117,31.355 C40.178,31.825 40.241,32.293 40.299,32.763 C40.247,32.736 40.195,32.71 40.143,32.683 Z M41.654,35.247 C41.617,35.226 41.58,35.203 41.543,35.181 C41.532,35.074 41.519,34.967 41.508,34.86 C41.541,34.826 41.575,34.792 41.609,34.758 C41.624,34.921 41.639,35.084 41.654,35.247 Z M41.673,36.411 C41.704,36.429 41.736,36.448 41.767,36.467 C41.779,36.609 41.795,36.752 41.806,36.894 C41.778,36.913 41.749,36.932 41.72,36.951 C41.703,36.771 41.691,36.59 41.673,36.411 Z M34.928,43.087 C36.393,42.165 37.821,41.186 39.217,40.168 C39.451,40.056 39.688,39.949 39.921,39.834 C39.909,40.126 39.891,40.418 39.878,40.71 C38.451,41.62 37.005,42.503 35.536,43.346 C35.332,43.262 35.131,43.173 34.928,43.087 Z M35.24,41.898 C35.296,41.876 35.352,41.854 35.408,41.832 C35.053,42.063 34.7,42.3 34.341,42.524 C34.241,42.588 34.137,42.645 34.036,42.708 C33.987,42.686 33.936,42.666 33.886,42.644 C34.34,42.4 34.79,42.149 35.24,41.898 Z M25.723,40.021 C25.906,40.12 26.089,40.219 26.272,40.317 C26.325,41.02 26.376,41.723 26.437,42.425 C26.275,42.335 26.115,42.24 25.954,42.149 C25.875,41.44 25.796,40.731 25.723,40.021 Z M25.948,35.021 C25.742,35.18 25.536,35.337 25.331,35.496 C25.325,35.41 25.32,35.323 25.313,35.235 C25.519,35.062 25.73,34.896 25.937,34.724 C25.941,34.823 25.943,34.922 25.948,35.021 Z M26.286,33.639 C26.285,33.617 26.284,33.595 26.283,33.573 C26.37,33.524 26.457,33.476 26.544,33.428 C26.458,33.498 26.372,33.568 26.286,33.639 Z M27.107,33.765 C27.109,33.833 27.108,33.901 27.11,33.969 C27.111,34.025 27.116,34.081 27.118,34.138 C26.856,34.336 26.592,34.531 26.332,34.731 C26.327,34.624 26.323,34.518 26.319,34.411 C26.58,34.195 26.844,33.98 27.107,33.765 Z M39.809,28.996 C39.131,28.628 38.448,28.27 37.762,27.915 C37.843,27.868 37.924,27.821 38.005,27.773 C38.422,27.956 38.842,28.131 39.256,28.32 C39.424,28.415 39.59,28.513 39.757,28.61 C39.775,28.738 39.792,28.867 39.809,28.996 Z M40.025,34.305 C38.157,33.252 36.266,32.243 34.356,31.275 C33.985,31.089 33.611,30.91 33.239,30.726 C33.385,30.628 33.538,30.541 33.686,30.444 C35.833,31.392 37.947,32.414 40.024,33.506 C40.026,33.773 40.025,34.039 40.025,34.305 Z M40.504,34.57 C40.383,34.5 40.26,34.436 40.139,34.368 C40.14,34.101 40.141,33.834 40.141,33.567 C40.229,33.613 40.318,33.657 40.406,33.703 C40.44,33.992 40.471,34.281 40.504,34.57 Z M29.57,43.873 C30.112,43.709 30.651,43.534 31.19,43.358 C30.7,43.631 30.208,43.9 29.715,44.169 C29.669,44.145 29.625,44.121 29.579,44.098 C29.576,44.022 29.573,43.948 29.57,43.873 Z M27.042,40.734 C27.221,40.831 27.402,40.927 27.581,41.023 C27.652,41.743 27.742,42.46 27.826,43.179 C27.514,43.012 27.198,42.85 26.888,42.681 C26.822,41.973 26.768,41.264 26.711,40.556 C26.821,40.615 26.931,40.675 27.042,40.734 Z M26.169,38.991 C25.977,38.891 25.789,38.787 25.599,38.686 C25.529,37.94 25.457,37.193 25.398,36.446 C25.598,36.289 25.793,36.125 25.994,35.969 C26.045,36.976 26.1,37.984 26.169,38.991 Z M27.29,37.604 C27.338,38.285 27.405,38.965 27.464,39.644 C27.177,39.5 26.886,39.362 26.6,39.216 C26.513,38.037 26.44,36.858 26.377,35.679 C26.637,35.477 26.904,35.285 27.165,35.085 C27.201,35.925 27.234,36.766 27.29,37.604 Z M28.91,33.771 C28.927,35.994 28.978,38.215 29.055,40.435 C28.75,40.288 28.448,40.134 28.144,39.982 C28.072,39.176 27.997,38.369 27.941,37.56 C27.876,36.577 27.834,35.592 27.799,34.608 C28.169,34.329 28.537,34.046 28.91,33.771 Z M28.54,32.591 L28.541,32.591 C28.662,32.648 28.785,32.703 28.906,32.761 C28.906,32.77 28.906,32.779 28.906,32.788 C28.521,33.07 28.146,33.364 27.764,33.65 C27.761,33.509 27.762,33.371 27.76,33.23 C28.022,33.02 28.277,32.8 28.54,32.591 Z M39.983,37.67 C39.121,37.191 38.27,36.693 37.4,36.227 C35.107,34.994 32.787,33.812 30.45,32.662 C31.07,32.222 31.694,31.788 32.322,31.361 C32.853,31.623 33.386,31.881 33.915,32.147 C35.978,33.196 38.021,34.286 40.027,35.433 C40.02,36.179 40.001,36.925 39.983,37.67 Z M40.124,36.247 C40.129,35.996 40.132,35.745 40.135,35.494 C40.291,35.583 40.443,35.679 40.598,35.769 C40.438,35.927 40.285,36.091 40.124,36.247 Z M40.335,37.867 C40.25,37.819 40.166,37.772 40.081,37.724 C40.095,37.232 40.115,36.74 40.124,36.247 C40.285,36.091 40.439,35.927 40.6,35.77 C40.615,35.779 40.629,35.787 40.643,35.796 C40.704,36.382 40.753,36.969 40.805,37.556 C40.648,37.658 40.493,37.765 40.335,37.867 Z M29.491,42.047 C29.961,42.3 30.431,42.552 30.901,42.804 C30.449,42.951 29.998,43.101 29.543,43.241 C29.526,42.843 29.506,42.445 29.491,42.047 Z M29.103,41.84 C29.124,42.343 29.15,42.846 29.173,43.348 C28.955,43.414 28.736,43.476 28.517,43.54 C28.43,42.824 28.341,42.109 28.269,41.391 C28.547,41.542 28.826,41.69 29.103,41.84 Z M31.592,42.58 C31.54,42.598 31.488,42.613 31.436,42.631 C30.948,42.366 30.461,42.102 29.973,41.838 C30.51,42.09 31.051,42.337 31.592,42.58 Z M28.905,32.552 C28.905,32.574 28.905,32.596 28.905,32.618 C28.823,32.578 28.74,32.54 28.657,32.501 C28.675,32.487 28.693,32.473 28.711,32.459 C28.775,32.49 28.84,32.52 28.905,32.552 Z M29.915,33.035 C31.448,33.789 32.966,34.575 34.481,35.366 C33.135,34.686 31.792,34 30.436,33.34 C30.246,33.248 30.053,33.162 29.864,33.07 C29.88,33.058 29.898,33.047 29.915,33.035 Z M29.325,33.459 C29.407,33.398 29.488,33.334 29.571,33.273 C29.628,33.232 29.687,33.194 29.744,33.153 C29.956,33.254 30.171,33.349 30.383,33.451 C33.223,34.818 36.035,36.244 38.834,37.695 C39.153,37.87 39.468,38.051 39.785,38.227 C37.943,39.408 36.07,40.54 34.182,41.645 C33.712,41.824 33.239,41.996 32.765,42.165 C31.712,41.698 30.665,41.217 29.626,40.719 C29.566,40.69 29.508,40.659 29.448,40.631 C29.372,38.241 29.33,35.85 29.325,33.459 Z M30.53,31.202 C30.765,31.075 31.006,30.955 31.242,30.828 C31.332,30.872 31.421,30.917 31.51,30.961 C30.881,31.393 30.25,31.826 29.63,32.271 C29.529,32.222 29.426,32.175 29.325,32.125 C29.325,32.077 29.324,32.03 29.325,31.982 C29.488,31.855 29.65,31.728 29.814,31.602 C30.054,31.472 30.289,31.332 30.53,31.202 Z M32.802,30.063 C32.674,30.148 32.55,30.239 32.423,30.325 C32.385,30.306 32.346,30.287 32.308,30.268 C32.454,30.191 32.601,30.116 32.746,30.038 C32.765,30.047 32.784,30.055 32.802,30.063 Z M24.749,36.965 C24.785,37.41 24.831,37.853 24.871,38.298 C24.817,38.269 24.763,38.24 24.709,38.211 C24.707,37.806 24.709,37.401 24.711,36.996 C24.723,36.986 24.736,36.975 24.749,36.965 Z M41,39.838 C41.004,39.887 41.005,39.935 41.009,39.983 C40.664,40.209 40.315,40.43 39.968,40.651 C39.982,40.364 40.001,40.077 40.014,39.79 C40.33,39.633 40.641,39.466 40.954,39.303 C40.968,39.481 40.988,39.659 41,39.838 Z M40.022,32.266 C40.024,32.384 40.021,32.503 40.023,32.621 C38.201,31.676 36.357,30.778 34.483,29.942 C35.298,29.419 36.108,28.889 36.94,28.394 C37.183,28.246 37.431,28.109 37.677,27.965 C38.396,28.341 39.113,28.721 39.825,29.112 C39.867,29.421 39.905,29.731 39.946,30.04 C39.974,30.782 40.009,31.524 40.022,32.266 Z M24.763,41.239 C24.746,40.651 24.723,40.063 24.715,39.475 C24.807,39.525 24.901,39.576 24.993,39.626 C25.062,40.326 25.134,41.026 25.209,41.725 C25.076,41.649 24.942,41.574 24.808,41.498 C24.793,41.411 24.779,41.325 24.763,41.239 Z M39.33,25.463 C39.353,25.632 39.376,25.8 39.399,25.968 C38.857,26.24 38.311,26.505 37.77,26.781 C37.648,26.728 37.527,26.673 37.405,26.62 C38.046,26.233 38.686,25.845 39.33,25.463 Z M43.59,35.714 C43.576,35.723 43.564,35.732 43.55,35.742 C43.511,35.768 43.471,35.793 43.432,35.819 C43.415,35.661 43.397,35.503 43.379,35.345 C43.508,35.419 43.639,35.488 43.767,35.562 C43.708,35.612 43.65,35.663 43.59,35.714 Z M22.077,38.032 C22.095,38.042 22.114,38.052 22.133,38.062 C21.715,38.406 21.307,38.761 20.893,39.108 C20.893,39.108 20.893,39.107 20.892,39.107 C21.186,38.841 21.47,38.563 21.767,38.301 C21.87,38.21 21.975,38.123 22.077,38.032 Z M28.766,45.514 C28.758,45.456 28.749,45.397 28.741,45.34 C28.751,45.335 28.76,45.329 28.77,45.324 C28.864,45.38 28.96,45.433 29.054,45.488 C28.997,45.517 28.94,45.548 28.883,45.576 C28.844,45.556 28.805,45.534 28.766,45.514 Z M44.407,40.867 C44.246,40.997 44.08,41.12 43.918,41.249 C43.902,41.013 43.884,40.777 43.867,40.541 C44.049,40.647 44.226,40.761 44.407,40.867 Z M44.162,36.762 C44.061,36.699 43.964,36.631 43.863,36.569 C43.975,36.493 44.087,36.415 44.2,36.338 C44.214,36.464 44.224,36.589 44.237,36.715 C44.212,36.73 44.187,36.747 44.162,36.762 Z M43.208,28.75 C43.241,28.962 43.267,29.174 43.3,29.386 C43.027,29.246 42.753,29.11 42.479,28.973 C42.295,27.884 42.096,26.798 41.879,25.716 C42.136,25.591 42.391,25.461 42.651,25.341 C42.847,26.475 43.033,27.612 43.208,28.75 Z M9.966,45.515 C10.327,45.141 10.7,44.776 11.072,44.409 C11.96,43.663 12.851,42.921 13.765,42.207 C14.982,41.258 16.22,40.339 17.473,39.438 C17.886,39.724 18.307,40 18.724,40.281 C17.442,41.492 16.167,42.713 14.877,43.917 L12.221,46.431 C11.538,46.364 10.852,46.216 10.324,45.877 C10.202,45.779 10.075,45.684 9.99,45.562 C9.975,45.544 9.974,45.534 9.962,45.519 C9.964,45.517 9.965,45.516 9.966,45.515 Z M43.612,50.171 C43.399,50.111 43.189,50.044 42.976,49.983 C42.985,49.67 42.987,49.355 42.993,49.042 C43.201,49.143 43.411,49.24 43.62,49.341 C43.619,49.617 43.615,49.894 43.612,50.171 Z M43.623,48.959 C43.416,48.857 43.207,48.761 43,48.658 C43.009,48.123 43.025,47.588 43.028,47.053 C43.219,47.117 43.411,47.175 43.603,47.238 C43.614,47.811 43.622,48.385 43.623,48.959 Z M59.067,22.898 C59.241,22.573 59.432,22.258 59.589,21.924 C59.84,21.391 60.061,20.843 60.262,20.288 C60.464,20.028 60.653,19.752 60.836,19.47 C61.087,19.446 61.338,19.42 61.582,19.418 C61.885,19.436 61.954,19.449 62.052,19.572 C61.109,20.721 60.104,21.824 59.067,22.898 Z M30.528,16.15 C31.075,13.801 31.673,11.463 32.381,9.163 C32.738,8.015 33.12,6.875 33.57,5.769 C33.588,5.727 33.607,5.685 33.624,5.643 C34.211,6.338 34.685,7.172 35.094,8.028 C35.597,9.095 36.009,10.216 36.377,11.352 C37.395,14.605 38.102,17.961 38.679,21.343 C36.762,22.348 34.859,23.38 32.973,24.443 C31.844,23.919 30.704,23.419 29.556,22.938 C29.607,21.889 29.663,20.839 29.732,19.79 C29.986,18.574 30.252,17.36 30.528,16.15 Z M44.969,49.607 C44.708,49.481 44.446,49.355 44.184,49.228 C44.185,48.626 44.183,48.024 44.174,47.421 C44.433,47.505 44.693,47.59 44.953,47.672 C44.966,48.317 44.971,48.962 44.969,49.607 Z M57.944,49.561 C57.177,48.836 56.385,48.14 55.563,47.48 C54.57,46.685 53.544,45.935 52.499,45.215 C53.475,45.782 54.457,46.339 55.427,46.917 C54.394,46.295 53.349,45.696 52.31,45.086 C51.455,44.501 50.591,43.931 49.717,43.378 C48.337,42.516 46.936,41.69 45.539,40.859 C45.984,40.493 46.414,40.109 46.853,39.736 C50.492,42.255 53.936,45.063 56.956,48.286 C57.351,48.698 57.737,49.125 58.115,49.556 C58.06,49.56 58.001,49.559 57.944,49.561 Z M58.742,50.29 C58.867,50.437 58.995,50.585 59.118,50.731 C58.981,50.588 58.842,50.446 58.701,50.305 C58.715,50.302 58.728,50.294 58.742,50.29 Z M29.696,5.183 C29.911,4.992 30.139,4.823 30.385,4.689 C30.844,4.482 31.379,4.341 31.854,4.439 C32.015,4.471 32.172,4.529 32.326,4.597 C32.159,4.714 32.024,4.861 31.905,4.996 C31.707,5.264 31.554,5.546 31.422,5.831 C30.92,6.981 30.653,8.176 30.411,9.369 C29.948,11.76 29.683,14.173 29.476,16.587 C29.431,17.159 29.399,17.731 29.359,18.304 C29.058,19.702 28.77,21.104 28.503,22.51 C27.753,22.205 27.002,21.903 26.245,21.615 C26.361,18.973 26.571,16.337 26.953,13.722 C27.128,12.53 27.34,11.341 27.63,10.173 C27.88,8.993 28.276,7.862 28.797,6.78 C29.067,6.234 29.363,5.695 29.696,5.183 Z M37.863,65.87 C37.813,65.99 37.776,66.116 37.723,66.235 C37.229,67.289 36.576,68.439 35.469,68.806 C34.915,68.969 34.326,68.838 33.926,68.42 C33.511,68.019 33.219,67.489 32.959,66.957 C31.98,64.771 31.519,62.373 31.095,60.006 C30.946,59.105 30.822,58.2 30.699,57.296 C30.893,57.873 31.099,58.446 31.319,59.016 C31.765,60.154 32.287,61.268 32.936,62.319 C33.588,63.36 34.365,64.377 35.429,65.089 C35.701,65.255 35.949,65.451 36.26,65.564 C36.41,65.628 36.556,65.699 36.709,65.755 L37.2,65.862 C37.417,65.897 37.64,65.892 37.863,65.87 Z M37.291,65.262 L36.896,65.176 C36.767,65.128 36.64,65.063 36.512,65.01 C36.249,64.918 36.018,64.733 35.774,64.585 C34.817,63.947 34.082,62.995 33.46,61.996 C32.839,60.987 32.331,59.902 31.897,58.788 C31.225,57.046 30.688,55.255 30.24,53.436 C30.159,52.642 30.09,51.848 30.024,51.052 C31.398,50.376 32.749,49.654 34.074,48.889 C34.646,49.151 35.214,49.422 35.79,49.675 C36.879,50.152 37.976,50.612 39.08,51.054 C38.718,54.431 38.273,57.801 37.758,61.156 C38.286,57.806 38.745,54.443 39.121,51.07 C39.586,51.256 40.056,51.425 40.524,51.604 C40.51,51.765 40.501,51.926 40.487,52.087 C40.27,54.493 39.998,56.896 39.594,59.276 C39.242,61.289 38.818,63.307 38.112,65.218 C37.847,65.287 37.571,65.304 37.291,65.262 Z M59.344,54.684 C59.26,54.716 59.167,54.736 59.075,54.757 C56.898,54.372 54.768,53.743 52.693,52.973 C52.387,52.857 52.088,52.725 51.784,52.605 C53.785,52.988 55.794,53.344 57.84,53.489 C58.635,53.539 59.433,53.583 60.242,53.53 C60.229,53.601 60.22,53.674 60.198,53.745 C60.064,54.207 59.781,54.532 59.344,54.684 Z M18.249,25.036 C19.184,25.409 20.118,25.786 21.046,26.176 C21.454,26.348 21.859,26.529 22.265,26.704 C22.286,27.434 22.306,28.164 22.347,28.893 C18.77,27.31 15.162,25.799 11.506,24.411 C10.396,23.991 9.285,23.573 8.167,23.175 C7.952,23.097 7.733,23.022 7.517,22.944 C9.82,23.111 12.11,23.598 14.39,24.095 C15.683,24.381 16.968,24.699 18.249,25.036 Z M6.524,48.097 C6.674,47.954 6.823,47.811 6.977,47.672 C6.963,47.691 6.948,47.71 6.933,47.729 C6.911,47.751 6.887,47.77 6.866,47.791 C6.734,47.918 6.608,48.05 6.478,48.178 C6.492,48.149 6.51,48.124 6.524,48.097 Z M5.884,49.147 C5.883,49.188 5.89,49.231 5.893,49.273 C5.874,49.311 5.852,49.345 5.833,49.384 C5.745,49.575 5.647,49.763 5.622,50.101 C5.624,50.28 5.678,50.432 5.749,50.563 C5.58,50.534 5.41,50.511 5.242,50.475 C5.069,50.441 4.906,50.381 4.737,50.334 C5.115,49.933 5.495,49.537 5.884,49.147 Z M28.867,56.984 C28.559,55.324 28.289,53.657 28.035,51.987 C28.408,51.819 28.779,51.648 29.148,51.473 C29.434,52.834 29.759,54.187 30.147,55.524 C30.332,57.039 30.539,58.552 30.796,60.057 C31.233,62.436 31.7,64.838 32.712,67.075 C32.983,67.622 33.284,68.172 33.743,68.613 C33.975,68.824 34.247,69.029 34.581,69.09 C34.904,69.162 35.227,69.131 35.541,69.055 C36.165,68.863 36.648,68.412 37.025,67.928 C37.41,67.44 37.685,66.888 37.944,66.336 C38.016,66.171 38.068,65.999 38.135,65.832 C38.496,65.757 38.844,65.613 39.139,65.396 C39.453,65.14 39.708,64.845 39.939,64.536 C39.682,65.864 39.38,67.179 38.976,68.456 C38.677,69.389 38.321,70.308 37.862,71.139 C37.297,71.344 36.701,71.426 36.107,71.314 C35.026,71.138 34.038,70.466 33.199,69.677 C32.847,69.34 32.527,68.971 32.213,68.596 C31.992,68.096 31.783,67.589 31.588,67.076 C31.093,65.645 30.62,64.205 30.157,62.76 C29.666,60.85 29.232,58.925 28.867,56.984 Z M35.785,72.958 C35.751,72.944 35.716,72.934 35.681,72.919 C35.427,72.783 35.162,72.671 34.916,72.516 L34.367,72.135 C34.028,71.788 33.718,71.383 33.44,70.946 C34.175,71.503 35.011,71.957 35.972,72.118 C36.378,72.187 36.796,72.188 37.207,72.138 C36.792,72.63 36.296,72.966 35.785,72.958 Z M61.232,52.878 C61.204,52.563 61.137,52.254 61.029,51.968 C60.792,51.338 60.425,50.8 60.046,50.317 C59.898,50.14 59.75,49.97 59.602,49.795 C59.755,49.629 59.879,49.435 59.949,49.224 C60.327,47.694 59.389,46.553 58.698,45.628 C57.177,43.707 55.24,42.232 53.322,40.839 C52.025,39.898 50.7,38.995 49.364,38.111 C49.99,37.694 50.609,37.269 51.228,36.842 C53.798,39.128 56.183,41.619 58.313,44.331 C59.724,46.208 61.248,48.083 62,50.267 C62.326,51.291 62.582,52.743 61.333,52.862 C61.3,52.869 61.265,52.871 61.232,52.878 Z M59.594,15.498 C59.61,15.492 59.627,15.486 59.643,15.48 C59.689,15.532 59.743,15.574 59.782,15.632 C59.827,15.695 59.857,15.769 59.894,15.838 C59.697,15.875 59.5,15.912 59.302,15.951 C59.11,15.936 58.919,15.932 58.728,15.93 C58.63,15.932 58.534,15.947 58.436,15.952 C58.823,15.805 59.203,15.64 59.594,15.498 Z M53.87,15.596 C54.578,15.408 55.291,15.237 56.01,15.094 C56.169,15.062 56.327,15.031 56.486,15 C56.513,15.161 56.507,15.337 56.479,15.495 C56.426,15.753 56.338,16 56.254,16.248 C55.58,16.394 54.916,16.574 54.26,16.774 C51.432,17.755 48.675,18.817 45.952,20.014 C44.856,20.486 43.774,20.989 42.694,21.496 C42.666,21.354 42.634,21.212 42.606,21.07 C44.492,19.863 46.388,18.67 48.298,17.5 C50.12,16.759 51.974,16.101 53.87,15.596 Z M34.788,4.389 C35.197,5.23 35.541,6.108 35.862,6.997 C35.656,6.653 35.436,6.316 35.184,5.997 C35.169,5.973 35.157,5.949 35.141,5.925 C34.827,5.467 34.49,5.002 34.105,4.575 C34.227,4.318 34.36,4.072 34.499,3.831 C34.597,4.016 34.696,4.201 34.788,4.389 Z M1.607,22.883 C1.662,22.963 1.713,23.048 1.771,23.126 C1.723,23.177 1.665,23.218 1.624,23.275 C1.596,23.142 1.592,23.012 1.607,22.883 Z M29.732,64.55 C29.792,64.731 29.854,64.913 29.914,65.095 C29.886,65.042 29.861,64.989 29.834,64.936 C29.798,64.808 29.768,64.678 29.732,64.55 Z M41.521,67.363 C41.073,68.181 40.558,68.947 39.951,69.617 C40.61,68.114 41.032,66.528 41.402,64.957 C41.928,62.573 42.267,60.161 42.507,57.744 C42.677,55.992 42.788,54.238 42.873,52.482 C43.099,52.563 43.328,52.638 43.555,52.717 C43.383,57.259 42.874,61.776 41.856,66.204 C41.756,66.595 41.637,66.978 41.521,67.363 Z M52.626,35.801 C52.302,36.03 51.975,36.252 51.649,36.478 C51.46,36.308 51.27,36.14 51.078,35.973 C51.328,35.74 51.585,35.514 51.833,35.278 C52.098,35.451 52.362,35.627 52.626,35.801 Z M66.209,50.416 C65.605,48.058 64.476,45.87 63.049,43.93 C60.439,40.396 56.941,37.731 53.36,35.34 C57.82,32.137 62.104,28.686 66.205,25.045 C62.086,28.677 57.785,32.116 53.31,35.307 C53.013,35.109 52.717,34.911 52.42,34.717 C53.366,33.81 54.305,32.896 55.229,31.967 C57.317,29.865 59.368,27.691 61.1,25.249 C61.531,24.638 61.941,24.012 62.328,23.37 C62.698,22.729 63.115,22.076 63.311,21.278 C63.353,21.1 63.381,20.913 63.39,20.722 C63.678,20.297 63.971,19.877 64.233,19.428 C64.415,19.086 64.602,18.749 64.751,18.372 C64.903,18.007 65.036,17.582 65.026,17.071 C65.009,16.838 64.948,16.572 64.83,16.32 C64.948,15.987 65.091,15.596 64.862,15.147 C64.66,14.774 64.293,14.479 63.899,14.342 C63.098,14.063 62.304,14.2 61.568,14.354 C61.016,14.48 60.486,14.66 59.964,14.848 C59.462,14.399 58.781,14.165 58.154,14.155 C57.411,14.126 56.722,14.268 56.05,14.401 C55.749,14.312 55.431,14.331 55.133,14.373 C54.391,14.475 53.685,14.72 52.992,14.982 C52.605,15.134 52.231,15.316 51.852,15.486 C49.62,16.19 47.446,17.063 45.325,18.032 C44.302,18.509 43.291,19.009 42.281,19.508 C41.922,17.791 41.546,16.078 41.131,14.374 C40.869,13.315 40.592,12.259 40.302,11.206 C40.199,10.348 40.078,9.492 39.903,8.644 C40.07,9.468 40.184,10.299 40.282,11.133 C39.934,9.87 39.564,8.613 39.153,7.366 C38.754,6.215 38.361,5.062 37.828,3.945 C37.564,3.386 37.27,2.834 36.853,2.306 C36.719,2.179 36.578,2.053 36.437,1.933 C36.259,1.833 36.045,1.749 35.819,1.76 C35.361,1.771 35.031,2.02 34.788,2.249 C34.738,2.301 34.703,2.359 34.656,2.411 C34.305,1.877 33.899,1.368 33.397,0.917 C32.899,0.489 32.254,0.123 31.521,0.084 C30.792,0.038 30.089,0.322 29.567,0.713 C28.48,1.483 27.75,2.533 27.107,3.573 C25.786,5.653 24.804,7.929 24.084,10.268 C23.096,13.509 22.577,16.854 22.353,20.214 C18.252,18.813 14.081,17.613 9.879,16.568 C8.716,16.301 7.538,16.078 6.344,15.944 C5.747,15.876 5.146,15.835 4.543,15.822 C3.934,15.802 3.301,15.844 2.686,16.025 C2.084,16.2 1.427,16.557 1.103,17.216 C0.774,17.874 0.905,18.613 1.101,19.187 C1.154,19.334 1.223,19.469 1.279,19.612 C1.197,19.661 1.115,19.71 1.034,19.795 C0.813,20.067 0.809,20.258 0.767,20.451 C0.685,21.2 0.958,21.787 1.242,22.314 C1.223,22.345 1.208,22.377 1.193,22.41 C0.973,22.45 0.753,22.505 0.538,22.6 C0.251,22.718 -0.044,23.046 0.006,23.412 C0.043,23.76 0.198,24.024 0.342,24.291 C0.646,24.816 1.004,25.296 1.376,25.761 C2.884,27.604 4.558,29.314 6.401,30.816 C7.358,31.632 8.334,32.426 9.322,33.204 C10.023,33.794 10.724,34.383 11.439,34.955 C12.172,35.54 12.918,36.109 13.665,36.675 C11.578,38.153 9.501,39.649 7.523,41.295 C6.377,42.247 5.272,43.255 4.235,44.334 C3.714,44.871 3.221,45.434 2.738,46.01 C2.271,46.592 1.748,47.275 1.689,48.184 C1.626,49.098 2.226,49.929 2.9,50.352 C3.134,50.511 3.381,50.638 3.633,50.751 C3.63,50.87 3.61,50.958 3.639,51.131 C3.192,51.637 2.7,52.096 2.341,52.712 C2.157,53.044 2.039,53.49 2.215,53.883 C2.375,54.282 2.776,54.511 3.145,54.602 C3.911,54.796 4.66,54.655 5.394,54.623 C5.613,54.606 5.832,54.582 6.051,54.564 C6.012,54.716 5.982,54.877 5.98,55.066 C5.973,55.342 6.119,55.603 6.279,55.796 C6.45,55.976 6.642,56.112 6.835,56.204 C7.61,56.573 8.382,56.641 9.145,56.69 C9.904,56.732 10.683,56.682 11.415,56.593 C12.158,56.523 12.896,56.422 13.634,56.314 C15.107,56.088 16.573,55.812 18.019,55.453 C20.427,54.88 22.781,54.109 25.086,53.218 C25.788,56.982 26.859,60.691 28.511,64.171 C28.757,64.678 29.015,65.181 29.284,65.68 C29.613,66.797 29.986,67.905 30.431,68.992 C30.901,70.123 31.431,71.246 32.197,72.259 C32.563,72.772 33.046,73.225 33.605,73.597 C34.196,73.947 34.942,74.056 35.592,73.974 C35.666,73.963 35.738,73.942 35.811,73.927 C35.832,73.927 35.852,73.933 35.873,73.934 C36.186,73.923 36.486,73.834 36.759,73.708 C37.621,73.748 38.51,73.48 39.141,72.897 C40.115,72.052 40.725,70.934 41.219,69.816 C41.365,69.48 41.48,69.136 41.605,68.794 C42.434,67.535 43.039,66.145 43.587,64.779 C44.477,62.484 44.981,60.062 45.286,57.647 C45.462,56.246 45.576,54.842 45.649,53.437 C46.824,53.821 48.006,54.187 49.194,54.53 C51.483,55.164 53.761,55.862 56.158,56.166 C56.756,56.241 57.358,56.29 57.963,56.303 C58.503,56.303 59.069,56.32 59.655,56.15 C59.72,56.163 59.785,56.179 59.851,56.191 C61.01,56.412 62.251,56.621 63.504,56.439 C64.128,56.354 64.767,56.151 65.321,55.761 C65.867,55.365 66.281,54.766 66.452,54.12 C66.784,52.807 66.466,51.587 66.209,50.416 L66.209,50.416 Z" id="Fill-3" fill="#52B269"></path>
            </g>
            <path d="M230.82,42.029 C231.36,41.25 231.629,40.031 231.629,38.376 C231.629,36.72 231.36,35.502 230.82,34.722 C230.28,33.943 229.373,33.552 228.102,33.552 C226.805,33.552 225.893,33.943 225.366,34.722 C224.838,35.502 224.574,36.72 224.574,38.376 C224.574,39.527 224.688,40.452 224.916,41.147 C225.143,41.844 225.516,42.359 226.032,42.695 C226.547,43.032 227.238,43.199 228.102,43.199 C229.373,43.199 230.28,42.809 230.82,42.029 Z M233.916,29.484 C235.415,30.18 236.52,31.254 237.228,32.706 C237.936,34.159 238.289,36.036 238.289,38.34 C238.289,40.668 237.936,42.557 237.228,44.01 C236.52,45.462 235.415,46.542 233.916,47.25 C232.415,47.957 230.478,48.311 228.102,48.311 C225.726,48.311 223.787,47.957 222.287,47.25 C220.787,46.542 219.684,45.462 218.976,44.01 C218.268,42.557 217.914,40.668 217.914,38.34 C217.914,36.036 218.268,34.159 218.976,32.706 C219.684,31.254 220.787,30.18 222.287,29.484 C223.787,28.788 225.726,28.44 228.102,28.44 C230.478,28.44 232.415,28.788 233.916,29.484 L233.916,29.484 Z" id="Fill-5" fill="#52B269"></path>
            <path d="M240.701,28.962 C240.774,28.903 240.858,28.872 240.953,28.872 L246.678,28.872 C246.797,28.872 246.887,28.903 246.948,28.962 C247.007,29.022 247.037,29.113 247.037,29.232 L247.037,30.816 C247.037,30.936 247.067,30.996 247.127,30.996 C247.188,30.996 247.266,30.949 247.362,30.852 C248.585,29.244 250.434,28.44 252.906,28.44 C254.753,28.44 256.157,28.716 257.117,29.268 C258.076,29.821 258.731,30.618 259.079,31.662 C259.427,32.706 259.602,34.092 259.602,35.82 L259.602,47.519 C259.602,47.616 259.571,47.699 259.512,47.771 C259.451,47.844 259.362,47.88 259.242,47.88 L253.518,47.88 C253.421,47.88 253.337,47.844 253.266,47.771 C253.194,47.699 253.158,47.616 253.158,47.519 L253.158,37.152 C253.158,36.264 253.091,35.568 252.959,35.064 C252.827,34.56 252.569,34.182 252.186,33.93 C251.801,33.678 251.237,33.552 250.493,33.552 C249.677,33.552 248.993,33.744 248.442,34.128 C247.889,34.512 247.506,35.113 247.289,35.928 C247.121,36.576 247.037,37.428 247.037,38.483 L247.037,47.519 C247.037,47.616 247.007,47.699 246.948,47.771 C246.887,47.844 246.797,47.88 246.678,47.88 L240.953,47.88 C240.858,47.88 240.774,47.844 240.701,47.771 C240.629,47.699 240.594,47.616 240.594,47.519 L240.594,29.232 C240.594,29.113 240.629,29.022 240.701,28.962" id="Fill-6" fill="#52B269"></path>
            <path d="M264.641,47.88 C264.545,47.88 264.461,47.844 264.389,47.771 C264.317,47.699 264.282,47.616 264.282,47.519 L264.282,34.38 C264.282,34.236 264.209,34.164 264.065,34.164 L261.69,34.164 C261.593,34.164 261.509,34.128 261.438,34.056 C261.366,33.984 261.328,33.9 261.328,33.804 L261.328,29.232 C261.328,29.113 261.366,29.022 261.438,28.962 C261.509,28.903 261.593,28.872 261.69,28.872 L264.065,28.872 C264.209,28.872 264.282,28.8 264.282,28.656 L264.282,27.468 C264.282,25.188 264.948,23.496 266.28,22.392 C267.612,21.288 269.61,20.736 272.274,20.736 C272.752,20.736 273.269,20.76 273.821,20.808 C274.373,20.857 274.805,20.916 275.117,20.988 C275.213,21.012 275.28,21.06 275.315,21.132 C275.351,21.204 275.369,21.3 275.369,21.42 L275.369,25.668 C275.369,25.764 275.338,25.842 275.28,25.902 C275.219,25.962 275.141,25.992 275.045,25.992 L273.461,25.992 C272.453,25.992 271.744,26.166 271.337,26.514 C270.928,26.863 270.725,27.409 270.725,28.152 L270.725,28.656 C270.725,28.8 270.797,28.872 270.942,28.872 L273.858,28.872 C273.977,28.872 274.067,28.903 274.127,28.962 C274.187,29.022 274.217,29.113 274.217,29.232 L274.217,33.804 C274.217,33.9 274.187,33.984 274.127,34.056 C274.067,34.128 273.977,34.164 273.858,34.164 L270.942,34.164 C270.797,34.164 270.725,34.236 270.725,34.38 L270.725,47.519 C270.725,47.616 270.695,47.699 270.635,47.771 C270.575,47.844 270.485,47.88 270.366,47.88 L264.641,47.88" id="Fill-7" fill="#52B269"></path>
            <path d="M216.33,41.975 L216.258,41.975 C215.826,42.096 215.262,42.198 214.566,42.281 C213.869,42.366 213.221,42.407 212.621,42.407 C211.037,42.407 209.789,42.191 208.877,41.76 C207.965,41.328 207.305,40.632 206.898,39.672 C206.49,38.712 206.285,37.428 206.285,35.82 C206.285,34.188 206.484,32.868 206.879,31.86 C207.276,30.852 207.936,30.109 208.86,29.628 C209.783,29.148 211.049,28.908 212.658,28.908 C213.234,28.908 213.852,28.939 214.512,28.998 C215.172,29.058 215.705,29.136 216.114,29.232 C216.33,29.281 216.45,29.208 216.474,29.016 L217.301,23.904 C217.325,23.712 217.23,23.592 217.014,23.544 C216.389,23.352 215.633,23.208 214.746,23.112 C213.858,23.016 212.969,22.968 212.082,22.968 C207.988,22.968 204.919,23.931 202.855,25.837 L202.794,45.511 C203.436,46.098 204.158,46.604 204.99,46.998 C206.838,47.874 209.178,48.311 212.01,48.311 C212.946,48.311 213.869,48.264 214.782,48.168 C215.694,48.071 216.438,47.939 217.014,47.771 C217.205,47.676 217.301,47.544 217.301,47.376 L217.301,47.304 L216.654,42.264 C216.629,42.072 216.522,41.975 216.33,41.975" id="Fill-8" fill="#52B269"></path>
            <path d="M79.388,36.109 C80.804,36.109 81.932,35.918 82.772,35.534 C83.612,35.15 84.224,34.544 84.608,33.716 C84.992,32.888 85.184,31.802 85.184,30.458 C85.184,29.162 84.974,28.13 84.554,27.362 C84.135,26.594 83.486,26.036 82.61,25.687 C81.734,25.34 80.577,25.166 79.136,25.166 L75.177,25.166 C75.032,25.166 74.961,25.238 74.961,25.382 L74.961,35.893 C74.961,36.038 75.032,36.109 75.177,36.109 L79.388,36.109 Z M73.125,47.846 C73.052,47.773 73.016,47.69 73.016,47.594 L73.016,23.834 C73.016,23.714 73.052,23.624 73.125,23.563 C73.196,23.504 73.28,23.473 73.377,23.473 L79.388,23.473 C81.885,23.473 83.804,24.008 85.148,25.076 C86.492,26.144 87.165,27.89 87.165,30.313 C87.165,32.258 86.841,33.765 86.192,34.832 C85.545,35.9 84.537,36.685 83.169,37.189 C83.072,37.214 83.018,37.25 83.007,37.298 C82.994,37.347 83.012,37.394 83.06,37.441 C83.9,38.738 84.902,40.316 86.066,42.176 C87.23,44.036 88.352,45.854 89.432,47.63 C89.48,47.725 89.486,47.805 89.451,47.864 C89.415,47.924 89.348,47.954 89.253,47.954 L87.705,47.954 C87.608,47.954 87.524,47.935 87.453,47.899 C87.381,47.864 87.308,47.798 87.236,47.702 C86.228,45.998 85.07,44.101 83.762,42.014 C82.454,39.926 81.585,38.582 81.152,37.981 C81.104,37.887 81.045,37.826 80.972,37.802 C80.9,37.778 80.829,37.765 80.757,37.765 L75.177,37.765 C75.032,37.765 74.961,37.838 74.961,37.981 L74.961,47.594 C74.961,47.69 74.93,47.773 74.871,47.846 C74.81,47.918 74.72,47.954 74.6,47.954 L73.377,47.954 C73.28,47.954 73.196,47.918 73.125,47.846 L73.125,47.846 Z" id="Fill-9" fill="#1A2946"></path>
            <path d="M93.32,37.225 L105.272,37.225 C105.368,37.225 105.429,37.208 105.453,37.172 C105.476,37.136 105.489,37.082 105.489,37.01 C105.489,35.498 105.303,34.244 104.93,33.248 C104.558,32.252 103.934,31.49 103.058,30.962 C102.182,30.434 101.001,30.17 99.512,30.17 C97.281,30.17 95.684,30.824 94.724,32.132 C93.764,33.44 93.224,35.065 93.104,37.01 C93.104,37.154 93.177,37.225 93.32,37.225 Z M103.509,48.116 C102.573,48.296 101.505,48.386 100.304,48.386 C97.16,48.386 94.85,47.582 93.375,45.973 C91.898,44.366 91.161,41.847 91.161,38.414 C91.161,35.317 91.862,32.894 93.266,31.141 C94.671,29.39 96.789,28.514 99.621,28.514 C102.476,28.514 104.474,29.294 105.615,30.853 C106.755,32.414 107.325,34.525 107.325,37.189 C107.325,37.814 107.301,38.269 107.253,38.557 C107.228,38.75 107.12,38.846 106.929,38.846 L93.285,38.846 C93.14,38.846 93.068,38.931 93.068,39.098 C93.093,41.689 93.699,43.604 94.886,44.84 C96.075,46.076 97.928,46.694 100.449,46.694 C101.312,46.694 102.194,46.616 103.095,46.46 C103.995,46.304 104.744,46.082 105.345,45.794 C105.392,45.77 105.465,45.758 105.56,45.758 C105.608,45.758 105.656,45.775 105.705,45.811 C105.753,45.848 105.789,45.89 105.812,45.937 L106.064,46.981 C106.089,47.006 106.1,47.054 106.1,47.126 C106.1,47.174 106.083,47.228 106.047,47.288 C106.011,47.348 105.957,47.39 105.885,47.414 C105.236,47.702 104.444,47.935 103.509,48.116 L103.509,48.116 Z" id="Fill-10" fill="#1A2946"></path>
            <path d="M121.526,45.559 C122.427,44.804 122.877,43.598 122.877,41.941 C122.877,40.982 122.726,40.267 122.427,39.8 C122.126,39.332 121.604,39.008 120.86,38.828 C120.116,38.647 119.012,38.557 117.549,38.557 C116.204,38.557 115.137,38.672 114.345,38.899 C113.553,39.128 112.964,39.542 112.581,40.141 C112.196,40.742 112.005,41.606 112.005,42.733 C112.005,43.765 112.196,44.57 112.581,45.145 C112.964,45.722 113.547,46.124 114.326,46.351 C115.106,46.58 116.132,46.694 117.404,46.694 C119.253,46.694 120.627,46.315 121.526,45.559 Z M124.766,45.884 C124.826,46.136 124.958,46.322 125.163,46.441 C125.366,46.562 125.66,46.622 126.045,46.622 L127.268,46.622 C127.508,46.622 127.629,46.706 127.629,46.874 L127.629,47.557 C127.629,47.773 127.52,47.906 127.304,47.954 C126.824,48.073 126.248,48.134 125.576,48.134 C124.761,48.134 124.154,47.966 123.759,47.63 C123.362,47.294 123.152,46.742 123.129,45.973 C123.129,45.926 123.104,45.89 123.056,45.866 C123.008,45.842 122.972,45.866 122.948,45.937 C121.916,47.57 120.045,48.386 117.333,48.386 C115.772,48.386 114.465,48.223 113.408,47.899 C112.352,47.576 111.537,47 110.961,46.172 C110.385,45.344 110.096,44.198 110.096,42.733 C110.096,41.222 110.39,40.046 110.978,39.206 C111.566,38.366 112.383,37.784 113.427,37.46 C114.471,37.136 115.772,36.973 117.333,36.973 C118.58,36.973 119.606,37.04 120.41,37.172 C121.215,37.304 121.929,37.55 122.553,37.91 C122.6,37.933 122.648,37.933 122.696,37.91 C122.744,37.887 122.768,37.838 122.768,37.765 L122.768,35.317 C122.768,33.998 122.606,32.973 122.282,32.24 C121.959,31.508 121.394,30.986 120.591,30.674 C119.786,30.362 118.629,30.206 117.116,30.206 C116.564,30.206 115.988,30.23 115.388,30.278 C114.788,30.326 114.213,30.374 113.66,30.422 L113.589,30.422 C113.516,30.422 113.444,30.398 113.373,30.349 C113.301,30.302 113.264,30.23 113.264,30.134 L113.264,29.162 C113.264,28.97 113.373,28.85 113.589,28.802 C114.932,28.61 116.108,28.514 117.116,28.514 C118.965,28.514 120.434,28.712 121.526,29.107 C122.618,29.504 123.417,30.152 123.921,31.052 C124.425,31.952 124.677,33.181 124.677,34.742 L124.677,44.822 C124.677,45.278 124.706,45.632 124.766,45.884 L124.766,45.884 Z" id="Fill-11" fill="#1A2946"></path>
            <path d="M138.752,48.386 C135.656,48.386 133.34,47.606 131.804,46.046 C130.268,44.486 129.5,41.966 129.5,38.486 C129.5,35.101 130.274,32.594 131.822,30.962 C133.37,29.33 135.679,28.514 138.752,28.514 C139.376,28.514 140,28.556 140.624,28.64 C141.248,28.724 141.764,28.838 142.172,28.981 C142.365,29.054 142.449,29.174 142.424,29.342 L142.208,30.422 C142.184,30.494 142.142,30.548 142.082,30.584 C142.023,30.62 141.945,30.626 141.849,30.601 C140.985,30.338 139.964,30.206 138.788,30.206 C136.22,30.206 134.354,30.884 133.19,32.24 C132.026,33.596 131.444,35.678 131.444,38.486 C131.444,40.357 131.69,41.9 132.182,43.112 C132.674,44.324 133.466,45.223 134.558,45.811 C135.65,46.4 137.084,46.694 138.86,46.694 C139.941,46.694 140.996,46.55 142.029,46.262 L142.137,46.262 C142.281,46.262 142.365,46.322 142.389,46.441 L142.605,47.486 L142.605,47.594 C142.605,47.666 142.586,47.725 142.55,47.773 C142.515,47.822 142.46,47.858 142.389,47.882 C141.405,48.218 140.193,48.386 138.752,48.386" id="Fill-12" fill="#1A2946"></path>
            <path d="M149.21,45.271 C149.342,45.716 149.575,46.034 149.912,46.225 C150.248,46.418 150.728,46.514 151.352,46.514 L153.188,46.514 C153.404,46.514 153.512,46.61 153.512,46.802 L153.512,47.63 C153.512,47.702 153.482,47.768 153.422,47.828 C153.362,47.888 153.296,47.931 153.224,47.954 C152.888,48.002 152.522,48.044 152.126,48.08 C151.73,48.116 151.352,48.134 150.992,48.134 C150.008,48.134 149.234,47.99 148.67,47.702 C148.106,47.414 147.703,46.946 147.464,46.298 C147.224,45.649 147.104,44.75 147.104,43.598 L147.104,30.817 C147.104,30.77 147.086,30.723 147.05,30.674 C147.014,30.626 146.96,30.601 146.888,30.601 L143.972,30.601 C143.876,30.601 143.792,30.565 143.72,30.494 C143.648,30.422 143.612,30.338 143.612,30.242 L143.612,29.306 C143.612,29.186 143.648,29.096 143.72,29.036 C143.792,28.976 143.876,28.946 143.972,28.946 L146.888,28.946 C147.033,28.946 147.104,28.874 147.104,28.729 L147.104,24.374 C147.104,24.254 147.14,24.164 147.212,24.103 C147.284,24.044 147.367,24.014 147.464,24.014 L148.652,24.014 C148.772,24.014 148.862,24.044 148.922,24.103 C148.982,24.164 149.012,24.254 149.012,24.374 L149.012,28.729 C149.012,28.874 149.084,28.946 149.228,28.946 L153.224,28.946 C153.344,28.946 153.434,28.976 153.494,29.036 C153.554,29.096 153.584,29.186 153.584,29.306 L153.584,30.242 C153.584,30.338 153.554,30.422 153.494,30.494 C153.434,30.565 153.344,30.601 153.224,30.601 L149.228,30.601 C149.157,30.601 149.102,30.626 149.066,30.674 C149.031,30.723 149.012,30.77 149.012,30.817 L149.012,43.382 C149.012,44.198 149.077,44.828 149.21,45.271" id="Fill-13" fill="#1A2946"></path>
            <path d="M159.902,21.404 C160.226,21.727 160.388,22.141 160.388,22.645 C160.388,23.149 160.226,23.563 159.902,23.888 C159.577,24.212 159.163,24.374 158.659,24.374 C158.179,24.374 157.772,24.212 157.436,23.888 C157.1,23.563 156.932,23.149 156.932,22.645 C156.932,22.141 157.1,21.727 157.436,21.404 C157.772,21.08 158.179,20.918 158.659,20.918 C159.163,20.918 159.577,21.08 159.902,21.404 Z M159.577,29.036 C159.637,29.096 159.668,29.186 159.668,29.306 L159.668,47.594 C159.668,47.69 159.637,47.773 159.577,47.846 C159.518,47.918 159.428,47.954 159.308,47.954 L158.119,47.954 C158.024,47.954 157.94,47.918 157.867,47.846 C157.796,47.773 157.76,47.69 157.76,47.594 L157.76,30.817 C157.76,30.77 157.742,30.723 157.705,30.674 C157.67,30.626 157.616,30.601 157.544,30.601 L155.276,30.601 C155.18,30.601 155.096,30.565 155.024,30.494 C154.951,30.422 154.916,30.338 154.916,30.242 L154.916,29.306 C154.916,29.186 154.951,29.096 155.024,29.036 C155.096,28.976 155.18,28.946 155.276,28.946 L159.308,28.946 C159.428,28.946 159.518,28.976 159.577,29.036 L159.577,29.036 Z" id="Fill-14" fill="#1A2946"></path>
            <path d="M169.747,47.594 C168.595,44.93 167.335,41.804 165.967,38.216 C164.6,34.628 163.543,31.766 162.799,29.63 C162.751,29.39 162.728,29.258 162.728,29.233 C162.728,29.162 162.751,29.096 162.799,29.036 C162.847,28.976 162.908,28.946 162.98,28.946 L164.312,28.946 C164.528,28.946 164.671,29.054 164.743,29.269 C165.608,31.862 166.675,34.862 167.948,38.269 C169.219,41.678 170.215,44.198 170.936,45.83 C171.007,45.95 171.091,46.01 171.188,46.01 C171.259,46.01 171.319,45.998 171.367,45.973 C171.415,45.95 171.451,45.902 171.476,45.83 C172.196,44.174 173.198,41.636 174.482,38.216 C175.765,34.796 176.827,31.826 177.667,29.306 C177.691,29.162 177.74,29.066 177.812,29.017 C177.883,28.97 177.979,28.946 178.1,28.946 L179.287,28.946 C179.383,28.946 179.461,28.97 179.522,29.017 C179.581,29.066 179.612,29.126 179.612,29.198 L179.539,29.521 C178.771,31.73 177.698,34.652 176.318,38.288 C174.937,41.924 173.696,45.026 172.591,47.594 C172.52,47.714 172.442,47.805 172.358,47.864 C172.273,47.924 172.159,47.954 172.016,47.954 L170.251,47.954 C170.011,47.954 169.843,47.834 169.747,47.594" id="Fill-15" fill="#1A2946"></path>
            <path d="M183.535,37.225 L195.488,37.225 C195.583,37.225 195.643,37.208 195.667,37.172 C195.691,37.136 195.703,37.082 195.703,37.01 C195.703,35.498 195.517,34.244 195.146,33.248 C194.773,32.252 194.15,31.49 193.274,30.962 C192.397,30.434 191.215,30.17 189.728,30.17 C187.495,30.17 185.899,30.824 184.94,32.132 C183.979,33.44 183.439,35.065 183.32,37.01 C183.32,37.154 183.392,37.225 183.535,37.225 Z M193.723,48.116 C192.787,48.296 191.719,48.386 190.52,48.386 C187.375,48.386 185.066,47.582 183.589,45.973 C182.114,44.366 181.375,41.847 181.375,38.414 C181.375,35.317 182.077,32.894 183.482,31.141 C184.885,29.39 187.003,28.514 189.835,28.514 C192.692,28.514 194.689,29.294 195.829,30.853 C196.969,32.414 197.539,34.525 197.539,37.189 C197.539,37.814 197.515,38.269 197.467,38.557 C197.444,38.75 197.335,38.846 197.144,38.846 L183.499,38.846 C183.356,38.846 183.283,38.931 183.283,39.098 C183.307,41.689 183.913,43.604 185.102,44.84 C186.289,46.076 188.144,46.694 190.663,46.694 C191.528,46.694 192.409,46.616 193.31,46.46 C194.209,46.304 194.959,46.082 195.56,45.794 C195.608,45.77 195.679,45.758 195.776,45.758 C195.824,45.758 195.871,45.775 195.919,45.811 C195.967,45.848 196.003,45.89 196.028,45.937 L196.28,46.981 C196.303,47.006 196.316,47.054 196.316,47.126 C196.316,47.174 196.297,47.228 196.261,47.288 C196.226,47.348 196.171,47.39 196.1,47.414 C195.451,47.702 194.659,47.935 193.723,48.116 L193.723,48.116 Z" id="Fill-16" fill="#1A2946"></path>
            <path d="M202.164,53.976 C202.092,53.917 202.057,53.827 202.057,53.707 L202.057,18.427 C202.057,18.307 202.092,18.217 202.164,18.157 C202.237,18.097 202.321,18.067 202.416,18.067 L203.209,18.067 C203.328,18.067 203.418,18.097 203.479,18.157 C203.538,18.217 203.569,18.307 203.569,18.427 L203.569,53.707 C203.569,53.827 203.538,53.917 203.479,53.976 C203.418,54.037 203.328,54.067 203.209,54.067 L202.416,54.067 C202.321,54.067 202.237,54.037 202.164,53.976" id="Fill-17" fill="#1A2946"></path>
        </g>
    </g>
</svg>