<svg xmlns="http://www.w3.org/2000/svg" viewBox="0 0 138.39 38"><defs><style>.cls-1,.cls-2{fill:#4db600;}.cls-1{opacity:0.4;isolation:isolate;}.cls-3{fill:#293146;}</style></defs><title>footer-logo</title><g id="Layer_2" data-name="Layer 2"><g id="Layer_1-2" data-name="Layer 1"><path class="cls-1" d="M20.76,14.34l-6.58.75L6.56,22.66c-1.35,1.34-2.95.81-2.77,1.11l7.31-.63,7.84-7.79A3.81,3.81,0,0,1,20.76,14.34Zm.9-.1"/><path class="cls-2" d="M17.38,1.11,1.12,17.25a3.79,3.79,0,0,0,0,5.39,3.86,3.86,0,0,0,5.43,0L22.82,6.51a3.79,3.79,0,0,0,0-5.39A3.86,3.86,0,0,0,17.38,1.11Z"/><path class="cls-2" d="M18.94,15.35,2.68,31.49a3.79,3.79,0,0,0,0,5.39,3.86,3.86,0,0,0,5.43,0L24.38,20.75a3.79,3.79,0,0,0,0-5.39A3.86,3.86,0,0,0,18.94,15.35Z"/><path class="cls-3" d="M36.49,27.91a10.33,10.33,0,0,0,4.9,1.15c4.21,0,6.57-2,6.57-5.11,0-2.6-1.55-4.12-4.58-5.24C41,17.8,40,17.15,40,15.7s1.05-2.38,3-2.38a6.69,6.69,0,0,1,3.62,1l.74-2.24a8.29,8.29,0,0,0-4.28-1c-3.82,0-6.08,2.19-6.08,5,0,2.1,1.45,3.79,4.65,4.95C44,21.92,45,22.71,45,24.23s-1.13,2.6-3.5,2.6a8.69,8.69,0,0,1-4.22-1.23l-.76,2.31Z"/><path class="cls-3" d="M54.33,28.76V11.39h-3V28.76ZM52.84,4.29a1.84,1.84,0,0,0-1.9,1.89A1.78,1.78,0,0,0,52.78,8a1.81,1.81,0,0,0,1.93-1.85,1.82,1.82,0,0,0-1.86-1.89Z"/><path class="cls-3" d="M59.59,8.21v3.27H56.85V13.7h2.74v9.56c0,2.32.35,3.85,1.19,4.67a4.8,4.8,0,0,0,3.39,1.13A10.39,10.39,0,0,0,67,28.69l-.15-2.08a6,6,0,0,1-1.87.22c-1.79,0-2.41-1.26-2.41-3.48V13.7H67.2V11.48H62.59V7.26l-3,.94Z"/><path class="cls-3" d="M83.74,20.43A7.54,7.54,0,0,0,83.84,19c0-3.12-1.45-8-7.27-8-5.23,0-8.31,4-8.31,9.12,0,5.54,3.19,8.91,8.71,8.91a15.64,15.64,0,0,0,5.91-1l-.56-2.18a10.85,10.85,0,0,1-4.9,1c-3.3,0-6.08-1.87-6.16-6.4ZM71.31,18.21c.26-2.13,1.67-5,5-5,3.67,0,4.56,3,4.53,5Z"/><path class="cls-3" d="M86.82,35.95h3V26.57h.08a6.74,6.74,0,0,0,5.64,2.48c4.32,0,8-2.85,8-9.27,0-5.39-3-8.68-7.43-8.68-3,0-5.19,1.08-6.49,3.07h-.07l-.17-2.78h-2.7c.07,1.67.15,3.48.15,5.73V35.95Zm3-17.2a5,5,0,0,1,.23-1.27,5.2,5.2,0,0,1,5-4.16c3.52,0,5.45,3.06,5.45,6.61,0,4.1-2,6.9-5.57,6.9A5.12,5.12,0,0,1,90,23a4.93,4.93,0,0,1-.15-1.33V18.75Z"/><path class="cls-3" d="M121.22,20.43a7.57,7.57,0,0,0,.11-1.45c0-3.12-1.45-8-7.27-8-5.23,0-8.31,4-8.31,9.12,0,5.54,3.19,8.91,8.71,8.91a15.64,15.64,0,0,0,5.91-1l-.56-2.18a10.85,10.85,0,0,1-4.9,1c-3.3,0-6.08-1.87-6.16-6.4Zm-12.43-2.22c.26-2.13,1.67-5,5-5,3.67,0,4.56,3,4.53,5Z"/><path class="cls-3" d="M123.58,28.76h3V18.11a4.54,4.54,0,0,1,.22-1.5,4.73,4.73,0,0,1,4.41-3.29c3.1,0,4.18,2.38,4.18,5.23V28.76h3V18.22c0-5.89-3.6-7.12-6.1-7.12a6.75,6.75,0,0,0-6,2.88h-.07l-.17-2.58h-2.67c.11,1.43.15,2.87.15,4.7V28.76Z"/></g></g></svg>