<?xml version="1.0" encoding="UTF-8"?>
<svg width="800px" height="241px" viewBox="0 0 800 241" version="1.1" xmlns="http://www.w3.org/2000/svg" xmlns:xlink="http://www.w3.org/1999/xlink">
    <!-- Generator: Sketch 44.1 (41455) - http://www.bohemiancoding.com/sketch -->
    <title>Untitled</title>
    <desc>Created with Sketch.</desc>
    <defs>
        <polygon id="path-1" points="0.06 240.94 800 240.94 800 0.265 0.06 0.265"></polygon>
    </defs>
    <g id="Page-1" stroke="none" stroke-width="1" fill="none" fill-rule="evenodd">
        <g id="Twilio_logo_red">
            <path d="M563.962,47.379 L521.354,47.379 C520.175,47.379 519.21,48.344 519.21,49.523 L519.21,74.171 C519.21,75.351 520.175,76.316 521.354,76.316 L563.962,76.316 C565.142,76.316 566.107,75.351 566.107,74.171 L566.107,49.523 C566.107,48.344 565.142,47.379 563.962,47.379" id="Fill-1" fill="#CF272D"></path>
            <path d="M563.166,84.1 L481.457,84.1 C480.277,84.1 479.068,85.033 478.77,86.174 L467.739,128.402 L454.982,85.754 C454.643,84.624 453.402,83.7 452.223,83.7 L420.39,83.7 C419.21,83.7 417.97,84.625 417.634,85.755 L405.686,125.948 L405.686,125.949 L405.075,128.004 L394.428,86.178 C394.138,85.035 392.934,84.1 391.755,84.1 L327.521,84.1 L327.521,49.523 C327.521,48.344 326.009,47.138 324.693,47.605 L284.365,60.196 C283.154,60.593 282.221,61.161 282.221,62.34 L282.221,84.1 L271.593,84.1 C270.414,84.1 269.449,85.065 269.449,86.244 L269.449,116.879 C269.449,118.058 270.414,119.023 271.593,119.023 L282.221,119.023 L282.221,156.541 C282.221,183.083 296.588,195.457 323.331,195.457 C334.307,195.457 345.084,193.062 352.267,189.27 L352.267,187.125 C352.267,187.125 352.267,164.427 352.267,157.122 C352.267,155.491 350.907,155.023 350,155.415 C345.713,157.271 342.275,157.738 338.497,157.738 C331.313,157.738 327.521,154.745 327.521,146.563 L327.521,119.023 L350.523,119.023 C351.702,119.023 352.667,118.058 352.667,116.879 L352.667,91.013 L382.905,191.806 C383.244,192.936 384.486,193.86 385.666,193.86 L419.095,193.86 C420.275,193.86 421.534,192.941 421.894,191.818 L436.207,147.162 L450.136,191.813 C450.487,192.939 451.74,193.86 452.92,193.86 L486.549,193.86 C487.728,193.86 488.973,192.937 489.316,191.809 L520.008,90.724 L520.008,191.757 C520.008,192.937 520.973,193.902 522.153,193.902 L563.166,193.902 C564.345,193.902 565.31,192.937 565.31,191.757 L565.31,86.244 C565.31,85.065 564.345,84.1 563.166,84.1" id="Fill-2" fill="#CF272D"></path>
            <path d="M617.14,47.379 L576.127,47.379 C574.948,47.379 573.983,48.344 573.983,49.523 L573.983,191.757 C573.983,192.937 574.948,193.902 576.127,193.902 L617.14,193.902 C618.319,193.902 619.284,192.937 619.284,191.757 L619.284,49.523 C619.284,48.344 618.319,47.379 617.14,47.379" id="Fill-3" fill="#CF272D"></path>
            <path d="M671.867,47.379 L629.259,47.379 C628.08,47.379 627.115,48.344 627.115,49.523 L627.115,74.171 C627.115,75.351 628.08,76.316 629.259,76.316 L671.867,76.316 C673.047,76.316 674.012,75.351 674.012,74.171 L674.012,49.523 C674.012,48.344 673.047,47.379 671.867,47.379" id="Fill-4" fill="#CF272D"></path>
            <path d="M671.07,84.1 L630.058,84.1 C628.878,84.1 627.913,85.065 627.913,86.244 L627.913,191.757 C627.913,192.937 628.878,193.902 630.058,193.902 L671.07,193.902 C672.25,193.902 673.215,192.937 673.215,191.757 L673.215,86.244 C673.215,85.065 672.25,84.1 671.07,84.1" id="Fill-5" fill="#CF272D"></path>
            <g id="Group-9">
                <mask id="mask-2" fill="white">
                    <use xlink:href="#path-1"></use>
                </mask>
                <g id="Clip-7"></g>
                <path d="M756.494,138.98 C756.494,149.357 749.111,157.939 738.933,157.939 C728.955,157.939 720.972,149.357 720.972,138.58 L720.972,138.181 C720.972,127.803 728.355,119.222 738.534,119.222 C748.513,119.222 756.494,127.803 756.494,138.58 L756.494,138.98 Z M738.933,81.505 C703.012,81.505 677.467,107.848 677.467,138.58 L677.467,138.98 C677.467,169.712 702.811,195.656 738.534,195.656 C774.456,195.656 800,169.313 800,138.58 L800,138.181 C800,107.448 774.655,81.505 738.933,81.505 L738.933,81.505 Z" id="Fill-6" fill="#CF272D" mask="url(#mask-2)"></path>
                <path d="M120.368,209.278 C71.41,209.278 31.722,169.59 31.722,120.633 C31.722,71.675 71.41,31.987 120.368,31.987 C169.325,31.987 209.013,71.675 209.013,120.633 C209.013,169.59 169.325,209.278 120.368,209.278 Z M120.368,0.265 C53.891,0.265 0,54.156 0,120.633 C0,187.11 53.891,241 120.368,241 C186.845,241 240.735,187.11 240.735,120.633 C240.735,54.156 186.845,0.265 120.368,0.265 L120.368,0.265 Z" id="Fill-8" fill="#CF272D" mask="url(#mask-2)"></path>
            </g>
            <path d="M125.316,90.655 C125.316,76.833 136.522,65.627 150.344,65.627 C164.167,65.627 175.372,76.833 175.372,90.655 C175.372,104.478 164.167,115.683 150.344,115.683 C136.522,115.683 125.316,104.478 125.316,90.655" id="Fill-10" fill="#CF272D"></path>
            <path d="M125.316,150.609 C125.316,136.787 136.522,125.581 150.344,125.581 C164.167,125.581 175.372,136.787 175.372,150.609 C175.372,164.432 164.167,175.637 150.344,175.637 C136.522,175.637 125.316,164.432 125.316,150.609" id="Fill-11" fill="#CF272D"></path>
            <path d="M65.363,150.609 C65.363,136.787 76.569,125.581 90.391,125.581 C104.214,125.581 115.419,136.787 115.419,150.609 C115.419,164.432 104.214,175.637 90.391,175.637 C76.569,175.637 65.363,164.432 65.363,150.609" id="Fill-12" fill="#CF272D"></path>
            <path d="M65.363,90.656 C65.363,76.833 76.569,65.628 90.391,65.628 C104.214,65.628 115.419,76.833 115.419,90.656 C115.419,104.479 104.214,115.684 90.391,115.684 C76.569,115.684 65.363,104.479 65.363,90.656" id="Fill-13" fill="#CF272D"></path>
        </g>
    </g>
</svg>