<?xml version="1.0" encoding="utf-8"?>
<!-- Generator: Adobe Illustrator 23.0.1, SVG Export Plug-In . SVG Version: 6.00 Build 0)  -->
<svg version="1.1" id="Layer_1" xmlns="http://www.w3.org/2000/svg" xmlns:xlink="http://www.w3.org/1999/xlink" x="0px" y="0px"
	 viewBox="0 0 200 200" style="enable-background:new 0 0 200 200;" xml:space="preserve">
<style type="text/css">
	.st0{fill:#FFFFFF;}
</style>
<g>
	<g>
		<path class="st0" d="M100.3,1.7c-54.1,0-98.2,44-98.2,98.2c0,54.1,44,98.2,98.2,98.2c54.1,0,98.2-44,98.2-98.2
			S154.5,1.7,100.3,1.7z M124.7,103.3h-16c0,25.5,0,56.9,0,56.9H85.1c0,0,0-31.1,0-56.9H73.8V83.2H85v-13c0-9.3,4.4-23.9,23.9-23.9
			l17.5,0.1v19.5c0,0-10.7,0-12.7,0c-2.1,0-5,1-5,5.5v11.8h18L124.7,103.3z"/>
	</g>
</g>
</svg>
