<?xml version="1.0" encoding="utf-8"?>
<!-- Generator: Adobe Illustrator 21.0.0, SVG Export Plug-In . SVG Version: 6.00 Build 0)  -->
<svg version="1.1" id="Layer_1" xmlns="http://www.w3.org/2000/svg" xmlns:xlink="http://www.w3.org/1999/xlink" x="0px" y="0px"
	 viewBox="0 0 200 200" style="enable-background:new 0 0 200 200;" xml:space="preserve">
<style type="text/css">
	.st0{display:none;}
	.st1{display:inline;}
	.st2{fill:#D72027;}
</style>
<g class="st0">
	<g class="st1">
		<path class="st2" d="M100.3,1.7c-54.1,0-98.2,44-98.2,98.2c0,54.1,44,98.2,98.2,98.2c54.1,0,98.2-44,98.2-98.2
			S154.5,1.7,100.3,1.7z"/>
	</g>
</g>
<image style="display:none;overflow:visible;" width="512" height="512" xlink:href="../../../../../../Users/paulsmith/Desktop/512px-Instagram_simple_icon.svg copy.png"  transform="matrix(0.2227 0 0 0.2227 43.3 45)">
</image>
<g>
	<path class="st2" d="M129.5,54H70.9C61.6,54,54,61.6,54,70.9v58.5c0,9.3,7.6,17,16.9,17h58.5c9.3,0,16.9-7.6,16.9-17V70.9
		C146.4,61.6,138.8,54,129.5,54L129.5,54z M100.2,130.6c-16.8,0-30.4-13.7-30.4-30.4c0-16.8,13.7-30.4,30.4-30.4
		c16.8,0,30.4,13.7,30.4,30.4C130.6,116.9,117,130.6,100.2,130.6L100.2,130.6z M131.6,76c-4,0-7.2-3.2-7.2-7.2c0-4,3.2-7.2,7.2-7.2
		c4,0,7.2,3.2,7.2,7.2C138.8,72.8,135.6,76,131.6,76L131.6,76z M131.6,76"/>
	<path class="st2" d="M100.2,82.6c-9.7,0-17.6,7.9-17.6,17.6c0,9.7,7.9,17.6,17.6,17.6c9.7,0,17.6-7.9,17.6-17.6
		C117.8,90.5,109.9,82.6,100.2,82.6L100.2,82.6z M100.2,82.6"/>
	<path class="st2" d="M100.2,1.7C46,1.7,2,45.7,2,99.9c0,54.2,44,98.2,98.2,98.2s98.2-44,98.2-98.2C198.4,45.7,154.4,1.7,100.2,1.7
		L100.2,1.7z M159.3,129.4c0,16.4-13.4,29.8-29.8,29.8H70.9c-16.4,0-29.8-13.4-29.8-29.8V70.9c0-16.4,13.4-29.8,29.8-29.8h58.5
		c16.4,0,29.8,13.4,29.8,29.8V129.4z M159.3,129.4"/>
</g>
</svg>
