<?xml version="1.0" encoding="utf-8"?>
<!-- Generator: Adobe Illustrator 18.1.1, SVG Export Plug-In . SVG Version: 6.00 Build 0)  -->
<svg version="1.1" id="Layer_1" xmlns="http://www.w3.org/2000/svg" xmlns:xlink="http://www.w3.org/1999/xlink" x="0px" y="0px"
	 viewBox="0 0 800 484" enable-background="new 0 0 800 484" xml:space="preserve">
<g>
	<path fill="#4463B2" d="M547,412.3c-42.4,0-77-34.5-77-77s34.5-77,77-77s77,34.5,77,77S589.4,412.3,547,412.3z M547,261.6
		c-40.7,0-73.8,33.1-73.8,73.8s33.1,73.8,73.8,73.8s73.8-33.1,73.8-73.8S587.7,261.6,547,261.6z"/>
	<path fill="#4463B2" d="M547,426.6c-50.3,0-91.2-40.9-91.2-91.2s40.9-91.2,91.2-91.2c50.3,0,91.2,40.9,91.2,91.2
		S597.3,426.6,547,426.6z M547,247.4c-48.5,0-88,39.5-88,88s39.5,88,88,88c48.5,0,88-39.5,88-88S595.5,247.4,547,247.4z"/>
	<path fill="#4463B2" d="M547,344.9c-5.2,0-9.5-4.3-9.5-9.5c0-5.2,4.3-9.5,9.5-9.5c5.2,0,9.5,4.3,9.5,9.5
		C556.5,340.6,552.2,344.9,547,344.9z M547,329.1c-3.5,0-6.3,2.8-6.3,6.3s2.8,6.3,6.3,6.3c3.5,0,6.3-2.8,6.3-6.3
		S550.5,329.1,547,329.1z"/>
	<path fill="#4463B2" d="M523.8,444.5c-0.1,0-0.2,0-0.3,0c-0.9-0.2-1.4-1-1.2-1.9l19.7-100.5c0.2-0.9,1-1.4,1.9-1.2
		c0.9,0.2,1.4,1,1.2,1.9l-19.7,100.5C525.2,444,524.5,444.5,523.8,444.5z"/>
	<path fill="#4463B2" d="M569.1,444.5c-0.7,0-1.4-0.5-1.6-1.3L549,342.8c-0.2-0.9,0.4-1.7,1.3-1.8c0.9-0.2,1.7,0.4,1.8,1.3
		l18.6,100.5c0.2,0.9-0.4,1.7-1.3,1.8C569.3,444.5,569.2,444.5,569.1,444.5z"/>
	<path fill="#4463B2" d="M548.2,435.9c-3.3,0-6-2.7-6-6c0-3.3,2.7-6,6-6c3.3,0,6,2.7,6,6C554.2,433.2,551.5,435.9,548.2,435.9z
		 M548.2,427.1c-1.6,0-2.8,1.3-2.8,2.8c0,1.5,1.3,2.8,2.8,2.8c1.5,0,2.8-1.3,2.8-2.8C551,428.4,549.8,427.1,548.2,427.1z"/>
	<path fill="#4463B2" d="M584.1,428.5c-3.3,0-6-2.7-6-6c0-3.3,2.7-6,6-6c3.3,0,6,2.7,6,6C590,425.8,587.4,428.5,584.1,428.5z
		 M584.1,419.7c-1.6,0-2.8,1.3-2.8,2.8c0,1.5,1.3,2.8,2.8,2.8c1.5,0,2.8-1.3,2.8-2.8C586.9,421,585.6,419.7,584.1,419.7z"/>
	<path fill="#4463B2" d="M613.6,408.5c-3.3,0-6-2.7-6-6c0-3.3,2.7-6,6-6c3.3,0,6,2.7,6,6C619.5,405.8,616.9,408.5,613.6,408.5z
		 M613.6,399.7c-1.6,0-2.8,1.3-2.8,2.8c0,1.5,1.3,2.8,2.8,2.8c1.5,0,2.8-1.3,2.8-2.8C616.4,401,615.1,399.7,613.6,399.7z"/>
	<path fill="#4463B2" d="M642,343.1c-3.3,0-6-2.7-6-6c0-3.3,2.7-6,6-6c3.3,0,6,2.7,6,6C648,340.4,645.3,343.1,642,343.1z M642,334.3
		c-1.6,0-2.8,1.3-2.8,2.8c0,1.5,1.3,2.8,2.8,2.8c1.5,0,2.8-1.3,2.8-2.8C644.8,335.6,643.6,334.3,642,334.3z"/>
	<path fill="#4463B2" d="M634.7,306.2c-3.3,0-6-2.7-6-6c0-3.3,2.7-6,6-6c3.3,0,6,2.7,6,6C640.6,303.6,638,306.2,634.7,306.2z
		 M634.7,297.5c-1.6,0-2.8,1.3-2.8,2.8c0,1.5,1.3,2.8,2.8,2.8c1.5,0,2.8-1.3,2.8-2.8C637.5,298.7,636.2,297.5,634.7,297.5z"/>
	<path fill="#4463B2" d="M614.6,275.7c-3.3,0-6-2.7-6-6c0-3.3,2.7-6,6-6c3.3,0,6,2.7,6,6C620.6,273,617.9,275.7,614.6,275.7z
		 M614.6,266.9c-1.6,0-2.8,1.3-2.8,2.8c0,1.5,1.3,2.8,2.8,2.8c1.5,0,2.8-1.3,2.8-2.8C617.4,268.1,616.2,266.9,614.6,266.9z"/>
	<path fill="#4463B2" d="M585.1,254.6c-3.3,0-6-2.7-6-6c0-3.3,2.7-6,6-6c3.3,0,6,2.7,6,6C591.1,251.9,588.4,254.6,585.1,254.6z
		 M585.1,245.8c-1.6,0-2.8,1.3-2.8,2.8c0,1.5,1.3,2.8,2.8,2.8c1.5,0,2.8-1.3,2.8-2.8C587.9,247.1,586.7,245.8,585.1,245.8z"/>
	<path fill="#4463B2" d="M548.2,246.2c-3.3,0-6-2.7-6-6c0-3.3,2.7-6,6-6c3.3,0,6,2.7,6,6C554.2,243.5,551.5,246.2,548.2,246.2z
		 M548.2,237.4c-1.6,0-2.8,1.3-2.8,2.8c0,1.5,1.3,2.8,2.8,2.8c1.5,0,2.8-1.3,2.8-2.8C551,238.6,549.8,237.4,548.2,237.4z"/>
	<path fill="#4463B2" d="M634.7,377.9c-3.3,0-6-2.7-6-6c0-3.3,2.7-6,6-6c3.3,0,6,2.7,6,6C640.6,375.2,638,377.9,634.7,377.9z
		 M634.7,369.1c-1.6,0-2.8,1.3-2.8,2.8c0,1.5,1.3,2.8,2.8,2.8c1.5,0,2.8-1.3,2.8-2.8C637.5,370.4,636.2,369.1,634.7,369.1z"/>
	<path fill="#4463B2" d="M510.3,428.5c-3.3,0-6-2.7-6-6c0-3.3,2.7-6,6-6c3.3,0,6,2.7,6,6C516.2,425.8,513.6,428.5,510.3,428.5z
		 M510.3,419.7c-1.6,0-2.8,1.3-2.8,2.8c0,1.5,1.3,2.8,2.8,2.8c1.5,0,2.8-1.3,2.8-2.8C513.1,421,511.8,419.7,510.3,419.7z"/>
	<path fill="#4463B2" d="M480.8,408.5c-3.3,0-6-2.7-6-6c0-3.3,2.7-6,6-6c3.3,0,6,2.7,6,6C486.7,405.8,484.1,408.5,480.8,408.5z
		 M480.8,399.7c-1.6,0-2.8,1.3-2.8,2.8c0,1.5,1.3,2.8,2.8,2.8c1.5,0,2.8-1.3,2.8-2.8C483.6,401,482.3,399.7,480.8,399.7z"/>
	<path fill="#4463B2" d="M452.3,343.1c-3.3,0-6-2.7-6-6c0-3.3,2.7-6,6-6c3.3,0,6,2.7,6,6C458.3,340.4,455.6,343.1,452.3,343.1z
		 M452.3,334.3c-1.6,0-2.8,1.3-2.8,2.8c0,1.5,1.3,2.8,2.8,2.8c1.5,0,2.8-1.3,2.8-2.8C455.1,335.6,453.8,334.3,452.3,334.3z"/>
	<path fill="#4463B2" d="M459.7,306.2c-3.3,0-6-2.7-6-6c0-3.3,2.7-6,6-6c3.3,0,6,2.7,6,6C465.6,303.6,463,306.2,459.7,306.2z
		 M459.7,297.5c-1.6,0-2.8,1.3-2.8,2.8c0,1.5,1.3,2.8,2.8,2.8c1.5,0,2.8-1.3,2.8-2.8C462.5,298.7,461.2,297.5,459.7,297.5z"/>
	<path fill="#4463B2" d="M479.7,275.7c-3.3,0-6-2.7-6-6c0-3.3,2.7-6,6-6c3.3,0,6,2.7,6,6C485.7,273,483,275.7,479.7,275.7z
		 M479.7,266.9c-1.6,0-2.8,1.3-2.8,2.8c0,1.5,1.3,2.8,2.8,2.8c1.5,0,2.8-1.3,2.8-2.8C482.5,268.1,481.3,266.9,479.7,266.9z"/>
	<path fill="#4463B2" d="M509.2,254.6c-3.3,0-6-2.7-6-6c0-3.3,2.7-6,6-6c3.3,0,6,2.7,6,6C515.2,251.9,512.5,254.6,509.2,254.6z
		 M509.2,245.8c-1.6,0-2.8,1.3-2.8,2.8c0,1.5,1.3,2.8,2.8,2.8c1.5,0,2.8-1.3,2.8-2.8C512,247.1,510.8,245.8,509.2,245.8z"/>
	<path fill="#4463B2" d="M459.7,377.9c-3.3,0-6-2.7-6-6c0-3.3,2.7-6,6-6c3.3,0,6,2.7,6,6C465.6,375.2,463,377.9,459.7,377.9z
		 M459.7,369.1c-1.6,0-2.8,1.3-2.8,2.8c0,1.5,1.3,2.8,2.8,2.8c1.5,0,2.8-1.3,2.8-2.8C462.5,370.4,461.2,369.1,459.7,369.1z"/>
	<g>
		<path fill="#4463B2" d="M538.2,262.1c-0.3,0-0.6-0.1-0.8-0.2c-0.5-0.3-0.7-0.8-0.7-1.3c0-0.3,0.1-0.6,0.2-0.8l10-16
			c0.5-0.7,1.4-1,2.2-0.5c0.5,0.3,0.7,0.8,0.7,1.3c0,0.3-0.1,0.6-0.2,0.8l-10,16C539.3,261.9,538.7,262.1,538.2,262.1z"/>
		<path fill="#4463B2" d="M557.7,262.1c-0.5,0-1-0.3-1.3-0.7l-10-16c-0.2-0.3-0.2-0.6-0.2-0.8c0-0.5,0.3-1,0.7-1.3
			c0.7-0.5,1.7-0.2,2.2,0.5l10,16c0.2,0.3,0.2,0.6,0.2,0.8c0,0.5-0.3,1-0.7,1.3C558.3,262,558,262.1,557.7,262.1z"/>
	</g>
	<g>
		<path fill="#4463B2" d="M556.5,262c-0.5,0-0.9-0.2-1.2-0.6c-0.2-0.3-0.4-0.7-0.4-1c0-0.5,0.2-0.9,0.6-1.2l13.9-11.6
			c0.7-0.6,1.7-0.5,2.2,0.2c0.2,0.3,0.4,0.7,0.4,1c0,0.5-0.2,0.9-0.6,1.2l-13.9,11.6C557.2,261.9,556.8,262,556.5,262z"/>
		<path fill="#4463B2" d="M575.3,266.7c-0.7,0-1.3-0.4-1.5-1.1l-5.4-16.4c-0.1-0.2-0.1-0.3-0.1-0.5c0-0.7,0.4-1.3,1.1-1.5
			c0.8-0.3,1.7,0.2,2,1l5.4,16.4c0.1,0.2,0.1,0.3,0.1,0.5c0,0.7-0.4,1.3-1.1,1.5C575.6,266.7,575.4,266.7,575.3,266.7z"/>
	</g>
	<g>
		<path fill="#4463B2" d="M574.1,266.3c-0.6,0-1.2-0.3-1.4-0.9c-0.1-0.2-0.2-0.5-0.2-0.7c0-0.6,0.3-1.2,0.9-1.4l16.2-7.7
			c0.8-0.4,1.7,0,2.1,0.7c0.1,0.2,0.2,0.5,0.2,0.7c0,0.6-0.3,1.2-0.9,1.4l-16.2,7.7C574.6,266.2,574.4,266.3,574.1,266.3z"/>
		<path fill="#4463B2" d="M590.9,275.7c-0.8,0-1.5-0.6-1.6-1.5l-1.1-17.3c0,0,0-0.1,0-0.1c0-0.8,0.6-1.5,1.5-1.6
			c0.9-0.1,1.6,0.6,1.7,1.5l1.1,17.3c0,0,0,0.1,0,0.1C592.5,274.9,591.9,275.6,590.9,275.7C591,275.7,591,275.7,590.9,275.7z"/>
	</g>
	<g>
		<path fill="#4463B2" d="M590.4,275.4c-0.7,0-1.3-0.4-1.5-1.1c-0.1-0.2-0.1-0.3-0.1-0.5c0-0.7,0.4-1.3,1.1-1.5l15.9-5.3
			c0.8-0.3,1.7,0.2,2,1c0.1,0.2,0.1,0.3,0.1,0.5c0,0.7-0.4,1.3-1.1,1.5l-15.9,5.3C590.7,275.4,590.6,275.4,590.4,275.4z"/>
		<path fill="#4463B2" d="M603.7,286.6c-0.1,0-0.1,0-0.2,0c-0.8-0.1-1.4-0.8-1.4-1.6c0-0.1,0-0.1,0-0.2l2.3-16.8
			c0.1-0.9,0.9-1.5,1.8-1.4c0.8,0.1,1.4,0.8,1.4,1.6c0,0.1,0,0.1,0,0.2l-2.3,16.8C605.2,286.1,604.5,286.6,603.7,286.6z"/>
	</g>
	<g>
		<path fill="#4463B2" d="M603.8,287.3c-0.9,0-1.6-0.7-1.6-1.6c0-0.9,0.7-1.6,1.6-1.6l17,0c0.9,0,1.6,0.7,1.6,1.6
			c0,0.9-0.7,1.6-1.6,1.6L603.8,287.3z"/>
		<path fill="#4463B2" d="M614.5,302.8c-0.2,0-0.4,0-0.6-0.1c-0.6-0.2-1-0.8-1-1.5c0-0.2,0-0.4,0.1-0.6l6-15.9
			c0.3-0.8,1.2-1.2,2-0.9c0.6,0.2,1,0.8,1,1.5c0,0.2,0,0.4-0.1,0.6l-6,15.9C615.8,302.4,615.2,302.8,614.5,302.8z"/>
	</g>
	<g>
		<path fill="#4463B2" d="M631,306.2c-0.1,0-0.3,0-0.4,0l-17.4-4.5c-0.7-0.2-1.2-0.8-1.2-1.5c0-0.1,0-0.3,0-0.4
			c0.2-0.8,1.1-1.4,1.9-1.1l17.4,4.5c0.7,0.2,1.2,0.8,1.2,1.5c0,0.1,0,0.3,0,0.4C632.3,305.7,631.7,306.2,631,306.2z"/>
		<path fill="#4463B2" d="M620.5,319.7c-0.3,0-0.7-0.1-0.9-0.3c-0.4-0.3-0.6-0.8-0.6-1.3c0-0.3,0.1-0.7,0.3-0.9l10.3-14
			c0.5-0.7,1.5-0.9,2.2-0.3c0.4,0.3,0.6,0.8,0.6,1.3c0,0.3-0.1,0.7-0.3,0.9l-10.3,14C621.4,319.5,621,319.7,620.5,319.7z"/>
	</g>
	<g>
		<path fill="#4463B2" d="M635.9,328.6c-0.3,0-0.6-0.1-0.8-0.2l-14.9-9.1c-0.5-0.3-0.8-0.8-0.8-1.4c0-0.3,0.1-0.6,0.2-0.8
			c0.5-0.7,1.4-1,2.2-0.5l14.9,9.1c0.5,0.3,0.8,0.8,0.8,1.4c0,0.3-0.1,0.6-0.2,0.8C637,328.3,636.5,328.6,635.9,328.6z"/>
		<path fill="#4463B2" d="M622.6,338.7c-0.5,0-0.9-0.2-1.2-0.6c-0.2-0.3-0.3-0.6-0.3-1c0-0.5,0.2-0.9,0.6-1.2l13.3-10.6
			c0.7-0.5,1.7-0.4,2.2,0.3c0.2,0.3,0.3,0.6,0.3,1c0,0.5-0.2,0.9-0.6,1.2l-13.3,10.6C623.3,338.6,622.9,338.7,622.6,338.7z"/>
	</g>
	<g>
		<path fill="#4463B2" d="M635.4,349.2c-0.4,0-0.8-0.1-1.1-0.4l-12.3-12c-0.3-0.3-0.5-0.7-0.5-1.1c0-0.4,0.1-0.8,0.4-1.1
			c0.6-0.6,1.6-0.6,2.2,0l12.3,12c0.3,0.3,0.5,0.7,0.5,1.1c0,0.4-0.1,0.8-0.4,1.1C636.2,349,635.8,349.2,635.4,349.2z"/>
		<path fill="#4463B2" d="M620.7,356.2c-0.6,0-1.1-0.3-1.4-0.9c-0.1-0.2-0.2-0.5-0.2-0.7c0-0.6,0.3-1.1,0.9-1.4l14.8-7.6
			c0.8-0.4,1.7-0.1,2.1,0.7c0.1,0.2,0.2,0.5,0.2,0.7c0,0.6-0.3,1.1-0.9,1.4l-14.8,7.6C621.2,356.2,621,356.2,620.7,356.2z"/>
	</g>
	<g>
		<path fill="#4463B2" d="M548.2,426.6c-0.5,0-1-0.2-1.3-0.7l-10-14.6c-0.2-0.3-0.3-0.6-0.3-0.9c0-0.5,0.2-1,0.7-1.3
			c0.7-0.5,1.7-0.3,2.2,0.4l10,14.6c0.2,0.3,0.3,0.6,0.3,0.9c0,0.5-0.2,1-0.7,1.3C548.8,426.5,548.5,426.6,548.2,426.6z"/>
		<path fill="#4463B2" d="M547.7,426.6c-0.3,0-0.6-0.1-0.9-0.3c-0.4-0.3-0.7-0.8-0.7-1.3c0-0.3,0.1-0.6,0.3-0.9l10-14.6
			c0.5-0.7,1.5-0.9,2.2-0.4c0.4,0.3,0.7,0.8,0.7,1.3c0,0.3-0.1,0.6-0.3,0.9l-10,14.6C548.7,426.3,548.2,426.6,547.7,426.6z"/>
	</g>
	<g>
		<g>
			<path fill="#4463B2" d="M570.3,423.6c-0.4,0-0.7-0.1-1-0.4l-13.9-11.5c-0.4-0.3-0.6-0.8-0.6-1.2c0-0.4,0.1-0.7,0.4-1
				c0.6-0.7,1.6-0.8,2.2-0.2l13.9,11.5c0.4,0.3,0.6,0.8,0.6,1.2c0,0.4-0.1,0.7-0.4,1C571.2,423.4,570.8,423.6,570.3,423.6z"/>
			<path fill="#4463B2" d="M569.8,423.7c-0.2,0-0.3,0-0.5-0.1c-0.7-0.2-1.1-0.8-1.1-1.5c0-0.2,0-0.3,0.1-0.5l5.4-16.3
				c0.3-0.8,1.2-1.3,2-1c0.7,0.2,1.1,0.8,1.1,1.5c0,0.2,0,0.3-0.1,0.5l-5.4,16.3C571.1,423.3,570.5,423.7,569.8,423.7z"/>
		</g>
		<g>
			<path fill="#4463B2" d="M590.3,415.5c-0.2,0-0.5,0-0.7-0.2l-16.2-7.7c-0.6-0.3-0.9-0.8-0.9-1.4c0-0.2,0-0.5,0.2-0.7
				c0.4-0.8,1.3-1.1,2.1-0.8l16.2,7.7c0.6,0.3,0.9,0.8,0.9,1.4c0,0.2,0,0.5-0.2,0.7C591.5,415.1,590.9,415.5,590.3,415.5z"/>
			<path fill="#4463B2" d="M589.9,415.7C589.8,415.7,589.8,415.7,589.9,415.7c-0.9-0.1-1.6-0.8-1.6-1.6c0,0,0-0.1,0-0.1l1.1-17.2
				c0.1-0.9,0.8-1.5,1.7-1.5c0.8,0.1,1.5,0.7,1.5,1.6c0,0,0,0.1,0,0.1l-1.1,17.2C591.4,415.1,590.7,415.7,589.9,415.7z"/>
		</g>
		<g>
			<path fill="#4463B2" d="M606.3,404c-0.2,0-0.3,0-0.5-0.1l-15.9-5.2c-0.7-0.2-1.1-0.8-1.1-1.5c0-0.2,0-0.3,0.1-0.5
				c0.3-0.8,1.2-1.3,2-1l15.9,5.2c0.7,0.2,1.1,0.8,1.1,1.5c0,0.2,0,0.3-0.1,0.5C607.6,403.6,607,404,606.3,404z"/>
			<path fill="#4463B2" d="M606,404.3c-0.8,0-1.5-0.6-1.6-1.4l-2.3-16.7c0-0.1,0-0.1,0-0.2c0-0.8,0.6-1.5,1.4-1.6
				c0.9-0.1,1.7,0.5,1.8,1.4l2.3,16.7c0,0.1,0,0.1,0,0.2c0,0.8-0.6,1.5-1.4,1.6C606.1,404.3,606.1,404.3,606,404.3z"/>
		</g>
		<g>
			<path fill="#4463B2" d="M620.8,386.9L620.8,386.9l-17,0c-0.9,0-1.6-0.7-1.6-1.6c0-0.9,0.7-1.6,1.6-1.6l0,0l17,0
				c0.9,0,1.6,0.7,1.6,1.6C622.4,386.2,621.7,386.9,620.8,386.9z"/>
			<path fill="#4463B2" d="M620.6,387.3c-0.6,0-1.2-0.4-1.5-1l-6-15.8c-0.1-0.2-0.1-0.4-0.1-0.6c0-0.6,0.4-1.2,1-1.5
				c0.8-0.3,1.7,0.1,2,0.9l6,15.8c0.1,0.2,0.1,0.4,0.1,0.6c0,0.6-0.4,1.2-1,1.5C620.9,387.3,620.7,387.3,620.6,387.3z"/>
		</g>
		<g>
			<path fill="#4463B2" d="M613.6,372.6c-0.7,0-1.3-0.5-1.5-1.2c0-0.1,0-0.3,0-0.4c0-0.7,0.5-1.3,1.2-1.5l17.4-4.4
				c0.8-0.2,1.7,0.3,1.9,1.1c0,0.1,0,0.3,0,0.4c0,0.7-0.5,1.3-1.2,1.5l-17.4,4.4C613.8,372.6,613.7,372.6,613.6,372.6z"/>
			<path fill="#4463B2" d="M630.8,368.6c-0.5,0-1-0.2-1.3-0.6l-10.3-13.9c-0.2-0.3-0.3-0.6-0.3-0.9c0-0.5,0.2-1,0.6-1.3
				c0.7-0.5,1.7-0.4,2.2,0.3l10.3,13.9c0.2,0.3,0.3,0.6,0.3,0.9c0,0.5-0.2,1-0.6,1.3C631.4,368.5,631.1,368.6,630.8,368.6z"/>
		</g>
	</g>
	<g>
		<path fill="#4463B2" d="M537.6,262c-0.4,0-0.7-0.1-1-0.4l-13.9-11.6c-0.4-0.3-0.6-0.8-0.6-1.2c0-0.4,0.1-0.7,0.4-1
			c0.6-0.7,1.6-0.8,2.2-0.2l13.9,11.6c0.4,0.3,0.6,0.8,0.6,1.2c0,0.4-0.1,0.7-0.4,1C538.5,261.8,538,262,537.6,262z"/>
		<path fill="#4463B2" d="M518.8,266.7c-0.2,0-0.3,0-0.5-0.1c-0.7-0.2-1.1-0.8-1.1-1.5c0-0.2,0-0.3,0.1-0.5l5.4-16.4
			c0.3-0.8,1.2-1.3,2-1c0.7,0.2,1.1,0.8,1.1,1.5c0,0.2,0,0.3-0.1,0.5l-5.4,16.4C520.1,266.3,519.5,266.7,518.8,266.7z"/>
	</g>
	<g>
		<path fill="#4463B2" d="M519.9,266.3c-0.2,0-0.5,0-0.7-0.2l-16.2-7.7c-0.6-0.3-0.9-0.8-0.9-1.4c0-0.2,0-0.5,0.2-0.7
			c0.4-0.8,1.3-1.1,2.1-0.7l16.2,7.7c0.6,0.3,0.9,0.8,0.9,1.4c0,0.2,0,0.5-0.2,0.7C521.1,266,520.5,266.3,519.9,266.3z"/>
		<path fill="#4463B2" d="M503.1,275.7C503.1,275.7,503,275.7,503.1,275.7c-0.9-0.1-1.6-0.8-1.6-1.6c0,0,0-0.1,0-0.1l1.1-17.3
			c0.1-0.9,0.8-1.5,1.7-1.5c0.8,0.1,1.5,0.7,1.5,1.6c0,0,0,0.1,0,0.1l-1.1,17.3C504.6,275,503.9,275.7,503.1,275.7z"/>
	</g>
	<g>
		<path fill="#4463B2" d="M503.6,275.4c-0.2,0-0.3,0-0.5-0.1l-15.9-5.3c-0.7-0.2-1.1-0.8-1.1-1.5c0-0.2,0-0.3,0.1-0.5
			c0.3-0.8,1.2-1.3,2-1l15.9,5.3c0.7,0.2,1.1,0.8,1.1,1.5c0,0.2,0,0.3-0.1,0.5C504.9,275,504.3,275.4,503.6,275.4z"/>
		<path fill="#4463B2" d="M490.3,286.6c-0.8,0-1.5-0.6-1.6-1.4l-2.3-16.8c0-0.1,0-0.1,0-0.2c0-0.8,0.6-1.5,1.4-1.6
			c0.9-0.1,1.7,0.5,1.8,1.4l2.3,16.8c0,0.1,0,0.1,0,0.2c0,0.8-0.6,1.5-1.4,1.6C490.5,286.6,490.4,286.6,490.3,286.6z"/>
	</g>
	<g>
		<path fill="#4463B2" d="M490.2,287.3L490.2,287.3l-17,0c-0.9,0-1.6-0.7-1.6-1.6c0-0.9,0.7-1.6,1.6-1.6l0,0l17,0
			c0.9,0,1.6,0.7,1.6,1.6C491.8,286.6,491.1,287.3,490.2,287.3z"/>
		<path fill="#4463B2" d="M479.5,302.8c-0.6,0-1.2-0.4-1.5-1l-6-15.9c-0.1-0.2-0.1-0.4-0.1-0.6c0-0.6,0.4-1.2,1-1.5
			c0.8-0.3,1.7,0.1,2,0.9l6,15.9c0.1,0.2,0.1,0.4,0.1,0.6c0,0.6-0.4,1.2-1,1.5C479.9,302.8,479.7,302.8,479.5,302.8z"/>
	</g>
	<g>
		<path fill="#4463B2" d="M463.1,306.2c-0.7,0-1.3-0.5-1.5-1.2c0-0.1,0-0.3,0-0.4c0-0.7,0.5-1.3,1.2-1.5l17.4-4.5
			c0.8-0.2,1.7,0.3,1.9,1.1c0,0.1,0,0.3,0,0.4c0,0.7-0.5,1.3-1.2,1.5l-17.4,4.5C463.3,306.2,463.2,306.2,463.1,306.2z"/>
		<path fill="#4463B2" d="M473.6,319.7c-0.5,0-1-0.2-1.3-0.6l-10.3-14c-0.2-0.3-0.3-0.6-0.3-0.9c0-0.5,0.2-1,0.6-1.3
			c0.7-0.5,1.7-0.4,2.2,0.3l10.3,14c0.2,0.3,0.3,0.6,0.3,0.9c0,0.5-0.2,1-0.6,1.3C474.2,319.6,473.9,319.7,473.6,319.7z"/>
	</g>
	<g>
		<path fill="#4463B2" d="M458.1,328.6c-0.5,0-1.1-0.3-1.4-0.8c-0.2-0.3-0.2-0.5-0.2-0.8c0-0.5,0.3-1.1,0.8-1.4l14.9-9.1
			c0.7-0.5,1.7-0.2,2.2,0.5c0.2,0.3,0.2,0.5,0.2,0.8c0,0.5-0.3,1.1-0.8,1.4l-14.9,9.1C458.7,328.5,458.4,328.6,458.1,328.6z"/>
		<path fill="#4463B2" d="M471.4,338.7c-0.3,0-0.7-0.1-1-0.3l-13.3-10.6c-0.4-0.3-0.6-0.8-0.6-1.2c0-0.3,0.1-0.7,0.3-1
			c0.5-0.7,1.5-0.8,2.2-0.3l13.3,10.6c0.4,0.3,0.6,0.8,0.6,1.2c0,0.3-0.1,0.7-0.3,1C472.4,338.5,471.9,338.7,471.4,338.7z"/>
	</g>
	<g>
		<path fill="#4463B2" d="M458.6,349.2c-0.4,0-0.8-0.2-1.1-0.5c-0.3-0.3-0.4-0.7-0.4-1.1c0-0.4,0.2-0.8,0.5-1.1l12.3-12
			c0.6-0.6,1.6-0.6,2.2,0c0.3,0.3,0.4,0.7,0.4,1.1c0,0.4-0.2,0.8-0.5,1.1l-12.3,12C459.4,349,459,349.2,458.6,349.2z"/>
		<path fill="#4463B2" d="M473.3,356.2c-0.2,0-0.5-0.1-0.7-0.2l-14.8-7.6c-0.5-0.3-0.9-0.8-0.9-1.4c0-0.2,0.1-0.5,0.2-0.7
			c0.4-0.8,1.4-1.1,2.1-0.7l14.8,7.6c0.5,0.3,0.9,0.8,0.9,1.4c0,0.2-0.1,0.5-0.2,0.7C474.4,355.9,473.9,356.2,473.3,356.2z"/>
	</g>
	<g>
		<g>
			<path fill="#4463B2" d="M523.7,423.6c-0.5,0-0.9-0.2-1.2-0.6c-0.2-0.3-0.4-0.7-0.4-1c0-0.5,0.2-0.9,0.6-1.2l13.9-11.5
				c0.7-0.6,1.7-0.5,2.2,0.2c0.2,0.3,0.4,0.7,0.4,1c0,0.5-0.2,0.9-0.6,1.2l-13.9,11.5C524.4,423.5,524.1,423.6,523.7,423.6z"/>
			<path fill="#4463B2" d="M524.2,423.7c-0.7,0-1.3-0.4-1.5-1.1l-5.4-16.3c-0.1-0.2-0.1-0.3-0.1-0.5c0-0.7,0.4-1.3,1.1-1.5
				c0.8-0.3,1.7,0.2,2,1l5.4,16.3c0.1,0.2,0.1,0.3,0.1,0.5c0,0.7-0.4,1.3-1.1,1.5C524.6,423.7,524.4,423.7,524.2,423.7z"/>
		</g>
		<g>
			<path fill="#4463B2" d="M503.7,415.5c-0.6,0-1.2-0.3-1.4-0.9c-0.1-0.2-0.2-0.4-0.2-0.7c0-0.6,0.3-1.2,0.9-1.4l16.2-7.7
				c0.8-0.4,1.7,0,2.1,0.8c0.1,0.2,0.2,0.4,0.2,0.7c0,0.6-0.3,1.2-0.9,1.4l-16.2,7.7C504.2,415.4,503.9,415.5,503.7,415.5z"/>
			<path fill="#4463B2" d="M504.2,415.7c-0.8,0-1.5-0.6-1.6-1.5l-1.1-17.2c0,0,0-0.1,0-0.1c0-0.8,0.6-1.5,1.5-1.6
				c0.9,0,1.6,0.6,1.7,1.5l1.1,17.2c0,0,0,0.1,0,0.1C505.7,415,505.1,415.7,504.2,415.7C504.2,415.7,504.2,415.7,504.2,415.7z"/>
		</g>
		<g>
			<path fill="#4463B2" d="M487.7,404c-0.7,0-1.3-0.4-1.5-1.1c-0.1-0.2-0.1-0.3-0.1-0.5c0-0.7,0.4-1.3,1.1-1.5l15.9-5.2
				c0.8-0.3,1.7,0.2,2,1c0.1,0.2,0.1,0.3,0.1,0.5c0,0.7-0.4,1.3-1.1,1.5l-15.9,5.2C488,404,487.9,404,487.7,404z"/>
			<path fill="#4463B2" d="M488.1,404.3c-0.1,0-0.1,0-0.2,0c-0.8-0.1-1.4-0.8-1.4-1.6c0-0.1,0-0.1,0-0.2l2.3-16.7
				c0.1-0.9,0.9-1.5,1.8-1.4c0.8,0.1,1.4,0.8,1.4,1.6c0,0.1,0,0.1,0,0.2l-2.3,16.7C489.5,403.7,488.8,404.3,488.1,404.3z"/>
		</g>
		<g>
			<path fill="#4463B2" d="M473.2,386.9c-0.9,0-1.6-0.7-1.6-1.6c0-0.9,0.7-1.6,1.6-1.6l17,0c0.9,0,1.6,0.7,1.6,1.6
				c0,0.9-0.7,1.6-1.6,1.6L473.2,386.9z"/>
			<path fill="#4463B2" d="M473.5,387.3c-0.2,0-0.4,0-0.6-0.1c-0.6-0.2-1-0.8-1-1.5c0-0.2,0-0.4,0.1-0.6l6-15.8
				c0.3-0.8,1.2-1.2,2-0.9c0.6,0.2,1,0.8,1,1.5c0,0.2,0,0.4-0.1,0.6l-6,15.8C474.7,386.9,474.1,387.3,473.5,387.3z"/>
		</g>
		<g>
			<path fill="#4463B2" d="M480.5,372.6c-0.1,0-0.3,0-0.4,0l-17.4-4.4c-0.7-0.2-1.2-0.8-1.2-1.5c0-0.1,0-0.3,0-0.4
				c0.2-0.8,1.1-1.4,1.9-1.1l17.4,4.4c0.7,0.2,1.2,0.8,1.2,1.5c0,0.1,0,0.3,0,0.4C481.8,372.1,481.2,372.6,480.5,372.6z"/>
			<path fill="#4463B2" d="M463.3,368.6c-0.3,0-0.7-0.1-0.9-0.3c-0.4-0.3-0.6-0.8-0.6-1.3c0-0.3,0.1-0.7,0.3-0.9l10.3-13.9
				c0.5-0.7,1.5-0.9,2.2-0.3c0.4,0.3,0.6,0.8,0.6,1.3c0,0.3-0.1,0.7-0.3,0.9L464.5,368C464.2,368.4,463.8,368.6,463.3,368.6z"/>
		</g>
	</g>
</g>
<g>
	<path fill="#4463B2" d="M103,445c-0.1,0-0.1,0-0.2,0c-0.8-0.1-1.4-0.8-1.3-1.7l38.3-329.8c0.1-0.7,0.7-1.3,1.4-1.3
		c0.7-0.1,1.4,0.4,1.6,1.1l3.7,13c0.2,0.8-0.2,1.6-1,1.9c-0.8,0.2-1.6-0.2-1.9-1l-1.6-5.7l-37.5,322.3
		C104.4,444.4,103.7,445,103,445z"/>
	<path fill="#4463B2" d="M112.5,445c-0.1,0-0.1,0-0.2,0c-0.8-0.1-1.4-0.8-1.3-1.6l33.8-329.8c0.1-0.7,0.6-1.3,1.3-1.3
		c0.7-0.1,1.4,0.4,1.6,1l9.3,29.3c0,0.1,0.1,0.3,0.1,0.4l1.7,300.5c0,0.8-0.7,1.5-1.5,1.5c0,0,0,0,0,0c-0.8,0-1.5-0.7-1.5-1.5
		l-1.7-300.3l-7.1-22.2l-0.1,0.8l-33,321.8C114,444.4,113.3,445,112.5,445z"/>
	<path fill="#4463B2" d="M194.9,445c-0.7,0-1.4-0.6-1.5-1.3l-40-320.1l-0.9,5c-0.1,0.8-0.9,1.4-1.7,1.2c-0.8-0.1-1.4-0.9-1.2-1.7
		l2.7-14.7c0.1-0.7,0.8-1.3,1.5-1.2c0.7,0,1.4,0.6,1.4,1.3l41.2,329.8c0.1,0.8-0.5,1.6-1.3,1.7C195,445,195,445,194.9,445z"/>
	<path fill="#4463B2" d="M179.7,445c-0.8,0-1.4-0.6-1.5-1.4l-17-235.9l-6.6-15.4c-0.3-0.8,0-1.6,0.8-2c0.8-0.3,1.6,0,2,0.8l6.7,15.7
		c0.1,0.2,0.1,0.3,0.1,0.5l17,236.2c0.1,0.8-0.6,1.5-1.4,1.6C179.8,445,179.7,445,179.7,445z"/>
</g>
<g>
	<path fill="#4463B2" d="M205.8,445c-0.7,0-1.3-0.5-1.5-1.2C191.5,380.7,192,325.9,192,325.4c3.3-84.2,27.2-116.2,41.1-127.8
		c7.6-6.3,14-8,17.4-7.5c11.5,1.7,26.8,10,43.7,59.8c18.9,55.8,15.4,120.7,10.3,150.3c-0.1,0.8-0.9,1.4-1.7,1.2
		c-0.8-0.1-1.4-0.9-1.2-1.7c5-29.3,8.6-93.6-10.2-148.8C273,196.3,257,194,250.2,193c-2.9-0.4-8.7,1.5-15.1,6.9
		c-6.7,5.6-16.5,16.8-24.8,38.4c-8.8,22.9-13.9,52.2-15.3,87.2c0,0.5-0.5,55,12.3,117.7c0.2,0.8-0.4,1.6-1.2,1.8
		C206,445,205.9,445,205.8,445z"/>
	<path fill="#4463B2" d="M197.2,285.7c-0.6,0-1.2-0.4-1.4-0.9c-0.3-0.8,0.1-1.6,0.8-2c30.2-12.2,60.1-33,84.1-58.6
		c0.4-0.4,0.7-0.7,0.9-0.9c0.6-0.6,1.5-0.6,2.1,0c0.6,0.6,0.6,1.5,0,2.1c-0.2,0.2-0.5,0.5-0.8,0.9c-24.3,25.9-54.5,47-85.1,59.3
		C197.6,285.7,197.4,285.7,197.2,285.7z"/>
	<path fill="#4463B2" d="M194.5,310.1c-0.6,0-1.2-0.4-1.4-1c-0.3-0.8,0.1-1.6,0.9-1.9c58.4-20,93.9-67,94.2-67.5
		c0.5-0.7,1.4-0.8,2.1-0.3c0.7,0.5,0.8,1.4,0.3,2.1c-0.4,0.5-36.4,48.2-95.7,68.5C194.8,310.1,194.7,310.1,194.5,310.1z"/>
	<path fill="#4463B2" d="M193.4,329.3c-0.7,0-1.3-0.5-1.5-1.2c-0.2-0.8,0.4-1.6,1.2-1.8c61.6-11.6,101.3-66.4,101.7-67
		c0.5-0.7,1.4-0.8,2.1-0.4c0.7,0.5,0.8,1.4,0.4,2.1c-0.4,0.6-40.8,56.4-103.6,68.2C193.6,329.3,193.5,329.3,193.4,329.3z"/>
	<path fill="#4463B2" d="M301.7,289.7c-0.2,0-0.4,0-0.6-0.1c-43.1-17.4-85.2-62.6-85.6-63c-0.6-0.6-0.5-1.6,0.1-2.1
		c0.6-0.6,1.6-0.5,2.1,0.1c0.4,0.4,42.1,45.2,84.5,62.3c0.8,0.3,1.1,1.2,0.8,2C302.9,289.3,302.3,289.7,301.7,289.7z"/>
	<path fill="#4463B2" d="M304.6,314.1c-0.2,0-0.3,0-0.5-0.1c-61.9-20.9-96.8-73.4-97.2-73.9c-0.5-0.7-0.3-1.6,0.4-2.1
		c0.7-0.5,1.6-0.3,2.1,0.4c0.3,0.5,34.8,52.2,95.6,72.7c0.8,0.3,1.2,1.1,0.9,1.9C305.8,313.7,305.2,314.1,304.6,314.1z"/>
	<path fill="#4463B2" d="M305.6,333.3c-0.1,0-0.2,0-0.3,0c-64.6-12.5-103.9-73.5-104.2-74.1c-0.4-0.7-0.2-1.6,0.5-2.1
		c0.7-0.4,1.6-0.2,2.1,0.5c0.4,0.6,38.9,60.5,102.3,72.8c0.8,0.2,1.3,0.9,1.2,1.8C306.9,332.8,306.3,333.3,305.6,333.3z"/>
</g>
<g>
	<path fill="#4463B2" d="M677.5,309.9c-14.9,0-27-12.1-27-27s12.1-27,27-27s27,12.1,27,27S692.4,309.9,677.5,309.9z M677.5,258.8
		c-13.3,0-24,10.8-24,24s10.8,24,24,24s24-10.8,24-24S690.8,258.8,677.5,258.8z"/>
	<g>
		<path fill="#4463B2" d="M659.5,355.5c-0.8,0-1.5-0.7-1.5-1.5v-19c0-0.8,0.7-1.5,1.5-1.5s1.5,0.7,1.5,1.5v19
			C661,354.8,660.3,355.5,659.5,355.5z"/>
		<path fill="#4463B2" d="M671.5,355.5c-0.8,0-1.5-0.7-1.5-1.5v-19c0-0.8,0.7-1.5,1.5-1.5s1.5,0.7,1.5,1.5v19
			C673,354.8,672.3,355.5,671.5,355.5z"/>
		<path fill="#4463B2" d="M681.5,355.5c-0.8,0-1.5-0.7-1.5-1.5v-19c0-0.8,0.7-1.5,1.5-1.5s1.5,0.7,1.5,1.5v19
			C683,354.8,682.3,355.5,681.5,355.5z"/>
		<path fill="#4463B2" d="M694.5,355.5c-0.8,0-1.5-0.7-1.5-1.5v-19c0-0.8,0.7-1.5,1.5-1.5s1.5,0.7,1.5,1.5v19
			C696,354.8,695.3,355.5,694.5,355.5z"/>
	</g>
	<g>
		<path fill="#4463B2" d="M659.5,396.5c-0.8,0-1.5-0.7-1.5-1.5v-19c0-0.8,0.7-1.5,1.5-1.5s1.5,0.7,1.5,1.5v19
			C661,395.8,660.3,396.5,659.5,396.5z"/>
		<path fill="#4463B2" d="M671.5,396.5c-0.8,0-1.5-0.7-1.5-1.5v-19c0-0.8,0.7-1.5,1.5-1.5s1.5,0.7,1.5,1.5v19
			C673,395.8,672.3,396.5,671.5,396.5z"/>
		<path fill="#4463B2" d="M681.5,396.5c-0.8,0-1.5-0.7-1.5-1.5v-19c0-0.8,0.7-1.5,1.5-1.5s1.5,0.7,1.5,1.5v19
			C683,395.8,682.3,396.5,681.5,396.5z"/>
		<path fill="#4463B2" d="M694.5,396.5c-0.8,0-1.5-0.7-1.5-1.5v-19c0-0.8,0.7-1.5,1.5-1.5s1.5,0.7,1.5,1.5v19
			C696,395.8,695.3,396.5,694.5,396.5z"/>
	</g>
	<g>
		<path fill="#4463B2" d="M659.5,435.5c-0.8,0-1.5-0.7-1.5-1.5v-19c0-0.8,0.7-1.5,1.5-1.5s1.5,0.7,1.5,1.5v19
			C661,434.8,660.3,435.5,659.5,435.5z"/>
		<path fill="#4463B2" d="M671.5,435.5c-0.8,0-1.5-0.7-1.5-1.5v-19c0-0.8,0.7-1.5,1.5-1.5s1.5,0.7,1.5,1.5v19
			C673,434.8,672.3,435.5,671.5,435.5z"/>
		<path fill="#4463B2" d="M681.5,435.5c-0.8,0-1.5-0.7-1.5-1.5v-19c0-0.8,0.7-1.5,1.5-1.5s1.5,0.7,1.5,1.5v19
			C683,434.8,682.3,435.5,681.5,435.5z"/>
		<path fill="#4463B2" d="M694.5,435.5c-0.8,0-1.5-0.7-1.5-1.5v-19c0-0.8,0.7-1.5,1.5-1.5s1.5,0.7,1.5,1.5v19
			C696,434.8,695.3,435.5,694.5,435.5z"/>
	</g>
	<path fill="#4463B2" d="M703,366h-52c-0.8,0-1.5-0.7-1.5-1.5s0.7-1.5,1.5-1.5h52c0.8,0,1.5,0.7,1.5,1.5S703.8,366,703,366z"/>
	<path fill="#4463B2" d="M703,408h-52c-0.8,0-1.5-0.7-1.5-1.5s0.7-1.5,1.5-1.5h52c0.8,0,1.5,0.7,1.5,1.5S703.8,408,703,408z"/>
	<path fill="#4463B2" d="M692.1,196.2c-0.6,0-1.2-0.4-1.4-1L675.9,154l-14.8,41.2c-0.3,0.8-1.1,1.2-1.9,0.9
		c-0.8-0.3-1.2-1.1-0.9-1.9l16.2-45.1c0.2-0.6,0.8-1,1.4-1c0.6,0,1.2,0.4,1.4,1l16.2,45.1c0.3,0.8-0.1,1.6-0.9,1.9
		C692.4,196.1,692.2,196.2,692.1,196.2z"/>
	<path fill="#4463B2" d="M647.8,236.1c-0.2,0-0.4,0-0.7-0.2c-0.7-0.4-1-1.3-0.7-2l12-24.3c0.4-0.7,1.3-1,2-0.7c0.7,0.4,1,1.3,0.7,2
		l-12,24.3C648.9,235.8,648.3,236.1,647.8,236.1z"/>
	<path fill="#4463B2" d="M705.6,236.1c-0.5,0-1-0.3-1.3-0.8L690.8,211c-0.4-0.7-0.1-1.6,0.6-2c0.7-0.4,1.6-0.1,2,0.6l13.6,24.3
		c0.4,0.7,0.1,1.6-0.6,2C706.1,236,705.9,236.1,705.6,236.1z"/>
	<circle fill="#4463B2" cx="677.5" cy="282.9" r="2.6"/>
	<path fill="#4463B2" d="M703.6,445.2h-53.5c-0.8,0-1.5-0.7-1.5-1.5V325.5c0-0.8,0.7-1.5,1.5-1.5h53.5c0.8,0,1.5,0.7,1.5,1.5v118.1
		C705.1,444.5,704.5,445.2,703.6,445.2z M651.7,442.2h50.5V327h-50.5V442.2z"/>
	<path fill="#4463B2" d="M707.7,327h-61.6c-0.8,0-1.5-0.7-1.5-1.5v-8c0-0.8,0.7-1.5,1.5-1.5h61.6c0.8,0,1.5,0.7,1.5,1.5v8
		C709.2,326.4,708.6,327,707.7,327z M647.7,324h58.6v-5h-58.6V324z"/>
	<path fill="#4463B2" d="M712.4,319.1h-69.8c-0.8,0-1.5-0.7-1.5-1.5v-69.4c0-0.8,0.7-1.5,1.5-1.5h69.8c0.8,0,1.5,0.7,1.5,1.5v69.4
		C713.9,318.4,713.2,319.1,712.4,319.1z M644.1,316.1h66.8v-66.4h-66.8V316.1z"/>
	<path fill="#4463B2" d="M705.6,249.6h-57.9c-0.8,0-1.5-0.7-1.5-1.5v-13.6c0-0.8,0.7-1.5,1.5-1.5h57.9c0.8,0,1.5,0.7,1.5,1.5v13.6
		C707.1,249,706.5,249.6,705.6,249.6z M649.3,246.6h54.9v-10.6h-54.9V246.6z"/>
	<path fill="#4463B2" d="M692.1,211.7h-32.3c-0.8,0-1.5-0.7-1.5-1.5v-15.6c0-0.8,0.7-1.5,1.5-1.5h32.3c0.8,0,1.5,0.7,1.5,1.5v15.6
		C693.6,211.1,692.9,211.7,692.1,211.7z M661.2,208.7h29.3v-12.6h-29.3V208.7z"/>
	<path fill="#4463B2" d="M677.5,284.5c-0.8,0-1.5-0.7-1.5-1.5v-19c0-0.8,0.7-1.5,1.5-1.5s1.5,0.7,1.5,1.5v19
		C679,283.8,678.3,284.5,677.5,284.5z"/>
	<path fill="#4463B2" d="M690,285h-13c-0.8,0-1.5-0.7-1.5-1.5s0.7-1.5,1.5-1.5h13c0.8,0,1.5,0.7,1.5,1.5S690.8,285,690,285z"/>
</g>
<g>
	<path fill="#4463B2" d="M519.8,444h-256c-0.5,0-1-0.2-1.2-0.7l-8.1-12c-0.4-0.6-0.3-1.4,0.2-2c0.5-0.5,51.7-46.3,135.6-50.8
		c0,0,0.4,0,1.2,0c6.9,0,69.3,1.4,135.2,50.7c0.6,0.4,0.8,1.2,0.4,1.9l-5.9,11.9C520.9,443.7,520.4,444,519.8,444z M264.6,441h254.3
		l4.9-10c-64.8-48-125.7-49.4-132.4-49.4c-0.7,0-1,0-1,0c-76.5,4-125.3,42.9-132.7,49.1L264.6,441z"/>
	<path fill="#4463B2" d="M390.7,444.5c-0.3,0-0.7-0.1-1-0.4c-34.5-30.2-70.6-0.3-70.9,0c-0.5,0.4-1.3,0.5-1.8,0.1
		c-0.3-0.2-25.9-18.1-61-12c-0.8,0.1-1.6-0.4-1.7-1.2c-0.1-0.8,0.4-1.6,1.2-1.7c32.6-5.7,57.2,8.6,62.3,11.8c2.7-2.1,11-8,22.7-11.3
		c12.9-3.7,32.2-4.6,51.3,12.1c0.6,0.5,0.7,1.5,0.1,2.1C391.6,444.3,391.1,444.5,390.7,444.5z"/>
	<path fill="#4463B2" d="M390.4,444.5c-0.4,0-0.8-0.2-1.1-0.5c-0.5-0.6-0.5-1.6,0.1-2.1c19-16.6,38.4-15.8,51.3-12.1
		c11.6,3.3,20,9.3,22.7,11.3c5.1-3.2,29.7-17.5,62.3-11.8c0.8,0.1,1.4,0.9,1.2,1.7c-0.1,0.8-0.9,1.4-1.7,1.2
		c-35.2-6.1-60.8,11.8-61,12c-0.6,0.4-1.3,0.4-1.8-0.1c-0.1-0.1-9.2-7.7-22.5-11.5c-17.7-5-33.9-1.1-48.4,11.5
		C391.1,444.4,390.7,444.5,390.4,444.5z"/>
	<path fill="#4463B2" d="M390.5,396.5c-0.8,0-1.5-0.7-1.5-1.5v-43c0-0.8,0.7-1.5,1.5-1.5s1.5,0.7,1.5,1.5v43
		C392,395.8,391.3,396.5,390.5,396.5z"/>
	<path fill="#4463B2" d="M443.7,406.4c-0.2,0-0.4,0-0.6-0.1c-0.8-0.3-1.1-1.2-0.8-2l17.6-39.1c0.3-0.8,1.2-1.1,2-0.8
		c0.8,0.3,1.1,1.2,0.8,2l-17.6,39.1C444.8,406,444.3,406.4,443.7,406.4z"/>
	<path fill="#4463B2" d="M494.6,411.8c-0.4,0-0.8-0.2-1.1-0.5c-0.6-0.6-0.5-1.6,0.1-2.1l31.3-29.4c0.6-0.6,1.6-0.5,2.1,0.1
		c0.6,0.6,0.5,1.6-0.1,2.1l-31.3,29.4C495.3,411.7,494.9,411.8,494.6,411.8z"/>
	<path fill="#4463B2" d="M337.9,406.4c-0.6,0-1.1-0.3-1.4-0.9L319,366.3c-0.3-0.8,0-1.6,0.8-2c0.8-0.3,1.6,0,2,0.8l17.6,39.1
		c0.3,0.8,0,1.6-0.8,2C338.4,406.3,338.1,406.4,337.9,406.4z"/>
	<path fill="#4463B2" d="M287.1,411.8c-0.4,0-0.7-0.1-1-0.4l-31.3-29.4c-0.6-0.6-0.6-1.5-0.1-2.1c0.6-0.6,1.5-0.6,2.1-0.1l31.3,29.4
		c0.6,0.6,0.6,1.5,0.1,2.1C287.9,411.7,287.5,411.8,287.1,411.8z"/>
	<path fill="#4463B2" d="M296,406.4c-0.4,0-0.8-0.2-1.1-0.5l-18.9-19.6c-0.6-0.6-0.6-1.5,0-2.1c0.6-0.6,1.5-0.6,2.1,0l18.9,19.6
		c0.6,0.6,0.6,1.5,0,2.1C296.8,406.2,296.4,406.4,296,406.4z"/>
	<path fill="#4463B2" d="M352.7,398.7c-0.6,0-1.1-0.3-1.4-0.9l-10.8-25c-0.3-0.8,0-1.6,0.8-2c0.8-0.3,1.6,0,2,0.8l10.8,25
		c0.3,0.8,0,1.6-0.8,2C353.1,398.7,352.9,398.7,352.7,398.7z"/>
	<path fill="#4463B2" d="M484.7,407.8c-0.4,0-0.8-0.1-1-0.4c-0.6-0.6-0.6-1.5,0-2.1l18.9-19.6c0.6-0.6,1.5-0.6,2.1,0
		c0.6,0.6,0.6,1.5,0,2.1l-18.9,19.6C485.5,407.7,485.1,407.8,484.7,407.8z"/>
	<path fill="#4463B2" d="M428.1,400.2c-0.2,0-0.4,0-0.6-0.1c-0.8-0.3-1.1-1.2-0.8-2l10.8-25c0.3-0.8,1.2-1.1,2-0.8
		c0.8,0.3,1.1,1.2,0.8,2l-10.8,25C429.2,399.8,428.7,400.2,428.1,400.2z"/>
</g>
<g>
	<path fill="#4463B2" d="M716,445H65c-0.8,0-1.5-0.7-1.5-1.5s0.7-1.5,1.5-1.5h651c0.8,0,1.5,0.7,1.5,1.5S716.8,445,716,445z"/>
	<path fill="#4463B2" d="M51,445H40c-0.8,0-1.5-0.7-1.5-1.5s0.7-1.5,1.5-1.5h11c0.8,0,1.5,0.7,1.5,1.5S51.8,445,51,445z"/>
	<path fill="#4463B2" d="M731,445h-8c-0.8,0-1.5-0.7-1.5-1.5s0.7-1.5,1.5-1.5h8c0.8,0,1.5,0.7,1.5,1.5S731.8,445,731,445z"/>
	<path fill="#4463B2" d="M760,445h-22c-0.8,0-1.5-0.7-1.5-1.5s0.7-1.5,1.5-1.5h22c0.8,0,1.5,0.7,1.5,1.5S760.8,445,760,445z"/>
</g>
<path fill="#4463B2" d="M353.7,163.8c-0.2,0-0.5-0.1-0.7-0.2l-8.7-4.8c-0.5-0.3-0.8-0.7-0.8-1.2c0-0.5,0.2-1,0.7-1.3l8.7-5.9
	c0.7-0.5,1.6-0.3,2.1,0.4c0.5,0.7,0.3,1.6-0.4,2.1l-6.6,4.5l6.5,3.6c0.7,0.4,1,1.3,0.6,2C354.7,163.6,354.2,163.8,353.7,163.8z"/>
<path fill="#4463B2" d="M85.7,181.8c-0.2,0-0.5-0.1-0.7-0.2l-8.7-4.8c-0.5-0.3-0.8-0.7-0.8-1.2c0-0.5,0.2-1,0.7-1.3l8.7-5.9
	c0.7-0.5,1.6-0.3,2.1,0.4c0.5,0.7,0.3,1.6-0.4,2.1l-6.6,4.5l6.5,3.6c0.7,0.4,1,1.3,0.6,2C86.7,181.6,86.2,181.8,85.7,181.8z"/>
<path fill="#4463B2" d="M359.9,167c-0.7,0-1.4-0.5-1.5-1.3l-2.8-19c-0.1-0.8,0.4-1.6,1.3-1.7c0.8-0.1,1.6,0.4,1.7,1.3l2.8,19
	c0.1,0.8-0.4,1.6-1.3,1.7C360.1,167,360,167,359.9,167z"/>
<path fill="#4463B2" d="M715.2,146.8c-0.5,0-1-0.3-1.3-0.8c-0.4-0.7-0.1-1.6,0.6-2l6.5-3.6l-6.6-4.5c-0.7-0.5-0.9-1.4-0.4-2.1
	c0.5-0.7,1.4-0.9,2.1-0.4l8.7,5.9c0.4,0.3,0.7,0.8,0.7,1.3c0,0.5-0.3,1-0.8,1.2l-8.7,4.8C715.7,146.8,715.5,146.8,715.2,146.8z"/>
<path fill="#4463B2" d="M709,150c-0.1,0-0.1,0-0.2,0c-0.8-0.1-1.4-0.9-1.3-1.7l2.8-19c0.1-0.8,0.9-1.4,1.7-1.3
	c0.8,0.1,1.4,0.9,1.3,1.7l-2.8,19C710.4,149.5,709.7,150,709,150z"/>
<path fill="#4463B2" d="M457,226.8c-0.5,0-1-0.3-1.3-0.8c-0.4-0.7-0.1-1.6,0.6-2l6.5-3.6l-6.6-4.5c-0.7-0.5-0.9-1.4-0.4-2.1
	c0.5-0.7,1.4-0.9,2.1-0.4l8.7,5.9c0.4,0.3,0.7,0.8,0.7,1.3c0,0.5-0.3,1-0.8,1.2l-8.7,4.8C457.5,226.8,457.2,226.8,457,226.8z"/>
<circle fill="#4463B2" cx="229.3" cy="111" r="2.7"/>
<circle fill="#4463B2" cx="342.3" cy="317" r="2.7"/>
<circle fill="#4463B2" cx="579.3" cy="142" r="2.7"/>
</svg>
