<?xml version="1.0" encoding="utf-8"?>
<!-- Generator: Adobe Illustrator 18.1.1, SVG Export Plug-In . SVG Version: 6.00 Build 0)  -->
<svg version="1.1" id="Layer_1" xmlns="http://www.w3.org/2000/svg" xmlns:xlink="http://www.w3.org/1999/xlink" x="0px" y="0px"
	 viewBox="0 0 200 200" enable-background="new 0 0 200 200" xml:space="preserve">
<g>
	<g>
		<path fill="#D72027" d="M100,2C46.1,2,2.2,45.9,2.2,99.8c0,53.9,43.9,97.8,97.8,97.8c53.9,0,97.8-43.9,97.8-97.8
			C197.8,45.9,154,2,100,2z M143.6,77.4c0,1,0.1,1.9,0.1,2.9c0,29.8-22.6,64.1-64.1,64.1c-12.7,0-24.6-3.7-34.5-10.1
			c1.8,0.2,3.6,0.3,5.4,0.3c10.6,0,20.3-3.6,28-9.6c-9.9-0.2-18.2-6.7-21-15.6c1.4,0.3,2.8,0.4,4.2,0.4c2.1,0,4-0.3,5.9-0.8
			c-10.3-2.1-18.1-11.2-18.1-22.1c0-0.1,0-0.2,0-0.3c3,1.7,6.5,2.7,10.2,2.8c-6-4-10-10.9-10-18.7c0-4.1,1.1-8,3-11.3
			C63.9,73,80.5,81.9,99.2,82.9c-0.4-1.7-0.6-3.4-0.6-5.1c0-12.4,10.1-22.5,22.5-22.5c6.5,0,12.3,2.7,16.4,7.1
			c5.1-1,9.9-2.9,14.3-5.5c-1.7,5.3-5.3,9.7-9.9,12.5c4.6-0.5,8.9-1.7,12.9-3.5C151.9,70.3,148,74.3,143.6,77.4z"/>
	</g>
</g>
</svg>
