<?xml version="1.0" encoding="utf-8"?>
<!-- Generator: Adobe Illustrator 18.1.1, SVG Export Plug-In . SVG Version: 6.00 Build 0)  -->
<svg version="1.1" id="Layer_1" xmlns="http://www.w3.org/2000/svg" xmlns:xlink="http://www.w3.org/1999/xlink" x="0px" y="0px"
	 viewBox="0 0 116 55.9" enable-background="new 0 0 116 55.9" xml:space="preserve">
<rect x="0" y="0" fill="none" width="122.5" height="21.8"/>
<text transform="matrix(1 0 0 1 2.441406e-04 10.584)" fill="#606060" font-family="'Europa-Light'" font-size="14">WEB DESIGNED BY</text>
<g>
	<g>
		<path fill="#2E4B9F" d="M0,27.4v-9h3.1c1.2,0,2.2,0.2,2.9,0.6c0.7,0.4,1.3,0.9,1.7,1.6c0.4,0.7,0.6,1.5,0.6,2.3
			c0,0.6-0.1,1.2-0.4,1.7c-0.2,0.6-0.6,1-1,1.5c-0.4,0.4-1,0.8-1.5,1c-0.3,0.1-0.7,0.2-0.9,0.3c-0.3,0-0.8,0.1-1.6,0.1H0z M2.9,19.5
			H1.3v6.7H3c0.6,0,1.2,0,1.5-0.1c0.4-0.1,0.7-0.2,0.9-0.3c0.2-0.1,0.5-0.3,0.7-0.5c0.6-0.6,1-1.5,1-2.5c0-1-0.3-1.8-1-2.4
			c-0.2-0.2-0.5-0.4-0.8-0.6c-0.3-0.1-0.6-0.2-0.9-0.3C4,19.6,3.5,19.5,2.9,19.5z"/>
		<path fill="#2E4B9F" d="M11.9,18.3h0.9l4.1,9.1h-1.3l-1.2-2.7h-3.9l-1.1,2.7H8L11.9,18.3z M13.8,23.6l-1.5-3.3L11,23.6H13.8z"/>
		<path fill="#2E4B9F" d="M22.3,18.4h1.3l-3.8,9.1h-0.3l-3.9-9.1h1.3l2.7,6.4L22.3,18.4z"/>
		<path fill="#2E4B9F" d="M24.4,18.4h1.3v9.1h-1.3V18.4z"/>
		<path fill="#2E4B9F" d="M27.6,27.4v-9h3.1c1.2,0,2.2,0.2,2.9,0.6c0.7,0.4,1.3,0.9,1.7,1.6c0.4,0.7,0.6,1.5,0.6,2.3
			c0,0.6-0.1,1.2-0.4,1.7c-0.2,0.6-0.6,1-1,1.5c-0.4,0.4-1,0.8-1.5,1c-0.3,0.1-0.7,0.2-0.9,0.3c-0.3,0-0.8,0.1-1.6,0.1H27.6z
			 M30.5,19.5h-1.6v6.7h1.7c0.6,0,1.2,0,1.5-0.1c0.4-0.1,0.7-0.2,0.9-0.3c0.2-0.1,0.5-0.3,0.7-0.5c0.6-0.6,1-1.5,1-2.5
			c0-1-0.3-1.8-1-2.4c-0.2-0.2-0.5-0.4-0.8-0.6c-0.3-0.1-0.6-0.2-0.9-0.3C31.6,19.6,31.1,19.5,30.5,19.5z"/>
		<path fill="#2E4B9F" d="M47.2,18.4h1.3v9.1h-1.3v-3.9h-5.1v3.9h-1.3v-9.1h1.3v3.9h5.1V18.4z"/>
		<path fill="#2E4B9F" d="M50.3,18.4h5.1v1.2h-3.8v2.8h3.7v1.2h-3.7v2.8h4v1.2h-5.3V18.4z"/>
		<path fill="#2E4B9F" d="M63.9,18.4h1.2v9.1H64l-6.1-7v7h-1.2v-9.1h1.1l6.1,7V18.4z"/>
		<path fill="#2E4B9F" d="M66.9,27.4v-9H70c1.2,0,2.2,0.2,2.9,0.6c0.7,0.4,1.3,0.9,1.7,1.6c0.4,0.7,0.6,1.5,0.6,2.3
			c0,0.6-0.1,1.2-0.4,1.7c-0.2,0.6-0.6,1-1,1.5c-0.4,0.4-1,0.8-1.5,1c-0.3,0.1-0.7,0.2-0.9,0.3c-0.3,0-0.8,0.1-1.6,0.1H66.9z
			 M69.8,19.5h-1.6v6.7h1.7c0.6,0,1.2,0,1.5-0.1c0.4-0.1,0.7-0.2,0.9-0.3c0.2-0.1,0.5-0.3,0.7-0.5c0.6-0.6,1-1.5,1-2.5
			c0-1-0.3-1.8-1-2.4c-0.2-0.2-0.5-0.4-0.8-0.6c-0.3-0.1-0.6-0.2-0.9-0.3C70.9,19.6,70.4,19.5,69.8,19.5z"/>
		<path fill="#2E4B9F" d="M76.6,18.4h5.1v1.2h-3.8v2.8h3.7v1.2h-3.7v2.8h4v1.2h-5.3V18.4z"/>
		<path fill="#2E4B9F" d="M83.1,27.4v-9.1h2.3c0.9,0,1.6,0.2,2.2,0.7c0.5,0.5,0.8,1.1,0.8,1.8c0,0.5-0.1,1-0.4,1.4
			c-0.3,0.4-0.6,0.7-1.1,0.9c0.3,0.2,0.6,0.4,0.8,0.8c0.3,0.3,0.7,0.9,1.2,1.7c0.3,0.5,0.6,0.9,0.8,1.2l0.5,0.6h-1.5l-0.4-0.6
			c0,0,0-0.1-0.1-0.1l-0.3-0.4l-0.4-0.7L87,25c-0.3-0.4-0.5-0.7-0.7-0.9c-0.2-0.2-0.4-0.4-0.6-0.5c-0.2-0.1-0.5-0.1-0.9-0.1h-0.3
			v3.9H83.1z M84.8,19.5h-0.4v2.9h0.5c0.7,0,1.1-0.1,1.4-0.2c0.2-0.1,0.4-0.3,0.6-0.5c0.1-0.2,0.2-0.5,0.2-0.8
			c0-0.3-0.1-0.5-0.2-0.8c-0.2-0.2-0.4-0.4-0.6-0.5C85.9,19.5,85.4,19.5,84.8,19.5z"/>
		<path fill="#2E4B9F" d="M93.2,23.6l-1-0.6c-0.6-0.4-1.1-0.7-1.3-1.1c-0.3-0.4-0.4-0.8-0.4-1.3c0-0.7,0.2-1.3,0.7-1.7
			c0.5-0.4,1.1-0.7,1.9-0.7c0.8,0,1.4,0.2,2.1,0.6v1.5c-0.7-0.6-1.4-0.9-2.1-0.9c-0.4,0-0.8,0.1-1,0.3c-0.3,0.2-0.4,0.4-0.4,0.8
			c0,0.3,0.1,0.5,0.3,0.8c0.2,0.2,0.5,0.5,1,0.7l1,0.6c1.1,0.7,1.7,1.5,1.7,2.5c0,0.7-0.2,1.3-0.7,1.8c-0.5,0.5-1.1,0.7-1.9,0.7
			c-0.9,0-1.7-0.3-2.4-0.8v-1.6c0.7,0.9,1.5,1.3,2.4,1.3c0.4,0,0.7-0.1,1-0.3c0.3-0.2,0.4-0.5,0.4-0.8
			C94.3,24.7,93.9,24.1,93.2,23.6z"/>
		<path fill="#2E4B9F" d="M101.2,18.2c1.4,0,2.6,0.4,3.5,1.3c0.9,0.9,1.4,2,1.4,3.3c0,1.3-0.5,2.4-1.4,3.3c-0.9,0.9-2.1,1.3-3.6,1.3
			c-1.4,0-2.5-0.4-3.4-1.3c-0.9-0.9-1.4-2-1.4-3.3c0-1.4,0.5-2.5,1.4-3.4C98.7,18.7,99.8,18.2,101.2,18.2z M101.3,19.5
			c-1,0-1.9,0.3-2.6,1c-0.7,0.6-1,1.5-1,2.5c0,1,0.3,1.8,1,2.4c0.7,0.6,1.5,1,2.5,1c1,0,1.9-0.3,2.5-1c0.7-0.7,1-1.5,1-2.5
			c0-1-0.3-1.8-1-2.4C103.1,19.8,102.3,19.5,101.3,19.5z"/>
		<path fill="#2E4B9F" d="M114.7,18.4h1.2v9.1h-1.1l-6.1-7v7h-1.2v-9.1h1.1l6.1,7V18.4z"/>
	</g>
</g>
<g>
	<g>
		<path fill="#2E4B9F" d="M0,55.6V31.3h8.2c3.3,0,5.9,0.5,7.8,1.5c1.9,1,3.5,2.4,4.6,4.4c1.1,1.9,1.7,4,1.7,6.3
			c0,1.6-0.3,3.2-0.9,4.7c-0.6,1.5-1.5,2.8-2.7,3.9c-1.2,1.2-2.6,2-4.1,2.6c-0.9,0.4-1.8,0.6-2.5,0.7c-0.8,0.1-2.2,0.2-4.4,0.2H0z
			 M7.8,34.4H3.5v18.1h4.5c1.7,0,3.1-0.1,4.1-0.4c1-0.2,1.8-0.5,2.4-0.9c0.6-0.4,1.2-0.8,1.8-1.3c1.7-1.7,2.6-3.9,2.6-6.6
			c0-2.6-0.9-4.7-2.6-6.4c-0.6-0.6-1.4-1.1-2.2-1.5c-0.8-0.4-1.6-0.7-2.4-0.8C10.7,34.5,9.5,34.4,7.8,34.4z"/>
		<path fill="#2E4B9F" d="M26.1,31.3h13.8v3.1H29.6v7.4h9.9v3.1h-9.9v7.5h10.6v3.1H26.1V31.3z"/>
		<path fill="#2E4B9F" d="M49.4,45.4l-2.6-1.6c-1.7-1-2.8-2-3.5-3c-0.7-1-1.1-2.1-1.1-3.4c0-1.9,0.7-3.5,2-4.7
			c1.3-1.2,3.1-1.8,5.2-1.8c2,0,3.9,0.6,5.6,1.7v3.9c-1.8-1.7-3.6-2.5-5.7-2.5c-1.1,0-2.1,0.3-2.8,0.8c-0.7,0.5-1.1,1.2-1.1,2
			c0,0.7,0.3,1.4,0.8,2c0.5,0.6,1.4,1.3,2.6,2l2.7,1.6c3,1.8,4.4,4,4.4,6.8c0,1.9-0.7,3.5-2,4.7c-1.3,1.2-3,1.8-5.1,1.8
			c-2.4,0-4.6-0.7-6.6-2.2v-4.4c1.9,2.4,4.1,3.6,6.5,3.6c1.1,0,2-0.3,2.7-0.9c0.7-0.6,1.1-1.4,1.1-2.3
			C52.6,48.2,51.6,46.8,49.4,45.4z"/>
		<path fill="#2E4B9F" d="M59.2,31.3h3.5v24.3h-3.5V31.3z"/>
		<path fill="#2E4B9F" d="M80.7,43.7h8.2V54c-3,1.3-6,1.9-8.9,1.9c-4,0-7.2-1.2-9.6-3.5c-2.4-2.3-3.6-5.2-3.6-8.7
			c0-3.6,1.2-6.6,3.7-9.1c2.5-2.4,5.6-3.6,9.4-3.6c1.4,0,2.7,0.1,3.9,0.4c1.2,0.3,2.8,0.8,4.7,1.6v3.5c-2.9-1.7-5.8-2.5-8.6-2.5
			c-2.7,0-4.9,0.9-6.7,2.7c-1.8,1.8-2.7,4-2.7,6.7c0,2.8,0.9,5,2.7,6.8c1.8,1.8,4.2,2.6,7,2.6c1.4,0,3.1-0.3,5-1l0.3-0.1v-5.1h-4.7
			V43.7z"/>
		<path fill="#2E4B9F" d="M112.7,31.3h3.3v24.3h-3L96.8,36.9v18.7h-3.3V31.3h2.8l16.4,18.9V31.3z"/>
	</g>
</g>
</svg>
